<?xml version="1.0" encoding="UTF-8" ?>
<!DOCTYPE svg PUBLIC "-//W3C//DTD SVG 1.1//EN" "http://www.w3.org/Graphics/SVG/1.1/DTD/svg11.dtd">
<svg width="350pt" height="131pt" viewBox="0 0 350 131" version="1.1" xmlns="http://www.w3.org/2000/svg">
<g id="#fffffeff">
</g>
<g id="#b1fc08ff">
<path fill="#b1fc08" opacity="1.00" d=" M 323.21 0.00 L 333.81 0.00 C 333.56 20.18 333.89 40.37 333.60 60.55 C 330.18 60.49 326.76 60.51 323.34 60.57 C 321.88 53.42 323.52 46.20 323.27 39.00 C 323.19 26.00 323.33 13.00 323.21 0.00 Z" />
<path fill="#b1fc08" opacity="1.00" d=" M 209.29 3.16 C 221.40 0.37 235.01 8.12 238.60 20.07 C 237.00 22.52 233.42 21.25 230.95 21.50 C 227.32 21.94 226.11 18.10 224.12 15.93 C 220.42 13.30 215.80 11.67 211.23 12.52 C 205.03 13.97 199.75 18.68 198.05 24.89 C 196.05 33.03 197.01 43.47 204.72 48.40 C 209.87 53.19 218.22 52.49 223.66 48.53 C 225.88 46.69 226.60 42.79 229.98 42.60 C 232.77 42.71 236.59 41.36 238.56 43.95 C 235.52 52.95 226.96 59.48 217.71 61.07 C 211.99 62.40 206.30 60.13 201.04 58.09 C 187.62 50.56 182.52 32.11 189.42 18.51 C 192.02 13.95 195.48 9.85 199.63 6.62 C 202.55 4.78 206.01 4.08 209.29 3.16 Z" />
<path fill="#b1fc08" opacity="1.00" d=" M 245.70 18.70 C 249.29 18.13 252.94 18.49 256.55 18.42 C 256.41 25.28 256.57 32.14 256.48 39.00 C 256.41 42.24 256.69 45.67 258.47 48.47 C 260.88 51.02 264.75 50.84 267.90 50.23 C 271.35 48.62 272.56 44.57 272.41 41.03 C 272.37 33.66 272.39 26.29 272.33 18.92 C 276.04 18.27 279.86 18.33 283.53 19.17 C 283.47 32.74 283.26 46.31 283.59 59.87 C 279.75 60.77 275.78 60.51 271.97 59.64 C 269.45 59.08 267.58 61.72 265.06 61.48 C 261.70 61.48 258.15 61.96 254.91 60.95 C 249.84 57.72 245.36 52.32 245.53 46.00 C 245.66 36.90 245.18 27.77 245.70 18.70 Z" />
<path fill="#b1fc08" opacity="1.00" d=" M 292.59 18.58 C 296.77 18.64 301.55 17.41 305.07 20.37 C 307.89 19.19 310.68 17.02 313.92 17.66 C 318.04 18.88 316.13 24.06 316.26 27.21 C 313.68 27.66 311.06 28.00 308.55 28.77 C 305.50 30.74 303.52 34.30 303.61 37.96 C 303.45 45.45 303.78 52.94 303.44 60.42 C 299.83 60.57 296.22 60.58 292.61 60.39 C 292.41 46.45 292.52 32.52 292.59 18.58 Z" />
</g>
<g id="#060807ff">
<path fill="#060807" opacity="1.00" d=" M 0.00 4.16 C 7.02 4.18 14.04 4.18 21.06 4.14 C 27.16 4.00 33.43 5.91 38.03 10.02 C 43.23 14.89 45.98 21.96 46.39 29.00 C 47.07 37.51 45.26 46.83 39.15 53.15 C 34.57 58.15 27.67 60.43 21.00 60.47 C 14.00 60.49 7.00 60.46 0.00 60.45 L 0.00 4.16 M 10.85 14.09 C 10.84 26.19 10.80 38.28 10.86 50.38 C 16.91 50.10 23.62 51.60 29.04 48.16 C 34.57 44.47 35.88 37.22 35.58 31.02 C 35.50 25.52 33.96 19.11 28.86 16.13 C 23.43 12.86 16.83 14.65 10.85 14.09 Z" />
<path fill="#060807" opacity="1.00" d=" M 63.01 20.06 C 69.91 16.12 79.09 16.79 85.49 21.43 C 92.54 26.37 94.95 35.55 94.11 43.75 C 83.55 43.72 72.98 43.72 62.42 43.76 C 63.92 49.28 69.83 53.10 75.46 51.62 C 78.26 51.13 80.32 49.11 82.06 47.02 C 85.81 47.19 89.56 47.12 93.32 47.10 C 90.35 58.65 76.41 64.25 65.71 60.11 C 58.53 57.51 53.11 50.84 51.80 43.34 C 50.04 34.26 54.83 24.36 63.01 20.06 M 62.57 34.89 C 69.55 34.88 76.52 34.87 83.50 34.92 C 82.10 30.64 78.36 27.07 73.66 27.12 C 68.61 26.52 64.08 30.24 62.57 34.89 Z" />
<path fill="#060807" opacity="1.00" d=" M 146.53 21.48 C 153.03 16.89 161.78 16.49 169.17 18.91 C 173.67 20.39 177.32 24.33 178.15 29.04 C 179.17 39.45 177.06 50.13 179.53 60.38 C 176.23 60.57 172.93 60.49 169.64 60.46 C 169.33 59.28 169.04 58.09 168.76 56.90 C 161.51 62.66 150.17 62.87 142.98 56.96 C 136.94 52.25 137.33 40.90 144.68 37.66 C 151.30 34.12 159.24 35.83 166.04 32.94 C 168.26 32.07 168.51 28.72 166.30 27.63 C 161.16 24.81 153.50 26.12 150.65 31.63 C 147.18 31.45 143.70 31.68 140.24 31.35 C 141.15 27.45 143.09 23.69 146.53 21.48 M 150.26 45.37 C 149.85 47.17 149.42 49.66 151.60 50.51 C 155.74 52.41 160.88 51.87 164.91 49.91 C 168.29 48.18 168.79 44.05 168.36 40.66 C 162.58 43.29 155.76 42.07 150.26 45.37 Z" />
<path fill="#060807" opacity="1.00" d=" M 93.81 18.61 C 97.56 18.55 101.31 18.62 105.06 18.57 C 108.84 28.67 111.47 39.20 115.63 49.14 C 119.08 38.95 122.43 28.73 125.92 18.55 C 129.65 18.62 133.39 18.56 137.12 18.64 C 131.77 32.53 126.53 46.46 121.32 60.40 C 117.40 60.50 113.48 60.44 109.56 60.54 C 104.58 46.47 98.99 32.61 93.81 18.61 Z" />
<path fill="#060807" opacity="1.00" d=" M 56.33 65.26 C 68.14 65.28 79.94 65.29 91.74 65.25 C 91.75 68.57 91.68 71.89 91.78 75.21 C 79.97 75.39 68.13 75.52 56.32 75.13 C 56.43 71.84 56.42 68.55 56.33 65.26 Z" />
<path fill="#060807" opacity="1.00" d=" M 330.81 69.66 C 334.79 69.32 338.78 69.72 342.76 69.61 C 343.65 72.14 344.52 74.68 345.44 77.20 C 346.54 74.09 347.59 70.87 350.00 68.48 L 350.00 80.77 C 349.28 78.36 348.97 75.86 348.63 73.38 C 347.58 75.66 346.62 77.98 345.31 80.12 C 344.28 77.66 343.37 75.15 342.23 72.74 C 342.08 75.26 342.04 77.79 341.73 80.30 C 339.82 77.32 340.81 73.64 340.78 70.34 C 339.73 70.53 337.63 70.91 336.58 71.10 C 336.41 74.17 337.33 77.63 335.37 80.30 C 334.91 77.34 334.91 74.34 334.90 71.35 C 333.43 71.06 331.97 70.64 330.81 69.66 Z" />
<path fill="#060807" opacity="1.00" d=" M 129.21 74.26 C 130.18 72.75 132.18 72.15 133.75 73.10 C 134.45 74.35 134.74 75.89 134.23 77.27 C 132.70 82.43 130.01 87.31 126.11 91.06 C 122.51 94.19 122.29 99.87 124.02 104.04 C 127.27 101.98 129.73 98.70 131.06 95.12 C 132.82 88.22 134.77 81.03 139.40 75.44 C 140.31 74.01 142.21 73.47 143.81 73.95 C 145.97 76.75 143.91 80.16 142.79 82.93 C 140.76 87.89 135.77 90.99 134.14 96.14 C 133.39 100.36 132.85 105.62 137.03 108.25 C 131.97 108.11 130.94 102.50 130.94 98.50 C 128.53 101.45 126.49 105.85 121.95 105.37 C 120.36 102.54 120.37 99.31 120.54 96.17 C 116.37 99.34 113.12 105.84 107.05 104.83 C 106.38 102.74 106.86 100.66 107.54 98.65 C 104.79 100.89 102.39 103.78 99.00 105.05 C 96.71 105.23 97.12 102.13 96.71 100.68 C 92.94 103.02 89.06 106.98 84.25 105.93 C 80.72 105.22 81.08 100.63 82.18 98.08 C 83.92 93.75 89.02 89.35 93.79 91.88 C 94.58 91.21 95.38 90.56 96.20 89.92 C 96.31 92.64 94.28 94.46 92.46 96.14 C 92.62 95.04 92.79 93.94 92.96 92.84 C 86.96 92.37 84.49 99.07 84.09 103.99 C 87.90 105.65 91.68 102.91 94.62 100.71 C 99.27 97.27 102.30 90.45 109.00 90.90 C 111.64 90.43 113.24 92.82 113.97 94.99 C 111.87 95.20 111.70 92.47 109.86 92.11 C 104.37 92.75 100.01 98.01 99.52 103.34 C 103.55 101.60 106.17 98.02 109.18 95.03 C 109.59 95.09 110.39 95.20 110.79 95.26 C 111.55 98.17 109.50 100.87 109.29 103.75 C 113.94 101.61 117.64 97.67 120.62 93.59 C 122.64 86.83 124.82 79.90 129.21 74.26 M 131.21 75.08 C 128.21 79.93 126.10 85.33 124.35 90.75 C 129.45 87.07 132.37 80.87 133.12 74.75 C 132.64 74.83 131.69 75.00 131.21 75.08 M 138.88 80.94 C 137.47 84.42 135.64 87.77 134.83 91.46 C 139.08 87.30 143.72 81.87 143.02 75.53 C 140.54 76.22 139.87 78.90 138.88 80.94 Z" />
<path fill="#060807" opacity="1.00" d=" M 232.72 73.66 C 234.00 71.77 237.71 72.68 237.41 75.17 C 236.66 82.30 231.96 88.16 227.20 93.20 C 225.66 96.52 225.33 100.71 227.06 104.06 C 230.75 101.34 233.77 97.36 234.62 92.78 C 236.19 86.11 238.67 79.37 243.35 74.23 C 244.53 73.95 245.74 73.80 246.97 73.78 C 248.55 77.32 246.71 80.90 245.11 84.04 C 243.10 88.22 239.10 91.07 237.33 95.39 C 235.98 99.72 235.44 105.59 240.02 108.21 C 234.93 108.16 233.93 102.67 233.79 98.67 C 231.33 101.25 229.55 105.98 225.17 105.13 C 222.63 102.83 223.71 99.09 223.50 96.11 C 220.25 98.98 217.59 102.68 213.60 104.61 C 212.30 105.47 210.79 104.60 209.45 104.38 C 209.55 102.63 209.76 100.89 209.94 99.15 C 207.13 101.24 204.80 104.48 201.17 105.10 C 198.94 103.67 199.73 100.62 200.66 98.64 C 202.98 94.21 207.63 90.12 212.96 90.93 C 215.14 90.99 217.32 93.60 215.68 95.58 C 215.11 94.00 214.18 91.79 212.09 92.18 C 207.02 93.27 202.75 98.12 202.57 103.33 C 206.89 101.56 209.13 97.16 212.90 94.80 C 215.49 97.19 212.20 100.75 212.03 103.63 C 215.11 102.97 217.16 100.40 219.37 98.38 C 221.16 96.49 223.47 94.79 224.07 92.12 C 225.75 85.53 228.32 78.94 232.72 73.66 M 234.22 75.13 C 230.90 79.99 229.02 85.67 226.99 91.16 C 232.22 87.34 235.31 81.00 236.03 74.65 C 235.58 74.77 234.67 75.01 234.22 75.13 M 237.67 91.39 C 241.33 88.32 244.21 84.26 245.69 79.70 C 245.90 78.46 246.97 75.83 245.03 75.58 C 241.38 80.13 239.62 85.95 237.67 91.39 Z" />
<path fill="#060807" opacity="1.00" d=" M 321.14 73.99 C 323.01 72.19 326.09 73.18 325.79 75.99 C 324.95 82.97 320.02 88.45 315.58 93.54 C 314.28 96.78 314.26 100.47 314.60 103.92 C 314.66 106.01 316.85 106.86 318.11 108.19 C 311.78 108.21 311.78 100.83 311.94 96.27 C 308.82 99.02 306.35 102.66 302.48 104.45 C 301.14 105.17 299.52 104.45 298.50 103.51 C 297.12 100.21 299.87 96.95 299.14 93.60 C 294.44 96.93 291.52 102.75 285.86 104.63 C 282.29 104.79 282.28 100.73 282.80 98.21 C 279.26 100.71 276.63 105.09 271.98 105.51 C 269.87 101.71 273.83 98.32 274.68 94.72 C 270.26 99.02 265.77 103.66 259.83 105.77 C 257.39 106.58 253.34 106.05 253.16 102.85 C 252.89 97.29 257.18 91.57 262.84 90.96 C 263.44 91.22 264.64 91.74 265.24 92.00 C 266.13 91.25 267.06 90.55 268.06 89.95 C 268.26 92.73 266.01 94.49 264.17 96.16 C 264.39 95.04 264.63 93.93 264.89 92.83 C 259.44 92.36 256.11 98.21 256.18 103.03 C 256.09 104.26 257.60 105.06 258.68 104.59 C 265.72 103.02 270.43 97.10 275.13 92.10 C 276.13 91.04 277.58 90.64 278.90 90.14 C 278.66 94.78 275.44 98.54 274.86 103.11 C 280.13 100.10 283.65 95.14 287.77 90.88 C 288.02 91.41 288.53 92.48 288.78 93.02 C 287.02 96.14 285.17 99.57 285.99 103.30 C 290.13 101.19 293.13 97.48 296.36 94.25 C 298.17 92.51 296.74 88.42 299.97 88.08 C 299.83 89.57 299.58 91.04 299.32 92.51 C 300.53 93.21 303.40 93.65 302.52 95.64 C 301.47 98.06 300.86 100.60 300.96 103.25 C 302.53 102.98 304.12 102.55 305.20 101.28 C 307.65 98.73 310.61 96.49 312.27 93.30 C 314.11 86.47 316.43 79.42 321.14 73.99 M 321.34 77.32 C 319.21 81.82 316.92 86.32 315.82 91.19 C 320.11 86.81 324.68 81.21 324.03 74.67 C 322.99 75.40 321.81 76.08 321.34 77.32 Z" />
<path fill="#060807" opacity="1.00" d=" M 147.21 84.05 C 147.39 81.48 147.41 77.81 150.90 77.81 C 150.16 80.11 149.62 82.90 147.21 84.05 Z" />
<path fill="#060807" opacity="1.00" d=" M 151.32 95.24 C 153.53 93.01 154.94 89.77 158.12 88.71 C 157.67 91.80 156.89 94.86 155.50 97.66 C 155.95 97.72 156.85 97.82 157.30 97.87 C 155.08 100.35 154.85 105.83 150.61 105.31 C 151.44 101.27 153.26 97.54 154.56 93.65 C 150.79 97.50 147.22 101.67 142.63 104.59 C 141.13 105.12 139.04 105.38 138.24 103.63 C 138.07 101.55 139.05 99.59 139.56 97.62 C 138.78 97.98 137.23 98.69 136.45 99.05 C 138.37 96.42 140.55 93.99 142.52 91.40 C 143.83 90.06 144.81 91.58 144.68 92.94 C 143.26 96.48 140.79 100.00 141.50 103.99 C 145.23 101.64 148.26 98.38 151.32 95.24 Z" />
<path fill="#060807" opacity="1.00" d=" M 316.88 98.32 C 322.94 97.79 325.24 91.06 330.34 88.68 C 329.44 92.74 327.94 96.79 328.39 101.02 C 330.35 99.92 332.18 98.56 334.26 97.67 C 332.23 101.35 327.76 102.24 324.80 104.95 C 320.44 106.74 317.41 102.04 316.88 98.32 M 320.59 99.13 C 320.72 101.49 323.46 100.88 325.07 101.40 C 325.64 98.78 326.10 96.14 326.43 93.47 C 324.39 95.26 322.46 97.17 320.59 99.13 M 320.24 101.92 C 319.69 103.79 323.71 104.96 324.19 102.93 C 323.64 101.50 321.45 101.36 320.24 101.92 Z" />
<path fill="#060807" opacity="1.00" d=" M 177.11 92.20 C 180.32 89.86 184.62 92.55 187.71 89.68 C 185.77 95.96 184.32 102.37 182.71 108.74 C 185.57 108.72 188.67 109.11 190.18 111.89 C 187.59 111.59 183.26 108.21 181.81 111.77 C 178.39 119.70 173.90 129.11 164.54 131.00 L 160.13 131.00 C 158.06 128.83 157.15 125.57 158.90 122.90 C 163.22 115.31 171.74 111.20 179.82 108.81 C 181.01 104.87 182.11 100.90 182.92 96.86 C 179.44 100.02 176.50 104.48 171.50 105.21 C 171.34 104.39 171.02 102.74 170.86 101.92 C 168.68 103.31 165.54 106.55 163.09 103.95 C 161.94 100.28 162.92 96.42 163.00 92.68 C 161.02 94.37 159.22 96.28 157.11 97.82 C 158.37 94.22 161.46 91.39 165.16 90.45 C 166.54 94.67 165.24 99.13 165.77 103.46 C 171.39 101.78 172.40 95.04 177.11 92.20 M 179.38 93.27 C 176.38 95.86 173.78 99.11 173.12 103.12 C 177.86 101.71 181.17 97.16 183.72 93.13 C 182.76 91.45 180.60 92.42 179.38 93.27 M 164.83 117.74 C 161.60 120.46 158.28 124.50 159.93 129.00 C 161.83 129.54 163.87 129.85 165.70 128.85 C 172.92 125.59 176.77 117.94 179.00 110.73 C 173.71 111.62 168.97 114.43 164.83 117.74 Z" />
</g>
</svg>
