<?xml version="1.0" encoding="UTF-8" ?>
<!DOCTYPE svg PUBLIC "-//W3C//DTD SVG 1.1//EN" "http://www.w3.org/Graphics/SVG/1.1/DTD/svg11.dtd">
<svg width="1083pt" height="201pt" viewBox="0 0 1083 201" version="1.1" xmlns="http://www.w3.org/2000/svg">
<g id="#ffffffff">
</g>
<g id="#48484aff">
<path fill="#48484a" opacity="1.00" d=" M 195.53 0.00 L 212.46 0.00 C 227.93 1.30 244.42 4.85 255.85 16.11 C 267.14 26.81 271.28 42.86 271.58 57.96 C 272.01 72.80 269.92 88.63 260.93 100.90 C 252.31 113.05 237.63 119.28 223.30 121.49 C 208.21 123.76 192.67 123.56 177.74 120.26 C 168.05 117.93 158.56 113.68 151.36 106.66 C 139.43 95.24 135.58 77.97 135.68 62.00 C 135.49 45.72 139.05 27.93 151.29 16.27 C 162.92 4.78 179.74 1.06 195.53 0.00 M 197.45 28.55 C 191.58 29.15 185.44 30.89 181.11 35.10 C 175.32 40.35 173.52 48.46 173.02 55.95 C 172.43 64.78 172.88 74.12 176.83 82.20 C 180.64 89.68 188.93 93.54 197.01 94.16 C 207.27 95.02 219.23 94.75 227.02 87.03 C 233.72 79.85 234.50 69.37 234.46 60.03 C 234.16 50.98 232.88 40.69 225.55 34.44 C 217.76 28.10 207.00 27.83 197.45 28.55 Z" />
<path fill="#48484a" opacity="1.00" d=" M 18.57 18.58 C 30.28 7.63 46.24 2.49 61.94 1.01 C 83.33 -0.73 105.32 1.89 125.09 10.52 C 122.24 19.24 118.04 27.43 114.78 35.99 C 105.41 33.66 96.23 30.28 86.52 29.64 C 74.34 28.74 61.26 29.27 50.43 35.51 C 42.36 40.01 37.79 49.01 36.85 57.97 C 35.89 67.17 36.42 77.22 41.91 85.04 C 46.78 92.16 55.11 95.96 63.39 97.42 C 75.10 99.26 87.25 98.91 98.59 95.27 C 98.83 90.27 98.72 85.26 98.74 80.25 C 91.24 80.25 83.72 80.43 76.22 80.14 C 76.31 72.32 76.27 64.49 76.19 56.67 C 94.00 56.77 111.84 56.45 129.66 56.93 C 129.45 76.43 129.55 95.93 129.61 115.43 C 114.21 118.84 98.78 122.62 82.96 123.38 C 70.01 123.73 56.90 123.63 44.25 120.55 C 31.27 117.69 18.44 111.51 10.25 100.72 C 4.03 92.94 1.40 83.07 0.00 73.38 L 0.00 58.55 C 1.30 43.64 7.18 28.64 18.57 18.58 Z" />
<path fill="#48484a" opacity="1.00" d=" M 278.31 2.14 C 291.09 1.91 303.89 1.86 316.67 2.17 C 316.43 32.24 316.55 62.32 316.61 92.39 C 333.64 92.48 350.69 92.56 367.72 92.34 C 367.79 101.82 367.70 111.29 367.77 120.76 C 337.97 120.70 308.16 120.76 278.35 120.72 C 278.49 81.20 278.57 41.66 278.31 2.14 Z" />
<path fill="#48484a" opacity="1.00" d=" M 375.80 2.00 C 395.88 2.00 415.96 1.97 436.04 2.01 C 452.47 2.38 469.21 8.21 480.81 20.17 C 490.99 30.35 496.19 44.76 496.47 59.02 C 497.02 72.77 493.40 86.97 484.93 97.98 C 475.84 109.68 461.98 117.13 447.48 119.63 C 439.75 121.23 431.83 120.64 424.00 120.73 C 407.96 120.76 391.93 120.68 375.90 120.78 C 375.51 81.20 375.72 41.59 375.80 2.00 M 413.94 29.27 C 413.55 50.63 413.83 72.00 413.80 93.37 C 420.52 93.49 427.24 93.50 433.96 93.38 C 441.50 93.21 449.34 90.10 453.81 83.81 C 459.78 75.58 460.56 64.83 459.60 55.02 C 458.54 46.71 455.29 37.73 447.65 33.32 C 437.52 27.15 425.15 29.89 413.94 29.27 Z" />
<path fill="#48484a" opacity="1.00" d=" M 485.65 2.04 C 497.66 2.02 509.69 1.81 521.71 2.17 C 528.51 22.32 536.29 42.15 543.41 62.20 C 544.32 60.36 544.99 58.41 545.49 56.42 C 550.28 38.28 555.20 20.17 560.02 2.03 C 572.18 2.07 584.35 1.76 596.49 2.19 C 601.33 22.32 607.03 42.25 612.41 62.25 C 617.25 51.42 620.69 39.99 624.94 28.91 C 628.36 19.95 631.54 10.91 634.89 1.93 C 646.73 2.05 658.57 1.98 670.42 2.00 C 666.68 14.17 662.07 26.06 657.97 38.11 C 648.20 65.64 638.64 93.24 628.86 120.76 C 619.12 120.48 609.27 121.22 599.60 120.40 C 594.06 101.53 588.80 82.56 583.26 63.69 C 581.73 57.74 579.62 51.96 578.40 45.94 C 576.39 50.44 575.47 55.31 574.01 59.99 C 568.32 80.26 562.20 100.41 556.70 120.72 C 546.88 120.78 537.06 120.72 527.25 120.73 C 513.49 81.13 499.48 41.62 485.65 2.04 Z" />
<path fill="#48484a" opacity="1.00" d=" M 675.32 2.17 C 702.81 1.82 730.32 1.99 757.81 2.08 C 757.71 10.69 757.77 19.30 757.79 27.92 C 743.08 28.14 728.37 27.95 713.66 28.01 C 713.53 34.94 713.35 41.88 713.75 48.81 C 725.71 48.79 737.71 48.30 749.65 49.04 C 749.49 57.65 749.47 66.25 749.68 74.85 C 737.68 75.22 725.67 74.90 713.68 75.02 C 713.53 81.61 713.35 88.22 713.76 94.80 C 729.92 94.61 746.08 94.66 762.23 94.76 C 762.24 103.43 762.49 112.11 762.10 120.77 C 733.18 120.69 704.26 120.77 675.35 120.73 C 675.50 81.21 675.55 41.68 675.32 2.17 Z" />
<path fill="#48484a" opacity="1.00" d=" M 770.19 2.09 C 783.00 1.97 795.83 1.83 808.65 2.17 C 808.51 32.23 808.51 62.30 808.64 92.36 C 825.63 92.54 842.63 92.49 859.62 92.38 C 859.48 101.83 859.43 111.29 859.65 120.74 C 829.85 120.75 800.05 120.70 770.26 120.77 C 770.18 81.21 770.32 41.65 770.19 2.09 Z" />
<path fill="#48484a" opacity="1.00" d=" M 867.32 2.17 C 880.10 1.85 892.91 1.91 905.69 2.14 C 905.43 32.21 905.51 62.29 905.65 92.35 C 922.68 92.53 939.71 92.52 956.74 92.36 C 956.77 101.83 956.75 111.30 956.76 120.78 C 926.95 120.68 897.15 120.77 867.34 120.73 C 867.50 81.21 867.54 41.68 867.32 2.17 Z" />
<path fill="#48484a" opacity="1.00" d=" M 356.49 170.72 C 363.04 169.57 369.92 173.56 372.26 179.77 C 374.45 185.48 373.50 192.65 369.07 197.06 C 364.78 201.69 357.81 200.20 352.21 199.91 C 343.86 196.81 340.93 185.64 345.23 178.24 C 347.31 173.91 351.89 171.43 356.49 170.72 M 354.40 176.46 C 347.26 179.93 348.00 191.73 354.87 195.14 C 358.21 196.80 362.77 196.10 365.21 193.18 C 368.06 189.32 368.00 183.63 365.32 179.69 C 363.05 176.18 358.22 174.53 354.40 176.46 Z" />
<path fill="#48484a" opacity="1.00" d=" M 278.58 171.67 C 283.75 171.15 289.43 170.24 294.25 172.76 C 299.50 175.59 299.95 183.71 295.48 187.47 C 292.50 190.54 287.89 189.99 284.01 190.06 C 284.01 193.40 284.00 196.74 283.97 200.09 C 282.19 200.07 280.42 200.08 278.65 200.11 C 278.40 190.64 278.50 181.15 278.58 171.67 M 283.99 175.72 C 283.98 179.12 283.98 182.51 284.12 185.91 C 287.31 185.87 290.61 185.34 292.76 182.72 C 292.56 181.11 292.94 179.29 292.08 177.85 C 290.01 175.64 286.77 175.76 283.99 175.72 Z" />
<path fill="#48484a" opacity="1.00" d=" M 311.12 171.31 C 316.20 171.27 321.62 170.34 326.42 172.54 C 330.51 174.48 332.03 180.03 329.84 183.90 C 328.73 185.44 327.24 186.64 326.00 188.07 C 328.09 192.32 331.58 195.72 333.55 200.06 C 331.46 200.11 329.34 200.38 327.29 199.91 C 324.95 197.06 323.29 193.75 321.21 190.72 C 320.37 188.97 318.15 189.79 316.66 189.57 C 316.51 193.03 316.52 196.50 316.64 199.97 C 314.77 200.02 312.89 200.09 311.03 200.17 C 311.02 190.55 310.86 180.93 311.12 171.31 M 316.65 175.55 C 316.52 178.79 316.52 182.04 316.64 185.28 C 318.69 185.22 320.77 185.32 322.81 184.96 C 325.23 183.24 325.90 179.37 323.89 177.11 C 321.93 175.33 319.08 175.70 316.65 175.55 Z" />
<path fill="#48484a" opacity="1.00" d=" M 386.35 171.30 C 391.71 171.57 397.09 171.37 402.47 171.49 C 402.55 172.92 402.64 174.36 402.75 175.79 C 399.10 176.07 395.43 176.02 391.78 176.00 C 391.73 178.59 391.76 181.18 391.91 183.77 C 395.01 183.70 398.11 183.71 401.22 183.77 C 401.23 185.26 401.24 186.75 401.25 188.25 C 397.98 188.27 394.73 188.27 391.47 188.32 C 391.77 192.23 391.76 196.15 391.54 200.06 C 389.84 200.03 388.15 200.03 386.46 200.06 C 386.15 190.48 386.37 180.88 386.35 171.30 Z" />
<path fill="#48484a" opacity="1.00" d=" M 450.49 172.44 C 454.50 169.56 460.26 170.39 464.09 173.20 C 464.41 174.85 463.28 176.36 462.88 177.92 C 460.48 176.63 457.69 174.45 454.88 175.82 C 452.51 176.68 452.31 180.42 454.50 181.56 C 457.12 183.33 460.21 184.31 462.73 186.24 C 467.21 189.62 465.90 197.79 460.80 199.86 C 455.91 200.54 450.70 200.71 446.10 198.64 C 446.27 196.71 446.57 194.80 446.92 192.89 C 449.85 194.63 453.17 197.41 456.79 196.06 C 459.19 195.43 459.87 192.34 458.60 190.43 C 455.56 187.99 451.30 187.32 448.74 184.25 C 445.79 180.82 446.67 174.86 450.49 172.44 Z" />
<path fill="#48484a" opacity="1.00" d=" M 483.29 171.25 C 487.32 169.83 491.57 171.14 495.12 173.18 C 494.44 174.60 494.42 176.52 493.08 177.50 C 490.67 176.50 488.23 174.88 485.50 175.55 C 483.82 176.52 482.52 179.18 484.13 180.79 C 487.26 183.53 491.78 184.24 494.59 187.42 C 496.81 190.73 496.40 195.65 493.54 198.47 C 490.95 200.78 487.18 200.18 484.00 200.28 C 481.31 200.38 478.75 199.64 476.51 198.19 C 476.79 196.43 477.05 194.66 477.32 192.90 C 480.22 194.59 483.33 197.17 486.92 196.21 C 489.52 195.76 490.83 192.04 488.76 190.24 C 485.42 187.54 480.24 186.89 478.29 182.68 C 476.06 178.35 478.66 172.62 483.29 171.25 Z" />
<path fill="#48484a" opacity="1.00" d=" M 538.35 171.45 C 543.04 170.03 548.59 170.46 552.56 173.53 C 559.85 179.08 560.35 191.40 553.57 197.54 C 549.18 201.60 542.59 200.19 537.18 199.89 C 529.23 197.15 526.44 186.88 529.57 179.61 C 531.01 175.70 534.45 172.75 538.35 171.45 M 539.38 176.47 C 534.00 178.94 533.21 186.37 535.81 191.13 C 537.91 195.46 543.82 197.44 548.02 194.98 C 551.83 192.90 552.78 187.91 552.10 183.94 C 551.43 178.23 544.80 173.66 539.38 176.47 Z" />
<path fill="#48484a" opacity="1.00" d=" M 571.38 171.79 C 572.60 171.70 574.29 170.37 575.28 171.66 C 580.94 177.82 586.23 184.32 591.92 190.44 C 592.08 184.07 591.74 177.70 592.18 171.33 C 593.72 171.35 595.28 171.35 596.84 171.33 C 597.16 180.98 596.99 190.64 596.96 200.30 C 595.30 199.95 593.21 200.51 592.07 198.95 C 586.61 193.13 581.54 186.94 576.26 180.96 C 576.28 187.33 576.36 193.70 576.23 200.07 C 574.63 200.05 573.05 200.05 571.46 200.08 C 571.15 190.65 571.33 181.22 571.38 171.79 Z" />
<path fill="#48484a" opacity="1.00" d=" M 620.46 171.20 C 622.21 171.09 623.96 171.04 625.72 171.02 C 629.21 180.86 633.90 190.23 637.41 200.06 C 635.63 200.11 633.87 200.24 632.10 200.16 C 630.19 198.03 629.67 195.02 628.57 192.44 C 624.82 192.50 621.08 192.52 617.34 192.42 C 616.34 194.76 615.50 197.17 614.39 199.45 C 612.85 200.69 610.66 199.88 608.87 200.05 C 612.34 190.28 617.13 181.02 620.46 171.20 M 618.93 188.65 C 621.59 188.52 624.27 188.52 626.94 188.65 C 625.51 185.46 624.87 181.88 622.95 178.94 C 620.99 181.87 620.20 185.40 618.93 188.65 Z" />
<path fill="#48484a" opacity="1.00" d=" M 649.14 171.32 C 650.96 171.38 652.79 171.41 654.62 171.41 C 654.52 179.39 654.48 187.38 654.63 195.36 C 658.70 195.49 662.78 195.50 666.86 195.32 C 666.81 196.85 666.73 198.38 666.67 199.91 C 660.80 200.44 654.90 200.21 649.03 200.06 C 649.01 190.48 648.86 180.90 649.14 171.32 Z" />
<path fill="#48484a" opacity="1.00" d=" M 700.63 172.02 C 702.10 170.96 704.12 171.53 705.83 171.23 C 706.10 175.20 706.01 179.17 706.02 183.15 C 710.52 183.25 715.05 183.52 719.53 182.88 C 719.25 179.12 719.27 175.34 719.41 171.57 C 721.12 171.56 722.83 171.56 724.56 171.58 C 724.75 181.07 724.79 190.57 724.55 200.06 C 722.84 200.04 721.14 200.04 719.45 200.06 C 719.22 196.09 719.21 192.10 719.51 188.13 C 715.04 187.44 710.51 187.78 706.02 187.82 C 706.01 191.91 706.01 196.00 705.97 200.09 C 704.19 200.08 702.42 200.08 700.66 200.11 C 700.48 190.75 700.44 181.38 700.63 172.02 Z" />
<path fill="#48484a" opacity="1.00" d=" M 748.34 171.11 C 750.07 171.06 751.82 171.07 753.56 171.16 C 756.93 180.97 761.58 190.28 765.12 200.04 C 763.16 200.08 761.17 200.35 759.25 199.89 C 758.00 197.61 757.34 195.08 756.23 192.75 C 752.50 192.32 748.50 192.12 744.86 192.84 C 743.72 195.17 743.08 197.72 741.78 199.97 C 740.04 200.16 738.28 200.11 736.56 200.11 C 739.98 190.26 744.76 180.91 748.34 171.11 M 746.76 188.34 C 749.31 188.44 751.87 188.45 754.43 188.38 C 753.30 185.09 752.08 181.83 750.74 178.62 C 749.12 181.73 747.83 185.00 746.76 188.34 Z" />
<path fill="#48484a" opacity="1.00" d=" M 798.50 171.60 C 803.66 171.27 809.32 170.15 814.10 172.78 C 818.43 174.83 819.41 180.98 816.80 184.74 C 815.70 185.94 814.38 186.88 813.21 187.99 C 815.74 192.06 818.76 195.82 821.13 199.99 C 818.95 199.89 816.38 200.88 814.45 199.68 C 812.02 196.55 810.32 192.93 807.86 189.83 C 806.58 189.60 805.30 189.51 804.02 189.56 C 804.00 193.07 804.00 196.58 803.97 200.09 C 802.14 200.06 800.31 200.07 798.50 200.09 C 798.23 190.60 798.22 181.09 798.50 171.60 M 803.99 175.55 C 803.99 178.78 803.99 182.01 804.00 185.25 C 805.96 185.24 807.93 185.29 809.90 185.10 C 812.51 183.61 813.47 179.87 811.57 177.44 C 809.64 175.36 806.55 175.67 803.99 175.55 Z" />
<path fill="#48484a" opacity="1.00" d=" M 835.50 174.50 C 840.82 169.64 849.18 169.67 855.24 173.16 C 854.42 174.75 853.57 176.32 852.73 177.90 C 849.37 176.42 845.36 175.00 841.87 176.88 C 835.44 180.02 835.26 190.18 840.95 194.17 C 844.28 196.57 848.76 195.90 852.30 194.33 C 854.05 193.46 854.30 196.11 854.86 197.16 C 855.76 198.71 853.69 199.32 852.65 199.73 C 848.27 200.54 843.71 200.49 839.32 199.83 C 829.58 195.78 828.05 181.42 835.50 174.50 Z" />
<path fill="#48484a" opacity="1.00" d=" M 876.94 170.89 C 878.52 170.96 880.12 171.03 881.72 171.11 C 885.28 180.89 889.97 190.23 893.43 200.05 C 891.63 200.11 889.86 200.25 888.09 200.17 C 886.16 198.05 885.73 194.99 884.59 192.42 C 880.83 192.50 877.06 192.55 873.31 192.41 C 872.14 194.92 871.65 197.90 869.79 200.00 C 868.14 200.18 866.49 200.08 864.85 200.05 C 868.58 190.22 872.97 180.64 876.94 170.89 M 874.97 188.62 C 877.63 188.52 880.29 188.52 882.96 188.66 C 881.53 185.47 880.89 181.87 878.97 178.95 C 877.13 181.93 876.24 185.37 874.97 188.62 Z" />
<path fill="#48484a" opacity="1.00" d=" M 904.28 171.36 C 909.57 171.23 915.28 170.21 920.18 172.82 C 923.90 174.73 925.09 179.76 923.49 183.44 C 922.74 185.47 920.60 186.40 919.26 187.97 C 921.74 192.07 924.65 195.89 927.10 200.02 C 924.91 199.97 922.50 200.66 920.46 199.68 C 917.90 196.47 916.10 192.74 913.64 189.45 C 912.49 189.41 911.35 189.36 910.22 189.30 C 909.94 192.91 909.99 196.53 909.97 200.15 C 908.04 200.11 906.13 200.08 904.22 200.07 C 904.29 190.50 904.20 180.93 904.28 171.36 M 910.25 175.18 C 909.94 178.52 909.97 181.87 910.00 185.23 C 911.94 185.18 913.93 185.40 915.86 184.99 C 918.81 183.63 919.56 179.07 917.03 176.96 C 915.07 175.53 912.52 175.60 910.25 175.18 Z" />
<path fill="#48484a" opacity="1.00" d=" M 938.97 171.33 C 944.45 171.55 949.95 171.36 955.45 171.50 C 955.52 172.93 955.63 174.37 955.75 175.80 C 951.91 176.07 948.06 176.02 944.23 176.07 C 944.27 178.35 944.27 180.64 944.22 182.94 C 947.59 182.99 950.96 182.99 954.34 182.96 C 954.22 184.52 954.12 186.09 953.99 187.65 C 950.72 187.48 947.45 187.48 944.19 187.73 C 944.27 190.40 944.29 193.08 944.28 195.76 C 948.56 195.71 952.85 195.70 957.15 195.74 C 957.06 197.18 956.98 198.63 956.91 200.08 C 950.87 200.29 944.83 200.26 938.80 200.06 C 938.75 190.49 938.45 180.89 938.97 171.33 Z" />
<path fill="#48484a" opacity="1.00" d=" M 416.60 171.60 C 422.15 171.45 427.71 171.46 433.26 171.61 C 433.25 173.07 433.23 174.54 433.21 176.01 C 429.48 176.00 425.75 176.01 422.02 176.01 C 422.04 178.32 422.04 180.62 422.07 182.93 C 425.40 183.00 428.73 182.99 432.06 183.01 C 431.98 184.56 431.91 186.12 431.82 187.68 C 428.56 187.49 425.29 187.50 422.04 187.64 C 422.03 190.35 422.02 193.05 422.09 195.76 C 426.47 195.70 430.85 195.69 435.23 195.81 C 434.70 197.30 435.41 200.35 432.95 200.09 C 427.51 200.43 422.06 200.16 416.62 200.06 C 416.42 190.58 416.47 181.08 416.60 171.60 Z" />
<path fill="#48484a" opacity="1.00" d=" M 509.14 171.66 C 511.04 171.54 512.95 171.54 514.86 171.66 C 514.62 181.13 514.74 190.60 514.76 200.07 C 512.91 200.11 511.07 200.11 509.24 200.08 C 509.26 190.60 509.37 181.13 509.14 171.66 Z" />
<path fill="#48484a" opacity="1.00" d=" M 776.60 171.57 C 778.40 171.53 780.21 171.52 782.02 171.55 C 781.98 181.07 782.03 190.59 781.98 200.11 C 780.19 200.08 778.41 200.08 776.64 200.11 C 776.40 190.60 776.47 181.08 776.60 171.57 Z" />
</g>
<g id="#96001dff">
<path fill="#96001d" opacity="1.00" d=" M 964.80 1.93 C 1004.20 1.91 1043.60 1.90 1083.00 1.93 L 1083.00 120.68 C 1043.63 120.58 1004.27 120.57 964.90 120.68 C 964.54 81.10 964.75 41.51 964.80 1.93 Z" />
</g>
</svg>
