<?xml version="1.0" encoding="UTF-8" ?>
<!DOCTYPE svg PUBLIC "-//W3C//DTD SVG 1.1//EN" "http://www.w3.org/Graphics/SVG/1.1/DTD/svg11.dtd">
<svg width="800pt" height="282pt" viewBox="0 0 800 282" version="1.1" xmlns="http://www.w3.org/2000/svg">
<g id="#ffffffff">
</g>
<g id="#426d3dff">
<path fill="#426d3d" opacity="1.00" d=" M 266.43 11.34 C 268.53 9.93 271.02 7.44 273.68 9.14 C 278.45 11.30 276.94 20.63 271.08 19.62 C 266.40 20.09 266.16 14.67 266.43 11.34 Z" />
<path fill="#426d3d" opacity="1.00" d=" M 693.72 38.60 C 702.16 28.52 720.37 27.51 728.44 38.56 C 733.43 45.75 734.93 54.99 734.19 63.58 C 721.78 63.52 709.38 63.61 696.98 63.53 C 695.42 63.69 693.65 63.20 692.28 64.10 C 691.91 72.10 693.41 80.90 699.04 86.95 C 707.16 94.69 719.98 93.70 729.53 89.37 C 730.07 91.07 730.89 92.76 730.76 94.60 C 726.69 97.21 721.67 97.47 717.03 98.25 C 708.92 98.93 699.76 97.20 694.14 90.84 C 688.02 84.58 685.33 75.63 685.42 67.02 C 685.03 57.05 687.16 46.41 693.72 38.60 M 700.33 40.32 C 695.18 44.82 692.88 51.64 692.31 58.28 C 704.10 58.25 715.91 58.58 727.69 58.10 C 727.88 49.96 724.94 40.60 716.86 37.19 C 711.36 35.51 704.44 35.78 700.33 40.32 Z" />
</g>
<g id="#426e3cff">
<path fill="#426e3c" opacity="1.00" d=" M 655.44 20.19 C 657.42 19.46 659.43 18.82 661.45 18.15 C 661.64 22.72 661.61 27.30 661.51 31.87 C 667.15 32.62 672.85 32.17 678.52 32.33 C 678.50 33.98 678.49 35.63 678.51 37.29 C 672.93 37.68 667.32 37.50 661.73 37.45 C 661.31 51.29 661.66 65.15 661.56 78.99 C 661.61 83.78 662.22 89.83 667.18 92.11 C 670.40 93.01 673.85 92.30 677.17 92.38 C 677.25 93.96 677.32 95.55 677.39 97.14 C 672.37 98.31 666.81 99.39 662.05 96.74 C 657.09 94.23 655.52 88.21 655.43 83.07 C 655.26 67.92 655.46 52.76 655.34 37.60 C 651.98 37.51 648.63 37.48 645.28 37.52 C 645.26 35.78 645.24 34.04 645.22 32.30 C 648.56 32.33 651.90 32.28 655.24 32.06 C 655.41 28.11 655.33 24.15 655.44 20.19 Z" />
</g>
<g id="#f8b136ff">
<path fill="#f8b136" opacity="1.00" d=" M 132.09 26.08 C 133.31 24.15 135.03 20.92 137.75 21.82 C 141.80 28.18 145.28 34.93 147.62 42.12 C 152.41 39.71 155.22 34.78 159.88 32.13 C 163.30 29.79 166.61 27.29 169.92 24.79 C 170.34 28.73 170.60 33.27 174.65 35.22 C 176.81 33.63 179.01 32.11 181.20 30.59 C 184.25 33.96 186.14 39.10 190.92 40.34 C 191.56 40.42 192.83 40.58 193.47 40.66 C 191.48 46.46 188.83 52.29 189.45 58.59 L 189.51 59.58 C 188.94 58.79 188.35 58.00 187.76 57.23 C 187.73 54.97 187.72 52.72 187.69 50.46 C 183.55 52.13 180.87 55.82 177.25 58.20 C 173.27 59.66 168.94 59.73 164.82 60.60 C 164.33 58.99 164.48 56.97 163.26 55.71 C 161.41 55.31 159.51 55.38 157.63 55.33 C 156.88 54.30 156.14 53.26 155.41 52.21 C 152.21 56.40 150.44 61.48 147.02 65.52 C 145.66 63.04 144.34 60.54 143.05 58.02 C 140.04 60.61 137.06 63.56 133.14 64.66 C 131.38 63.15 130.24 61.09 129.00 59.17 C 127.66 61.64 126.27 64.08 124.80 66.47 C 122.07 62.50 119.93 58.17 117.72 53.90 C 114.57 55.25 111.06 56.10 108.40 58.35 C 108.27 59.74 108.32 61.13 108.34 62.52 C 103.32 61.55 97.68 61.90 93.53 58.43 C 90.84 56.70 90.63 53.24 89.17 50.67 C 87.54 50.19 85.84 50.37 84.17 50.31 L 84.27 51.52 C 84.35 54.67 84.26 57.82 84.06 60.97 L 83.14 61.10 C 83.42 58.40 83.81 55.65 83.32 52.96 C 82.23 49.33 79.33 46.15 79.66 42.18 C 80.82 41.46 82.05 40.87 83.27 40.25 C 85.41 37.18 87.25 33.85 87.87 30.11 C 92.35 31.16 96.28 33.66 100.60 35.15 C 100.63 31.70 100.64 28.24 100.88 24.80 C 110.34 30.37 116.83 39.94 126.51 45.13 C 128.64 38.86 129.45 32.16 132.09 26.08 Z" />
</g>
<g id="#e0b771ff">
<path fill="#e0b771" opacity="1.00" d=" M 159.88 32.13 C 162.26 27.25 167.22 23.87 172.52 22.95 C 172.61 25.88 172.64 28.81 172.78 31.74 C 176.85 30.66 180.69 26.96 185.12 28.68 C 185.34 33.29 187.40 37.37 190.92 40.34 C 186.14 39.10 184.25 33.96 181.20 30.59 C 179.01 32.11 176.81 33.63 174.65 35.22 C 170.60 33.27 170.34 28.73 169.92 24.79 C 166.61 27.29 163.30 29.79 159.88 32.13 Z" />
</g>
<g id="#416d3bff">
<path fill="#416d3b" opacity="1.00" d=" M 294.50 35.41 C 298.37 32.46 303.37 31.66 308.04 30.80 C 314.49 30.08 321.82 31.68 326.12 36.88 C 329.97 41.27 330.97 47.34 331.25 52.98 C 331.41 67.56 330.78 82.16 331.75 96.72 C 329.93 96.73 328.11 96.75 326.29 96.76 C 325.84 94.16 325.50 91.55 325.13 88.94 C 322.79 91.29 320.66 93.94 317.81 95.69 C 310.91 99.59 301.59 99.68 295.22 94.67 C 290.91 91.17 289.07 85.42 289.45 80.00 C 288.95 73.08 292.73 66.21 298.67 62.71 C 306.40 57.66 315.90 57.27 324.82 56.70 C 324.46 50.95 324.73 44.13 320.06 39.92 C 316.11 36.07 310.21 36.02 305.10 36.76 C 301.48 37.60 298.23 39.69 294.47 39.95 C 294.45 38.44 294.36 36.92 294.50 35.41 M 304.06 65.93 C 297.71 69.15 294.48 77.17 296.47 83.93 C 297.31 88.82 301.86 93.07 306.97 92.71 C 315.52 93.58 323.63 86.39 324.55 78.00 C 324.98 72.78 324.71 67.54 324.66 62.31 C 317.70 62.36 310.38 62.70 304.06 65.93 Z" />
</g>
<g id="#3f6e3aff">
<path fill="#3f6e3a" opacity="1.00" d=" M 369.67 31.62 C 376.53 29.47 384.78 30.81 389.92 36.05 C 394.53 40.74 396.62 47.46 396.60 53.95 C 396.65 68.20 396.55 82.45 396.63 96.71 C 394.54 96.71 392.44 96.71 390.36 96.72 C 390.35 83.15 390.45 69.58 390.33 56.01 C 390.06 50.20 388.78 43.84 384.29 39.76 C 378.91 34.88 370.23 35.58 364.63 39.73 C 358.67 44.13 356.80 51.92 356.65 58.96 C 356.62 71.57 356.65 84.17 356.65 96.78 C 354.59 96.74 352.53 96.78 350.48 96.77 C 350.46 75.27 350.79 53.77 350.22 32.27 C 352.13 32.29 354.04 32.30 355.96 32.32 C 356.32 35.28 356.41 38.27 356.56 41.24 C 359.93 36.91 364.14 32.86 369.67 31.62 Z" />
</g>
<g id="#426d3eff">
<path fill="#426d3e" opacity="1.00" d=" M 417.31 42.23 C 423.40 31.16 439.40 27.14 449.96 34.05 C 459.05 40.68 461.14 52.97 460.51 63.52 C 446.46 63.60 432.40 63.52 418.35 63.60 C 417.74 73.02 420.20 83.83 428.49 89.42 C 436.37 94.56 446.62 92.87 454.97 89.81 C 457.36 90.56 457.82 95.32 454.88 95.68 C 445.39 98.85 434.22 100.06 425.22 94.80 C 417.32 90.51 413.25 81.61 412.05 73.05 C 410.58 62.60 411.79 51.40 417.31 42.23 M 426.39 40.40 C 421.44 44.97 418.96 51.70 418.38 58.30 C 430.15 58.28 441.93 58.51 453.69 58.16 C 454.05 51.11 452.02 43.28 446.11 38.89 C 440.27 34.87 431.51 35.41 426.39 40.40 Z" />
</g>
<g id="#416d3cff">
<path fill="#416d3c" opacity="1.00" d=" M 521.52 31.39 C 528.62 29.52 536.03 31.19 542.78 33.62 C 542.18 35.65 541.52 37.66 540.92 39.69 C 535.05 37.12 528.43 35.42 522.06 37.04 C 516.34 38.58 511.21 42.46 508.54 47.79 C 503.98 56.13 503.34 66.26 505.77 75.35 C 507.70 82.93 513.50 89.58 521.10 91.82 C 527.74 93.90 534.60 91.72 540.93 89.60 C 541.69 91.30 542.13 93.11 542.61 94.91 C 534.73 97.86 525.90 99.91 517.66 97.12 C 508.07 94.47 501.04 85.74 499.06 76.19 C 496.47 66.45 497.64 55.88 501.79 46.75 C 505.47 38.85 513.03 33.14 521.52 31.39 Z" />
</g>
<g id="#416d3dff">
<path fill="#416d3d" opacity="1.00" d=" M 556.73 35.17 C 564.76 30.41 575.33 28.77 583.90 33.11 C 590.65 36.68 593.00 44.88 593.39 51.99 C 593.54 66.93 593.24 81.87 593.72 96.81 C 591.81 96.71 589.91 96.63 588.02 96.47 C 587.82 94.15 587.71 91.82 587.49 89.51 C 584.14 92.72 580.63 96.05 576.02 97.29 C 569.09 99.74 560.28 98.42 555.47 92.53 C 552.27 89.24 551.25 84.45 551.44 80.00 C 551.20 72.89 555.25 65.95 561.38 62.40 C 568.95 57.52 578.24 57.38 586.92 56.64 C 586.85 50.22 586.56 42.29 580.45 38.50 C 573.41 34.24 564.52 36.87 557.73 40.42 C 557.31 38.73 555.87 36.93 556.73 35.17 M 564.81 66.83 C 556.18 71.98 555.55 87.35 564.93 92.01 C 571.69 94.25 579.88 91.90 583.77 85.74 C 588.67 78.89 586.26 70.10 586.72 62.28 C 579.27 62.39 571.28 62.71 564.81 66.83 Z" />
</g>
<g id="#406d3dff">
<path fill="#406d3d" opacity="1.00" d=" M 627.65 32.75 C 630.50 31.35 633.71 30.36 636.92 30.65 C 638.61 32.10 638.26 34.75 637.70 36.68 C 634.34 37.58 630.58 37.37 627.71 39.62 C 621.74 43.99 619.11 51.83 619.30 59.02 C 619.31 71.56 619.18 84.11 619.38 96.65 C 617.07 96.69 614.76 96.71 612.46 96.70 C 612.49 75.22 612.62 53.75 612.28 32.27 C 614.27 32.30 616.26 32.31 618.26 32.31 C 618.38 35.64 618.36 38.98 618.47 42.31 C 621.29 38.93 623.83 35.10 627.65 32.75 Z" />
</g>
<g id="#3f6e3bff">
<path fill="#3f6e3b" opacity="1.00" d=" M 755.53 42.26 C 759.07 35.23 766.34 29.63 774.56 30.70 C 774.55 32.74 774.55 34.78 774.58 36.82 C 771.18 37.41 767.46 37.31 764.59 39.52 C 758.21 43.73 756.13 51.75 755.71 58.95 C 755.62 71.55 755.77 84.15 755.65 96.75 C 753.54 96.76 751.43 96.75 749.33 96.75 C 749.07 75.26 749.88 53.74 748.68 32.29 C 750.63 32.29 752.59 32.28 754.56 32.28 C 754.60 35.63 755.08 38.94 755.53 42.26 Z" />
</g>
<g id="#406f3aff">
<path fill="#406f3a" opacity="1.00" d=" M 268.25 32.24 C 270.37 32.27 272.49 32.28 274.62 32.29 C 274.46 54.21 274.63 76.13 274.53 98.05 C 274.53 104.69 273.21 111.67 269.02 117.01 C 265.07 122.01 258.72 124.79 252.39 124.81 C 252.35 123.07 252.29 121.33 252.26 119.60 C 256.73 118.65 261.52 117.16 264.26 113.22 C 267.25 108.75 267.61 103.15 267.72 97.93 C 268.01 76.03 267.34 54.12 268.25 32.24 Z" />
<path fill="#406f3a" opacity="1.00" d=" M 459.06 139.74 C 461.23 139.78 463.40 139.73 465.56 139.84 C 465.65 153.23 465.58 166.62 465.61 180.01 C 465.80 185.28 466.75 190.79 469.70 195.27 C 473.60 200.82 481.59 201.96 487.59 199.49 C 492.71 197.24 497.00 192.90 498.67 187.50 C 499.70 184.44 499.57 181.17 499.58 177.99 C 499.50 165.38 499.67 152.77 499.47 140.16 C 501.53 139.92 503.61 139.78 505.69 139.71 C 506.46 145.78 506.17 151.90 506.21 158.00 C 506.21 173.61 506.01 189.23 506.72 204.83 C 504.64 204.80 502.57 204.78 500.51 204.76 C 500.41 201.95 500.30 199.15 500.08 196.36 C 496.87 199.02 494.12 202.36 490.23 204.09 C 483.87 207.02 476.09 207.26 469.78 204.08 C 464.04 200.90 460.74 194.57 459.69 188.27 C 458.29 177.57 458.86 166.76 458.76 156.00 C 458.83 150.58 458.47 145.14 459.06 139.74 Z" />
</g>
<g id="#fdfefcff">
</g>
<g id="#fcfefcff">
</g>
<g id="#f39c34ff">
<path fill="#f39c34" opacity="1.00" d=" M 84.17 50.31 C 85.84 50.37 87.54 50.19 89.17 50.67 C 90.63 53.24 90.84 56.70 93.53 58.43 C 97.68 61.90 103.32 61.55 108.34 62.52 C 108.32 61.13 108.27 59.74 108.40 58.35 C 111.06 56.10 114.57 55.25 117.72 53.90 C 119.93 58.17 122.07 62.50 124.80 66.47 C 126.27 64.08 127.66 61.64 129.00 59.17 C 130.24 61.09 131.38 63.15 133.14 64.66 C 137.06 63.56 140.04 60.61 143.05 58.02 C 144.34 60.54 145.66 63.04 147.02 65.52 C 150.44 61.48 152.21 56.40 155.41 52.21 C 156.14 53.26 156.88 54.30 157.63 55.33 C 159.51 55.38 161.41 55.31 163.26 55.71 C 164.48 56.97 164.33 58.99 164.82 60.60 C 168.94 59.73 173.27 59.66 177.25 58.20 C 180.87 55.82 183.55 52.13 187.69 50.46 C 187.72 52.72 187.73 54.97 187.76 57.23 C 188.35 58.00 188.94 58.79 189.51 59.58 C 189.57 59.98 189.70 60.77 189.76 61.16 C 188.68 60.63 187.60 60.10 186.53 59.56 C 185.82 62.83 184.91 66.05 183.87 69.23 C 185.76 69.46 187.82 69.27 189.58 70.13 C 190.14 71.35 190.52 72.65 190.93 73.93 C 194.48 73.76 198.04 73.37 201.60 73.60 C 201.57 76.62 200.67 79.53 199.84 82.41 C 202.28 82.30 204.71 82.19 207.15 82.11 C 206.79 84.28 206.42 86.44 206.04 88.59 C 201.09 89.00 196.24 90.29 191.83 92.59 C 194.05 96.05 197.02 99.07 201.16 100.04 C 201.60 100.90 202.04 101.77 202.48 102.63 C 203.96 102.91 205.45 103.18 206.94 103.41 C 200.04 104.66 193.01 105.01 186.07 106.02 C 182.99 106.47 179.51 106.12 177.15 103.89 C 176.28 102.02 175.92 99.97 175.42 97.98 C 175.35 97.68 175.21 97.08 175.14 96.78 C 173.74 95.67 172.27 94.66 170.89 93.54 C 171.61 92.57 172.34 91.62 173.13 90.71 C 178.96 89.85 184.99 90.34 190.67 88.62 C 192.61 88.05 193.93 86.42 195.36 85.11 C 187.41 86.11 179.70 88.83 171.60 88.52 C 170.88 88.55 169.43 88.61 168.71 88.64 C 175.48 85.30 182.48 82.47 189.29 79.21 C 188.93 78.67 188.20 77.57 187.83 77.02 C 182.12 79.36 176.69 82.39 170.71 84.02 C 172.79 79.88 176.17 76.00 175.63 71.06 C 178.41 67.80 181.40 64.60 183.08 60.60 C 181.00 60.04 179.09 61.29 177.29 62.14 C 172.88 64.44 168.40 67.11 163.29 67.28 C 159.49 67.40 155.62 67.59 152.13 69.24 C 151.56 67.70 150.97 66.16 150.38 64.63 C 149.02 67.05 147.99 69.64 147.21 72.30 C 145.40 72.75 143.58 73.16 141.77 73.60 C 141.46 71.90 141.15 70.20 140.85 68.50 C 139.15 69.07 137.45 69.63 135.75 70.20 C 134.29 69.44 132.83 68.67 131.37 67.92 C 131.39 70.44 131.41 72.96 131.44 75.49 C 129.57 75.82 127.60 76.84 125.71 76.26 C 124.19 74.15 123.51 71.59 122.63 69.18 C 121.83 70.48 121.03 71.77 120.24 73.06 C 119.47 71.82 118.70 70.58 117.88 69.37 C 112.63 67.48 106.73 68.74 101.61 66.31 C 97.72 64.50 93.85 62.56 89.58 61.84 C 90.23 64.43 91.36 66.87 93.28 68.77 C 96.40 71.78 96.90 76.24 98.20 80.15 C 98.89 79.75 100.29 78.95 100.99 78.54 C 102.14 82.44 103.37 86.31 104.71 90.15 C 98.86 90.06 92.95 89.89 87.26 88.42 C 84.13 87.73 81.01 86.32 77.74 86.94 C 79.42 88.95 81.88 90.04 84.42 90.48 C 89.73 91.45 95.16 91.62 100.50 92.44 C 100.66 93.50 100.83 94.57 101.00 95.64 C 99.90 96.09 98.79 96.54 97.68 96.97 C 94.82 98.77 96.61 102.41 96.64 105.11 C 93.35 106.51 89.86 108.07 86.20 107.44 C 77.47 106.33 68.62 103.91 59.82 105.92 C 56.08 106.94 52.35 105.82 48.81 104.64 C 50.95 103.46 53.21 101.84 55.80 102.31 C 60.97 103.08 66.12 104.11 71.37 104.09 C 71.49 103.23 71.62 102.37 71.75 101.51 C 73.55 101.27 75.34 101.02 77.14 100.76 C 77.40 98.06 78.32 95.50 79.79 93.22 C 75.62 91.79 71.27 90.93 66.87 90.63 C 66.56 88.21 66.27 85.78 66.02 83.35 C 68.41 83.66 70.81 83.22 73.21 83.45 C 72.16 80.15 70.55 77.06 68.79 74.09 C 71.92 74.51 75.11 75.68 78.27 75.12 C 80.40 73.78 82.05 71.79 84.24 70.55 C 86.87 70.46 89.02 72.39 91.23 73.57 C 86.71 67.08 85.17 59.23 84.27 51.52 L 84.17 50.31 Z" />
</g>
<g id="#f8b037ff">
<path fill="#f8b037" opacity="1.00" d=" M 84.27 51.52 C 85.17 59.23 86.71 67.08 91.23 73.57 C 89.02 72.39 86.87 70.46 84.24 70.55 C 82.05 71.79 80.40 73.78 78.27 75.12 C 75.11 75.68 71.92 74.51 68.79 74.09 C 70.55 77.06 72.16 80.15 73.21 83.45 C 70.81 83.22 68.41 83.66 66.02 83.35 C 66.27 85.78 66.56 88.21 66.87 90.63 C 71.27 90.93 75.62 91.79 79.79 93.22 C 78.32 95.50 77.40 98.06 77.14 100.76 C 75.34 101.02 73.55 101.27 71.75 101.51 C 71.62 102.37 71.49 103.23 71.37 104.09 C 66.12 104.11 60.97 103.08 55.80 102.31 C 53.21 101.84 50.95 103.46 48.81 104.64 C 47.37 104.54 45.93 104.59 44.50 104.61 L 43.77 104.61 C 41.74 103.88 39.70 103.16 37.65 102.48 C 37.56 102.27 37.39 101.85 37.30 101.64 C 35.49 100.78 33.69 99.88 31.89 98.98 C 32.33 99.13 33.21 99.43 33.65 99.57 C 32.89 98.29 32.14 97.01 31.40 95.72 C 37.78 93.95 44.24 91.94 50.94 92.25 C 55.19 92.45 59.48 92.29 63.58 91.07 C 62.20 89.65 60.81 88.24 59.32 86.93 C 55.59 84.10 52.66 80.43 50.18 76.49 C 50.73 76.15 51.83 75.46 52.39 75.11 C 51.61 71.70 51.41 68.20 51.48 64.71 C 52.39 64.61 54.22 64.43 55.13 64.33 C 54.79 59.54 49.07 57.28 49.37 52.34 C 56.90 54.48 64.48 56.45 71.95 58.80 C 75.59 59.88 79.30 61.20 83.14 61.10 L 84.06 60.97 C 84.26 57.82 84.35 54.67 84.27 51.52 Z" />
</g>
<g id="#f7b037ff">
<path fill="#f7b037" opacity="1.00" d=" M 189.45 58.59 C 201.39 58.65 212.79 54.93 224.16 51.78 C 223.72 55.47 220.43 57.40 218.41 60.14 C 218.92 62.29 221.01 63.77 221.34 65.99 C 221.22 68.84 220.24 71.65 220.71 74.51 C 220.73 76.14 221.52 77.96 220.38 79.39 C 217.85 82.82 214.63 85.65 211.53 88.55 C 211.46 89.04 211.33 90.02 211.26 90.51 C 222.74 90.44 234.60 89.51 245.56 93.63 C 246.57 95.11 244.97 96.10 243.96 96.94 C 241.60 98.64 238.98 100.13 236.10 100.67 C 232.41 101.25 228.76 102.04 225.16 103.01 C 219.19 104.68 213.01 103.05 206.94 103.41 C 205.45 103.18 203.96 102.91 202.48 102.63 C 202.04 101.77 201.60 100.90 201.16 100.04 C 197.02 99.07 194.05 96.05 191.83 92.59 C 196.24 90.29 201.09 89.00 206.04 88.59 C 206.42 86.44 206.79 84.28 207.15 82.11 C 204.71 82.19 202.28 82.30 199.84 82.41 C 200.67 79.53 201.57 76.62 201.60 73.60 C 198.04 73.37 194.48 73.76 190.93 73.93 C 190.52 72.65 190.14 71.35 189.58 70.13 C 187.82 69.27 185.76 69.46 183.87 69.23 C 184.91 66.05 185.82 62.83 186.53 59.56 C 187.60 60.10 188.68 60.63 189.76 61.16 C 189.70 60.77 189.57 59.98 189.51 59.58 L 189.45 58.59 Z" />
</g>
<g id="#e88a2eff">
<path fill="#e88a2e" opacity="1.00" d=" M 177.29 62.14 C 179.09 61.29 181.00 60.04 183.08 60.60 C 181.40 64.60 178.41 67.80 175.63 71.06 C 176.17 76.00 172.79 79.88 170.71 84.02 C 176.69 82.39 182.12 79.36 187.83 77.02 C 188.20 77.57 188.93 78.67 189.29 79.21 C 182.48 82.47 175.48 85.30 168.71 88.64 C 167.95 88.70 166.45 88.82 165.70 88.89 C 166.03 86.94 165.91 84.96 166.26 83.02 C 164.46 83.24 162.65 83.42 160.85 83.63 C 163.78 82.29 167.07 81.56 169.66 79.57 C 169.76 78.94 169.98 77.69 170.09 77.06 C 166.51 77.34 163.44 79.33 160.43 81.10 C 161.03 79.12 161.52 77.10 162.10 75.11 C 159.98 75.83 157.77 76.23 155.66 76.98 C 155.54 74.61 155.44 72.24 155.32 69.88 C 153.95 71.55 152.58 73.23 151.22 74.90 C 150.53 74.42 149.85 73.94 149.17 73.46 C 148.50 74.23 147.84 75.01 147.18 75.78 C 145.49 77.51 143.16 77.36 140.98 76.99 C 138.96 77.57 136.94 78.17 134.84 78.36 C 134.67 77.13 134.50 75.90 134.32 74.67 C 134.82 73.18 135.30 71.70 135.75 70.20 C 137.45 69.63 139.15 69.07 140.85 68.50 C 141.15 70.20 141.46 71.90 141.77 73.60 C 143.58 73.16 145.40 72.75 147.21 72.30 C 147.99 69.64 149.02 67.05 150.38 64.63 C 150.97 66.16 151.56 67.70 152.13 69.24 C 155.62 67.59 159.49 67.40 163.29 67.28 C 168.40 67.11 172.88 64.44 177.29 62.14 Z" />
</g>
<g id="#ea8b2eff">
<path fill="#ea8b2e" opacity="1.00" d=" M 89.58 61.84 C 93.85 62.56 97.72 64.50 101.61 66.31 C 106.73 68.74 112.63 67.48 117.88 69.37 C 117.02 71.51 116.17 73.65 115.33 75.80 C 113.30 75.62 111.26 75.47 109.23 75.30 C 109.14 76.64 109.05 77.98 108.95 79.32 C 106.35 78.72 103.67 78.19 100.99 78.54 C 100.29 78.95 98.89 79.75 98.20 80.15 C 96.90 76.24 96.40 71.78 93.28 68.77 C 91.36 66.87 90.23 64.43 89.58 61.84 Z" />
</g>
<g id="#6e3409ff">
<path fill="#6e3409" opacity="1.00" d=" M 131.37 67.92 C 132.83 68.67 134.29 69.44 135.75 70.20 C 135.30 71.70 134.82 73.18 134.32 74.67 C 133.60 74.87 132.16 75.28 131.44 75.49 C 131.41 72.96 131.39 70.44 131.37 67.92 Z" />
</g>
<g id="#df792fff">
<path fill="#df792f" opacity="1.00" d=" M 120.24 73.06 C 121.03 71.77 121.83 70.48 122.63 69.18 C 123.51 71.59 124.19 74.15 125.71 76.26 C 127.60 76.84 129.57 75.82 131.44 75.49 C 132.16 75.28 133.60 74.87 134.32 74.67 C 134.50 75.90 134.67 77.13 134.84 78.36 C 133.93 78.10 133.03 77.81 132.14 77.51 C 132.03 78.60 131.92 79.69 131.81 80.77 C 129.07 79.42 126.35 78.01 123.69 76.49 C 123.32 78.77 123.13 81.59 120.62 82.57 C 115.66 85.01 110.17 86.76 106.50 91.17 C 105.23 91.25 103.97 91.31 102.70 91.38 C 102.37 92.69 102.06 94.02 101.70 95.33 L 101.00 95.64 C 100.83 94.57 100.66 93.50 100.50 92.44 C 95.16 91.62 89.73 91.45 84.42 90.48 C 81.88 90.04 79.42 88.95 77.74 86.94 C 81.01 86.32 84.13 87.73 87.26 88.42 C 92.95 89.89 98.86 90.06 104.71 90.15 C 103.37 86.31 102.14 82.44 100.99 78.54 C 103.67 78.19 106.35 78.72 108.95 79.32 C 109.05 77.98 109.14 76.64 109.23 75.30 C 111.26 75.47 113.30 75.62 115.33 75.80 C 116.17 73.65 117.02 71.51 117.88 69.37 C 118.70 70.58 119.47 71.82 120.24 73.06 Z" />
</g>
<g id="#dd752eff">
<path fill="#dd752e" opacity="1.00" d=" M 151.22 74.90 C 152.58 73.23 153.95 71.55 155.32 69.88 C 155.44 72.24 155.54 74.61 155.66 76.98 C 157.77 76.23 159.98 75.83 162.10 75.11 C 161.52 77.10 161.03 79.12 160.43 81.10 C 163.44 79.33 166.51 77.34 170.09 77.06 C 169.98 77.69 169.76 78.94 169.66 79.57 C 167.07 81.56 163.78 82.29 160.85 83.63 C 162.65 83.42 164.46 83.24 166.26 83.02 C 165.91 84.96 166.03 86.94 165.70 88.89 C 166.45 88.82 167.95 88.70 168.71 88.64 C 169.43 88.61 170.88 88.55 171.60 88.52 C 171.99 89.07 172.75 90.16 173.13 90.71 C 172.34 91.62 171.61 92.57 170.89 93.54 C 170.19 92.75 169.52 91.93 168.85 91.13 C 167.83 90.78 166.80 90.45 165.77 90.11 C 163.95 88.26 161.81 86.76 159.44 85.71 C 159.13 85.08 158.82 84.45 158.51 83.83 C 156.29 83.38 153.94 83.25 151.89 82.21 C 149.84 80.46 148.64 77.98 147.18 75.78 C 147.84 75.01 148.50 74.23 149.17 73.46 C 149.85 73.94 150.53 74.42 151.22 74.90 Z" />
</g>
<g id="#c5592fff">
<path fill="#c5592f" opacity="1.00" d=" M 123.69 76.49 C 126.35 78.01 129.07 79.42 131.81 80.77 C 131.92 79.69 132.03 78.60 132.14 77.51 C 133.03 77.81 133.93 78.10 134.84 78.36 C 136.94 78.17 138.96 77.57 140.98 76.99 C 143.16 77.36 145.49 77.51 147.18 75.78 C 148.64 77.98 149.84 80.46 151.89 82.21 C 153.94 83.25 156.29 83.38 158.51 83.83 C 158.82 84.45 159.13 85.08 159.44 85.71 C 161.81 86.76 163.95 88.26 165.77 90.11 C 166.80 90.45 167.83 90.78 168.85 91.13 C 169.52 91.93 170.19 92.75 170.89 93.54 C 172.27 94.66 173.74 95.67 175.14 96.78 C 175.21 97.08 175.35 97.68 175.42 97.98 C 174.74 99.88 173.92 101.71 173.12 103.55 C 174.28 104.50 175.45 105.45 176.61 106.41 C 176.75 108.08 176.89 109.75 177.03 111.43 C 178.63 111.53 180.23 111.62 181.83 111.70 C 180.31 113.23 178.41 114.54 177.51 116.56 C 176.57 119.87 178.29 123.12 179.33 126.20 C 175.48 132.89 170.16 138.45 165.43 144.48 C 163.53 147.17 160.92 149.18 158.41 151.24 C 157.62 149.92 156.76 148.63 155.92 147.34 C 158.74 146.04 161.77 145.06 164.26 143.17 C 165.09 141.82 165.55 140.30 166.13 138.84 C 170.19 136.64 171.98 132.13 175.27 129.08 C 175.72 122.57 172.16 116.59 172.81 110.07 C 171.19 113.11 168.66 115.48 165.33 116.49 C 166.75 114.19 168.26 111.94 169.81 109.73 C 171.30 109.08 172.80 108.45 174.30 107.81 C 172.27 107.28 170.22 106.82 168.19 106.28 C 168.10 105.41 168.01 104.56 167.92 103.70 C 166.94 104.02 165.96 104.34 164.97 104.66 C 164.30 102.31 163.61 99.97 162.87 97.64 C 157.27 97.12 152.29 94.40 147.92 91.02 C 147.27 92.52 146.62 94.03 145.95 95.53 C 145.48 93.88 145.04 92.24 144.59 90.59 C 140.38 88.11 135.63 89.63 131.25 90.70 C 131.29 92.19 131.34 93.69 131.40 95.19 C 129.56 95.69 127.68 95.97 125.81 96.32 C 125.13 94.96 124.40 93.64 123.66 92.32 C 119.62 95.87 114.94 98.72 109.65 99.90 C 109.21 101.99 108.81 104.08 108.37 106.18 C 105.26 106.99 102.22 108.03 99.20 109.14 C 101.45 110.71 103.32 112.72 104.85 114.99 C 105.89 115.69 106.99 116.30 108.05 116.97 C 106.46 117.25 104.87 117.56 103.28 117.84 C 103.09 118.28 102.72 119.18 102.53 119.62 C 102.28 119.45 101.78 119.11 101.53 118.94 C 101.64 116.95 101.69 114.95 101.78 112.95 C 100.68 113.53 99.47 113.82 98.36 114.35 C 100.09 117.01 99.49 119.86 97.88 122.39 C 98.04 122.90 98.20 123.42 98.36 123.94 C 97.87 123.93 96.90 123.91 96.41 123.90 C 95.91 121.90 95.67 119.84 95.28 117.83 C 94.11 116.10 92.78 114.48 91.47 112.86 C 92.71 112.84 93.94 112.81 95.18 112.78 C 96.93 107.71 99.35 102.42 97.68 96.97 C 98.79 96.54 99.90 96.09 101.00 95.64 L 101.70 95.33 C 102.06 94.02 102.37 92.69 102.70 91.38 C 103.97 91.31 105.23 91.25 106.50 91.17 C 110.17 86.76 115.66 85.01 120.62 82.57 C 123.13 81.59 123.32 78.77 123.69 76.49 Z" />
</g>
<g id="#d9801fff">
<path fill="#d9801f" opacity="1.00" d=" M 171.60 88.52 C 179.70 88.83 187.41 86.11 195.36 85.11 C 193.93 86.42 192.61 88.05 190.67 88.62 C 184.99 90.34 178.96 89.85 173.13 90.71 C 172.75 90.16 171.99 89.07 171.60 88.52 Z" />
</g>
<g id="#b7a860ff">
<path fill="#b7a860" opacity="1.00" d=" M 59.32 86.93 C 60.81 88.24 62.20 89.65 63.58 91.07 C 59.48 92.29 55.19 92.45 50.94 92.25 C 44.24 91.94 37.78 93.95 31.40 95.72 C 32.14 97.01 32.89 98.29 33.65 99.57 C 33.21 99.43 32.33 99.13 31.89 98.98 C 29.47 97.92 26.00 97.17 25.17 94.32 C 36.93 91.42 49.14 91.10 61.20 91.31 C 60.59 89.84 60.00 88.37 59.32 86.93 Z" />
<path fill="#b7a860" opacity="1.00" d=" M 142.04 208.07 C 143.92 209.96 146.33 211.15 148.81 212.07 C 148.82 212.52 148.85 213.42 148.86 213.87 L 148.89 214.81 C 144.50 216.33 142.86 211.32 142.04 208.07 Z" />
</g>
<g id="#a04e34ff">
<path fill="#a04e34" opacity="1.00" d=" M 131.25 90.70 C 135.63 89.63 140.38 88.11 144.59 90.59 C 145.04 92.24 145.48 93.88 145.95 95.53 C 142.84 94.37 139.67 93.36 136.48 92.46 C 134.81 93.41 133.14 94.37 131.40 95.19 C 131.34 93.69 131.29 92.19 131.25 90.70 Z" />
</g>
<g id="#ae4c31ff">
<path fill="#ae4c31" opacity="1.00" d=" M 147.92 91.02 C 152.29 94.40 157.27 97.12 162.87 97.64 C 163.61 99.97 164.30 102.31 164.97 104.66 C 165.96 104.34 166.94 104.02 167.92 103.70 C 168.01 104.56 168.10 105.41 168.19 106.28 C 170.22 106.82 172.27 107.28 174.30 107.81 C 172.80 108.45 171.30 109.08 169.81 109.73 C 168.26 111.94 166.75 114.19 165.33 116.49 C 168.66 115.48 171.19 113.11 172.81 110.07 C 172.16 116.59 175.72 122.57 175.27 129.08 C 171.98 132.13 170.19 136.64 166.13 138.84 C 165.55 140.30 165.09 141.82 164.26 143.17 C 161.77 145.06 158.74 146.04 155.92 147.34 C 156.76 148.63 157.62 149.92 158.41 151.24 C 158.48 151.56 158.62 152.20 158.69 152.52 C 155.89 152.03 153.05 151.72 150.21 151.85 C 148.96 151.05 147.71 150.27 146.46 149.48 C 144.64 151.40 142.78 153.29 140.87 155.13 C 139.65 151.54 142.04 148.45 143.89 145.61 C 140.39 143.74 136.58 142.55 132.70 141.79 C 132.61 142.40 132.44 143.63 132.35 144.24 C 131.58 143.44 130.80 142.65 130.02 141.85 C 131.58 140.14 133.01 138.20 135.03 136.97 C 137.06 136.21 139.28 136.41 141.41 136.34 C 141.73 137.82 142.06 139.31 142.39 140.79 C 148.41 140.12 153.03 136.10 156.88 131.73 C 156.52 131.04 156.16 130.35 155.80 129.66 C 157.09 127.11 157.70 124.23 156.55 121.52 C 157.60 120.98 158.61 120.38 159.60 119.74 C 158.75 117.16 157.58 114.64 157.49 111.89 C 157.26 106.83 155.64 102.00 154.36 97.14 C 153.59 98.29 152.81 99.43 152.01 100.56 C 151.57 100.77 150.68 101.18 150.24 101.38 C 150.36 99.99 150.44 98.59 150.50 97.20 C 148.98 96.63 147.46 96.08 145.95 95.53 C 146.62 94.03 147.27 92.52 147.92 91.02 Z" />
</g>
<g id="#ad4c31ff">
<path fill="#ad4c31" opacity="1.00" d=" M 123.66 92.32 C 124.40 93.64 125.13 94.96 125.81 96.32 C 126.21 97.20 126.61 98.08 126.99 98.96 C 125.72 98.79 124.45 98.61 123.18 98.43 C 122.49 99.59 121.82 100.76 121.15 101.93 C 120.08 101.35 119.02 100.78 117.97 100.20 C 114.36 108.06 114.65 116.88 111.87 125.00 C 112.12 124.65 112.63 123.95 112.88 123.60 C 113.82 126.05 114.84 128.46 115.76 130.91 C 115.90 131.74 116.04 132.56 116.24 133.37 C 117.35 134.78 118.59 136.07 119.83 137.36 C 123.15 136.65 126.51 136.17 129.88 135.76 C 128.98 136.56 128.06 137.35 127.13 138.11 C 127.27 139.40 127.43 140.68 127.61 141.97 C 125.86 143.13 124.72 144.93 123.64 146.69 C 125.03 146.34 126.40 145.96 127.78 145.59 C 129.88 147.96 132.26 150.17 133.73 153.01 C 133.13 154.56 132.30 156.01 131.49 157.46 C 129.97 155.35 128.49 153.23 127.01 151.10 C 125.53 151.71 124.04 152.32 122.56 152.93 C 119.62 152.73 116.67 152.97 113.74 153.25 C 114.40 151.77 115.06 150.29 115.72 148.81 C 112.61 147.72 109.26 146.65 107.20 143.91 C 103.56 139.41 100.26 134.64 96.42 130.29 C 96.70 128.92 96.96 127.55 97.23 126.18 C 96.94 125.42 96.67 124.66 96.41 123.90 C 96.90 123.91 97.87 123.93 98.36 123.94 C 98.20 123.42 98.04 122.90 97.88 122.39 C 99.49 119.86 100.09 117.01 98.36 114.35 C 99.47 113.82 100.68 113.53 101.78 112.95 C 101.69 114.95 101.64 116.95 101.53 118.94 C 101.78 119.11 102.28 119.45 102.53 119.62 C 102.72 119.18 103.09 118.28 103.28 117.84 C 104.87 117.56 106.46 117.25 108.05 116.97 C 106.99 116.30 105.89 115.69 104.85 114.99 C 103.32 112.72 101.45 110.71 99.20 109.14 C 102.22 108.03 105.26 106.99 108.37 106.18 C 108.81 104.08 109.21 101.99 109.65 99.90 C 114.94 98.72 119.62 95.87 123.66 92.32 Z" />
</g>
<g id="#623423ff">
<path fill="#623423" opacity="1.00" d=" M 131.40 95.19 C 133.14 94.37 134.81 93.41 136.48 92.46 C 139.67 93.36 142.84 94.37 145.95 95.53 C 147.46 96.08 148.98 96.63 150.50 97.20 C 150.44 98.59 150.36 99.99 150.24 101.38 C 149.64 102.82 149.05 104.26 148.45 105.70 C 147.49 105.82 146.53 105.95 145.57 106.07 C 145.96 104.54 146.40 103.00 146.66 101.44 C 145.41 101.30 144.16 101.27 142.90 101.23 C 142.19 99.57 141.47 97.91 140.77 96.24 C 137.10 98.71 133.49 101.28 129.97 103.97 C 128.70 102.88 127.41 101.78 126.13 100.70 C 126.14 103.16 126.26 105.62 126.44 108.08 C 124.34 106.36 122.23 104.67 120.09 103.00 C 120.58 104.68 121.06 106.36 121.56 108.03 C 120.64 109.27 119.72 110.51 118.85 111.79 C 116.66 114.60 117.97 118.44 116.78 121.53 C 115.73 122.03 114.61 122.35 113.51 122.71 C 113.35 122.93 113.04 123.38 112.88 123.60 C 112.63 123.95 112.12 124.65 111.87 125.00 C 114.65 116.88 114.36 108.06 117.97 100.20 C 119.02 100.78 120.08 101.35 121.15 101.93 C 121.82 100.76 122.49 99.59 123.18 98.43 C 124.45 98.61 125.72 98.79 126.99 98.96 C 126.61 98.08 126.21 97.20 125.81 96.32 C 127.68 95.97 129.56 95.69 131.40 95.19 Z" />
</g>
<g id="#674f30ff">
<path fill="#674f30" opacity="1.00" d=" M 129.97 103.97 C 133.49 101.28 137.10 98.71 140.77 96.24 C 141.47 97.91 142.19 99.57 142.90 101.23 C 144.16 101.27 145.41 101.30 146.66 101.44 C 146.40 103.00 145.96 104.54 145.57 106.07 C 146.53 105.95 147.49 105.82 148.45 105.70 C 149.05 104.26 149.64 102.82 150.24 101.38 C 150.68 101.18 151.57 100.77 152.01 100.56 C 151.92 103.01 151.91 105.46 151.90 107.91 C 150.11 108.00 148.32 108.09 146.54 108.17 C 145.71 113.42 145.47 118.81 143.93 123.93 C 143.14 126.48 141.22 129.63 138.10 129.07 C 134.21 128.54 130.23 126.17 128.61 122.50 C 127.70 117.91 127.85 113.18 126.98 108.59 C 124.19 109.45 121.41 110.37 118.85 111.79 C 119.72 110.51 120.64 109.27 121.56 108.03 C 121.06 106.36 120.58 104.68 120.09 103.00 C 122.23 104.67 124.34 106.36 126.44 108.08 C 126.26 105.62 126.14 103.16 126.13 100.70 C 127.41 101.78 128.70 102.88 129.97 103.97 Z" />
</g>
<g id="#e2882fff">
<path fill="#e2882f" opacity="1.00" d=" M 96.64 105.11 C 96.61 102.41 94.82 98.77 97.68 96.97 C 99.35 102.42 96.93 107.71 95.18 112.78 C 93.94 112.81 92.71 112.84 91.47 112.86 C 92.78 114.48 94.11 116.10 95.28 117.83 C 94.74 120.43 94.12 123.02 93.33 125.56 C 90.42 123.18 86.49 124.83 83.15 125.03 C 83.78 124.28 84.41 123.53 85.03 122.78 C 87.65 122.19 91.66 121.39 91.89 118.11 C 91.12 115.59 88.59 114.02 86.00 114.19 C 78.66 114.27 71.38 115.72 64.01 115.40 C 56.90 115.61 49.98 113.88 43.00 112.87 C 47.50 112.49 51.99 111.93 56.39 110.93 C 52.83 108.07 48.07 107.45 44.50 104.61 C 45.93 104.59 47.37 104.54 48.81 104.64 C 52.35 105.82 56.08 106.94 59.82 105.92 C 68.62 103.91 77.47 106.33 86.20 107.44 C 89.86 108.07 93.35 106.51 96.64 105.11 Z" />
</g>
<g id="#65311fff">
<path fill="#65311f" opacity="1.00" d=" M 152.01 100.56 C 152.81 99.43 153.59 98.29 154.36 97.14 C 155.64 102.00 157.26 106.83 157.49 111.89 C 157.58 114.64 158.75 117.16 159.60 119.74 C 158.61 120.38 157.60 120.98 156.55 121.52 C 155.23 116.88 155.48 111.63 151.90 107.91 C 151.91 105.46 151.92 103.01 152.01 100.56 Z" />
</g>
<g id="#e48a30ff">
<path fill="#e48a30" opacity="1.00" d=" M 173.12 103.55 C 173.92 101.71 174.74 99.88 175.42 97.98 C 175.92 99.97 176.28 102.02 177.15 103.89 C 179.51 106.12 182.99 106.47 186.07 106.02 C 193.01 105.01 200.04 104.66 206.94 103.41 C 213.01 103.05 219.19 104.68 225.16 103.01 C 228.76 102.04 232.41 101.25 236.10 100.67 C 233.88 102.03 231.56 103.23 229.08 104.04 C 224.48 105.34 219.80 106.64 215.63 109.06 C 215.89 110.35 216.69 110.97 218.03 110.92 C 220.71 111.31 223.43 111.30 226.14 111.41 C 227.12 111.49 228.09 111.66 229.06 111.90 C 216.78 114.80 204.06 114.58 191.57 113.47 C 188.70 113.33 185.69 112.92 182.94 113.97 C 180.90 114.93 181.44 117.66 180.82 119.48 C 185.73 121.11 190.74 122.50 195.42 124.76 C 190.65 124.88 185.89 124.53 181.15 124.02 C 181.24 125.53 181.32 127.04 181.39 128.55 C 182.24 128.97 183.09 129.39 183.95 129.81 C 182.29 129.96 180.64 130.11 178.99 130.26 C 180.02 130.73 181.06 131.21 182.10 131.68 C 183.11 132.71 184.08 133.77 185.06 134.83 C 181.87 134.91 178.68 134.96 175.49 135.02 C 175.57 136.21 175.65 137.40 175.73 138.60 C 174.31 138.88 172.89 139.16 171.48 139.44 C 171.11 140.77 170.74 142.10 170.38 143.43 C 168.72 143.77 167.07 144.13 165.43 144.48 C 170.16 138.45 175.48 132.89 179.33 126.20 C 178.29 123.12 176.57 119.87 177.51 116.56 C 178.41 114.54 180.31 113.23 181.83 111.70 C 180.23 111.62 178.63 111.53 177.03 111.43 C 176.89 109.75 176.75 108.08 176.61 106.41 C 175.45 105.45 174.28 104.50 173.12 103.55 Z" />
</g>
<g id="#fff0c9ff">
<path fill="#fff0c9" opacity="1.00" d=" M 215.63 109.06 C 219.80 106.64 224.48 105.34 229.08 104.04 C 226.79 106.47 223.29 106.98 220.79 109.12 C 222.60 109.81 224.35 110.64 226.14 111.41 C 223.43 111.30 220.71 111.31 218.03 110.92 C 216.69 110.97 215.89 110.35 215.63 109.06 Z" />
</g>
<g id="#835234ff">
<path fill="#835234" opacity="1.00" d=" M 146.54 108.17 C 148.32 108.09 150.11 108.00 151.90 107.91 C 155.48 111.63 155.23 116.88 156.55 121.52 C 157.70 124.23 157.09 127.11 155.80 129.66 C 154.34 127.04 152.83 124.40 150.80 122.18 C 147.97 124.01 146.07 126.85 144.08 129.50 C 145.45 129.86 146.82 130.23 148.18 130.60 C 144.45 131.77 140.49 132.37 136.66 131.25 C 133.48 130.28 130.16 130.50 127.14 131.87 C 127.15 127.54 123.99 124.07 119.79 123.32 C 119.92 126.45 119.95 129.58 119.74 132.71 C 118.57 132.91 117.40 133.12 116.24 133.37 C 116.04 132.56 115.90 131.74 115.76 130.91 C 114.84 128.46 113.82 126.05 112.88 123.60 C 113.04 123.38 113.35 122.93 113.51 122.71 C 114.61 122.35 115.73 122.03 116.78 121.53 C 117.97 118.44 116.66 114.60 118.85 111.79 C 121.41 110.37 124.19 109.45 126.98 108.59 C 127.85 113.18 127.70 117.91 128.61 122.50 C 130.23 126.17 134.21 128.54 138.10 129.07 C 141.22 129.63 143.14 126.48 143.93 123.93 C 145.47 118.81 145.71 113.42 146.54 108.17 Z" />
</g>
<g id="#406e38ff">
<path fill="#406e38" opacity="1.00" d=" M 418.35 109.82 C 420.40 109.74 422.45 109.72 424.51 109.66 C 424.68 141.54 424.79 173.44 424.46 205.31 C 422.41 205.17 420.38 205.00 418.36 204.81 C 418.36 173.15 418.37 141.48 418.35 109.82 Z" />
</g>
<g id="#f8ae36ff">
<path fill="#f8ae36" opacity="1.00" d=" M 191.57 113.47 C 204.06 114.58 216.78 114.80 229.06 111.90 C 231.66 113.35 234.26 115.26 235.49 118.06 C 235.55 119.70 234.51 121.09 233.98 122.57 C 229.21 122.49 224.43 122.85 219.76 123.84 C 216.25 124.61 212.89 125.88 209.66 127.44 C 214.50 127.86 219.34 127.34 224.06 126.24 C 224.53 127.63 225.02 129.02 225.52 130.40 C 230.41 131.76 235.77 132.76 239.54 136.43 C 241.01 137.69 240.87 139.84 240.61 141.57 C 239.48 143.35 237.23 143.80 235.28 143.96 C 227.84 143.65 220.32 144.07 212.98 142.58 C 215.82 141.87 218.66 141.11 221.46 140.25 C 215.89 138.54 210.09 137.99 204.30 137.59 C 196.53 137.16 189.70 132.95 182.10 131.68 C 181.06 131.21 180.02 130.73 178.99 130.26 C 180.64 130.11 182.29 129.96 183.95 129.81 C 183.09 129.39 182.24 128.97 181.39 128.55 C 181.32 127.04 181.24 125.53 181.15 124.02 C 185.89 124.53 190.65 124.88 195.42 124.76 C 190.74 122.50 185.73 121.11 180.82 119.48 C 181.44 117.66 180.90 114.93 182.94 113.97 C 185.69 112.92 188.70 113.33 191.57 113.47 Z" />
</g>
<g id="#f7ac37ff">
<path fill="#f7ac37" opacity="1.00" d=" M 37.62 118.05 C 38.80 115.80 40.88 114.18 43.00 112.87 C 49.98 113.88 56.90 115.61 64.01 115.40 C 71.38 115.72 78.66 114.27 86.00 114.19 C 88.59 114.02 91.12 115.59 91.89 118.11 C 91.66 121.39 87.65 122.19 85.03 122.78 C 81.51 123.05 77.44 123.00 75.45 126.50 C 80.33 127.03 85.25 127.20 90.15 127.44 C 89.59 128.65 89.03 129.87 88.51 131.11 C 88.85 131.70 89.19 132.29 89.53 132.88 C 80.62 136.03 71.63 139.75 62.04 139.91 C 58.23 139.95 54.43 140.37 50.74 141.31 C 53.98 142.36 57.17 143.54 60.27 144.96 C 66.15 141.25 73.27 141.29 79.85 139.74 C 83.36 138.98 86.95 138.65 90.55 138.55 C 87.65 140.22 84.46 141.58 82.15 144.08 C 80.21 146.16 78.54 148.52 76.28 150.29 C 72.00 153.65 66.85 155.61 61.83 157.58 C 64.98 158.35 68.32 159.69 71.55 158.54 C 75.89 156.95 78.88 153.22 82.45 150.46 C 87.15 146.56 93.11 144.84 98.81 143.03 C 98.06 144.06 97.31 145.10 96.56 146.14 C 96.98 146.82 97.40 147.50 97.81 148.18 C 93.55 151.44 89.35 154.84 85.88 158.96 C 89.76 158.27 93.52 157.06 97.11 155.43 C 98.07 156.27 99.03 157.10 100.00 157.93 C 104.35 155.74 108.72 153.55 113.29 151.85 C 113.55 154.06 113.68 156.44 112.51 158.44 C 110.12 163.06 107.00 167.24 104.36 171.71 C 102.01 174.42 98.57 175.36 95.19 175.96 C 92.68 176.30 91.13 178.48 89.73 180.35 C 84.17 182.87 82.48 189.75 76.97 192.32 C 74.67 185.28 80.51 179.34 80.24 172.46 C 80.59 172.46 81.29 172.45 81.64 172.45 C 82.33 169.31 83.07 166.18 83.83 163.05 C 77.29 165.04 71.10 168.64 64.13 168.79 C 60.64 168.94 56.90 168.86 53.96 166.71 L 53.42 166.39 C 55.11 165.55 56.83 164.75 58.51 163.90 C 55.47 162.67 51.55 162.38 49.58 159.42 C 48.95 157.75 48.94 155.61 50.38 154.34 C 53.06 151.45 56.30 149.16 59.20 146.50 C 50.91 146.04 42.33 147.43 34.37 144.42 C 31.90 143.89 30.88 140.41 32.50 138.52 C 35.51 135.20 39.60 133.02 43.87 131.78 C 47.78 130.71 49.93 126.94 52.36 124.01 C 48.14 123.41 43.84 124.00 39.63 123.36 C 37.32 122.70 37.12 120.02 37.62 118.05 Z" />
</g>
<g id="#416e3cff">
<path fill="#416e3c" opacity="1.00" d=" M 591.98 118.96 C 593.61 115.87 598.60 115.83 600.39 118.77 C 602.03 120.89 601.83 124.07 600.05 126.04 C 598.54 128.37 595.46 127.36 593.16 127.58 C 591.53 125.09 590.15 121.73 591.98 118.96 Z" />
</g>
<g id="#c56923ff">
<path fill="#c56923" opacity="1.00" d=" M 95.28 117.83 C 95.67 119.84 95.91 121.90 96.41 123.90 C 96.67 124.66 96.94 125.42 97.23 126.18 C 96.96 127.55 96.70 128.92 96.42 130.29 C 100.26 134.64 103.56 139.41 107.20 143.91 C 109.26 146.65 112.61 147.72 115.72 148.81 C 115.06 150.29 114.40 151.77 113.74 153.25 C 116.67 152.97 119.62 152.73 122.56 152.93 C 124.86 154.48 127.01 156.24 129.14 158.00 C 125.74 157.14 122.55 155.55 119.10 154.90 C 117.50 154.99 116.37 156.31 115.72 157.65 C 113.20 162.62 112.46 168.48 108.83 172.87 C 105.84 176.37 102.02 179.01 98.64 182.10 C 100.89 182.56 103.15 183.01 105.41 183.45 C 105.43 183.80 105.48 184.50 105.50 184.85 C 102.58 186.38 99.70 187.99 96.69 189.32 C 96.80 187.02 96.62 184.66 97.19 182.41 C 99.14 178.49 104.92 176.79 104.36 171.71 C 107.00 167.24 110.12 163.06 112.51 158.44 C 113.68 156.44 113.55 154.06 113.29 151.85 C 111.63 150.83 109.95 149.86 108.26 148.90 C 104.08 141.11 95.63 136.56 92.53 128.08 C 92.73 127.45 93.13 126.19 93.33 125.56 C 94.12 123.02 94.74 120.43 95.28 117.83 Z" />
</g>
<g id="#965135ff">
<path fill="#965135" opacity="1.00" d=" M 144.08 129.50 C 146.07 126.85 147.97 124.01 150.80 122.18 C 152.83 124.40 154.34 127.04 155.80 129.66 C 156.16 130.35 156.52 131.04 156.88 131.73 C 153.03 136.10 148.41 140.12 142.39 140.79 C 142.06 139.31 141.73 137.82 141.41 136.34 C 139.28 136.41 137.06 136.21 135.03 136.97 C 133.01 138.20 131.58 140.14 130.02 141.85 C 129.21 141.88 128.41 141.91 127.61 141.97 C 127.43 140.68 127.27 139.40 127.13 138.11 C 128.06 137.35 128.98 136.56 129.88 135.76 C 126.51 136.17 123.15 136.65 119.83 137.36 C 118.59 136.07 117.35 134.78 116.24 133.37 C 117.40 133.12 118.57 132.91 119.74 132.71 C 119.95 129.58 119.92 126.45 119.79 123.32 C 123.99 124.07 127.15 127.54 127.14 131.87 C 130.16 130.50 133.48 130.28 136.66 131.25 C 140.49 132.37 144.45 131.77 148.18 130.60 C 146.82 130.23 145.45 129.86 144.08 129.50 Z" />
</g>
<g id="#ed972eff">
<path fill="#ed972e" opacity="1.00" d=" M 75.45 126.50 C 77.44 123.00 81.51 123.05 85.03 122.78 C 84.41 123.53 83.78 124.28 83.15 125.03 C 86.49 124.83 90.42 123.18 93.33 125.56 C 93.13 126.19 92.73 127.45 92.53 128.08 C 95.63 136.56 104.08 141.11 108.26 148.90 C 109.95 149.86 111.63 150.83 113.29 151.85 C 108.72 153.55 104.35 155.74 100.00 157.93 C 99.03 157.10 98.07 156.27 97.11 155.43 C 93.52 157.06 89.76 158.27 85.88 158.96 C 89.35 154.84 93.55 151.44 97.81 148.18 C 97.40 147.50 96.98 146.82 96.56 146.14 C 97.31 145.10 98.06 144.06 98.81 143.03 C 93.11 144.84 87.15 146.56 82.45 150.46 C 78.88 153.22 75.89 156.95 71.55 158.54 C 68.32 159.69 64.98 158.35 61.83 157.58 C 66.85 155.61 72.00 153.65 76.28 150.29 C 78.54 148.52 80.21 146.16 82.15 144.08 C 84.46 141.58 87.65 140.22 90.55 138.55 C 86.95 138.65 83.36 138.98 79.85 139.74 C 73.27 141.29 66.15 141.25 60.27 144.96 C 57.17 143.54 53.98 142.36 50.74 141.31 C 54.43 140.37 58.23 139.95 62.04 139.91 C 71.63 139.75 80.62 136.03 89.53 132.88 C 89.19 132.29 88.85 131.70 88.51 131.11 C 89.03 129.87 89.59 128.65 90.15 127.44 C 85.25 127.20 80.33 127.03 75.45 126.50 Z" />
</g>
<g id="#cb8131ff">
<path fill="#cb8131" opacity="1.00" d=" M 209.66 127.44 C 212.89 125.88 216.25 124.61 219.76 123.84 C 221.19 124.63 222.63 125.42 224.06 126.24 C 219.34 127.34 214.50 127.86 209.66 127.44 Z" />
<path fill="#cb8131" opacity="1.00" d=" M 148.05 170.85 C 153.59 178.43 154.20 188.54 160.30 195.75 C 161.75 197.97 164.51 197.34 166.73 197.27 C 166.82 196.38 166.99 194.60 167.08 193.71 C 167.98 197.40 170.07 202.30 167.23 205.49 C 161.19 201.89 156.21 196.83 151.73 191.46 C 149.95 197.54 150.91 203.90 150.23 210.12 C 150.85 202.93 149.75 195.77 149.66 188.59 C 149.55 182.64 148.22 176.80 148.05 170.85 Z" />
</g>
<g id="#406f3bff">
<path fill="#406f3b" opacity="1.00" d=" M 542.35 128.25 C 544.39 127.51 546.44 126.79 548.50 126.07 C 548.83 130.61 548.53 135.18 549.15 139.70 C 554.87 139.85 560.63 139.35 566.32 140.19 C 566.29 141.94 566.29 143.69 566.20 145.45 C 560.57 145.40 554.94 145.39 549.31 145.47 C 549.20 160.32 549.19 175.17 549.30 190.01 C 549.15 194.04 550.87 198.83 555.04 200.17 C 558.22 200.86 561.50 200.33 564.71 200.19 C 565.01 201.87 565.31 203.54 565.58 205.23 C 559.84 206.36 553.31 207.30 548.15 203.85 C 543.35 200.65 542.55 194.29 542.35 189.00 C 542.37 174.46 542.29 159.93 542.39 145.40 C 539.24 145.40 536.09 145.55 532.95 145.34 C 531.11 144.27 531.90 141.96 531.73 140.25 C 535.20 139.70 538.73 139.64 542.24 139.71 C 542.39 135.89 542.35 132.07 542.35 128.25 Z" />
<path fill="#406f3b" opacity="1.00" d=" M 651.29 139.24 C 657.85 137.74 664.96 138.86 670.76 142.25 C 678.47 146.47 682.59 155.12 684.17 163.45 C 685.38 174.06 684.99 185.67 678.58 194.71 C 671.28 205.96 655.13 209.63 643.44 203.34 C 637.50 200.01 633.07 194.31 630.98 187.86 C 627.01 176.31 627.71 163.10 633.41 152.25 C 637.02 145.49 643.86 140.82 651.29 139.24 M 652.40 144.55 C 645.07 146.29 639.78 152.59 637.55 159.56 C 633.88 170.17 634.87 182.55 641.04 192.05 C 644.53 196.79 649.82 200.94 655.99 200.75 C 664.32 201.29 671.44 194.80 674.58 187.55 C 678.10 180.53 678.27 172.40 677.20 164.77 C 675.56 158.36 672.99 151.59 667.43 147.56 C 663.25 144.21 657.52 143.65 652.40 144.55 Z" />
<path fill="#406f3b" opacity="1.00" d=" M 729.07 141.26 C 736.35 137.63 745.87 137.30 752.51 142.46 C 759.05 147.05 761.53 155.27 761.60 162.94 C 761.68 176.91 761.63 190.88 761.65 204.85 C 759.28 204.91 756.91 204.89 754.56 204.80 C 754.79 191.20 754.60 177.59 754.67 163.99 C 754.84 158.88 753.54 153.63 750.49 149.49 C 746.09 144.11 737.88 142.75 731.77 145.82 C 724.83 148.90 720.20 156.39 720.36 163.95 C 720.23 177.59 720.49 191.24 720.22 204.87 C 717.99 204.84 715.77 204.80 713.55 204.81 C 713.59 183.26 713.90 161.71 713.26 140.17 C 715.32 140.26 717.39 140.20 719.46 140.29 C 719.49 143.28 719.57 146.28 719.82 149.27 C 722.69 146.39 725.29 143.02 729.07 141.26 Z" />
</g>
<g id="#ee992dff">
<path fill="#ee992d" opacity="1.00" d=" M 182.10 131.68 C 189.70 132.95 196.53 137.16 204.30 137.59 C 210.09 137.99 215.89 138.54 221.46 140.25 C 218.66 141.11 215.82 141.87 212.98 142.58 C 220.32 144.07 227.84 143.65 235.28 143.96 C 228.43 146.40 221.01 145.19 213.89 145.56 C 213.12 145.47 212.34 145.38 211.57 145.28 C 211.51 144.30 211.46 143.32 211.41 142.34 C 201.47 140.88 191.92 137.14 181.77 137.14 C 186.79 140.38 191.49 144.07 195.73 148.29 C 199.98 152.61 206.95 152.74 210.61 157.76 C 207.16 157.92 203.47 158.33 200.28 156.70 C 195.35 154.20 191.61 149.97 186.95 147.06 C 183.66 144.90 179.86 143.74 176.13 142.63 C 175.15 144.07 174.18 145.50 173.20 146.94 C 176.46 148.90 179.76 150.86 182.62 153.39 C 186.18 156.51 189.39 160.16 193.65 162.37 C 199.80 165.77 207.06 165.21 213.74 166.67 C 212.14 167.54 210.54 168.96 208.58 168.55 C 202.18 167.71 196.26 164.92 190.12 163.10 C 190.64 164.98 191.11 166.88 191.64 168.76 C 191.31 169.08 190.66 169.72 190.33 170.04 C 189.01 166.64 188.16 162.97 186.05 159.95 C 182.99 157.08 178.81 155.86 175.15 153.94 C 174.35 155.03 173.54 156.12 172.73 157.21 C 168.49 155.16 164.27 153.03 160.04 150.95 C 159.84 152.70 159.64 154.46 159.52 156.22 C 159.24 154.99 158.96 153.76 158.69 152.52 C 158.62 152.20 158.48 151.56 158.41 151.24 C 160.92 149.18 163.53 147.17 165.43 144.48 C 167.07 144.13 168.72 143.77 170.38 143.43 C 170.74 142.10 171.11 140.77 171.48 139.44 C 172.89 139.16 174.31 138.88 175.73 138.60 C 175.65 137.40 175.57 136.21 175.49 135.02 C 178.68 134.96 181.87 134.91 185.06 134.83 C 184.08 133.77 183.11 132.71 182.10 131.68 Z" />
</g>
<g id="#f7aa37ff">
<path fill="#f7aa37" opacity="1.00" d=" M 181.77 137.14 C 191.92 137.14 201.47 140.88 211.41 142.34 C 211.46 143.32 211.51 144.30 211.57 145.28 C 212.34 145.38 213.12 145.47 213.89 145.56 C 218.80 148.21 225.17 152.44 223.46 158.96 C 221.40 161.95 217.17 161.26 214.01 161.64 C 215.37 163.44 216.70 165.27 217.88 167.19 C 216.51 166.98 215.12 166.84 213.74 166.67 C 207.06 165.21 199.80 165.77 193.65 162.37 C 189.39 160.16 186.18 156.51 182.62 153.39 C 179.76 150.86 176.46 148.90 173.20 146.94 C 174.18 145.50 175.15 144.07 176.13 142.63 C 179.86 143.74 183.66 144.90 186.95 147.06 C 191.61 149.97 195.35 154.20 200.28 156.70 C 203.47 158.33 207.16 157.92 210.61 157.76 C 206.95 152.74 199.98 152.61 195.73 148.29 C 191.49 144.07 186.79 140.38 181.77 137.14 Z" />
</g>
<g id="#426e3dff">
<path fill="#426e3d" opacity="1.00" d=" M 282.18 141.25 C 289.85 137.07 299.41 138.04 306.85 142.25 C 306.09 144.30 305.25 146.32 304.47 148.36 C 299.44 144.50 292.37 142.89 286.41 145.45 C 280.07 148.21 278.20 157.78 283.49 162.44 C 289.86 168.13 299.13 169.56 304.95 176.07 C 308.30 179.49 309.03 184.46 308.76 189.05 C 309.07 196.22 303.54 202.45 297.06 204.79 C 288.82 207.65 279.79 206.10 272.05 202.48 C 272.46 200.65 272.97 198.85 273.50 197.05 C 278.41 197.93 282.87 200.84 288.01 200.56 C 293.53 200.91 299.41 197.86 301.53 192.61 C 303.61 187.68 301.34 181.87 297.46 178.53 C 292.32 174.26 285.44 172.90 280.26 168.66 C 275.82 165.27 272.77 159.61 273.61 153.93 C 274.34 148.71 277.33 143.61 282.18 141.25 Z" />
</g>
<g id="#416f3cff">
<path fill="#416f3c" opacity="1.00" d=" M 356.31 139.09 C 362.90 137.70 369.98 139.03 375.78 142.39 C 381.93 146.38 385.98 153.02 387.82 160.02 C 390.32 169.59 389.75 179.95 386.15 189.16 C 382.93 196.55 376.70 203.03 368.78 205.18 C 359.17 208.13 347.83 205.60 341.15 197.87 C 335.46 190.99 332.84 181.86 333.18 173.00 C 332.84 165.22 334.77 157.34 338.88 150.70 C 342.96 144.84 349.25 140.43 356.31 139.09 M 357.34 144.49 C 347.40 146.57 341.67 156.65 340.44 166.06 C 340.02 172.90 339.57 180.12 342.59 186.49 C 345.47 194.04 352.40 201.11 361.00 200.75 C 367.48 201.08 373.25 196.94 376.81 191.83 C 381.29 185.20 382.98 176.91 382.34 169.01 C 381.38 160.93 378.51 152.30 371.55 147.44 C 367.60 144.23 362.20 143.65 357.34 144.49 Z" />
</g>
<g id="#446f3cff">
<path fill="#446f3c" opacity="1.00" d=" M 592.79 139.74 C 594.91 140.05 599.37 138.60 599.43 141.96 C 599.44 163.07 599.56 184.19 599.34 205.30 C 597.14 205.20 594.95 205.03 592.77 204.82 C 592.63 183.13 592.63 161.43 592.79 139.74 Z" />
</g>
<g id="#c35532ff">
<path fill="#c35532" opacity="1.00" d=" M 123.64 146.69 C 124.72 144.93 125.86 143.13 127.61 141.97 C 128.41 141.91 129.21 141.88 130.02 141.85 C 130.80 142.65 131.58 143.44 132.35 144.24 C 132.44 143.63 132.61 142.40 132.70 141.79 C 136.58 142.55 140.39 143.74 143.89 145.61 C 142.04 148.45 139.65 151.54 140.87 155.13 C 142.78 153.29 144.64 151.40 146.46 149.48 C 147.71 150.27 148.96 151.05 150.21 151.85 C 147.75 153.49 145.51 155.44 143.18 157.26 C 139.02 160.06 133.73 158.57 129.14 158.00 C 127.01 156.24 124.86 154.48 122.56 152.93 C 124.04 152.32 125.53 151.71 127.01 151.10 C 128.49 153.23 129.97 155.35 131.49 157.46 C 132.30 156.01 133.13 154.56 133.73 153.01 C 132.26 150.17 129.88 147.96 127.78 145.59 C 126.40 145.96 125.03 146.34 123.64 146.69 Z" />
</g>
<g id="#fefefeff">
</g>
<g id="#dc7f31ff">
<path fill="#dc7f31" opacity="1.00" d=" M 150.21 151.85 C 153.05 151.72 155.89 152.03 158.69 152.52 C 158.96 153.76 159.24 154.99 159.52 156.22 L 159.69 157.00 C 159.10 157.62 158.52 158.24 157.94 158.87 C 156.88 157.00 155.63 155.16 153.84 153.91 C 150.88 154.58 148.30 156.26 145.71 157.76 C 144.87 157.59 144.02 157.43 143.18 157.26 C 145.51 155.44 147.75 153.49 150.21 151.85 Z" />
</g>
<g id="#f8ad38ff">
<path fill="#f8ad38" opacity="1.00" d=" M 160.04 150.95 C 164.27 153.03 168.49 155.16 172.73 157.21 C 173.54 156.12 174.35 155.03 175.15 153.94 C 178.81 155.86 182.99 157.08 186.05 159.95 C 188.16 162.97 189.01 166.64 190.33 170.04 C 190.69 171.04 191.07 172.05 191.44 173.05 C 193.36 178.13 194.83 183.51 194.40 188.99 C 190.83 187.27 188.20 184.27 185.60 181.37 C 185.15 181.51 184.26 181.77 183.81 181.90 C 183.65 181.58 183.33 180.94 183.17 180.62 C 182.18 178.77 181.30 176.78 179.74 175.33 C 176.32 173.52 171.74 174.09 169.06 170.92 C 165.29 166.77 162.20 162.00 159.69 157.00 L 159.52 156.22 C 159.64 154.46 159.84 152.70 160.04 150.95 Z" />
</g>
<g id="#f8ad36ff">
<path fill="#f8ad36" opacity="1.00" d=" M 145.71 157.76 C 148.30 156.26 150.88 154.58 153.84 153.91 C 155.63 155.16 156.88 157.00 157.94 158.87 C 159.69 163.08 160.90 167.61 163.70 171.30 C 166.26 174.83 169.82 177.48 173.63 179.53 C 173.33 179.96 172.74 180.83 172.44 181.26 C 170.12 181.28 167.80 181.23 165.49 181.21 C 165.26 182.44 165.10 183.67 165.03 184.92 C 165.59 185.14 166.71 185.58 167.27 185.80 C 167.24 188.43 167.28 191.08 167.08 193.71 C 166.99 194.60 166.82 196.38 166.73 197.27 C 164.51 197.34 161.75 197.97 160.30 195.75 C 154.20 188.54 153.59 178.43 148.05 170.85 C 148.22 176.80 149.55 182.64 149.66 188.59 C 149.75 195.77 150.85 202.93 150.23 210.12 C 150.09 211.30 149.94 212.49 149.75 213.67 L 148.86 213.87 C 148.85 213.42 148.82 212.52 148.81 212.07 C 146.33 211.15 143.92 209.96 142.04 208.07 C 140.64 205.12 139.45 202.07 138.21 199.06 C 134.37 199.33 132.90 202.96 131.19 205.83 C 129.66 208.16 128.11 210.49 126.62 212.85 C 125.35 211.60 124.08 210.35 122.79 209.12 C 122.97 210.28 123.15 211.44 123.35 212.61 L 122.58 212.73 C 121.50 207.34 121.01 201.78 122.04 196.34 C 122.90 191.21 122.48 185.93 123.83 180.88 C 124.95 176.59 125.75 172.20 125.84 167.76 C 119.72 176.23 119.24 187.48 112.75 195.74 C 111.27 197.65 108.65 197.73 106.52 198.42 C 106.33 196.22 106.12 194.03 105.94 191.84 C 105.75 189.51 105.66 187.18 105.50 184.85 C 105.48 184.50 105.43 183.80 105.41 183.45 C 103.15 183.01 100.89 182.56 98.64 182.10 C 102.02 179.01 105.84 176.37 108.83 172.87 C 112.46 168.48 113.20 162.62 115.72 157.65 C 116.37 156.31 117.50 154.99 119.10 154.90 C 122.55 155.55 125.74 157.14 129.14 158.00 C 133.73 158.57 139.02 160.06 143.18 157.26 C 144.02 157.43 144.87 157.59 145.71 157.76 M 139.21 189.03 C 137.71 192.07 136.77 195.34 135.93 198.61 C 138.58 197.78 141.61 196.63 142.69 193.80 C 142.87 191.58 140.75 190.21 139.21 189.03 Z" />
</g>
<g id="#b7631cff">
<path fill="#b7631c" opacity="1.00" d=" M 157.94 158.87 C 158.52 158.24 159.10 157.62 159.69 157.00 C 162.20 162.00 165.29 166.77 169.06 170.92 C 171.74 174.09 176.32 173.52 179.74 175.33 C 181.30 176.78 182.18 178.77 183.17 180.62 C 180.77 177.52 177.02 176.24 173.29 175.61 C 173.59 176.66 173.89 177.71 174.19 178.77 L 173.63 179.53 C 169.82 177.48 166.26 174.83 163.70 171.30 C 160.90 167.61 159.69 163.08 157.94 158.87 Z" />
</g>
<g id="#d18433ff">
<path fill="#d18433" opacity="1.00" d=" M 64.13 168.79 C 71.10 168.64 77.29 165.04 83.83 163.05 C 83.07 166.18 82.33 169.31 81.64 172.45 C 81.29 172.45 80.59 172.46 80.24 172.46 C 73.15 172.46 66.05 172.53 58.96 172.37 C 56.19 172.30 52.94 171.66 51.44 169.04 C 52.19 168.16 53.03 167.39 53.96 166.71 C 56.90 168.86 60.64 168.94 64.13 168.79 Z" />
</g>
<g id="#cf8032ff">
<path fill="#cf8032" opacity="1.00" d=" M 190.12 163.10 C 196.26 164.92 202.18 167.71 208.58 168.55 C 210.54 168.96 212.14 167.54 213.74 166.67 C 215.12 166.84 216.51 166.98 217.88 167.19 C 219.69 167.13 219.44 169.12 219.93 170.32 C 211.73 172.03 203.33 171.68 195.02 171.44 C 193.54 171.14 192.45 172.13 191.44 173.05 C 191.07 172.05 190.69 171.04 190.33 170.04 C 190.66 169.72 191.31 169.08 191.64 168.76 C 191.11 166.88 190.64 164.98 190.12 163.10 Z" />
</g>
<g id="#d48b2eff">
<path fill="#d48b2e" opacity="1.00" d=" M 112.75 195.74 C 119.24 187.48 119.72 176.23 125.84 167.76 C 125.75 172.20 124.95 176.59 123.83 180.88 C 122.48 185.93 122.90 191.21 122.04 196.34 C 121.80 194.82 121.56 193.31 121.32 191.80 C 118.51 194.15 116.02 196.85 113.51 199.51 C 110.24 202.97 105.82 204.94 102.02 207.72 C 103.35 202.43 104.54 197.11 105.94 191.84 C 106.12 194.03 106.33 196.22 106.52 198.42 C 108.65 197.73 111.27 197.65 112.75 195.74 Z" />
</g>
<g id="#995b33ff">
<path fill="#995b33" opacity="1.00" d=" M 95.19 175.96 C 98.57 175.36 102.01 174.42 104.36 171.71 C 104.92 176.79 99.14 178.49 97.19 182.41 C 96.62 184.66 96.80 187.02 96.69 189.32 C 96.69 191.00 94.92 191.85 93.89 192.90 C 91.52 194.63 88.95 197.27 85.73 196.27 C 85.34 190.73 88.08 185.53 89.73 180.35 C 91.13 178.48 92.68 176.30 95.19 175.96 Z" />
</g>
<g id="#945d32ff">
<path fill="#945d32" opacity="1.00" d=" M 173.29 175.61 C 177.02 176.24 180.77 177.52 183.17 180.62 C 183.33 180.94 183.65 181.58 183.81 181.90 C 185.90 186.30 187.75 191.01 187.28 195.98 C 180.98 196.57 176.60 191.40 172.15 187.81 C 172.12 187.53 172.06 186.96 172.02 186.67 C 173.32 186.69 174.61 186.76 175.90 186.82 C 175.48 184.11 174.94 181.41 174.19 178.77 C 173.89 177.71 173.59 176.66 173.29 175.61 Z" />
</g>
<g id="#d28934ff">
<path fill="#d28934" opacity="1.00" d=" M 173.63 179.53 L 174.19 178.77 C 174.94 181.41 175.48 184.11 175.90 186.82 C 174.61 186.76 173.32 186.69 172.02 186.67 C 172.06 186.96 172.12 187.53 172.15 187.81 C 170.53 187.13 168.92 186.41 167.27 185.80 C 166.71 185.58 165.59 185.14 165.03 184.92 C 165.10 183.67 165.26 182.44 165.49 181.21 C 167.80 181.23 170.12 181.28 172.44 181.26 C 172.74 180.83 173.33 179.96 173.63 179.53 Z" />
</g>
<g id="#c68a29ff">
<path fill="#c68a29" opacity="1.00" d=" M 139.21 189.03 C 140.75 190.21 142.87 191.58 142.69 193.80 C 141.61 196.63 138.58 197.78 135.93 198.61 C 136.77 195.34 137.71 192.07 139.21 189.03 Z" />
</g>
<g id="#d9b276ff">
<path fill="#d9b276" opacity="1.00" d=" M 126.62 212.85 C 128.11 210.49 129.66 208.16 131.19 205.83 C 130.74 209.83 129.36 214.04 126.02 216.55 C 124.65 215.64 123.39 214.36 123.35 212.61 C 123.15 211.44 122.97 210.28 122.79 209.12 C 124.08 210.35 125.35 211.60 126.62 212.85 Z" />
</g>
<g id="#486745ff">
<path fill="#486745" opacity="1.00" d=" M 377.46 224.53 C 380.10 222.98 384.41 222.37 386.27 225.37 C 383.34 226.30 379.08 225.34 377.42 228.53 C 376.05 230.90 376.62 233.77 376.44 236.38 C 378.92 236.83 383.02 235.14 383.50 238.75 C 381.15 239.13 378.79 239.37 376.43 239.53 C 376.39 247.66 376.52 255.79 376.36 263.91 C 375.61 263.89 374.10 263.84 373.34 263.82 C 373.50 255.87 373.35 247.91 373.43 239.96 C 371.93 239.24 370.42 238.53 368.95 237.77 C 370.29 237.20 371.66 236.67 373.04 236.18 C 373.53 232.07 373.54 227.03 377.46 224.53 Z" />
</g>
<g id="#61815cff">
<path fill="#61815c" opacity="1.00" d=" M 62.85 224.05 C 63.48 223.89 64.73 223.57 65.35 223.42 C 65.65 228.89 65.60 234.37 65.45 239.85 C 68.34 237.43 71.97 234.85 75.96 235.99 C 79.80 236.55 82.75 240.12 82.69 243.98 C 83.00 250.69 82.93 257.43 82.62 264.14 C 81.84 264.02 80.28 263.79 79.50 263.67 C 79.74 257.44 79.82 251.19 79.58 244.96 C 79.78 240.76 75.04 237.55 71.18 238.93 C 67.91 240.21 65.71 243.60 65.58 247.06 C 65.34 252.83 65.77 258.61 65.34 264.37 C 64.72 264.21 63.50 263.89 62.88 263.72 C 62.06 256.19 62.74 248.57 62.53 241.00 C 62.69 235.35 62.13 229.66 62.85 224.05 Z" />
</g>
<g id="#4a6948ff">
<path fill="#4a6948" opacity="1.00" d=" M 489.32 224.22 C 490.08 224.12 491.61 223.92 492.38 223.82 C 492.50 229.18 492.50 234.54 492.48 239.91 C 494.99 237.35 498.28 235.49 502.00 236.25 C 506.62 235.99 509.68 240.78 509.57 244.97 C 509.67 251.27 509.52 257.57 509.58 263.87 C 508.57 263.85 507.56 263.83 506.56 263.81 C 506.57 257.53 506.71 251.25 506.50 244.98 C 506.39 241.82 503.99 239.14 500.93 238.51 C 496.75 238.19 492.51 241.78 492.51 246.07 C 492.34 252.02 492.61 257.98 492.37 263.92 C 491.61 263.89 490.09 263.81 489.33 263.78 C 489.44 250.59 489.45 237.40 489.32 224.22 Z" />
</g>
<g id="#4f6b4bff">
<path fill="#4f6b4b" opacity="1.00" d=" M 138.36 227.33 C 139.88 227.29 141.39 227.26 142.91 227.26 C 142.75 228.59 142.68 229.95 142.26 231.24 C 141.09 231.46 139.89 231.45 138.70 231.58 C 138.58 230.16 138.47 228.75 138.36 227.33 Z" />
</g>
<g id="#4e5a4dff">
<path fill="#4e5a4d" opacity="1.00" d=" M 701.33 227.35 C 702.82 227.34 704.32 227.35 705.83 227.39 C 705.64 228.67 705.49 229.96 705.22 231.23 C 704.05 231.41 702.87 231.48 701.71 231.58 C 701.57 230.17 701.44 228.76 701.33 227.35 Z" />
</g>
<g id="#456a40ff">
<path fill="#456a40" opacity="1.00" d=" M 726.47 231.43 C 727.22 231.03 727.98 230.64 728.76 230.26 C 728.90 232.30 729.06 234.34 729.19 236.39 C 731.48 236.98 735.63 235.11 736.51 238.03 C 734.57 239.82 731.58 239.11 729.17 239.37 C 729.38 245.86 728.85 252.38 729.37 258.85 C 729.50 262.15 733.52 261.71 735.82 262.30 C 735.77 262.86 735.67 263.98 735.62 264.54 C 732.49 264.46 728.02 264.93 726.88 261.11 C 725.44 253.99 726.77 246.64 725.98 239.44 C 724.68 239.23 723.39 239.01 722.11 238.78 C 722.11 238.22 722.12 237.08 722.12 236.52 C 723.41 236.45 724.71 236.39 726.02 236.32 C 726.15 234.69 726.30 233.06 726.47 231.43 Z" />
</g>
<g id="#4d684bff">
<path fill="#4d684b" opacity="1.00" d=" M 103.40 237.11 C 107.87 236.39 113.88 234.63 117.12 238.86 C 119.38 241.32 119.42 244.86 119.42 248.00 C 119.35 253.50 119.49 258.99 119.30 264.48 C 117.73 263.98 116.84 262.72 116.17 261.31 C 113.87 263.14 111.24 264.98 108.12 264.52 C 102.31 264.88 98.70 257.35 101.80 252.71 C 104.57 247.52 111.20 247.52 116.25 246.57 C 115.87 244.09 116.07 240.79 113.43 239.48 C 110.25 237.52 106.57 239.37 103.27 239.96 C 103.31 239.25 103.37 237.83 103.40 237.11 M 104.55 253.58 C 103.78 256.29 103.70 259.97 106.53 261.54 C 109.06 262.19 112.15 262.13 114.05 260.08 C 117.00 257.41 116.12 253.04 116.22 249.50 C 112.05 249.26 107.08 249.80 104.55 253.58 Z" />
</g>
<g id="#456b3fff">
<path fill="#456b3f" opacity="1.00" d=" M 139.33 236.38 C 140.01 236.40 141.37 236.44 142.04 236.46 C 142.67 245.55 142.28 254.68 142.27 263.79 C 141.51 263.81 139.99 263.84 139.23 263.85 C 139.29 254.69 139.12 245.53 139.33 236.38 Z" />
</g>
<g id="#4a6b44ff">
<path fill="#4a6b44" opacity="1.00" d=" M 161.65 236.89 C 162.62 236.69 163.58 236.44 164.54 236.17 C 164.79 237.70 165.06 239.23 165.30 240.77 C 167.15 237.95 170.95 234.13 174.10 237.67 C 172.04 238.76 169.73 239.45 167.89 240.92 C 165.83 243.03 165.59 246.17 165.56 248.97 C 165.55 253.92 165.57 258.88 165.58 263.83 C 164.54 263.83 163.50 263.83 162.46 263.83 C 162.08 254.86 163.41 245.73 161.65 236.89 Z" />
</g>
<g id="#4f654bff">
<path fill="#4f654b" opacity="1.00" d=" M 219.06 237.16 C 222.67 235.54 226.77 236.47 230.59 236.54 C 230.61 237.61 230.67 238.69 230.77 239.76 C 227.44 239.11 223.74 237.62 220.57 239.58 C 212.59 243.73 212.47 257.28 220.72 261.18 C 224.19 263.02 228.71 259.81 231.66 262.75 C 227.82 264.48 223.24 265.32 219.24 263.68 C 208.81 259.31 208.89 241.81 219.06 237.16 Z" />
</g>
<g id="#4c694aff">
<path fill="#4c694a" opacity="1.00" d=" M 249.36 237.19 C 253.14 236.32 257.41 235.42 261.09 237.07 C 264.81 239.32 265.35 244.03 265.28 247.99 C 265.15 253.50 265.44 259.03 265.14 264.54 C 263.71 263.90 262.73 262.75 261.98 261.43 C 259.05 264.20 254.72 265.42 250.88 263.96 C 245.99 261.82 245.10 254.47 248.94 250.92 C 252.37 247.46 257.52 247.48 261.99 246.63 C 261.64 244.17 262.00 240.93 259.44 239.53 C 256.24 237.38 252.40 239.32 249.05 240.02 C 249.13 239.31 249.28 237.90 249.36 237.19 M 250.86 252.78 C 249.23 255.31 249.31 259.27 251.76 261.25 C 255.24 263.34 260.07 261.26 261.52 257.63 C 262.49 254.94 262.04 252.05 261.84 249.29 C 258.01 249.50 253.59 249.67 250.86 252.78 Z" />
</g>
<g id="#51704fff">
<path fill="#51704f" opacity="1.00" d=" M 287.99 239.92 C 290.08 237.22 293.08 235.84 296.50 236.18 C 296.47 236.73 296.41 237.82 296.38 238.37 C 293.00 239.31 288.98 241.00 288.58 245.01 C 288.06 251.22 288.31 257.48 288.42 263.71 C 287.24 263.76 286.05 263.81 284.87 263.86 C 284.64 254.90 284.58 245.92 284.86 236.97 C 285.43 236.73 286.57 236.24 287.14 235.99 C 287.43 237.30 287.71 238.61 287.99 239.92 Z" />
</g>
<g id="#496648ff">
<path fill="#496648" opacity="1.00" d=" M 313.02 239.97 C 315.79 235.96 321.11 235.59 325.46 236.65 C 328.86 238.49 330.84 242.21 331.29 245.96 C 331.43 247.49 332.19 249.83 329.89 250.05 C 324.29 250.54 318.64 249.07 313.05 250.18 C 312.91 254.51 314.43 259.30 318.64 261.26 C 322.23 262.43 326.07 261.45 329.74 261.18 C 329.68 261.76 329.57 262.92 329.51 263.50 C 324.91 264.41 319.50 265.59 315.38 262.65 C 308.33 257.63 308.26 246.58 313.02 239.97 M 316.89 239.85 C 314.44 241.57 313.54 244.61 313.19 247.43 C 318.30 247.60 323.42 247.62 328.54 247.37 C 327.89 244.94 327.80 242.02 325.69 240.32 C 323.39 238.03 319.40 237.82 316.89 239.85 Z" />
</g>
<g id="#496647ff">
<path fill="#496647" opacity="1.00" d=" M 403.44 236.79 C 407.83 235.74 413.43 235.59 416.52 239.50 C 420.35 243.25 419.87 249.04 419.61 253.94 C 419.03 261.26 410.82 266.65 403.88 263.95 C 393.45 259.40 393.61 241.83 403.44 236.79 M 404.42 239.37 C 398.26 243.28 397.88 252.66 401.64 258.36 C 403.86 262.27 409.82 263.21 413.02 260.02 C 417.30 256.11 417.55 249.41 415.77 244.25 C 414.24 239.76 408.76 236.80 404.42 239.37 Z" />
</g>
<g id="#486d42ff">
<path fill="#486d42" opacity="1.00" d=" M 438.28 236.21 C 438.81 236.28 439.88 236.43 440.41 236.50 C 440.56 237.63 440.71 238.76 440.87 239.90 C 442.97 237.69 445.60 236.11 448.72 235.99 C 448.73 236.59 448.73 237.80 448.73 238.41 C 445.47 239.19 442.42 241.20 441.45 244.57 C 439.42 250.75 441.03 257.38 439.65 263.68 C 437.43 254.89 439.37 245.77 438.32 236.85 L 438.28 236.21 Z" />
</g>
<g id="#526a4eff">
<path fill="#526a4e" opacity="1.00" d=" M 529.39 236.41 C 530.43 236.42 531.47 236.43 532.52 236.44 C 532.58 242.64 532.25 248.86 532.62 255.06 C 532.73 258.38 535.22 262.29 538.96 261.80 C 542.50 262.19 545.20 258.96 546.34 255.97 C 546.85 249.51 546.39 243.02 546.58 236.55 C 547.55 236.51 548.53 236.43 549.51 236.32 C 549.44 245.51 549.26 254.71 549.66 263.89 C 549.03 263.88 547.77 263.86 547.14 263.85 C 546.98 263.16 546.66 261.78 546.50 261.09 C 543.79 263.14 540.67 265.07 537.10 264.50 C 532.73 264.41 529.97 259.86 529.57 255.93 C 529.19 249.43 529.43 242.92 529.39 236.41 Z" />
</g>
<g id="#486942ff">
<path fill="#486942" opacity="1.00" d=" M 572.88 239.76 C 574.42 238.41 575.82 236.39 578.07 236.39 C 580.21 236.21 582.36 236.34 584.50 236.46 C 585.73 237.87 586.93 239.31 588.14 240.75 C 590.37 238.09 593.22 235.53 597.01 236.19 C 601.89 235.56 604.98 240.67 605.24 244.95 C 605.43 251.29 605.31 257.64 605.20 263.98 C 604.50 263.92 603.10 263.81 602.40 263.75 C 602.46 257.82 602.61 251.87 602.30 245.95 C 602.13 242.94 600.79 239.34 597.55 238.58 C 593.52 237.64 589.50 241.14 589.20 245.12 C 588.61 251.38 589.03 257.68 588.86 263.96 C 588.18 263.94 586.84 263.89 586.17 263.86 C 585.30 257.10 586.28 250.27 585.54 243.51 C 585.34 241.02 583.24 239.14 580.92 238.55 C 576.56 238.00 572.95 242.12 572.66 246.23 C 572.23 252.03 572.99 257.89 572.26 263.68 C 571.66 263.83 570.45 264.14 569.85 264.30 C 569.71 255.07 569.57 245.83 569.81 236.61 C 571.84 235.36 572.03 238.67 572.88 239.76 Z" />
</g>
<g id="#4f6c4bff">
<path fill="#4f6c4b" opacity="1.00" d=" M 625.48 237.43 C 628.77 236.55 632.25 235.40 635.66 236.37 C 639.25 236.94 641.57 240.58 641.52 244.06 C 641.71 250.68 641.50 257.31 641.74 263.94 C 641.15 263.89 639.96 263.80 639.37 263.76 C 639.27 263.12 639.06 261.84 638.96 261.20 C 635.92 263.68 632.04 265.48 628.10 264.10 C 622.23 262.47 621.74 253.53 626.34 250.27 C 629.86 247.34 634.69 247.41 638.95 246.49 C 638.48 244.14 638.42 241.26 636.28 239.72 C 633.03 237.29 628.97 239.45 625.43 239.91 C 625.44 239.29 625.47 238.05 625.48 237.43 M 628.70 251.63 C 625.54 253.84 625.57 259.14 628.61 261.45 C 631.56 262.47 635.31 261.88 637.14 259.13 C 639.41 256.39 638.75 252.63 638.77 249.35 C 635.35 249.59 631.65 249.61 628.70 251.63 Z" />
</g>
<g id="#496547ff">
<path fill="#496547" opacity="1.00" d=" M 664.76 239.81 C 667.19 237.41 670.39 235.62 673.93 236.23 C 678.12 236.11 681.54 239.88 681.59 243.96 C 681.74 250.31 681.88 256.69 681.52 263.04 C 681.07 263.47 680.18 264.35 679.73 264.79 C 679.06 257.43 680.66 249.80 678.49 242.62 C 676.59 239.05 672.09 237.30 668.48 239.49 C 666.77 241.04 664.80 242.80 664.69 245.28 C 664.25 251.74 664.75 258.23 664.43 264.70 C 663.75 264.22 662.38 263.27 661.69 262.80 C 661.56 254.07 661.40 245.32 661.68 236.60 C 663.79 235.35 664.07 238.61 664.76 239.81 Z" />
</g>
<g id="#4a6446ff">
<path fill="#4a6446" opacity="1.00" d=" M 702.26 236.36 C 702.86 236.39 704.04 236.43 704.64 236.45 C 705.53 245.54 705.52 254.75 704.73 263.84 C 704.12 263.86 702.89 263.89 702.28 263.91 C 701.28 254.73 702.29 245.55 702.26 236.36 Z" />
</g>
<g id="#4f684cff">
<path fill="#4f684c" opacity="1.00" d=" M 750.99 236.43 C 751.70 236.43 753.11 236.43 753.82 236.43 C 756.65 243.95 759.34 251.53 762.29 259.01 C 764.48 252.01 766.90 245.09 769.34 238.18 C 769.54 236.36 771.59 236.57 772.90 236.07 C 771.84 242.03 768.93 247.41 767.00 253.09 C 764.40 260.04 762.38 267.62 757.12 273.12 C 755.60 274.64 753.14 276.78 751.03 275.01 C 754.19 271.26 759.38 268.30 759.78 262.93 C 757.92 253.79 752.77 245.61 750.99 236.43 Z" />
</g>
<g id="#87a383ff">
<path fill="#87a383" opacity="1.00" d=" M 438.32 236.85 C 439.37 245.77 437.43 254.89 439.65 263.68 C 441.03 257.38 439.42 250.75 441.45 244.57 C 441.57 251.00 441.37 257.42 441.56 263.85 C 440.35 263.93 439.14 264.03 437.95 264.15 C 437.81 255.06 437.17 245.89 438.32 236.85 Z" />
</g>
<g id="#f4fcf4ff">
</g>
<g id="#fbfdfbff">
</g>
<g id="#eaf9e6ff">
<path fill="#eaf9e6" opacity="1.00" d=" M 664.69 245.28 C 664.80 242.80 666.77 241.04 668.48 239.49 C 664.98 245.81 667.69 252.95 667.54 259.69 C 667.64 261.88 665.86 263.33 664.43 264.70 C 664.75 258.23 664.25 251.74 664.69 245.28 Z" />
</g>
<g id="#94b291ff">
<path fill="#94b291" opacity="1.00" d=" M 678.49 242.62 C 680.66 249.80 679.06 257.43 679.73 264.79 C 679.06 263.61 678.25 262.43 678.40 261.01 C 678.37 254.88 678.32 248.75 678.49 242.62 Z" />
</g>
<g id="#f4fcf3ff">
</g>
<g id="#f7fcf5ff">
</g>
<g id="#f6fdf5ff">
</g>
</svg>
