<?xml version="1.0" encoding="UTF-8" ?>
<!DOCTYPE svg PUBLIC "-//W3C//DTD SVG 1.1//EN" "http://www.w3.org/Graphics/SVG/1.1/DTD/svg11.dtd">
<svg width="567pt" height="213pt" viewBox="0 0 567 213" version="1.1" xmlns="http://www.w3.org/2000/svg">
<g id="#000000ff">
<path fill="#000000" opacity="1.00" d=" M 135.39 11.56 C 150.45 9.65 166.68 12.79 178.83 22.23 C 190.38 31.06 197.40 45.47 197.29 60.01 C 197.72 75.12 190.34 90.18 178.27 99.25 C 168.28 106.89 155.46 110.31 142.99 110.03 C 127.36 110.35 111.27 104.15 101.13 92.01 C 90.34 79.22 87.14 60.61 92.76 44.89 C 99.14 26.84 116.68 14.10 135.39 11.56 M 136.52 21.83 C 125.03 24.17 114.50 31.39 108.63 41.59 C 102.90 51.53 102.18 64.06 106.24 74.73 C 110.92 86.98 122.08 96.45 134.90 99.15 C 154.76 103.76 176.42 90.84 182.57 71.59 C 188.38 54.28 179.08 34.06 163.06 25.89 C 154.95 21.79 145.48 20.24 136.52 21.83 Z" />
<path fill="#000000" opacity="1.00" d=" M 345.08 12.01 C 351.72 12.03 358.37 11.92 365.01 12.07 C 355.41 15.78 345.69 19.17 335.96 22.51 C 338.90 18.92 342.07 15.54 345.08 12.01 Z" />
<path fill="#000000" opacity="1.00" d=" M 10.51 24.75 C 14.16 24.75 17.82 24.75 21.47 24.74 C 21.54 48.16 21.48 71.58 21.51 95.00 C 41.67 95.00 61.83 95.00 82.00 95.00 C 82.00 97.92 82.00 100.84 81.99 103.76 C 58.14 103.68 34.28 103.88 10.43 103.66 C 10.60 77.36 10.44 51.06 10.51 24.75 Z" />
<path fill="#000000" opacity="1.00" d=" M 61.18 53.00 C 65.04 43.58 68.83 34.13 72.75 24.74 C 76.79 24.75 80.84 24.74 84.88 24.77 C 79.82 34.17 74.76 43.58 69.72 53.00 C 66.88 53.00 64.03 53.00 61.18 53.00 Z" />
<path fill="#000000" opacity="1.00" d=" M 211.51 24.75 C 229.02 24.74 246.53 24.76 264.04 24.74 C 271.38 24.86 279.26 26.97 284.28 32.65 C 289.33 38.18 290.21 46.40 288.61 53.46 C 286.18 62.18 278.10 67.85 269.93 70.71 C 277.86 81.70 285.85 92.65 293.64 103.75 C 288.87 103.76 284.11 103.75 279.35 103.76 C 271.32 92.72 263.29 81.69 255.16 70.72 C 244.36 70.79 233.56 70.73 222.76 70.76 C 222.74 81.75 222.76 92.75 222.75 103.74 C 218.99 103.76 215.23 103.77 211.47 103.70 C 211.54 77.39 211.47 51.07 211.51 24.75 M 222.77 34.25 C 222.73 43.17 222.76 52.08 222.76 60.99 C 235.82 61.00 248.89 61.00 261.96 61.01 C 265.03 61.02 268.15 60.43 270.85 58.90 C 277.48 55.28 278.86 45.39 274.38 39.59 C 270.90 35.45 265.16 34.23 259.98 34.48 C 247.57 34.67 235.17 34.33 222.77 34.25 Z" />
<path fill="#000000" opacity="1.00" d=" M 309.01 24.75 C 332.25 24.75 355.50 24.74 378.75 24.76 C 378.75 27.75 378.75 30.75 378.75 33.75 C 359.50 33.76 340.25 33.75 321.01 33.76 C 321.01 42.01 320.96 50.26 321.04 58.52 C 335.52 58.48 350.01 58.50 364.50 58.50 C 364.50 61.58 364.50 64.65 364.51 67.73 C 350.01 67.79 335.51 67.73 321.01 67.76 C 321.00 76.76 320.99 85.75 321.01 94.75 C 340.26 94.75 359.50 94.74 378.75 94.76 C 378.75 97.76 378.75 100.75 378.75 103.75 C 355.50 103.76 332.26 103.74 309.01 103.76 C 308.99 77.42 309.00 51.09 309.01 24.75 Z" />
<path fill="#000000" opacity="1.00" d=" M 380.01 103.71 C 393.62 77.41 407.03 51.01 420.68 24.74 C 425.85 24.76 431.03 24.75 436.20 24.74 C 449.57 51.08 463.08 77.35 476.35 103.74 C 471.66 103.76 466.98 103.75 462.29 103.76 C 458.73 97.05 455.28 90.29 451.88 83.50 C 436.10 83.49 420.33 83.53 404.55 83.48 C 401.12 90.20 397.76 96.95 394.43 103.72 C 389.62 103.77 384.81 103.78 380.01 103.71 M 428.32 36.40 C 422.26 48.65 415.97 60.77 409.88 73.00 C 422.13 73.00 434.37 73.01 446.62 72.99 C 440.53 60.79 434.43 48.59 428.32 36.40 Z" />
<path fill="#000000" opacity="1.00" d=" M 485.00 25.00 C 488.66 25.00 492.33 25.00 496.00 25.00 C 496.00 48.33 495.99 71.67 496.00 95.00 C 516.17 95.00 536.33 95.00 556.50 95.00 C 556.49 97.90 556.50 100.79 556.54 103.69 C 532.70 103.84 508.85 103.70 485.01 103.76 C 484.99 77.51 485.00 51.25 485.00 25.00 Z" />
<path fill="#000000" opacity="1.00" d=" M 10.50 118.50 C 192.42 118.50 374.34 118.48 556.25 118.51 C 556.25 132.76 556.26 147.00 556.24 161.24 C 374.33 161.26 192.42 161.25 10.51 161.25 C 10.48 147.00 10.50 132.75 10.50 118.50 M 21.76 128.25 C 21.75 136.00 21.75 143.74 21.76 151.49 C 23.17 151.49 24.59 151.49 26.00 151.50 C 25.99 148.16 26.00 144.82 26.03 141.48 C 30.99 141.38 35.98 141.78 40.92 141.28 C 44.16 140.88 48.17 138.80 48.09 135.04 C 48.37 130.72 43.77 128.32 40.01 128.31 C 33.93 128.15 27.84 128.30 21.76 128.25 M 66.01 128.25 C 65.99 136.00 66.00 143.75 66.00 151.50 C 67.42 151.49 68.83 151.49 70.24 151.49 C 70.24 148.16 70.25 144.83 70.26 141.50 C 73.32 141.49 76.38 141.50 79.45 141.51 C 82.72 144.78 85.80 148.25 89.11 151.49 C 90.75 151.50 92.40 151.51 94.05 151.52 C 91.02 148.07 87.71 144.90 84.65 141.48 C 86.84 140.93 89.24 140.58 91.02 139.06 C 93.63 136.94 93.32 132.31 90.54 130.47 C 87.79 128.59 84.33 128.28 81.10 128.25 C 76.07 128.23 71.04 128.27 66.01 128.25 M 119.34 128.43 C 112.30 129.90 108.32 138.29 111.30 144.76 C 114.70 152.51 125.36 153.73 132.24 150.27 C 138.94 147.03 140.36 137.03 135.23 131.80 C 131.15 127.74 124.71 126.98 119.34 128.43 M 154.61 128.17 C 154.37 135.94 154.56 143.72 154.51 151.49 C 156.00 151.49 157.50 151.49 159.00 151.50 C 158.99 147.83 159.00 144.16 159.02 140.49 C 164.51 140.50 170.00 140.51 175.50 140.49 C 175.50 139.87 175.50 138.63 175.50 138.00 C 170.00 137.99 164.50 138.01 159.00 138.00 C 159.00 135.58 159.00 133.17 159.00 130.75 C 164.92 130.74 170.84 130.76 176.76 130.74 C 176.76 130.12 176.76 128.88 176.75 128.26 C 169.37 128.19 161.99 128.35 154.61 128.17 M 197.01 128.25 C 196.99 135.99 197.00 143.74 197.00 151.49 C 205.25 151.50 213.49 151.50 221.74 151.50 C 221.74 150.87 221.75 149.63 221.76 149.01 C 214.92 148.99 208.08 149.01 201.24 148.99 C 201.24 146.25 201.24 143.50 201.25 140.76 C 207.08 140.73 212.92 140.76 218.75 140.74 C 218.75 140.12 218.76 138.88 218.76 138.26 C 212.92 138.23 207.08 138.27 201.25 138.24 C 201.24 135.75 201.24 133.25 201.25 130.76 C 207.91 130.74 214.58 130.76 221.24 130.75 C 221.24 130.12 221.24 128.88 221.24 128.25 C 213.16 128.25 205.09 128.26 197.01 128.25 M 241.90 129.81 C 239.64 130.97 238.00 134.08 239.62 136.40 C 242.82 140.69 248.95 140.05 252.98 143.06 C 254.63 144.20 254.28 146.84 252.59 147.78 C 248.71 150.12 243.95 149.04 239.79 148.14 C 239.70 148.85 239.53 150.25 239.44 150.96 C 244.66 151.96 250.33 152.43 255.32 150.25 C 258.17 149.06 260.25 145.39 258.35 142.56 C 255.17 138.36 249.28 138.52 245.10 135.86 C 243.42 134.92 243.77 132.31 245.50 131.65 C 249.05 129.95 253.14 130.89 256.84 131.51 C 256.97 130.83 257.24 129.46 257.38 128.78 C 252.28 127.83 246.66 127.29 241.90 129.81 M 280.00 130.02 C 277.45 131.34 276.48 135.15 278.63 137.25 C 282.26 140.62 287.83 140.30 291.69 143.28 C 293.22 144.60 292.50 147.01 290.88 147.91 C 286.93 150.16 282.26 148.83 278.04 148.29 C 278.04 148.94 278.02 150.22 278.02 150.86 C 283.25 152.20 289.08 152.31 294.08 150.08 C 296.93 148.83 298.67 145.09 296.68 142.38 C 293.50 138.48 287.96 138.45 283.82 136.10 C 282.09 135.34 281.93 132.61 283.69 131.78 C 287.23 129.81 291.42 131.05 295.21 131.38 C 295.38 130.74 295.73 129.45 295.91 128.80 C 290.66 127.88 284.80 127.19 280.00 130.02 M 317.55 128.22 C 317.45 135.98 317.52 143.74 317.51 151.50 C 319.00 151.49 320.50 151.49 322.00 151.49 C 321.99 143.75 322.01 136.00 321.99 128.26 C 320.51 128.24 319.03 128.23 317.55 128.22 M 349.39 128.68 C 342.51 130.61 339.16 139.26 342.56 145.44 C 346.21 152.47 355.96 153.51 362.61 150.57 C 369.67 147.57 371.46 137.28 366.21 131.84 C 361.88 127.56 354.99 126.87 349.39 128.68 M 385.52 128.25 C 385.49 136.00 385.50 143.75 385.51 151.49 C 386.50 151.49 388.50 151.50 389.49 151.50 C 389.51 145.24 389.47 138.99 389.52 132.73 C 395.83 138.89 402.05 145.14 408.22 151.43 C 409.81 151.46 411.40 151.49 413.00 151.52 C 412.99 143.76 413.01 136.00 412.99 128.24 C 411.58 128.25 410.17 128.25 408.76 128.25 C 408.73 134.51 408.79 140.77 408.72 147.04 C 402.35 140.84 396.16 134.45 389.81 128.23 C 388.38 128.24 386.94 128.24 385.52 128.25 M 433.25 128.25 C 433.27 136.01 433.19 143.78 433.30 151.54 C 434.28 151.52 436.26 151.49 437.24 151.47 C 437.25 145.22 437.24 138.98 437.25 132.73 C 443.29 138.69 449.44 144.55 455.44 150.56 C 456.75 152.15 458.98 151.30 460.76 151.51 C 460.74 143.76 460.75 136.01 460.75 128.26 C 459.33 128.25 457.92 128.24 456.52 128.24 C 456.47 134.50 456.55 140.77 456.47 147.03 C 450.13 140.83 443.91 134.50 437.63 128.25 C 436.16 128.25 434.71 128.25 433.25 128.25 M 481.01 128.25 C 480.99 136.00 481.00 143.74 481.00 151.50 C 489.34 151.50 497.67 151.50 506.00 151.49 C 506.00 150.87 506.00 149.63 506.00 149.00 C 499.17 148.99 492.33 149.01 485.50 149.00 C 485.49 146.25 485.49 143.50 485.51 140.75 C 491.25 140.74 497.01 140.76 502.76 140.74 C 502.76 140.12 502.75 138.88 502.75 138.26 C 497.00 138.24 491.25 138.26 485.50 138.25 C 485.49 135.75 485.49 133.25 485.50 130.75 C 492.17 130.61 498.85 131.01 505.51 130.56 C 505.51 129.98 505.51 128.82 505.51 128.23 C 497.34 128.27 489.18 128.25 481.01 128.25 M 524.25 128.25 C 524.24 136.00 524.26 143.74 524.24 151.48 C 531.58 151.51 538.91 151.50 546.25 151.49 C 546.25 150.87 546.25 149.63 546.25 149.01 C 540.41 148.99 534.58 149.01 528.75 148.99 C 528.74 142.08 528.75 135.17 528.75 128.25 C 527.24 128.25 525.74 128.25 524.25 128.25 Z" />
<path fill="#000000" opacity="1.00" d=" M 122.20 130.15 C 124.98 129.76 127.97 130.08 130.42 131.54 C 136.56 135.38 135.85 146.36 128.97 149.02 C 125.01 150.42 120.02 150.19 116.86 147.15 C 111.62 141.93 114.18 130.80 122.20 130.15 Z" />
<path fill="#000000" opacity="1.00" d=" M 352.25 130.32 C 355.54 129.60 359.26 129.99 362.03 132.03 C 367.37 136.30 366.50 146.39 359.94 148.99 C 355.99 150.39 350.97 150.23 347.79 147.22 C 342.64 142.25 344.69 131.56 352.25 130.32 Z" />
<path fill="#000000" opacity="1.00" d=" M 26.01 130.75 C 30.69 130.87 35.40 130.46 40.07 130.98 C 42.09 131.12 44.12 132.77 43.79 134.96 C 44.03 137.53 41.18 138.75 39.05 138.89 C 34.70 139.18 30.35 138.92 26.00 139.00 C 26.00 136.25 26.00 133.50 26.01 130.75 Z" />
<path fill="#000000" opacity="1.00" d=" M 70.25 130.76 C 75.62 131.04 81.24 129.96 86.43 131.70 C 89.51 133.00 88.90 137.85 85.66 138.52 C 80.61 139.56 75.37 138.75 70.24 138.99 C 70.24 136.25 70.25 133.50 70.25 130.76 Z" />
<path fill="#000000" opacity="1.00" d=" M 327.38 177.40 C 334.03 173.32 343.45 174.56 348.92 180.13 C 347.29 181.17 345.66 182.21 344.02 183.23 C 340.89 179.61 335.01 178.40 330.98 181.12 C 330.86 181.59 330.62 182.53 330.50 183.00 C 335.34 187.02 343.28 184.46 347.75 189.37 C 350.38 192.80 348.56 198.13 344.69 199.75 C 337.47 202.97 327.97 202.12 322.32 196.22 C 323.99 195.18 325.68 194.17 327.38 193.18 C 330.91 196.61 336.45 198.04 341.06 196.08 C 342.73 195.52 343.58 193.22 341.83 192.19 C 336.95 189.90 330.96 190.73 326.42 187.57 C 322.97 185.08 323.85 179.41 327.38 177.40 Z" />
<path fill="#000000" opacity="1.00" d=" M 218.01 175.75 C 222.69 175.82 227.38 175.60 232.06 175.82 C 235.36 175.99 238.76 177.75 240.08 180.90 C 241.54 184.16 240.58 188.42 237.57 190.46 C 233.67 193.29 228.56 192.38 224.05 192.46 C 224.00 195.31 223.98 198.15 224.00 201.00 C 222.00 201.00 220.00 201.00 218.00 201.00 C 218.00 192.58 217.99 184.17 218.01 175.75 M 224.01 179.73 C 223.99 182.56 224.00 185.40 224.01 188.24 C 226.88 188.10 229.99 188.81 232.67 187.49 C 235.50 186.03 235.02 181.02 231.91 180.25 C 229.32 179.61 226.64 179.78 224.01 179.73 Z" />
<path fill="#000000" opacity="1.00" d=" M 255.18 175.77 C 257.45 175.75 259.72 175.75 262.00 175.74 C 265.47 184.13 268.75 192.58 272.16 200.99 C 270.07 200.99 267.97 200.99 265.88 201.00 C 265.30 199.33 264.71 197.67 264.13 196.00 C 260.45 196.00 256.77 195.99 253.10 196.01 C 252.50 197.71 251.86 199.40 251.16 201.07 C 249.14 201.01 247.12 200.99 245.11 200.98 C 248.46 192.57 251.84 184.18 255.18 175.77 M 254.62 191.74 C 257.26 191.75 259.91 191.75 262.56 191.72 C 261.26 188.08 259.98 184.44 258.61 180.83 C 257.25 184.46 255.91 188.09 254.62 191.74 Z" />
<path fill="#000000" opacity="1.00" d=" M 278.76 175.75 C 285.31 176.36 292.60 174.17 298.58 177.61 C 303.81 180.95 301.75 189.59 295.89 190.95 C 298.09 194.28 300.28 197.62 302.43 201.00 C 300.07 201.02 297.73 201.00 295.38 200.89 C 293.59 197.78 291.65 194.78 289.72 191.77 C 287.98 191.76 286.24 191.75 284.51 191.75 C 284.50 194.83 284.50 197.90 284.51 200.98 C 282.59 200.98 280.67 200.99 278.75 201.00 C 278.75 192.59 278.74 184.17 278.76 175.75 M 284.50 179.99 C 284.50 182.40 284.50 184.82 284.51 187.23 C 287.32 187.16 290.21 187.58 292.97 186.91 C 295.19 186.23 296.44 183.18 294.44 181.53 C 291.70 179.26 287.77 180.22 284.50 179.99 Z" />
<path fill="#000000" opacity="1.00" d=" M 309.76 175.76 C 311.66 175.75 313.57 175.75 315.49 175.74 C 315.53 184.16 315.48 192.57 315.51 200.98 C 313.59 200.99 311.67 200.99 309.75 201.00 C 309.75 192.59 309.74 184.17 309.76 175.76 Z" />
</g>
</svg>
