<?xml version="1.0" encoding="utf-8"?>
<!-- Generator: Adobe Illustrator 22.0.1, SVG Export Plug-In . SVG Version: 6.00 Build 0)  -->
<svg version="1.1" id="Layer_1" xmlns="http://www.w3.org/2000/svg" xmlns:xlink="http://www.w3.org/1999/xlink" x="0px" y="0px"
	 viewBox="0 0 543.7 912.7" style="enable-background:new 0 0 543.7 912.7;" xml:space="preserve">
<title>Asset 1</title>
<g id="Layer_2_1_">
	<g id="Layer_1-2">
		<g id="_020202ff">
			<path d="M205.2,11.3c3.3-4.1,5.8-9.2,11-11.3c3.2-0.3,6.1,1.9,6.6,5c-1.6,7.8-8.8,13-9.9,21c1.2,5.3,7.4,5.5,11.3,7.8
				c6.3,2.7,7,11.3,4,16.7c-1.7,3.7-7,6.4-5,11.1c5.2,5,13.5,5.6,17.4,12c0.9,3.6-0.5,7.3-1.7,10.6c-1.6,4.4-7.3,6.8-7.1,11.9
				c0.7,2.7,2.9,4.6,4.1,7.1c3.2,5.3,3.7,11.7,2.7,17.7c-2.8,5.8-8.6,9.6-14.6,11.5c-1.3-0.9-2.6-1.7-4-2.6c-1.7-6.5,3-11.8,5-17.5
				c-2.1-3.8-6-5.7-9.2-8.4c-1-6.5,4.9-11.9,3.8-18.4c-0.9-4.2-4.5-6.9-6.8-10.3c-2.3-3.9-4.9-8.2-4.1-12.9
				c0.1-5.5,3.8-11.4,0.4-16.5c-1.6-3.5-5.9-4.1-8.1-7c-1.8-3-2.9-6.3-3.2-9.7C198.5,22.5,201,16.3,205.2,11.3z"/>
			<path d="M150.6,17.8c1.1-1.8,3.3-1.7,5.2-1.9c0.8,6.2-1.8,12.1-2,18.3c3.7-0.5,7.2-1.9,10.3-3.9s6.6-4.3,10.4-3
				c3.1,0.8,4.2,4.6,3,7.3c-1.5,4-4.3,7.4-5.9,11.3c6.2,3.6,13-2.7,19.4,0.4c-0.4,8.6-6.3,15.2-9.3,22.9c4.9,0,9.4-2.2,14.2-2.2
				c2.9-0.2,5.8,0,8.7,0.5c1.1,2.9-0.6,5.8-1.9,8.3c-1.8,3.4-5.2,5.7-7.1,9.1c4.4,0.4,8.8-0.1,13.2,0.3c3.1,0.2,4.3,3.5,5.1,6
				c-1.4,6.1-4.9,11.4-7.8,16.8c0.4,1.4,2.1,2,3,3c2.4,1.7,3.7,4.4,4.8,7.1c-1.4,3-2.4,6.6-5.5,8.4c-2.7,1.8-5.3,3.7-7.8,5.7
				c1.8,4.4,6.8,7.4,6.4,12.6c-1.3,0.4-2.6,1.2-4,1.3c-4.4-1.7-8.5-5.9-8.2-11c-0.7-5.2,2.3-9.8,2.2-14.9c-0.8-5.5-7.7-7-9.1-12.2
				c1-5.4,5.2-9.3,8.4-13.6c-6.2-0.2-13.2-1.5-17.2-6.8c-0.5-2.9,1.5-5.6,2-8.4c-4.5-0.4-9.5,0.7-13.6-1.7c-2.4-1.1-3.9-3.5-3.6-6.2
				c1.4-2.7,4-4.8,4.2-8.1c-4.2-2.7-11.5-0.2-13.6-5.8c-1.9-5,2.5-9.5,3.6-14.3c-2.1-0.8-4.3-1.2-6.5-1.8c-4.8-2-8.2-7.7-6.3-12.8
				C147,24.9,148.3,21,150.6,17.8z"/>
			<path d="M252.7,29.9c7.4-5.6,15.5-11.4,25.1-11.8c2.2-0.3,3.4,1.9,4.9,3.2c-1.2,3-2.9,6.2-5.9,7.7c-4.5,2.6-9.1,5.6-12,10.1
				c-1.1,1.7-1.4,3.7-0.9,5.6c4.1,4.8,11.6,6,13.9,12.4c-1.1,2.2-1.9,4.7-4,6c-5.1,3.5-11,6.6-13.8,12.4c-1.6,3.6,2.5,5.7,5,7.4
				c3.3,1.7,5.7,4.7,6.7,8.3c-0.3,3.1-1.4,6.1-3.1,8.7c-4,3.4-9.6,3.6-13.9,6.5c0,3.4,2.7,5.8,4.9,8.1c2.7,2.8,4.8,6.1,6.3,9.7
				c-1.4,4.7-6.5,6.7-11,6.9c-4,0.1-8.1-0.1-12.1,0.1c-0.6,5,2.8,9,4.8,13.3c1.8,2.9-2.1,7.1-5,5c-4-1.5-4.4-6.3-5.3-9.8
				c-1.3-4.7-0.2-9.7,2.9-13.5c4-0.2,8.2,0.3,12-1.3c-1-7.9-9.6-12-10.2-19.9c-0.6-3.4,1.6-6.8,4.4-8.6c2.8-1.1,5.8-1.3,8.7-1.7
				c-0.4-7.3-6.9-12.1-9-18.8c-0.5-3.6-0.2-7.7,2.1-10.6c3.1-2.2,7.4-2,10.9-3.4c-0.1-1.6,0.4-3.5-0.9-4.8
				c-3.2-4.2-6.8-8.1-9.5-12.6C246.5,39.3,248.5,33.2,252.7,29.9z"/>
			<path d="M131.4,52.3c3.8-1.5,11.2,1.3,9.2,6.3c-2.4,5.7-6.4,10.7-8.6,16.5c0.2,0.5,0.7,1.5,1,2c5-1.7,8.8-7.5,14.6-5.9
				c2.4,1.9,4.3,5.3,3.1,8.4c-1.7,5.1-5.9,8.8-8,13.7c6.2-0.5,10.9-4.9,16.4-7.2c2.2,0.3,4.4,1.3,6.1,2.7c2,3.2,2.6,7.6,0.3,10.8
				c-0.8,1.6-2.8,4.2-0.2,5.3c4.9,1.2,9.4-2.9,14.3-1.6c1.6,1.2,3.6,2.7,3.5,4.9c0.6,6.8-5.1,11.6-7.4,17.6c4,0.7,9.4-0.2,12,3.7
				c1.8,3.6,2.9,7.6,3.2,11.6c-0.7,5.4-2.7,10.7-5.7,15.2c-2.7,2.7-6.1,6-10.2,4.2c1,1.3,1.9,2.6,2.8,3.9c-1,3.2-3,5.9-5.6,8
				c-1.9,1.8-4.8,3-5.4,5.8c7.7-0.2,15.2-2.7,22.9-1.9c0.8,1.6,1.6,3.3,2.3,4.9c-2,5.6-6.5,9.6-9.7,14.4c-0.7,1.1-0.4,2.5,0.7,3.2
				c0.4,0.2,0.8,0.4,1.2,0.4c4.4,0.4,8.1-2.8,12.6-2.1c2.5,2.6,3,6.7,1,9.8c-2.5,6.8-10.5,10.1-12,17.3c4.4-0.2,8.6-1.4,13-1
				c0.8,2,1.8,4.4,0.8,6.5c-2.3,5.8-6,10.8-8.9,16.3c-0.6,1.2-0.9,2.6-0.9,3.9c3.2,2.1,7.1,2.1,10.7,2.8c1.7,4.7-0.9,9.5-4.3,12.7
				c-2.2,2.5-5.3,5-5.4,8.5c1.7,2.2,4.1,3.7,5.4,6.3c-1.5,1.9-3.6,4-6.2,3.9c-2-0.5-3.7-1.7-4.8-3.3c-2.8-6,1.9-12.8-1.1-18.8
				c-1.8-3.7-6.8-2.7-9.4-5.6c-2.1-1.4-1.9-4.1-1.8-6.3c-0.1-5.1,6.4-7.7,6-12.7c-2.4-2.7-6.6-2.7-8.7-5.7
				c-0.6-3.4-0.5-6.9,0.2-10.2c1.4-3.1,3.6-5.8,4.7-9.1c-3.5-1.8-7.3-4.1-8-8.4c0.6-4,2.2-7.9,3.5-11.7c-6.3-1.1-14.2-2.5-16.8-9.3
				c1-2.5,2-5,3.2-7.4c-1.5-0.4-3-0.8-4.4-1.2c-0.7-1.6-2.1-3.2-1.4-5.1c1.1-3.5,2.9-6.8,2.9-10.6c-3.6,1.7-5.9,5.3-9.8,6.7
				c-1.9,0.9-4.1,0.6-6.1,0.6c-1-1.2-1.7-2.6-2.2-4.1c1.1-4.6,3.7-8.7,5.1-13.2c-4.6,0.9-7.4,5.4-11.9,6.7c-2.5,1.5-5.2-0.1-7.3-1.6
				c-1-6,2.4-11.4,2.9-17.3c-3.7,3.2-6.4,7.6-11,9.8c-1-0.9-2-1.7-3-2.5c0.8-6.3,3.6-12.1,4-18.4l-1.8-1.5c-4.2,3.3-8.1,8.7-14,8.3
				c-4.4,0-9-2.7-10-7.3c-0.4-4.4,0.8-8.7,2.2-12.8c2.4,0.1,5.7-0.8,7,1.8c0.8,2.3,1.2,4.7,2,7c1,0.4,1.9,0.8,2.8,1.3
				c6.3-2.2,7-11.2,14-12c3.5,1,6.6,4.2,7,7.9c-0.8,3.5-3,6.4-4.2,9.8c1.1,0.4,2.1,0.8,3.2,1.3c3.8-1.8,6.9-6.3,11.5-4.9
				c2.4,2,3.1,5.4,1.7,8.2c-2.1,4.4-5.3,8.2-6.6,13c1.4-0.6,3.2-1,4.1-2.4c3.4-4.5,6.7-9.8,12.2-11.9c3.7,0.6,6.8,3.3,7.7,6.9
				c-1.2,4.6-3.7,8.8-5,13.4c5.5-2,9.1-7.5,15.2-8.4c1.7,0.1,3.8,0.9,4.4,2.7c1.5,3.4,0.1,7.2-1.5,10.3c-2.1,3.7-3.8,7.6-5.8,11.3
				c4.2-2.4,7.9-5.5,12.2-7.6c-3-4.5,1.3-8.7,2.3-13c0.8-2.5,0.4-5.2-0.9-7.4c-5-2.3-10.3,0.7-15.4-0.4c-1.8-1-1.4-3.1-1.4-4.8
				c0.3-5.4,3.3-10.1,5.3-15c-4.3-0.7-8.2,0.9-12,2.6c-3-1.1-6.2-3.1-6.2-6.7c0.6-5.2,3.7-9.7,6.1-14.1c-3.2,1.6-6,3.9-9.3,5.1
				c-5.5,1-11.2-5.2-9.5-10.6c0.9-3.5,2-6.9,1.9-10.5c-2.5,1-4.7,2.5-7.2,3.3c-2.6,0.6-4.2-1.8-5.8-3.3c1.4-6,3.5-11.7,5-17.6
				c0.8-2-1-3.6-2-5.2C124.9,57.8,128.2,54.8,131.4,52.3z"/>
			<path d="M292.5,106.6c13-4.3,26.7-6.4,40.4-7.6c7.5-0.6,14.8,1.4,22.1,3c13.1,3.3,23.7,12.8,31.8,23.2
				c6.5,8.6,12.5,18.1,21.4,24.6c11,9.3,25.1,13.8,36.5,22.5c13.7,12.4,24.3,27.9,30.8,45.1c2,6.6,3.3,13.3,5.1,19.9
				c4.4,18.7,2.1,38.3-1.9,56.9c-2-5-3.9-10.1-5.8-15.1c-3.3-10.7-4.7-21.9-8.5-32.5c-2.5-10.6-4.7-21.3-8.5-31.6
				c-3-6.7-6.5-13.2-10.5-19.4c-3.1-4.8-5.6-10.4-10.9-13.2c-6.3-5.2-14.2-7.8-21.1-11.9c-6.8-4-12.5-9.4-18.6-14.4
				c-8.1-6.6-12.1-16.5-18.6-24.4c-7.1-7.3-14.2-15-23.5-19.5c-5.1-2.2-10.8-2.7-16.2-3.8c-6.9-1.3-13.9,0-20.7,1.3
				c-9.8,2.6-19.8,4-29.6,6.4c-4.7,1-9.4,2.1-14.3,1.8c0-1.3,0.1-2.5,0.1-3.8C278.2,110.3,285.4,108.4,292.5,106.6z"/>
			<path d="M267.7,123.2c9.1,0,18-2.6,27.2-2.2c8.3,0.2,16.5-0.4,24.8,0.3c10,2,20.4,2.2,29.9,6.1c7.7,3.4,14.4,8.7,20.6,14.4
				c7.3,7.4,11.1,17.2,15.8,26.2c2.2,4.1,2.8,8.9,4.9,13.1c6.7,5.3,13.7,10.2,19.8,16.2c9.1,10,16.7,21.4,24.8,32.2
				c5,7,12.3,11.7,18.2,17.8c3.3,3.2,7.4,5.4,10.6,8.8c-6.4-0.8-12.9-1.7-18.7-4.6c-4.3-2.1-8.8-3.7-13-6
				c-6.9-3.9-12.6-9.4-17.9-15.1c-6.4-7.4-9.1-17.2-15.3-24.7c-5.2-7.3-13-11.8-20.2-16.8c-5.1-3.7-11.1-5.7-16.5-8.9
				c4.5,10.3,10.5,20.2,13.2,31.2c2.4,7.6,5.3,15.1,8.6,22.3c4,10.7,9.3,20.9,15.8,30.3c4.8,9.4,12.9,16.5,19.5,24.5
				c5.2,5.6,8.9,12.3,13.9,18.1c8.5,10.4,15.5,22.2,18.7,35.3c2.6,13.8,4,28,1,41.9c-1.6,7.8-2,16.1-6.4,23
				c3.5-15.1,2.4-31.1-1.5-46c-3.9-11.7-9.9-22.6-17.8-32.2c-5.6-7.4-12.8-13.2-19-20c-6.5-7.6-12.6-15.5-18.2-23.8
				c-3.6-6-7.7-11.7-11.2-17.8c-3.6-6.3-5.1-13.4-8.1-19.9c-2.4-5.2-3.5-10.9-6-16c-3.6-7.1-5.1-14.9-7.5-22.5
				c-2.9-9.2-5.7-18.5-9.6-27.4c-2.3-7.7-4.9-15.3-7.1-23c-2.4-6-4.3-12.1-5.8-18.4c3.9,3.9,7.6,8,11,12.3c3.7,4.5,9.4,6.6,14.1,9.9
				c6.9,5,14.4,9.1,21.7,13.5c-2.6-5.2-5.5-10.4-7.3-16c-2.3-6.7-7-12.1-11.7-17.2c-11.4-7.4-24.3-13.1-38-14.1
				c-11.4-1.9-22.9,0.4-34.3-1.5c-7-0.6-14.1,0.5-21-1.1c-1,0.2-1.9-0.5-2-1.5C267.7,123.5,267.7,123.4,267.7,123.2z"/>
			<path d="M73.3,125.2c2.1-0.2,4.2-0.3,6.4-0.1c3,3.5,5.8,8,5.2,12.8s-1.4,9.6-1.9,14.5c5.5-2,9.2-7.3,15-8.4
				c3.2,0.3,6,2.9,7.4,5.7c2.3,5-2.9,10.6-0.4,15.4c3.6-0.8,7.1-2,10.4-3.6c2.3-1.4,4.1,1.4,4.9,3.2c1.3,4.2,0.2,8.7,0.8,13.1
				c0.9,0.9,2,1.6,3.2,2c7.4,1.4,15.3-1.3,22.4,1.5c2.6,3.9,0.4,8.3-1.9,11.7c-2.2,3.8-6.1,6-9.4,8.6c-2.8,2-5.4,4.4-8.6,5.6
				c-2.4,0.8-3.8-1.4-5.1-3c2.4-4.9,7.8-7.6,9.7-12.8c-4.5,0.5-9,1.1-13.5,1.7c-3,0.2-6.7,0.4-8.7-2.3c-1.5-3.3-1.2-7.1-1.4-10.6
				c-4,1.5-8.8,3.3-12.9,1c-2-0.9-2.7-3.2-2.8-5.1c-0.4-5.8-0.2-11.6,0.7-17.3c-4.7,1.4-7,7.8-12.5,6.4c-3.7-1.1-4.7-5.4-5.5-8.8
				c-2.2-7.1,4.1-14.7,0-21.5c-0.8,3.2-1.8,6.5-5,8.1c-1.2-0.8-2.4-1.5-3.6-2.2c-0.2-2.6-0.7-5.4,0.9-7.6
				C68.8,130.3,71,127.7,73.3,125.2z"/>
			<path d="M249.7,153.3c7-13.2,20.3-22,35.2-23.3c9.6,0.8,20,1.9,27.7,8.3c3.7,3.3,7.2,6.8,10.3,10.7c7,10.5,10.6,22.8,14.2,34.8
				c2.3,12.6,4.7,25.4,4.9,38.3c0.7,10.4,2.8,20.6,3.9,31c0.5,5.1,2,9.9,3.2,14.8c1.9,6.5,3.3,13.3,6.8,19.1
				c4.7,8,10.5,15.4,17.2,21.8c5.2,5.5,11.2,10.2,15.4,16.6c8.2,11.1,13.9,23.8,16.8,37.2c2.3,7.3,1.4,14.9,1.6,22.4
				c0.6,13.5-3.8,26.5-7.8,39.2c-3.8,13.6-5.7,27.7-7.1,41.7c0,9.7-1.3,20,2.9,29c2.3,5,7.1,8.1,12.1,10c4.6,1.8,9.6,0.8,14.3,1.2
				c-4,2.5-8.5,3.9-12.9,5.4c-4.8,1.3-9.9,0.1-14.3-1.8c-3.3-1.3-4.9-4.6-6.7-7.3c-3.6-5.2-4-11.7-5.3-17.7
				c-1.8-18.9,3.5-37.4,5.4-56c1-11.3,2.2-22.6,4.1-33.9c0.9-17-1-34.9-9.9-49.8c-8.6-14.9-21.6-26.5-31.8-40.2
				c-8.6-12.3-15.8-26.2-17.7-41.3c-2.7-12.3-0.7-25-1.6-37.4c-1.2-6.7-0.5-13.5-1.6-20.2c-0.4-11.5-3.4-22.8-7.7-33.4
				c-2.3-7-7.5-12.4-11.9-18.1c-2.6-3.5-6.7-5.5-10.5-7.4c-9.1-5.2-20.4-4.9-30.2-2.1C262,146.8,256.3,150.9,249.7,153.3z"/>
			<path d="M394.1,586.1c2.5-6.8,5.1-13.7,4.8-21c0-7.3,0.4-14.9-2.2-21.9s-7.5-13-12.2-18.8c-2.1-2.6-5.2-4.2-7.3-6.8
				c-2.9-16-2.5-32.4-2.3-48.6c1.1-10.6,1.7-21.3,3-31.9c1.8-12.1,2.5-24.4,4.5-36.5c0.7-4.2-0.6-8.4-0.6-12.5
				c0.1-6.9-1.9-13.6-3.9-20.1c-2.4-7.2-7.2-13.3-11.9-19.1c-5.7-5.8-12.6-10.2-19.4-14.5c-8.7-4.7-15-12.9-19.4-21.5
				c-5.2-12.3-9.7-25.2-10.3-38.7c0-6-1.4-12-1.1-18c-0.2-10.4,0.7-20.8-0.8-31c-0.6-10-2-20-4.4-29.7c-1.8-13.5-9.4-26.8-21.5-33.6
				c-12.8-4.4-27.7-3.9-39.6,3c9.1,2.3,19,2.4,27.2,7.3c4.4,2.6,9,4.9,12.8,8.3c3.7,3.6,5.6,8.5,8,13c3.5,6.5,3.7,14.1,4.8,21.3
				c0.6,3.6,0.6,7.4,0.1,11c-1.4,8.5,0.3,17.2-1.2,25.7c-1.2,8.2,0.5,16.4,0.9,24.7c2.7,14.8,6.4,29.4,11.1,43.8
				c1.7,7.3,6.1,13.5,11,19.1c7.7,8.2,18.7,11.7,27.4,18.6c5.3,3.1,9.3,8,11.1,13.9c1.4,4.9,3.4,9.6,3.4,14.8
				c1,8.7,1.5,17.6,0.2,26.3c-0.6,5.1,0.1,10.3-0.8,15.3c-1.1,6,0,12-1,18c-0.9,5.1-0.6,10.3-0.6,15.4c0.1,8.3-0.2,16.7,0.1,25
				c0.9,7,1.1,14.1,2,21.2c-5.8-4.5-10.7-10.4-12.7-17.6c-3.5-8.4-4.2-17.6-4.4-26.6c-0.4-7.8,1-15.4,1.9-23.1
				c0.7-9.4,2.9-18.6,4.1-28c0.1-7.2,0.8-14.6-1.3-21.6c-1-3.9-1.8-7.8-3.6-11.4c-2.5-5.5-6.9-9.8-10.6-14.4c-5.1-7.1-13.1-11-20-16
				c-9.6-7.3-19.8-14.1-27.5-23.4c-6.1-9.5-10.2-20.7-9.9-32.1c0.2-6.6-0.3-13.2,0.3-19.8c1.8-11.6,3.1-23.3,5.2-34.8
				c0.9-4.8,0.5-9.6,0.6-14.4c0-4.2,0.4-8.6-1.4-12.6c-2.5-5.3-3.8-11.6-9.2-14.8c-4.5-5.2-11.6-5.9-18-7c-2.8-1.8-5.6-4.6-9.2-4.2
				c-3.1,0.5-6.2,0.7-9.3,0.6c-0.1-5.4,5.4-8.4,6.7-13.4c0.9-4.5,1.2-10.2-2.8-13.4c-3.6-3.5-9-1.6-13.4-2.4
				c-2.6-1.3-2.3-4.3-2.3-6.8c0.3-7.6-5.1-14.6-12.1-17.1c-1.1,1-2.8,1.7-2.9,3.4c-0.5,4.1,2.6,7.4,3.9,11.1
				c0.9,4.6-3.1,8.8-1.6,13.3c1.3,3.3,3.4,7,7.1,8c3.2,0.5,6.6,0.5,9.8,1.5c-2.4,3-6.4,5.6-6.2,10c-0.2,4.9,0.5,10.3,4.3,13.8
				c3.6,3.6,9,4.9,12,9.1c-1.6,3-3.6,5.9-6,8.3c-2,2-3.9,4.6-3.3,7.7c0.6,4.5,4.9,6.9,8.7,8.4s8.6,4.6,8.4,9.5
				c-2.1,4.2-6.1,6.7-9.3,10c-2.9,3-4.3,7.1-3.8,11.3c-0.5,4.1,3.2,8,7.3,8.2c-0.7-3.6-2.9-7.1-2-10.8c2.3-2.9,5.9-4.1,8.6-6.6
				c3.1-2.9,5.9-6.1,9-9c-1,6.9-2.6,13.6-4.8,20.2c-3.9,7.9-7.5,16-10.7,24.2c-3.7,16.6-2.6,33.9,1.2,50.4
				c4.1,14.1,11.6,27.5,22.3,37.7c7.2,7.5,15.3,14.3,23.9,20.1c6,3.8,10.7,9.4,14.9,15.1c4.2,6.6,6.6,14.1,8.3,21.7
				c2.1,7.8,3.6,15.7,3.2,23.8c0.4,6.7-1.2,13.3-1.1,20c-0.1,6.6-3.3,12.7-3,19.3c2.3-4.9,5.1-9.6,6.5-14.9c1.3-4.7,3.5-9.1,4-14
				c1-10.1,2.7-20.5,0.7-30.6c-1.9-10.5-2.3-21.8-7.6-31.4c-2.9-3.5-5-7.6-7.9-11.1c-4.3-4.4-7.8-9.6-12.8-13.2
				c-5.9-6.2-13.4-10.5-19.6-16.4c-12.3-11.8-21.3-28.4-20.3-45.8c0-7.7,0.6-15.5,1.9-23.1c2.6-10.9,4.4-22,7-33
				c2.1-10.1,2.7-20.4,1.8-30.7c-1.9-7.8-3.3-16.4-8.7-22.6c-0.1,4.8,1.2,9.4,1.1,14.2c-2.8-0.6-5.5-1.3-8.3-2.1
				c0.8-4.2,3.9-7.4,5.5-11.3c1.3-2.4,1.4-5.5,3.5-7.6c2.6,1.8,5.6,3.3,7.8,5.6c1.9,3,3.3,6.3,4.4,9.7c1.9,4.8-0.4,9.9,0,14.9
				c0.4,6.1-2.2,11.9-2,18s-1.4,12-2,18c-1.4,14-4.8,27.9-3.8,42c1.2,6.8,3,13.6,6.3,19.7c2.9,3.4,5.7,6.9,8.9,10.1
				c10.2,8.2,20.4,16.3,30.8,24.2c2.8,2.2,4.6,5.4,7.1,7.9c3.5,3.8,8,7,10.1,11.9c2.7,5.4,4.7,11,6.1,16.9
				c1.6,7.5-0.6,14.9-0.6,22.4c-1,6.3-0.6,12.6-1.1,18.9c-1.2,7-0.6,14.1-0.8,21.1c-0.2,6.7,1,13.3,2.2,19.8
				c0.9,5.6,3.9,10.5,6.5,15.5c5.9,10.1,15,17.6,23.1,25.9c3.3,3,3.1,7.8,4.2,11.8c2.5,11,4.5,22.2,8,33c2.1,6.2,6.4,11.5,7.9,18
				c-0.1,2.3-1.6,4.2-2.3,6.3c-4,9.7-9.5,18.7-14.6,27.8c4.5-2.9,8.4-6.5,11.5-10.9c4.1-4.3,8.4-8.7,11-14.1
				c5,7.2,10.5,14,17.7,19.1C401.9,604.5,398.3,595.1,394.1,586.1z M388.5,573.1c-1.9,0.2-2-1.9-2.5-3.2c-1.7-5.8-3.6-11.6-4.4-17.7
				c-0.8-5.5-3.3-10.8-2.8-16.4c5.3,5.8,10,12.7,11.7,20.5C391.8,562.1,389.7,567.6,388.5,573.1L388.5,573.1z"/>
			<path d="M195.8,153c3.5-1.1,7.1-1.3,10.7-0.6c3.1,0.8,4.3,4.1,5.3,6.8c-1.3,5.5-4.8,10.2-8.1,14.8c-1.2,1.3-0.8,3.2-0.9,4.8
				c4.6,4.3,10.8,1.1,16,0.3c1.5,2,2.3,4.4,2.2,6.8c-0.5,8.4-5.4,16.1-5.1,24.7c4.5,3.5,11.2,5.3,13,11.3c-2.5,7.1-8.8,12.9-9,20.7
				c3.8,2.6,8.1,4.2,12.4,6c2.5,0.9,4.7,3.4,4.6,6.1c-2.8,9.3-11.9,14.5-20.5,17.6c-2.3,1-4.4-1.1-6.4-1.8c-0.7-5,4.4-7.7,6.3-11.7
				c-3.6-3.9-8.5-6.9-10.2-12.2c-0.6-6.6,3.8-12.3,7.6-17.2c-3.7-6.7-10.6-11.8-11.6-19.7c-0.1-5.2,3.8-9.5,4-14.7
				c-2.5-5.4-10.1-6.5-11.9-12.4c-0.5-1.4-1.3-2.9-0.8-4.4c1.4-4.9,4.1-9.2,6.6-13.6c-5,0.2-10.7,4.1-15-0.1
				c0.1-1.8-0.4-4.2,1.5-5.3C189.3,157.1,191.9,153.9,195.8,153z"/>
			<path d="M49.8,185c-0.1-6.3,4.8-11.5,10.3-13.9c3.7-0.8,7.5,1.1,9.2,4.5c2.3,3.7,1.4,8.1,1.8,12.2c0.9,0.3,1.8,0.6,2.7,1
				c3.2-2.3,4.6-6.1,7.5-8.6c2.6-0.3,6,0.7,7.1,3.4c2.8,4.8,1.1,10.5,1.7,15.7c3.4-1.1,5.7-3.9,8.4-6c3.1-1.7,6.1,1,7.5,3.6
				c2.9,4.2,1.7,9.5,2.1,14.3c3.9-0.5,5.8-5.3,10-4.4c-1.3,7-8,11-13.1,15.3c-2,2.1-5.7,0.2-6-2.4c-0.3-3.4-0.1-6.8-0.3-10.2
				c-4.2,2.9-8.2,7-13.7,6.5c4.7,3.8,7.9,9.1,8.9,15.1c0.9,4.1-2,7.7-4.9,10.2c-4.2-2.1-6.6-6.3-9.6-9.7c-2.7-3.1-0.4-7.2-0.4-10.8
				c-4.9-0.5-5.1,5-5.8,8.4c-0.2,2.8-2.8,4.1-4.6,5.9c2.3,3.8,7.5,3.1,10.3,6.2c1,2.6-2,3.7-3.6,5.1c-4.3,2.6-3.5,9.7-8.7,11.3
				c-4.8,1.1-9.4-1.3-14.1-2c-4.6-0.7-8.1-4.7-8-9.4c-1.4-3.9,1.7-7.1,3.3-10.3c1.1-2-1.4-4.2-0.1-6.2c1.3-3,2.2-6.1,2.8-9.3
				c1.4-5.3,6.1-8.8,10.5-11.6c3.3,2,5.7,5.3,9.4,6.9c3.7,0.7,7.4-0.6,11-0.8c-0.6-5.7-0.3-11.4-0.6-17.1c-5.4,1-8,6.8-12.6,9.3
				c-1.1-1.1-2-2.2-2.9-3.5c-1.8-7.3-0.6-15.5-5.2-21.9c-1.5,3.2-2.3,6.7-3.6,9.9c-0.7,2.2-3.4,1.4-5.2,1.4
				C48.9,191.1,50,187.7,49.8,185 M83.2,215.3L83.2,215.3 M56.4,227.9c3.4-1.5,6.9-2.6,10.6-3.3c0.1-1.9,0-3.9-2-4.8
				C61.4,221.7,58.4,224.5,56.4,227.9 M53.9,241.3c-0.8,3.2,1.5,5.9,3.5,8c1-3.5,1.9-7.3,4.7-9.9c1.9-1.7,1.9-4.2,1.9-6.5
				C59.9,234.4,55.1,236.6,53.9,241.3L53.9,241.3z"/>
			<path d="M147.8,193.8c1-1.1,2.5-0.8,3.9-0.9c4.2,6.5,3.6,15.3,0.3,22.1c-0.9,2-2.2,5.2,0.3,6.6c3,2.7,7.3,4,9.8,7.3
				c2.6,6.5-0.3,13.4-2,19.8c2,1.2,4,2.4,5.9,3.6c0,0.6-0.1,1.7-0.1,2.3c-2.2,1.1-4.3,2.6-6.7,2.9c-1.6-0.5-3.1-1.2-4.4-2.3
				c-2.4-4.9-1.3-10.6-2-15.9c-1.6-3-5.4-2-8.1-3.1c-4.9-1.3-7.9-6.4-7.8-11.3c-0.4-4.9,2.3-9.3,2.2-14.1c-4.3-0.3-8,1.7-11.7,3.6
				c-2,1.2-4.5,0.6-5.7-1.3l-0.1-0.1c3.4-4.6,8.9-6.9,13.7-9.7C139.8,200.8,143.8,197.3,147.8,193.8z"/>
			<path d="M106.2,231.4c2.7-6.1,7.1-11.2,12.8-14.6c4.5,2.7,3.5,8.5,4.2,12.9c3.2,3.5,8.4,2.8,12.5,4.6c2.4,2.7,3.4,6.4,2.7,10
				c-0.5,3,0,6.6-2.2,9c-3.6,2.6-8.3,3.1-12.6,2.8c1.4-3,3.7-5.4,5.2-8.3c0.1-2.1,1.1-5.2-1.2-6.5c-2.8-0.3-5.6-0.3-8.4-0.4
				c-1.6-2.6-3-5.3-4.5-8c-2.1,0.3-3.4,2-4.9,3.3C107.7,235.9,104.9,233.7,106.2,231.4z"/>
			<path d="M25.2,231.3c2.4-1.4,5.3-1.6,7.9-0.5c3,0.6,3.6,4,4.8,6.3c-1.2,2.9-2.5,6-5.6,7.3c-4.7,2.6-11.4,5.3-11.4,11.7
				c-0.5,3.8,1.3,9.3,5.8,9.1c1.2-3.4,1.1-7.7,4.5-9.9c2.7-1.9,6.6-4.2,9.8-2.3c1.9,1,3.7,2.3,5.2,3.8c3.1,3.4,8.7,1.7,11.9,5.1
				c4.5,6.2,6.6,14.6,3.5,21.8c-2.4,5.4-6,10.8-11.6,13.4c-2.6,1.4-5.6,1-8.3,0.9c0.1-3.9,4.3-5.1,6.2-8.1c3-4.3,6.4-9.2,6.2-14.7
				c-2.6-0.1-5.2-0.3-7.9-0.3c-1.1-2.3-2.3-4.6-3.5-6.9c-5.5-0.9-9.1,4.2-13.8,6c-4.3,2.3-9.2-0.5-12.2-3.6c-4-3.6-4.8-9.3-5.5-14.4
				C11.5,246.2,15.9,235.6,25.2,231.3z"/>
			<path d="M420.5,258.9c7,2.1,12.8,6.9,19.1,10.5c6.3,3.5,12.2,7.7,17.5,12.5c5.4,5.6,11.5,10.7,15.9,17.1
				c5.4,7.5,10.2,15.3,14.5,23.5c2.4,5.2,3.7,10.9,5.7,16.3c3.5,9.1,4.3,18.9,5.5,28.4c0.3,7.6,0,15.3,0.1,23
				c0.2,10.5-3.1,20.6-4.1,31c-1.8,9.9-4.3,19.9-4,30c0.2,8.3-0.2,16.6,0.1,25c1.1,9.5,2.5,19.3,6.9,28c2.1,4.2,3.4,8.7,4.9,13.1
				c4,11.6,8.8,23,13.8,34.2c5.6,9.1,11.3,18,16.7,27.2c5.4,8.3,7.8,18.2,9.1,27.9c0.5,4.3,1.8,8.7,1,13.1
				c-1.3,10.5-1.4,21.2-4.7,31.3c-1.8,5.6-3.9,11.2-6.5,16.5c-2.5,5.5-7.7,9-11.6,13.4c-2.9,3.3-6.9,5.3-10.6,7.7
				c-0.9,5.9,1.2,11.7,0.9,17.6c-1.2,15.7-3.1,31.6-8.5,46.6c-4.6,9.3-8,19.3-14.2,27.8c-4.6,6.6-9.7,12.9-15.1,18.8
				c-5.6,4.8-11.1,9.6-16.8,14.2c-4.2,3.6-9.5,5.3-14.5,7.5c-5.6,2.5-11.7,3.2-17.6,4.5c-4.3,1.1-8.6-0.6-12.5-2.4
				c-9.2-3.9-15.8-15.2-11.9-25c3-6.2,7.9-11.3,14-14.4c-2.1,5.5-3.8,11.3-3.9,17.2c0.3,3,2,6,5.1,6.8c6,1.3,12-0.5,17.6-2.7
				c6.4-2,11.9-6,17.2-9.8c17.1-14.8,29.2-34.5,34.5-56.5c3.5-12.8,7-25.6,8.1-38.9c-10.4,4-19.1,11.3-26.5,19.6
				c-3.9,5.4-7.5,11.1-9.5,17.5c-2.3,6.1-2.1,12.7-1.7,19c1.2,7.8,7.2,13.3,11.9,19.3c-8.4-0.4-17-4.3-22.2-11
				c-4.7-6.4-4-14.7-3.7-22.2c0.8-7.7,2.6-15.3,5.3-22.6c2.7-7.3,7.9-13.3,12.8-19.2c9.2-12.1,22.4-20,34.6-28.7
				c1-5.9-1-11.6-0.9-17.5c-0.8-8.1-2.6-16.1-3.8-24.1c-1.7-12.2-5.4-23.9-8.1-35.9c-1.9-8.8-5.9-17-8.4-25.6
				c-3.1-10.1-7.5-19.8-9.8-30.2c-2.1-9-3-18.2-4.6-27.3c-0.6-11.7-0.3-23.4,1-35.1l1.5,0.5c1.2,4.1,1,8.5,2.5,12.5
				c4.1,11.8,5.6,24.2,8.8,36.2c1.3,5.4,3.9,10.3,5.2,15.8c5.3,22.3,12.9,43.9,19,66c3.1,10,5,20.3,7.5,30.5
				c1.8,7.6,2.3,15.5,4.2,23c7.1-7,11.8-16.2,14.6-25.7c1.8-7.2,3.3-14.7,1.8-22s-1.2-15.4-4.7-22.3c-2.8-6.1-4.4-12.6-7.5-18.6
				c-2.9-5.1-6.4-9.9-8.6-15.4c-5.5-13.2-11.3-26.4-16.1-39.9c-4.8-15.5-9.6-30.9-13.5-46.6c-4.8-16.9-8.7-34-11.7-51.2
				c-0.4-5.1-2.5-9.8-2.5-14.9c2.5,4.9,5,9.8,6.3,15.1c1,4.5,3.6,8.4,5.3,12.6c2.6,8.5,5.7,16.9,9.3,25c0.4-10.5,0-21,0.2-31.5
				c0.7-13.3,3.5-26.6,3-40c-0.1-8,0.5-16.1-0.9-24c-0.7-18.4-3.4-37.6-13.8-53.4c-4.6-6-9.5-11.9-14.3-17.7c-1.8-2.2-3.8-4.2-6-6
				c-4-3-7-7-11-10c-2.7-2.3-5.3-4.7-7.8-7.3C427.2,263.8,423.2,262.1,420.5,258.9z"/>
			<path d="M33.7,272.8c6.5-3.3,13.3,5.2,10.3,11.3c-0.9,5.2-7.1,4.9-11.2,5.2c-0.1,1.5,0,2.9,0.2,4.4c2.2,2.3,4.3,4.8,6.2,7.5
				c-1.6,2.3-6.5,2.8-5.1,6.4c1.8,2,4.6,3.2,5.5,5.8c1.2,4.6-0.1,9.5-3.4,12.9c-2,2.5-5.5,1.4-8.3,1.9c0,0.5,0,1.4,0,1.9
				c4.5,0.1,9.6-1.7,13.6,1.3c1.1,1.5,1.9,3.4,1.2,5.3c-2.1,2.5-4.8,4.4-7.9,5.3c-3.6,1.4-7.3-1-10.7-1.9c-1.6,2-4.2,4.6-2.6,7.3
				c0.9,2.1,2.9,3.5,5.2,3.6c3.6-2.4,7.4-5.5,12-5c3.4,1,5.5,5.1,3.7,8.4c-1.7,4.9-7.9,4-11,7.3c2.7-0.1,5.4-1,8-0.1
				c3.7,0.8,5.8,4.5,7.6,7.5c1.5,2.4-0.8,5-2.2,6.8c-2,2.1-2.5,5-2.7,7.8c3.8,2.4,7.2,5.8,7.7,10.5c-1,3-2.9,6.8-6.6,6.4
				c-4.6,0.3-6.9-4.4-8.8-7.8c-1-4.4-0.1-9,0.4-13.5c-2.8-2.8-8.2-3.7-8.6-8.2c-0.5-4.2-1.8-8.2-2.6-12.4c-4.1-3.2-9.7-6-10.4-11.8
				c-1.1-5.8,3.6-10.3,7.6-13.7c-2-4-0.5-9.4-4.4-12.4c-1.4,3.1-3.2,6.1-4.1,9.4c0.8,3.7,3.2,7.5,0.7,11.1c-2.9-0.8-5.8-2.5-6.6-5.6
				c-1.5-5.3,1.4-10.5,2.8-15.6c-1.9-2.5-4.3-4.5-6.1-7c-3.9-6.8-3.9-15.2-0.1-22c2.4-4.5,4.7-11.7,11-11.1
				c4.8-0.1,7.3,4.9,11.5,6.3C26.4,281.1,28.1,274.8,33.7,272.8 M36.1,280.2c-1.3,0.7-1.4,1.4-0.1,2
				C37.4,281.5,37.4,280.9,36.1,280.2 M17.3,288c-1.2,2.4-2.4,4.7-3.4,7.2c2.9-1.7,6.6-2.8,8.3-5.9C20.6,288.7,19,288.3,17.3,288
				 M8.2,300.4c-0.6,3.8-1.2,8.7,2.7,11c-1.2-4.9-0.8-10.1,1.1-14.7C10.6,297.8,9.3,299.1,8.2,300.4 M18.5,303.6
				c-1.3,3.3,0.8,6.6,1.9,9.7c3.1-1.8,5.5-4.5,8.2-6.8c-1.1-3.1-2.6-6-4.5-8.7C21.8,299.4,18.8,300.6,18.5,303.6 M27.8,316.3
				c0,1.1,0.1,2.3,0.1,3.4c1,0.4,2,0.9,2.9,1.4c1.3-1.9,2-4,1-6.2L27.8,316.3"/>
			<path d="M106.1,325.2c6.4-1.9,13.2-1.1,19.8-1.1c8.1,0.8,16.1,2.5,23.9,5c6.4,2,13.2,3,19.4,5.6c3.3,1.3,5.2,4.7,4.6,8.2
				c-0.9,4.2-2.3,8.2-4.3,12c-5.9,1-11.3-1.9-16.6-4c-4.4-2.1-9.3-3-13.7-5.2c-10.1-4.8-21.1-8.1-32.3-7.7
				c-7.2,0.3-14.6-0.9-21.6,1.4c-5.4,1.2-11.1,3.4-16.6,1.4c1.1-3.8,5.2-5.3,8.5-6.5c4.6-1.7,8.9-4.1,13.7-5.3
				C96,327.7,101,326.5,106.1,325.2z"/>
			<path d="M63.8,349.6l1.4,1c4.2,6.8,7.1,14.8,13.8,19.7c-2.1-3.7-5.1-6.7-6.8-10.6c-1.4-3.2-2.2-6.6-2.4-10c2,3.6,4,7.5,7.5,9.9
				c5.4,3.9,11.9,6.5,18.6,6.4c8,0.2,16,1.7,24,2c10.1,0.9,20,3,29.6,6.4c6.4,3.2,12.6,7.3,16.9,13.1c3,3.7,6.6,6.9,9.2,11
				c0.7,1.3,0.3,2.9,0.4,4.3c-3,1.9-6.8,2-10,3.3c-5.8,2.5-12,4-18.1,5.7c-11.7,0.2-24,1.4-34.9-3.8c-6-2.3-12.2-4-17.6-7.4
				c-7.5-4.3-13.1-10.9-19.9-16.1c-7.8-4.3-15.4-10.8-17.7-19.7c2.4,2.1,4.6,4.4,6.6,6.8c3.1,2.8,6.4,5.3,9.8,7.5
				c-5.1-5.5-11.6-11.1-11.4-19.4c4.9,6.6,9,14.3,16.5,18.4C72.3,369.9,65.1,360.7,63.8,349.6 M83,384.4c7.1,10,18.9,15.1,30.1,19.4
				c7.5,1.8,14.9,4.7,22.8,4.3c7,0.3,14-1,20.4-3.6c4.9-1.7,9.4-4.3,14.6-4.9c-2.8-2.8-5.5-5.7-7.9-8.8c-4.1-5-9.1-9.2-14.9-12.2
				c-0.2,3.8,0,7.9-2.1,11.3c-2.5,6-9.2,8.6-15.2,9.7c-4.7-0.5-9.8-1.8-13.2-5.4c-5.4-4.7-6.2-12.8-4.9-19.4
				C102.3,376.4,92.3,379.6,83,384.4 M116.9,375.2c0,5.5,0.5,11.5,3.8,16.1c6.3,6.6,18.8,3.8,22.1-4.5c0.4-3.4,0.6-7.3-1.6-10.1
				C133.4,373.8,124.9,375.3,116.9,375.2L116.9,375.2z"/>
			<path d="M421,362.6c3.1,5.4,5,11.5,6.9,17.4c2.6,11.6,6.9,22.8,9.6,34.4c4.4,17.9,8,36,9.7,54.3c0.6,8.1,2,16.1,1.7,24.3
				c-0.1,14,0.1,28-0.1,42c-1,8.1-1.2,16.2-2.6,24.3c-3.6,17.4-8.1,34.6-13.4,51.6c-3.7,8.4-7.3,17-12.1,24.8
				c-5,8.3-9.1,17.2-15.3,24.7c-8.8,12.4-19.3,23.3-29.2,34.8c-11.3,11.9-21.7,25.6-25.4,41.8c8.5-5.1,15.7-11.8,23.8-17.5
				c7.1-5.6,14.8-10.4,21.3-16.7c7-5.7,13.1-12.3,19.4-18.7c7.6-9.7,15.3-19.4,22.4-29.6c3.7-7.2,8-14.2,9.9-22.2
				c1.8-6.2,4.3-12.1,5.5-18.5c1.1-5.9,2.7-11.7,3.4-17.6c1.1-6.7,0.6-13.5,0.7-20.3c-0.1-6.6,0.3-13.3-0.2-19.9
				c-0.7-3.8-0.9-7.7-0.7-11.6c2.6,5.8,3.5,12.2,5.1,18.3c2.9,15.1,6.1,30.5,4.5,46c-2.5,15.1-4,30.6-10.3,44.7
				c-4,11.5-10.5,21.9-16.5,32.5c-2.4,3.8-5.6,7.1-8.1,10.9s-6.7,6-9.6,9.4c-11.1,13.1-19.7,28.5-23.8,45.3
				c-3.9,10.1-5.4,20.9-7.5,31.5c-1.8,8.9-0.6,18-1,27c-0.5,9.9,3.6,19.1,6.7,28.3c4,7.7,10.2,14,17.8,18.2c6.9,3,14.5,5.9,22.1,4.1
				c5.6-1.6,9.2-6.8,10.9-12.1c2-4,1.4-8.5,1.6-12.8c2.7,0.8,2.7,4.2,3.8,6.4c2.7,6.2,2.9,13.1,0.5,19.4
				c-7.4,13.4-24.8,19.2-39.3,15.3c-5.4-0.8-9.9-3.9-14.6-6.5c-3.5-2.1-6-5.3-8.9-8c-5-4.4-7.6-10.6-10.8-16.3
				c-5.5-10.4-8.3-21.9-10.5-33.4c-0.8-6-2.1-12.1-1.1-18.2c1.2-8.8,1.2-17.9,3.6-26.5c2.4-6.2,3.5-12.8,6-18.9
				c3.2-8.2,7.3-15.9,12.2-23.2c-3.9,3.1-7.2,7-10.9,10.4c-7.1,5.9-13.5,12.5-20.9,18.1c-3.3,2.8-6.8,5.1-9.9,8.1
				c-2.9,4.8-2.5,10.7-4,16c-3.1,11.8-5.5,23.7-8.6,35.4c-4.1,10.3-8.2,20.7-13.4,30.6c-2.5,5-6.1,9.3-8.6,14.3
				c-0.9,1.8,0.6,3.7,0.8,5.6c2,9.4,6.1,19.2,14.5,24.7c5.3,3,11.3,6,17.6,4.7c4.4-0.9,9.2-1.3,12.7-4.3c2.7-2.3,6-4.2,7.4-7.6
				c1.7-3.8,2.3-7.9,3-12c1-5.7-0.5-11.4-1.5-17c3.6,3.4,7.6,6.8,9.5,11.5c2.5,6,4.1,12.7,2.8,19.2c-1,5.4-2.9,10.7-5.5,15.5
				c-5.8,6.4-13.3,12-22.2,12.8c-10.5,2.8-21.4-1.5-30.1-7.4c-10.9-7.4-15.6-20.4-19.1-32.5c-4.3,1.6-7.1,5.4-10.8,8
				c-6.2,5.5-14.2,7.9-21.5,11.5c-12.4,4.9-26.7,5-38.8-0.8c-4.8-3.4-8.4-8.2-10.4-13.7c-1.3-6.7,3.1-12.8,8.4-16.3
				c-0.5,6.4-1.6,13.4,1.9,19.2c7.9,7.2,19.4,5.4,29,3.6c7-2.9,14.5-4.8,20.7-9.2c7.2-4.7,13.9-10.3,18.5-17.5
				c2-8.3-1.7-16.7-0.1-24.9c1.1-7.7,1.4-15.5,2.9-23.2c2.3-11,6.9-21.3,11.5-31.4c3.6-7.1,8.1-13.7,13.3-19.7
				c2.6-3.1,6.6-5.3,7.4-9.5c1.2-5.2,3.6-9.9,5.2-14.9c7.5-18.9,20.5-34.6,31.7-51.3c9.2-12.8,18.2-25.8,27.3-38.6
				c8-12.5,14.6-25.7,21-39c2.6-6.2,4.6-12.7,7.1-19c3-7.3,3-15.3,5.2-22.8c2.5-8.7,3-17.8,4.3-26.8c1-6.2,0-12.5,1.2-18.7
				c1.4-18.3-0.9-36.5-2.6-54.7c-1-9.5-1.5-19.1-4.9-28.1c-6.3-17.6-6.7-36.6-8.9-55C420.8,373.5,420.8,368,421,362.6 M323.1,798.3
				L323.1,798.3 M315.8,816.9c-1.7,6.1-3.5,12.2-3.9,18.5c1.3-1.9,2.4-4,3.2-6.2c3.4-9.6,6-19.5,7.9-29.5
				C319.2,804.8,317.8,811,315.8,816.9L315.8,816.9z"/>
			<path d="M260.2,522.4c3.7-1.8,7.6-3,11.7-3.6c-2.3,6.3-7.1,11.4-13.3,14c-6.7,4.6-14.8,6.2-22.7,7.2c-9.2,0.7-16.9-5-24-10
				c-6.7-2.1-15-1.4-20.3-7c5.9-1.3,11.9-3.7,18.1-3c6.6,2,10.6,8.5,16.8,11.3c4.7,2.6,10.8,4,15.5,0.8
				C247.8,528.3,254.1,525.5,260.2,522.4z"/>
			<path d="M291.2,579.3c4.8-2,8.5-5.8,13-8.4c-1.9,6-5.9,10.8-9.8,15.6c-4.3,5.7-10.8,9.1-17.3,11.7c-4.2,1.7-8.7,2.7-13.2,2.8
				c-6.1,0.2-12.3,2.2-18.2,0.2c-2.2-0.5-4.3-1.8-6.6-1.9c-9.1,1.7-18.3,4.9-27.7,3.3c-4.9-0.8-10.1-0.1-14.8-2.2
				c-8.8-3.4-18.4-4.3-27-8.1c17.9-2,35.4-6.9,53.3-8.4c6.9-0.5,13.6,1.7,20.2,3.7c12.2-3.6,25-1.9,37.4-4.2
				C284.1,582.4,287.6,580.8,291.2,579.3z"/>
			<path d="M246.8,634c7.5-1.3,13.6-6.4,20.2-10c-2.1,3.3-3.8,6.8-6.4,9.8c-3.7,3.9-9.3,4.1-14.3,4.8c-3.8,0.6-7.6,0.3-11.4,0.7
				c-4.8,0.7-9.1,3.3-13.9,3.5c-9.1-0.4-18.6-4.8-23.7-12.5c5.4,1.7,10.7,4,16.5,3.9C224.9,634,235.8,634.2,246.8,634z"/>
		</g>
	</g>
</g>
</svg>
