<?xml version="1.0" encoding="utf-8"?>
<!-- Generator: Adobe Illustrator 22.0.1, SVG Export Plug-In . SVG Version: 6.00 Build 0)  -->
<svg version="1.1" id="Layer_1" xmlns="http://www.w3.org/2000/svg" xmlns:xlink="http://www.w3.org/1999/xlink" x="0px" y="0px"
	 viewBox="0 0 627.7 1004" style="enable-background:new 0 0 627.7 1004;" xml:space="preserve">
<style type="text/css">
	.st0{fill:#FFFFFF;}
</style>
<title>Asset 1</title>
<g id="Layer_2_1_">
	<g id="Layer_1-2">
		<g id="_020202ff">
			<path class="st0" d="M275,11.4c3.3-4.1,5.8-9.2,10.9-11.3c3.2-0.3,6.1,1.9,6.6,5c-1.5,7.8-8.8,13-9.8,20.9
				c1.2,5.3,7.5,5.4,11.3,7.8c6.3,2.7,7,11.3,4,16.7c-1.7,3.7-7,6.4-5,11.1c5.2,5,13.5,5.6,17.4,12c0.9,3.6-0.5,7.3-1.7,10.6
				c-1.6,4.4-7.3,6.8-7.1,11.9c0.7,2.7,2.9,4.6,4.1,7.1c3.2,5.3,3.7,11.7,2.7,17.7c-2.8,5.8-8.6,9.6-14.6,11.5
				c-1.3-0.9-2.6-1.7-4-2.6c-1.7-6.5,3-11.8,5-17.5c-2.1-3.8-6-5.7-9.2-8.4c-1-6.5,4.9-11.9,3.8-18.4c-0.9-4.2-4.5-6.9-6.8-10.3
				c-2.3-3.9-4.9-8.2-4.1-12.9c0.1-5.5,3.8-11.4,0.4-16.5c-1.6-3.5-5.9-4.1-8.1-7c-1.8-2.9-2.9-6.3-3.2-9.7
				C268.3,22.5,270.8,16.4,275,11.4z"/>
			<path class="st0" d="M220.4,17.8c1.1-1.8,3.3-1.7,5.2-1.9c0.8,6.2-1.8,12.1-2,18.3c3.7-0.5,7.2-1.9,10.3-3.9
				c3.1-2,6.7-4.3,10.4-3c3.1,0.8,4.2,4.6,3,7.3c-1.5,4-4.3,7.4-5.9,11.3c6.2,3.6,13-2.7,19.4,0.4c-0.4,8.6-6.3,15.2-9.3,22.9
				c4.9,0,9.4-2.2,14.2-2.2c2.9-0.1,5.8,0,8.7,0.5c1.1,2.9-0.6,5.8-1.9,8.3c-1.8,3.4-5.2,5.7-7.1,9.1c4.4,0.4,8.8-0.1,13.2,0.3
				c3.1,0.2,4.3,3.5,5.1,6c-1.4,6.1-4.9,11.4-7.8,16.8c0.4,1.4,2.1,2,3,3c2.4,1.7,3.7,4.4,4.8,7.1c-1.4,3-2.5,6.6-5.5,8.4
				c-2.7,1.8-5.3,3.7-7.8,5.7c1.8,4.4,6.8,7.4,6.4,12.6c-1.3,0.4-2.6,1.2-4,1.3c-4.4-1.7-8.5-5.9-8.2-11c-0.7-5.2,2.3-9.8,2.2-14.9
				c-0.8-5.5-7.7-7-9.1-12.2c1-5.4,5.2-9.3,8.4-13.6c-6.2-0.2-13.2-1.5-17.2-6.8c-0.5-2.9,1.5-5.6,2-8.4c-4.5-0.4-9.5,0.7-13.6-1.7
				c-2.4-1.1-3.8-3.6-3.6-6.2c1.4-2.7,4-4.8,4.2-8.1c-4.2-2.7-11.5-0.2-13.6-5.9c-1.9-5,2.5-9.5,3.6-14.3c-2.1-0.8-4.3-1.2-6.5-1.8
				c-4.8-2-8.2-7.7-6.3-12.8C216.8,24.9,218.1,21,220.4,17.8z"/>
			<path class="st0" d="M322.5,29.9c7.4-5.6,15.5-11.4,25.1-11.8c2.2-0.3,3.4,1.9,4.9,3.2c-1.2,3-2.9,6.2-5.9,7.7
				c-4.5,2.6-9.1,5.6-12,10.1c-1,1.7-1.4,3.7-0.9,5.6c4.1,4.8,11.6,6,13.9,12.4c-1.1,2.2-1.9,4.7-4,6c-5.1,3.5-11,6.6-13.8,12.4
				c-1.6,3.6,2.5,5.7,5,7.4c3.3,1.7,5.7,4.7,6.7,8.3c-0.4,3.1-1.4,6.1-3.1,8.7c-4,3.4-9.6,3.6-13.9,6.5c0,3.4,2.7,5.8,4.9,8.1
				c2.7,2.8,4.8,6.1,6.3,9.7c-1.4,4.7-6.5,6.7-11,6.9c-4,0.1-8.1-0.1-12.1,0.1c-0.6,5,2.8,9,4.8,13.3c1.8,2.9-2.1,7.1-5,5
				c-4-1.5-4.4-6.3-5.3-9.8c-1.2-4.7-0.2-9.7,2.9-13.5c4-0.2,8.2,0.3,12-1.3c-1-7.9-9.6-12-10.2-19.9c-0.6-3.4,1.6-6.8,4.4-8.6
				c2.8-1.1,5.8-1.3,8.7-1.7c-0.4-7.3-6.9-12.1-9-18.8c-0.5-3.6-0.2-7.7,2.1-10.6c3.1-2.2,7.4-2,10.9-3.4c-0.1-1.6,0.4-3.5-0.9-4.9
				c-3.2-4.2-6.8-8.1-9.5-12.6C316.3,39.3,318.3,33.2,322.5,29.9z"/>
			<path class="st0" d="M201.2,52.3c3.8-1.5,11.2,1.3,9.2,6.3c-2.4,5.7-6.4,10.7-8.6,16.5c0.3,0.7,0.6,1.4,1,2
				c5-1.7,8.8-7.5,14.6-5.9c2.4,1.9,4.3,5.3,3,8.4c-1.7,5.1-5.9,8.8-8,13.7c6.2-0.5,10.9-4.9,16.4-7.2c2.2,0.4,4.3,1.3,6.1,2.7
				c1.9,3.2,2.6,7.6,0.3,10.8c-0.8,1.6-2.8,4.2-0.2,5.3c4.9,1.2,9.4-2.9,14.3-1.6c1.6,1.2,3.6,2.7,3.5,4.9
				c0.6,6.8-5.2,11.6-7.4,17.5c4,0.7,9.4-0.2,12,3.7c1.9,3.6,2.9,7.6,3.2,11.6c-0.7,5.4-2.7,10.6-5.7,15.2c-2.7,2.7-6.1,6-10.2,4.2
				c1,1.3,1.9,2.6,2.8,3.9c-1,3.2-3,6-5.6,8c-1.9,1.8-4.8,3-5.4,5.8c7.7-0.2,15.2-2.7,22.9-1.9c0.8,1.6,1.6,3.3,2.3,4.9
				c-2,5.6-6.5,9.6-9.7,14.4c-0.7,1.1-0.4,2.5,0.7,3.2c0.3,0.2,0.8,0.3,1.2,0.4c4.4,0.4,8.1-2.8,12.6-2.1c2.5,2.6,3,6.7,1,9.8
				c-2.5,6.8-10.5,10.1-12,17.3c4.4-0.2,8.6-1.4,13-1c0.8,2,1.8,4.4,0.8,6.5c-2.3,5.8-6,10.8-8.9,16.3c-0.6,1.2-0.9,2.5-0.9,3.9
				c3.2,2.1,7.1,2.1,10.7,2.8c1.7,4.7-0.9,9.5-4.3,12.7c-2.2,2.5-5.3,5-5.4,8.5c1.7,2.2,4.1,3.7,5.4,6.3c-1.5,1.9-3.6,4-6.2,3.9
				c-2-0.4-3.7-1.6-4.8-3.3c-2.9-5.9,1.8-12.7-1.2-18.7c-1.8-3.7-6.8-2.7-9.4-5.6c-2.1-1.5-1.9-4.1-1.8-6.3c-0.1-5.1,6.4-7.7,6-12.7
				c-2.4-2.7-6.6-2.7-8.7-5.7c-0.6-3.4-0.5-6.8,0.2-10.2c1.4-3.1,3.6-5.8,4.7-9.1c-3.5-1.8-7.3-4.1-8-8.4c0.6-4,2.2-7.9,3.5-11.7
				c-6.3-1.1-14.2-2.5-16.8-9.3c1-2.5,2.1-5,3.2-7.4l-4.4-1.2c-0.7-1.6-2.1-3.2-1.4-5.1c1.1-3.5,2.9-6.8,2.9-10.6
				c-3.7,1.7-6,5.3-9.8,6.7c-1.9,0.9-4.1,0.6-6.1,0.6c-0.9-1.3-1.7-2.6-2.2-4.1c1.1-4.6,3.7-8.7,5.1-13.2c-4.6,0.9-7.4,5.4-11.9,6.7
				c-2.5,1.5-5.2-0.1-7.3-1.6c-1-6,2.4-11.4,2.9-17.3c-3.7,3.2-6.4,7.6-11,9.8c-1-0.9-2-1.7-3-2.5c0.8-6.3,3.6-12.1,4-18.4
				c-0.5-0.4-1.5-1.2-1.9-1.6c-4.2,3.3-8.1,8.7-14,8.3c-4.4,0-9-2.7-10-7.3c-0.4-4.4,0.8-8.7,2.2-12.8c2.4,0.1,5.6-0.8,7,1.8
				c0.8,2.3,1.2,4.7,2,7c0.9,0.4,1.9,0.8,2.8,1.3c6.3-2.1,7-11.2,14-12c3.7,1,6.4,4.1,7,7.9c-0.8,3.5-3,6.4-4.1,9.8
				c1.1,0.4,2.1,0.8,3.2,1.3c3.8-1.8,6.9-6.3,11.5-4.9c2.4,2,3.1,5.4,1.7,8.2c-2.1,4.4-5.3,8.2-6.6,13c1.4-0.7,3.2-1,4.1-2.4
				c3.4-4.5,6.7-9.8,12.2-11.9c3.6,0.3,6.8,3.5,7.7,6.9c-1.2,4.6-3.7,8.8-4.9,13.4c5.5-2,9.1-7.5,15.2-8.4c1.7,0.1,3.8,0.9,4.4,2.7
				c1.5,3.4,0.1,7.2-1.5,10.3c-2.1,3.7-3.8,7.6-5.8,11.3c4.2-2.4,7.9-5.5,12.2-7.6c-3-4.5,1.3-8.7,2.3-13c0.8-2.5,0.4-5.2-0.9-7.4
				c-5-2.3-10.3,0.7-15.4-0.3c-1.8-1-1.4-3.1-1.4-4.8c0.3-5.4,3.3-10.1,5.3-15.1c-4.3-0.6-8.2,0.9-12,2.6c-3-1.1-6.2-3.1-6.2-6.7
				c0.6-5.2,3.7-9.7,6.1-14.1c-3.2,1.5-6,3.9-9.3,5.1c-5.5,1-11.2-5.2-9.5-10.6c0.9-3.5,2-6.9,1.9-10.5c-2.5,1-4.7,2.5-7.2,3.3
				c-2.6,0.6-4.2-1.8-5.8-3.3c1.4-5.9,3.5-11.7,5-17.6c0.8-2-1.1-3.6-2-5.2C194.7,57.8,198,54.8,201.2,52.3z"/>
			<path class="st0" d="M362.3,106.6c13-4.3,26.7-6.4,40.4-7.6c7.5-0.6,14.8,1.4,22.1,3c13.1,3.3,23.7,12.8,31.8,23.2
				c6.5,8.6,12.5,18.1,21.4,24.6c11,9.3,25.1,13.8,36.5,22.5c13.7,12.4,24.2,27.8,30.8,45.1c2,6.6,3.3,13.3,5.1,19.9
				c4.4,18.7,2.1,38.3-1.9,56.9c-2-5-3.9-10.1-5.8-15.1c-3.3-10.7-4.7-21.9-8.5-32.5c-2.5-10.6-4.7-21.3-8.5-31.6
				c-3-6.7-6.5-13.2-10.5-19.4c-3.1-4.8-5.6-10.4-10.9-13.2c-6.3-5.2-14.2-7.8-21.1-11.9s-12.5-9.5-18.6-14.4
				c-8.1-6.6-12.1-16.5-18.6-24.4c-7.1-7.3-14.2-15-23.5-19.5c-5.1-2.2-10.8-2.7-16.2-3.8c-6.9-1.3-13.9,0-20.7,1.3
				c-9.8,2.6-19.8,4-29.6,6.4c-4.7,1-9.4,2.1-14.3,1.8c0-1.3,0.1-2.5,0.1-3.8C348,110.3,355.2,108.4,362.3,106.6z"/>
			<path class="st0" d="M337.5,123.2c9.1,0,18-2.6,27.2-2.2c8.3,0.2,16.5-0.4,24.8,0.3c10,2,20.4,2.2,29.9,6.1
				c7.7,3.4,14.4,8.7,20.6,14.4c7.3,7.4,11.1,17.2,15.8,26.2c2.2,4.1,2.8,8.9,4.9,13.1c6.7,5.3,13.7,10.2,19.8,16.2
				c9.2,10,16.7,21.4,24.8,32.2c5,7,12.3,11.7,18.2,17.8c3.3,3.2,7.4,5.4,10.6,8.8c-6.4-0.8-12.9-1.7-18.7-4.6
				c-4.3-2.1-8.8-3.7-13-6c-6.9-3.9-12.6-9.4-17.9-15.1c-6.4-7.4-9.1-17.2-15.3-24.7c-5.2-7.3-13-11.8-20.2-16.8
				c-5.1-3.7-11.1-5.6-16.5-8.9c4.5,10.3,10.5,20.2,13.2,31.2c2.4,7.6,5.3,15.1,8.6,22.3c4,10.7,9.3,20.9,15.8,30.3
				c4.8,9.4,12.9,16.5,19.5,24.5c5.2,5.6,8.9,12.3,13.9,18.1c8.5,10.4,15.5,22.2,18.7,35.3c2.6,13.8,4,28,1,41.9
				c-1.6,7.8-2,16.1-6.3,23c3.5-15.1,2.4-31.1-1.5-46c-3.9-11.7-10-22.6-17.8-32.2c-5.6-7.4-12.8-13.2-19-20
				c-6.5-7.6-12.6-15.5-18.2-23.8c-3.6-6-7.7-11.7-11.2-17.8c-3.6-6.3-5.1-13.4-8.1-19.9c-2.4-5.2-3.5-10.9-6-16
				c-3.6-7.1-5.1-14.9-7.5-22.5c-2.9-9.2-5.7-18.5-9.6-27.4c-2.3-7.7-4.9-15.3-7.1-23c-2.4-6-4.3-12.1-5.8-18.4
				c3.9,3.9,7.5,8,11,12.3c3.7,4.5,9.4,6.6,14.1,9.9c6.9,5,14.4,9.1,21.7,13.5c-2.6-5.2-5.5-10.4-7.3-16c-2.3-6.7-7-12.1-11.7-17.2
				c-11.4-7.3-24.3-13.1-38-14.1c-11.4-1.9-22.9,0.4-34.3-1.5c-7-0.6-14.1,0.5-21-1.1C338.4,125.3,337.5,124.4,337.5,123.2
				C337.5,123.2,337.5,123.2,337.5,123.2z"/>
			<path class="st0" d="M143.1,125.2c2.1-0.2,4.3-0.3,6.4-0.1c3,3.5,5.8,7.9,5.2,12.8s-1.4,9.6-1.9,14.5c5.5-2,9.2-7.3,15-8.4
				c3.2,0.3,6,2.9,7.4,5.7c2.4,5-2.9,10.6-0.4,15.4c3.6-0.9,7.1-2.1,10.4-3.6c2.3-1.4,4.1,1.4,4.9,3.2c1.3,4.2,0.2,8.7,0.8,13.1
				c0.9,1,2,1.7,3.2,2c7.4,1.4,15.3-1.3,22.4,1.5c2.6,3.9,0.4,8.3-2,11.7c-2.2,3.8-6.1,6-9.4,8.6c-2.8,2-5.4,4.4-8.6,5.6
				c-2.4,0.8-3.8-1.4-5.1-3c2.4-4.9,7.8-7.6,9.7-12.8c-4.5,0.5-9,1.1-13.5,1.7c-3,0.2-6.7,0.4-8.7-2.3c-1.5-3.3-1.2-7.1-1.4-10.6
				c-4.1,1.5-8.8,3.3-12.9,1c-2-0.9-2.7-3.2-2.8-5.1c-0.4-5.8-0.2-11.6,0.7-17.3c-4.7,1.4-7.1,7.8-12.5,6.4
				c-3.7-1.1-4.7-5.4-5.5-8.8c-2.2-7.1,4.1-14.7,0-21.5c-0.8,3.2-1.8,6.5-5,8.1c-1.2-0.8-2.4-1.5-3.6-2.2c-0.2-2.5-0.7-5.4,0.9-7.6
				C138.7,130.3,140.8,127.6,143.1,125.2z"/>
			<path class="st0" d="M319.5,153.4c6.7-13.1,20.6-22.1,35.2-23.3c9.6,0.8,20,1.9,27.7,8.3c3.7,3.3,7.2,6.8,10.3,10.7
				c7,10.5,10.6,22.8,14.2,34.8c2.3,12.6,4.7,25.4,4.9,38.3c0.7,10.4,2.8,20.6,3.9,31c0.5,5,2,9.9,3.2,14.8
				c1.9,6.5,3.3,13.3,6.8,19.2c4.9,7.9,10.4,15.5,17.2,21.8c5.2,5.5,11.2,10.2,15.4,16.6c8.2,11.1,13.9,23.7,16.8,37.2
				c2.3,7.3,1.4,14.9,1.6,22.4c0.7,13.5-3.8,26.5-7.8,39.2c-3.8,13.6-5.7,27.7-7.1,41.8c0,9.7-1.3,20,2.9,29c2.3,5,7.1,8.1,12.1,10
				c4.6,1.8,9.6,0.8,14.3,1.2c-4,2.5-8.5,3.9-12.9,5.4c-4.8,1.3-9.9,0.1-14.3-1.8c-3.3-1.3-4.9-4.6-6.7-7.3
				c-3.6-5.2-4-11.7-5.3-17.7c-1.8-18.9,3.5-37.4,5.4-56c1-11.3,2.2-22.6,4.1-33.9c0.9-17-1-34.9-9.9-49.8
				c-8.6-14.9-21.6-26.5-31.8-40.2c-8.6-12.3-15.8-26.2-17.7-41.3c-2.7-12.3-0.7-25-1.6-37.4c-1.2-6.7-0.5-13.5-1.6-20.2
				c-0.4-11.5-3.4-22.8-7.7-33.4c-2.3-7-7.5-12.4-11.9-18.1c-2.6-3.5-6.7-5.5-10.5-7.4c-9.1-5.2-20.4-4.9-30.2-2.1
				C331.8,146.8,326.1,151,319.5,153.4z"/>
			<path class="st0" d="M463.9,586.2c2.5-6.8,5.1-13.7,4.8-21c0-7.3,0.4-14.9-2.2-21.9s-7.5-13-12.2-18.8c-2.1-2.6-5.2-4.2-7.3-6.8
				c-2.9-16-2.5-32.4-2.3-48.6c1.1-10.6,1.7-21.3,3-31.9c1.8-12.1,2.5-24.4,4.5-36.5c0.7-4.2-0.6-8.4-0.6-12.5
				c0.1-6.9-1.9-13.6-3.9-20.1c-2.4-7.2-7.2-13.3-11.9-19.1c-5.7-5.8-12.6-10.2-19.4-14.5c-8.7-4.7-15-12.9-19.4-21.5
				c-5.2-12.3-9.7-25.2-10.3-38.7c0-6-1.4-12-1.1-18c-0.2-10.4,0.7-20.8-0.8-31c-0.6-10-2-20-4.4-29.7c-1.8-13.5-9.4-26.8-21.5-33.6
				c-12.8-4.4-27.7-3.9-39.6,3c9.1,2.3,19,2.4,27.2,7.3c4.3,2.6,9,4.9,12.8,8.3c3.7,3.6,5.6,8.5,8,13c3.5,6.5,3.7,14.1,4.8,21.3
				c0.6,3.6,0.6,7.3,0.1,11c-1.4,8.5,0.3,17.2-1.2,25.7c-1.2,8.2,0.5,16.4,0.9,24.7c2.8,14.8,6.5,29.5,11.1,43.8
				c1.7,7.3,6.1,13.5,11,19.1c7.7,8.2,18.7,11.7,27.4,18.6c5.3,3.1,9.2,8.1,11.1,13.9c1.4,4.8,3.4,9.6,3.3,14.8
				c1,8.7,1.5,17.6,0.2,26.3c-0.6,5.1,0.1,10.3-0.8,15.3c-1.1,6,0,12-1,18c-0.8,5.1-0.6,10.3-0.6,15.4c0.1,8.3-0.2,16.7,0.1,25
				c0.9,7,1.1,14.1,2,21.2c-5.8-4.5-10.7-10.4-12.7-17.6c-3.5-8.4-4.2-17.6-4.4-26.6c-0.4-7.8,1-15.4,1.9-23.1
				c0.7-9.4,2.9-18.6,4.1-28c0.1-7.2,0.8-14.6-1.3-21.6c-1-3.9-1.8-7.8-3.6-11.4c-2.5-5.5-6.9-9.8-10.6-14.4c-5.1-7.1-13.2-11-20-16
				c-9.6-7.3-19.8-14.1-27.5-23.4c-6.1-9.5-10.2-20.7-9.9-32.1c0.2-6.6-0.3-13.2,0.3-19.8c1.8-11.6,3.1-23.3,5.2-34.8
				c0.9-4.8,0.5-9.6,0.6-14.4c0-4.2,0.4-8.7-1.4-12.6c-2.5-5.3-3.8-11.6-9.2-14.8c-4.5-5.2-11.6-5.9-18-7c-2.8-1.8-5.6-4.5-9.2-4.2
				c-3.1,0.4-6.2,0.6-9.3,0.6c-0.1-5.3,5.5-8.4,6.7-13.3c0.9-4.5,1.2-10.2-2.8-13.4c-3.6-3.5-9-1.6-13.4-2.4
				c-2.6-1.3-2.3-4.3-2.3-6.8c0.3-7.6-5.1-14.6-12.1-17.2c-1.1,1-2.8,1.7-2.9,3.4c-0.5,4.1,2.6,7.4,3.9,11c0.9,4.5-3.1,8.8-1.6,13.3
				c1.3,3.3,3.4,7,7,8c3.2,0.5,6.6,0.5,9.8,1.5c-2.4,3-6.4,5.6-6.2,10c-0.2,4.8,0.5,10.3,4.3,13.8c3.6,3.6,9,4.8,12,9.1
				c-1.6,3-3.6,5.8-6,8.3c-2,2-3.9,4.6-3.3,7.7c0.6,4.5,4.9,6.9,8.7,8.4s8.6,4.6,8.4,9.5c-2.1,4.2-6.1,6.7-9.3,10
				c-2.9,3-4.3,7.2-3.8,11.3c-0.5,4.1,3.2,8,7.3,8.2c-0.7-3.6-2.9-7.1-2-10.8c2.3-2.9,5.9-4.1,8.6-6.7c3.1-2.9,5.9-6.1,9-9
				c-1,6.9-2.6,13.6-4.8,20.2c-3.9,7.9-7.5,16-10.7,24.2c-3.7,16.6-2.6,33.9,1.2,50.4c4.1,14.2,11.6,27.5,22.3,37.7
				c7.2,7.5,15.2,14.3,23.9,20.1c6,3.8,10.7,9.4,14.9,15.1c4.2,6.6,6.6,14.1,8.3,21.7c2.1,7.8,3.6,15.7,3.2,23.8
				c0.4,6.7-1.2,13.3-1.1,20c-0.1,6.6-3.3,12.7-3,19.3c2.3-4.9,5.1-9.6,6.5-14.9c1.3-4.7,3.5-9.1,4-14c1-10.1,2.7-20.5,0.7-30.6
				c-1.9-10.5-2.3-21.8-7.6-31.4c-2.9-3.5-5-7.6-7.9-11.2c-4.3-4.4-7.8-9.6-12.8-13.2c-5.9-6.2-13.4-10.5-19.6-16.4
				c-12.6-12.1-21.6-28.7-20.5-46.1c-0.2-7.7,0.8-15.5,1.9-23.1c2.6-10.9,4.4-22,7-33c2.1-10.1,2.7-20.4,1.8-30.7
				c-1.9-7.8-3.3-16.3-8.7-22.6c-0.1,4.8,1.2,9.4,1.1,14.2c-2.8-0.6-5.5-1.3-8.3-2.1c0.8-4.2,3.9-7.4,5.5-11.3
				c1.3-2.5,1.4-5.5,3.5-7.5c2.6,1.8,5.6,3.3,7.8,5.6c1.9,3,3.3,6.3,4.4,9.7c1.9,4.8-0.4,9.9,0,14.9c0.4,6.1-2.2,11.9-2,18
				s-1.4,12-2,18c-1.5,13.9-4.9,27.8-3.8,41.9c1.2,6.8,3,13.6,6.3,19.7c2.9,3.4,5.7,6.9,8.9,10.1c10.2,8.2,20.4,16.3,30.8,24.2
				c2.8,2.2,4.6,5.4,7.1,7.9c3.5,3.8,8,7,10.1,11.9c2.7,5.4,4.8,11,6.1,16.9c1.6,7.5-0.6,14.9-0.7,22.4c-1,6.3-0.6,12.6-1.1,18.9
				c-1.2,7-0.6,14.1-0.8,21.1c-0.2,6.7,1,13.3,2.2,19.8c0.9,5.6,3.9,10.5,6.5,15.5c5.9,10.1,15,17.6,23.1,25.9
				c3.3,3,3.1,7.8,4.2,11.9c2.5,11,4.5,22.2,8,33c2.1,6.2,6.4,11.5,7.9,18c-0.1,2.3-1.6,4.2-2.3,6.3c-4,9.7-9.5,18.7-14.6,27.8
				c4.5-2.8,8.4-6.5,11.5-10.9c4.1-4.3,8.4-8.7,11-14.1c5,7.2,10.5,14,17.7,19.1C471.7,604.5,468.1,595,463.9,586.2z M458.3,573.2
				c-1.9,0.2-2-1.9-2.5-3.2c-1.7-5.8-3.6-11.6-4.4-17.6c-0.8-5.5-3.3-10.8-2.8-16.4c5.3,5.8,10,12.7,11.7,20.5
				C461.6,562,459.5,567.7,458.3,573.2z"/>
			<path class="st0" d="M265.6,153c3.5-1,7.1-1.3,10.7-0.6c3.1,0.8,4.3,4.1,5.3,6.8c-1.3,5.5-4.8,10.2-8.1,14.8
				c-1.2,1.3-0.8,3.2-0.9,4.8c4.6,4.3,10.8,1.1,16,0.3c1.5,2,2.3,4.4,2.1,6.9c-0.5,8.4-5.4,16.1-5.1,24.7c4.5,3.5,11.2,5.3,13,11.3
				c-2.5,7.1-8.8,12.9-9,20.7c3.8,2.6,8.1,4.2,12.4,6c2.5,0.9,4.7,3.4,4.6,6.1c-2.8,9.3-11.9,14.5-20.5,17.6c-2.3,1-4.4-1.1-6.4-1.8
				c-0.7-5,4.4-7.7,6.3-11.7c-3.6-3.9-8.5-6.9-10.2-12.2c-0.6-6.6,3.8-12.3,7.6-17.2c-3.7-6.7-10.6-11.8-11.6-19.7
				c-0.1-5.2,3.8-9.5,4-14.7c-2.5-5.4-10.1-6.5-11.9-12.4c-0.5-1.4-1.3-2.9-0.8-4.4c1.4-4.9,4.1-9.2,6.6-13.6
				c-5,0.2-10.7,4.1-15-0.1c0.1-1.8-0.4-4.2,1.5-5.3C259.1,157.1,261.7,153.9,265.6,153z"/>
			<path class="st0" d="M119.6,185.1c-0.1-6.3,4.8-11.5,10.3-13.9c3.7-0.8,7.5,1.1,9.2,4.5c2.3,3.7,1.4,8.1,1.8,12.2
				c0.9,0.3,1.8,0.6,2.7,1c3.2-2.3,4.6-6.1,7.5-8.6c2.6-0.3,6,0.7,7.1,3.4c2.8,4.8,1.1,10.5,1.7,15.7c3.4-1.1,5.7-3.9,8.4-6
				c3.1-1.7,6.1,1,7.5,3.6c2.9,4.2,1.7,9.5,2.1,14.3c3.9-0.5,5.8-5.3,10-4.4c-1.3,7-8,11-13.1,15.3c-2.1,2.1-5.7,0.2-6-2.4
				c-0.3-3.4-0.1-6.8-0.3-10.2c-4.2,2.9-8.2,7-13.7,6.5c4.7,3.8,7.9,9.1,8.9,15.1c0.9,4.1-2,7.7-4.9,10.2c-4.2-2.1-6.6-6.3-9.6-9.7
				c-2.7-3.1-0.4-7.2-0.4-10.8c-4.9-0.5-5.1,5-5.8,8.4c-0.1,2.8-2.8,4.1-4.6,5.9c2.3,3.8,7.5,3.1,10.3,6.2c1,2.6-1.9,3.7-3.6,5.1
				c-4.3,2.6-3.5,9.7-8.7,11.3c-4.8,1.1-9.4-1.3-14.1-2c-4.6-0.7-8.1-4.7-8-9.4c-1.4-3.9,1.7-7.1,3.3-10.3c1.1-2-1.4-4.2-0.1-6.2
				c1.3-3,2.2-6.1,2.8-9.3c1.4-5.3,6.1-8.8,10.5-11.6c3.3,2,5.7,5.3,9.4,6.9c3.7,0.7,7.4-0.6,11-0.8c-0.6-5.7-0.3-11.4-0.6-17.1
				c-5.4,1-7.9,6.8-12.6,9.3c-1.1-1.1-2-2.2-2.9-3.5c-1.8-7.3-0.6-15.5-5.2-21.9c-1.5,3.2-2.3,6.7-3.6,9.9c-0.8,2.2-3.5,1.4-5.3,1.3
				C118.7,191,119.8,187.6,119.6,185.1 M153,215.3L153,215.3 M126.2,227.8c3.4-1.5,7-2.6,10.6-3.3c0.1-1.9,0-3.9-2-4.8
				C131.3,221.6,128.3,224.4,126.2,227.8 M123.7,241.2c-0.8,3.2,1.5,5.9,3.5,8c1-3.5,1.9-7.3,4.7-9.9c1.9-1.6,1.9-4.2,1.9-6.5
				C129.7,234.4,124.9,236.6,123.7,241.2L123.7,241.2z"/>
			<path class="st0" d="M217.6,193.9c1-1.1,2.5-0.8,3.9-0.9c4.2,6.5,3.6,15.3,0.3,22.1c-0.9,2-2.2,5.2,0.3,6.6c3,2.7,7.3,4,9.8,7.3
				c2.6,6.5-0.3,13.5-2,19.8c2,1.2,3.9,2.4,5.9,3.6c0,0.6-0.1,1.7-0.1,2.3c-2.2,1.1-4.3,2.6-6.7,2.9c-1.6-0.5-3.1-1.2-4.4-2.3
				c-2.5-4.9-1.3-10.6-2-15.9c-1.6-3-5.4-2-8.1-3.1c-4.9-1.3-7.9-6.4-7.8-11.3c-0.4-4.9,2.3-9.3,2.2-14.2c-4.3-0.3-8.1,1.7-11.7,3.6
				c-1.9,1.2-4.5,0.6-5.7-1.3c0-0.1-0.1-0.1-0.1-0.2c3.4-4.6,8.9-6.9,13.7-9.7C209.6,200.9,213.6,197.4,217.6,193.9z"/>
			<path class="st0" d="M176,231.4c2.7-6.1,7.1-11.2,12.8-14.6c4.5,2.7,3.5,8.5,4.2,12.9c3.2,3.5,8.4,2.8,12.5,4.6
				c2.4,2.7,3.4,6.4,2.7,10c-0.5,3,0,6.6-2.2,9c-3.6,2.6-8.3,3.1-12.6,2.8c1.4-3,3.7-5.4,5.2-8.3c0.1-2.1,1.1-5.2-1.2-6.5
				c-2.8-0.3-5.6-0.3-8.4-0.4c-1.6-2.6-3-5.3-4.5-8c-2.1,0.3-3.4,2-4.9,3.3C177.5,235.9,174.7,233.6,176,231.4z"/>
			<path class="st0" d="M95,231.4c2.4-1.5,5.3-1.6,7.9-0.5c3,0.6,3.6,4,4.8,6.3c-1.2,2.8-2.6,6-5.6,7.3c-4.7,2.6-11.4,5.3-11.4,11.7
				c-0.5,3.8,1.3,9.3,5.8,9.1c1.2-3.4,1.1-7.7,4.5-9.9c2.7-1.9,6.6-4.2,9.8-2.3c1.9,1,3.7,2.3,5.2,3.8c3.1,3.4,8.7,1.7,11.9,5.1
				c4.4,6.2,6.6,14.6,3.5,21.8c-2.4,5.4-6.1,10.8-11.6,13.4c-2.6,1.4-5.6,1-8.3,0.9c0.1-3.9,4.3-5.1,6.2-8.1
				c3.1-4.3,6.4-9.2,6.2-14.7c-2.6-0.1-5.2-0.3-7.9-0.3c-1.1-2.3-2.3-4.6-3.5-6.9c-5.5-0.9-9.1,4.2-13.8,6
				c-4.3,2.3-9.2-0.5-12.2-3.6c-4-3.6-4.8-9.3-5.5-14.4C81.3,246.3,85.7,235.6,95,231.4z"/>
			<path class="st0" d="M490.3,258.9c7,2.1,12.8,6.9,19.1,10.5c6.3,3.5,12.1,7.7,17.5,12.5c5.4,5.6,11.5,10.7,15.9,17.1
				c5.4,7.5,10.2,15.3,14.5,23.5c2.4,5.2,3.7,10.9,5.7,16.3c3.5,9.1,4.3,18.9,5.5,28.4c0.3,7.6,0,15.3,0.1,23
				c0.2,10.5-3.1,20.6-4.1,31c-1.8,9.9-4.3,19.9-4,30c0.2,8.3-0.2,16.7,0.1,25c1.2,9.6,2.5,19.3,6.9,28c2.1,4.2,3.4,8.7,4.9,13.1
				c4,11.6,8.8,23,13.8,34.2c5.6,9.1,11.4,18,16.7,27.2c5.4,8.3,7.8,18.2,9.1,27.9c0.5,4.3,1.8,8.7,1,13.1
				c-1.3,10.5-1.4,21.2-4.7,31.4c-1.8,5.6-3.9,11.2-6.5,16.5c-2.5,5.5-7.7,9-11.6,13.4c-2.9,3.3-6.9,5.3-10.6,7.7
				c-0.9,5.9,1.2,11.7,0.9,17.6c-1.2,15.7-3.1,31.6-8.5,46.6c-4.6,9.3-8,19.3-14.2,27.8c-4.6,6.6-9.7,12.9-15.2,18.8
				c-5.6,4.8-11.1,9.6-16.8,14.2c-4.2,3.6-9.5,5.3-14.5,7.5c-5.6,2.5-11.7,3.2-17.6,4.5c-4.3,1.1-8.6-0.6-12.5-2.4
				c-9.2-3.9-15.8-15.2-11.9-25c3-6.2,7.9-11.3,14-14.4c-2.1,5.5-3.8,11.3-3.9,17.2c0.3,3,2,6,5.1,6.8c6,1.4,12-0.5,17.6-2.7
				c6.4-2,11.9-6,17.2-9.8c17.1-14.8,29.2-34.5,34.5-56.5c3.5-12.8,7-25.6,8.1-38.9c-10.4,4-19.1,11.3-26.5,19.6
				c-3.9,5.4-7.5,11.1-9.5,17.5c-2.3,6.1-2.1,12.7-1.7,19c1.2,7.8,7.2,13.3,11.9,19.3c-8.4-0.4-17-4.3-22.2-11
				c-4.7-6.4-4-14.7-3.7-22.1c0.9-7.7,2.6-15.3,5.3-22.6c2.7-7.3,7.9-13.3,12.8-19.2c9.2-12.1,22.4-20,34.6-28.7
				c0.9-5.9-1-11.6-0.9-17.5c-0.8-8.1-2.6-16.1-3.8-24.1c-1.7-12.2-5.4-23.9-8.1-35.9c-1.9-8.8-5.9-17-8.4-25.6
				c-3.1-10.1-7.5-19.8-9.8-30.2c-2.1-9-3-18.2-4.6-27.3c-0.6-11.7-0.3-23.4,1-35.1c0.4,0.1,1.1,0.4,1.5,0.5c1.2,4.1,1,8.5,2.5,12.5
				c4.1,11.8,5.6,24.2,8.8,36.2c1.3,5.4,3.9,10.3,5.2,15.8c5.3,22.3,12.9,43.9,19,66c3.1,10,5,20.3,7.5,30.5
				c1.8,7.6,2.3,15.5,4.2,23c7.1-7,11.8-16.2,14.6-25.7c1.8-7.2,3.3-14.7,1.9-22c-1.4-7.5-1.2-15.4-4.7-22.3
				c-2.8-6.1-4.4-12.6-7.5-18.6c-2.9-5.1-6.3-9.9-8.6-15.4c-5.5-13.2-11.3-26.4-16.1-39.9c-4.8-15.5-9.6-30.9-13.5-46.6
				c-4.8-16.8-8.7-33.9-11.7-51.2c-0.4-5.1-2.5-9.8-2.5-14.9c2.5,4.9,5,9.8,6.3,15.1c1,4.5,3.7,8.4,5.3,12.7
				c2.7,8.5,5.8,16.8,9.3,25c0.4-10.5,0-21,0.2-31.5c0.7-13.3,3.5-26.6,3-40c-0.1-8,0.5-16.1-0.8-24c-0.7-18.4-3.4-37.6-13.8-53.4
				c-4.6-6.1-9.5-11.9-14.3-17.7c-1.8-2.2-3.9-4.1-6.1-5.9c-4-3-7-7-11-10c-2.8-2.2-5.2-4.8-7.8-7.3
				C497,263.9,493,262.1,490.3,258.9z"/>
			<path class="st0" d="M103.5,272.9c6.5-3.3,13.3,5.2,10.3,11.3c-0.9,5.2-7.1,4.9-11.2,5.2c-0.1,1.5,0,2.9,0.2,4.4
				c2.3,2.3,4.3,4.8,6.2,7.5c-1.6,2.3-6.5,2.8-5.1,6.4c1.8,2,4.6,3.2,5.6,5.8c1.1,4.6-0.1,9.5-3.4,12.9c-2,2.5-5.5,1.4-8.3,1.9v1.9
				c4.5,0.1,9.6-1.7,13.6,1.3c1.1,1.5,1.9,3.4,1.2,5.3c-2.1,2.5-4.8,4.4-7.9,5.4c-3.6,1.4-7.3-1-10.7-1.9c-1.6,2-4.2,4.6-2.6,7.3
				c0.9,2.1,2.9,3.5,5.2,3.6c3.6-2.4,7.4-5.5,12-5c3.4,1,5.5,5.1,3.7,8.4c-1.7,4.9-7.9,4-11,7.3c2.6-0.1,5.4-1,8-0.2
				c3.7,0.8,5.8,4.5,7.6,7.5c1.5,2.4-0.8,5-2.2,6.8c-2,2.1-2.5,5-2.7,7.8c3.8,2.4,7.2,5.8,7.7,10.5c-1,3-2.9,6.8-6.6,6.4
				c-4.6,0.3-6.9-4.4-8.8-7.8c-1-4.4-0.1-9,0.4-13.5c-2.8-2.8-8.2-3.7-8.6-8.2c-0.5-4.2-1.8-8.2-2.6-12.4c-4.1-3.2-9.7-6-10.4-11.8
				c-1.1-5.8,3.6-10.3,7.6-13.7c-2-4-0.5-9.4-4.4-12.4c-1.4,3.1-3.2,6.1-4.1,9.4c0.8,3.7,3.2,7.5,0.7,11.1c-2.9-0.8-5.8-2.5-6.6-5.6
				c-1.5-5.4,1.4-10.5,2.8-15.6c-1.9-2.5-4.3-4.5-6.1-7c-3.8-6.8-3.9-15.1-0.1-22c2.4-4.5,4.7-11.7,11-11.1
				c4.8-0.1,7.3,4.9,11.5,6.3C96.3,281,97.9,274.7,103.5,272.9 M105.9,280.2c-1.3,0.7-1.4,1.4-0.1,2
				C107.2,281.5,107.2,280.8,105.9,280.2 M87.1,288c-1.2,2.4-2.4,4.7-3.4,7.2c2.9-1.7,6.6-2.8,8.3-5.9
				C90.5,288.7,88.8,288.2,87.1,288 M78,300.5c-0.6,3.8-1.2,8.7,2.7,11c-1.2-4.9-0.8-10,1.1-14.7C80.4,297.8,79.1,299,78,300.5
				 M88.2,303.7c-1.3,3.3,0.8,6.6,1.9,9.7c3.1-1.8,5.5-4.5,8.2-6.8c-1.1-3.1-2.6-6-4.4-8.7C91.6,299.5,88.6,300.7,88.2,303.7
				 M97.6,316.4c0,1.1,0.1,2.3,0.1,3.4c1,0.4,2,0.9,2.9,1.4c1.3-1.9,2-4,1-6.2C100.3,315.4,99,315.9,97.6,316.4"/>
			<path class="st0" d="M175.9,325.3c6.4-1.9,13.2-1.1,19.8-1.1c8.1,0.8,16.1,2.4,23.9,5c6.4,2,13.2,3,19.4,5.6
				c3.3,1.3,5.2,4.7,4.6,8.2c-0.9,4.2-2.3,8.2-4.3,12c-5.9,1-11.3-1.9-16.6-4c-4.4-2.1-9.3-3-13.7-5.2c-10.1-4.8-21.1-8.1-32.3-7.7
				c-7.2,0.3-14.6-0.9-21.6,1.4c-5.4,1.2-11.1,3.4-16.6,1.4c1.1-3.8,5.2-5.3,8.5-6.5c4.6-1.7,8.9-4.1,13.7-5.3
				C165.8,327.8,170.8,326.5,175.9,325.3z"/>
			<path class="st0" d="M133.6,349.6c0.5,0.3,1,0.6,1.4,1c4.2,6.8,7.1,14.8,13.8,19.7c-2.1-3.7-5.1-6.7-6.8-10.6
				c-1.4-3.2-2.2-6.5-2.4-10c2.1,3.6,4,7.5,7.5,9.9c5.4,3.9,11.9,6.5,18.6,6.4c8,0.2,16,1.7,24,2c10.1,0.8,20.1,3,29.6,6.4
				c6.4,3.2,12.6,7.3,16.9,13.1c3,3.7,6.6,6.9,9.2,11c0.7,1.3,0.3,2.9,0.4,4.3c-3.1,1.9-6.8,2-10,3.3c-5.8,2.5-12.1,4-18.2,5.7
				c-11.7,0.2-24,1.4-34.9-3.8c-5.9-2.3-12.2-4-17.6-7.4c-7.5-4.3-13.1-10.9-19.9-16.1c-7.8-4.3-15.4-10.8-17.7-19.7
				c2.4,2.1,4.6,4.4,6.6,6.8c3.1,2.8,6.3,5.3,9.8,7.5c-5.1-5.5-11.6-11.1-11.4-19.4c4.9,6.6,9,14.3,16.5,18.4
				C142.1,369.8,134.9,360.7,133.6,349.6 M152.8,384.3c7.1,10.1,18.9,15.1,30.1,19.4c7.5,1.8,14.9,4.7,22.8,4.3
				c6.9,0.1,14-0.8,20.4-3.6c4.8-1.7,9.4-4.3,14.6-4.8c-2.8-2.7-5.5-5.7-7.9-8.8c-4-5.1-9.1-9.3-14.9-12.2c-0.2,3.8,0,7.9-2.1,11.3
				c-2.5,6-9.2,8.6-15.2,9.7c-4.7-0.5-9.8-1.8-13.2-5.4c-5.4-4.7-6.2-12.8-4.9-19.4C172.1,376.3,162.1,379.5,152.8,384.3
				 M186.7,375.1c-0.1,5.5,0.5,11.5,3.8,16.1c6.3,6.6,18.8,3.8,22.1-4.5c0.4-3.4,0.6-7.3-1.6-10.1
				C203.3,373.9,194.7,375.4,186.7,375.1L186.7,375.1z"/>
			<path class="st0" d="M490.8,362.6c3.1,5.4,4.9,11.5,6.8,17.4c2.6,11.6,6.9,22.8,9.6,34.4c4.4,17.9,8,36,9.7,54.3
				c0.6,8.1,2,16.1,1.7,24.3c-0.1,14,0.1,28-0.1,42c-1,8.1-1.2,16.2-2.6,24.3c-3.7,17.4-8,34.6-13.4,51.6c-3.7,8.4-7.3,17-12.1,24.8
				c-5,8.3-9.1,17.2-15.3,24.7c-8.8,12.4-19.3,23.3-29.2,34.8c-11.3,11.9-21.7,25.6-25.4,41.9c8.5-5.1,15.7-11.8,23.8-17.5
				c7.1-5.6,14.8-10.4,21.3-16.7c7-5.7,13.1-12.3,19.4-18.7c7.6-9.7,15.3-19.4,22.4-29.6c3.7-7.2,8-14.2,9.9-22.2
				c1.8-6.2,4.3-12.1,5.5-18.5c1.1-5.9,2.7-11.7,3.4-17.6c1.1-6.7,0.6-13.5,0.7-20.3c-0.1-6.6,0.3-13.3-0.2-19.9
				c-0.7-3.8-0.9-7.7-0.7-11.6c2.6,5.8,3.5,12.2,5.1,18.3c2.9,15.1,6.1,30.5,4.5,46c-2.5,15.1-4,30.6-10.3,44.7
				c-4,11.5-10.5,21.9-16.5,32.5c-2.4,3.8-5.6,7.1-8.1,10.9s-6.7,6-9.6,9.4c-11.1,13.1-19.7,28.5-23.8,45.3
				c-3.9,10.1-5.4,20.9-7.5,31.5c-1.8,8.9-0.6,18-1,27c-0.5,9.9,3.6,19.1,6.7,28.3c4,7.7,10.2,14,17.8,18.1c6.9,3,14.5,5.9,22.1,4.1
				c5.6-1.6,9.2-6.8,10.9-12.1c1.9-4,1.3-8.5,1.6-12.8c2.7,0.8,2.7,4.2,3.8,6.4c2.7,6.2,2.8,13.1,0.5,19.4
				c-7.4,13.5-24.9,19.2-39.3,15.3c-5.4-0.8-9.9-3.9-14.6-6.5c-3.5-2.1-6-5.3-8.9-8c-5-4.4-7.6-10.6-10.8-16.3
				c-5.5-10.4-8.3-21.9-10.5-33.4c-0.8-6-2.1-12.1-1.1-18.2c1.2-8.8,1.2-17.9,3.6-26.5c2.4-6.2,3.5-12.8,6-18.9
				c3.2-8.1,7.3-15.9,12.1-23.2c-3.9,3.1-7.2,7-10.9,10.4c-7.1,5.9-13.5,12.5-20.9,18.1c-3.3,2.8-6.8,5.1-9.9,8.1
				c-2.9,4.8-2.5,10.7-4,16c-3.1,11.8-5.5,23.7-8.6,35.4c-4.1,10.3-8.2,20.7-13.4,30.6c-2.5,5-6.1,9.4-8.6,14.3
				c-0.9,1.8,0.6,3.7,0.8,5.6c2,9.4,6.1,19.2,14.5,24.7c5.3,3,11.3,6,17.6,4.7c4.4-0.9,9.2-1.3,12.7-4.4c2.7-2.3,6-4.2,7.4-7.6
				c1.7-3.8,2.3-7.9,3-12c1-5.7-0.5-11.4-1.5-17c3.6,3.4,7.6,6.8,9.5,11.5c2.6,6,4.1,12.7,2.8,19.2c-1,5.4-2.9,10.7-5.5,15.5
				c-5.8,6.4-13.3,12-22.2,12.8c-10.5,2.8-21.4-1.6-30.1-7.4c-10.9-7.4-15.6-20.4-19.1-32.5c-4.3,1.6-7.1,5.4-10.8,8
				c-6.2,5.5-14.2,7.9-21.5,11.5c-12.4,4.9-26.7,4.9-38.8-0.8c-4.8-3.4-8.4-8.2-10.4-13.7c-1.3-6.7,3.1-12.8,8.4-16.3
				c-0.5,6.4-1.6,13.4,1.8,19.2c7.9,7.2,19.4,5.4,29,3.6c7-2.9,14.5-4.8,20.7-9.2c7.2-4.7,13.9-10.3,18.5-17.5
				c1.9-8.3-1.7-16.7-0.1-24.9c1.1-7.7,1.4-15.5,2.9-23.2c2.3-11,6.9-21.3,11.5-31.4c3.6-7.1,8-13.7,13.3-19.7
				c2.6-3.1,6.6-5.3,7.4-9.5c1.2-5.2,3.6-9.9,5.2-14.9c7.5-18.9,20.5-34.6,31.7-51.3c9.2-12.8,18.2-25.8,27.3-38.6
				c8-12.5,14.6-25.7,21-39c2.6-6.2,4.6-12.7,7.1-19c3-7.3,3-15.3,5.2-22.8c2.5-8.7,3-17.8,4.3-26.8c1-6.2,0-12.5,1.2-18.7
				c1.4-18.3-0.9-36.5-2.7-54.7c-1-9.5-1.5-19.1-4.9-28.1c-6.3-17.6-6.7-36.6-8.9-55C490.5,373.5,490.6,368,490.8,362.6
				 M392.9,798.3L392.9,798.3 M385.6,816.9c-1.7,6.1-3.4,12.2-3.9,18.5c1.4-1.9,2.4-4,3.2-6.2c3.4-9.6,6-19.5,7.9-29.5
				C389,804.8,387.6,811,385.6,816.9L385.6,816.9z"/>
			<path class="st0" d="M330,522.3c3.7-1.8,7.6-3.1,11.7-3.6c-2.3,6.3-7.1,11.4-13.3,14c-6.7,4.6-14.8,6.2-22.7,7.2
				c-9.2,0.7-16.9-5-24-10c-6.7-2.1-15-1.4-20.3-7c6-1.3,11.9-3.7,18.1-3c6.6,2,10.6,8.5,16.8,11.3c4.7,2.6,10.8,4,15.5,0.8
				C317.6,528.3,323.9,525.5,330,522.3z"/>
			<path class="st0" d="M361,579.3c4.8-2,8.5-5.8,13-8.4c-1.9,6-5.9,10.9-9.8,15.6c-4.3,5.7-10.8,9.1-17.3,11.7
				c-4.2,1.7-8.7,2.7-13.2,2.8c-6.1,0.2-12.3,2.2-18.2,0.2c-2.2-0.5-4.3-1.8-6.6-1.9c-9.1,1.7-18.3,4.9-27.7,3.3
				c-4.9-0.9-10.1-0.1-14.8-2.2c-8.8-3.4-18.4-4.3-27-8.1c17.9-2,35.4-6.9,53.3-8.4c6.9-0.5,13.6,1.7,20.2,3.7
				c12.2-3.6,25-1.9,37.4-4.2C353.9,582.3,357.5,580.8,361,579.3z"/>
			<path class="st0" d="M316.6,634c7.5-1.3,13.6-6.4,20.1-10c-2.1,3.3-3.8,6.8-6.4,9.8c-3.7,3.9-9.3,4.1-14.3,4.8
				c-3.8,0.6-7.6,0.3-11.4,0.7c-4.8,0.6-9.1,3.3-13.9,3.5c-9.1-0.4-18.6-4.8-23.7-12.5c5.4,1.6,10.7,4,16.5,3.9
				C294.7,634,305.6,634.3,316.6,634z"/>
			<path class="st0" d="M28.1,687.5c3.8-0.9,7.7-1.7,11.6-2.1c7.2,0.5,14.4,1.5,21.5,3.2c1,4.8,0.5,9.8,0.3,14.7
				c-6.5-1.5-11.9-6.6-18.8-6.3c-3.7,0-7.9-0.1-10.9,2.3c-2.3,1.7-1.4,5.5,1.3,6.4c8.3,3.2,18.1,2.9,25.3,8.6
				c4.1,4.2,6.6,10.5,4.9,16.4c-1.9,3.9-4,8-7.9,10.1c-4.4,3.3-10.1,3.6-15.2,4.8s-10-0.2-14.9-1c-4-0.8-7.8-2-11.4-3.8
				c-0.3-4.6-0.3-9.3,0-13.9c3.7,0.1,6.6,2.8,9.9,4.2c6.6,3.2,14.6,4.4,21.6,1.7c3.3-1.2,3.2-6,0.1-7.3c-7.1-3.3-15.6-2.5-22.3-6.7
				c-3-2.3-5.7-5-8-8c-0.6-4.2-0.9-8.8,0.3-12.9C18.4,693.2,22.5,688.5,28.1,687.5z"/>
			<path class="st0" d="M322.1,685.3c9.4-0.8,18.7,2.2,25.8,8.5c4.1,6.6,7.5,14.2,6.9,22.2c0.7,7.7-3.1,14.8-6.9,21.2
				c-4.8,4.3-10.8,7-17.2,7.9c-10,2.2-20.6-1.3-28.2-7.9c-3.4-5.1-7.2-10.7-6.9-17.1c-0.2-4.3-0.1-8.5,0.3-12.8
				c1-4.9,3.9-9.2,6.7-13.3C308,689.1,314.8,686.1,322.1,685.3 M322.1,697.4c-3.4,0.7-6.8,2.5-8.1,6c-3.1,4.7-2.2,10.5-2.3,15.8
				c-0.1,4.3,1.9,8.3,4.3,11.7c4.1,2.9,9.8,4.6,14.5,2.1c5.8-1.5,6.7-8.2,8-13c0.9-6.8-0.2-14.5-4.6-20
				C330.6,697.3,326.2,696.4,322.1,697.4L322.1,697.4z"/>
			<path class="st0" d="M67.8,686.2c16.9-0.2,33.9-0.2,50.8,0c0.2,4.3,0.2,8.5,0,12.8c-5.9,0.3-11.9-0.1-17.8,0.2
				c-0.3,15.3,0.2,30.5-0.2,45.8c-5.3,0.2-10.6,0.2-15.8,0c-0.3-15.3,0.1-30.6-0.2-45.8c-5.6-0.3-11.2,0.2-16.8-0.2
				C67.5,694.7,67.5,690.4,67.8,686.2z"/>
			<path class="st0" d="M125.8,686.2c5.3-0.3,10.5-0.3,15.8,0c0.3,12.3,0,24.6,0.1,36.9c0.1,2.6,0.6,5.1,1.3,7.6
				c3.4,1.9,7.2,4.5,11.3,3.1c2.2-0.9,4.8-1.9,6.1-4.1c0.8-2.5,1.3-5,1.4-7.6c0.1-12-0.2-24,0.1-35.9c5.3-0.2,10.5-0.2,15.8,0
				c0.3,10,0,19.9,0.1,29.9c0.3,7.1-0.6,14.5-4.4,20.6c-2.5,3.3-5.5,6.6-9.8,7.2c-5.5,0.9-11.3,2.9-16.9,1.3
				c-5.3-1.2-11.4-1.6-15.1-6c-3-4.1-6.2-8.8-5.9-14.1C125.8,712.2,125.5,699.2,125.8,686.2z"/>
			<path class="st0" d="M190.8,686.2c9.3-0.2,18.7-0.4,27.9,0.9c7.5,0.2,15.1,3.3,19.6,9.4c2.2,3.2,4.6,6.3,6,10
				c1.1,5.7,1.2,11.6,0.2,17.4c-3,9.3-10.4,16.5-19.7,19.3c-11.1,2.8-22.6,1.9-34,1.9C190.6,725.4,190.6,705.8,190.8,686.2
				 M205.8,698.2c-0.2,11.6-0.2,23.2,0,34.8c5.6,0.6,11.3-0.2,16.5-2.3c4.4-3.6,6.8-9,6.5-14.6c0.5-5.7-1.6-11.3-5.8-15.2
				C217.7,698.2,211.6,697.7,205.8,698.2L205.8,698.2z"/>
			<path class="st0" d="M252.8,686.2c11.6-0.2,23.2-0.2,34.8,0c0.3,3.9,0.3,7.8,0,11.7l-9.8,0.3c-0.2,11.6-0.2,23.2,0,34.8
				c3.3,0.1,6.6,0.1,9.8,0.2c0.3,3.9,0.3,7.9,0,11.8c-11.6,0.2-23.2,0.2-34.8,0c-0.3-3.9-0.3-7.9,0.1-11.8c3.3-0.1,6.5-0.2,9.8-0.2
				c0.2-11.6,0.1-23.2,0-34.8c-3.3-0.1-6.5-0.1-9.8-0.2C252.5,694,252.5,690.1,252.8,686.2z"/>
			<path class="st0" d="M178.1,764.5c5.6-1.1,11.8-0.8,16.6,2.6c6.9,4.1,8.2,12.8,8.9,20c0.3,8,0.5,16.3-1.8,24.1
				c-2.5,5.7-6.7,11.6-13.3,12.7c-5.3,0.6-11.4,0.8-15.9-2.8c-7.3-5.6-9.3-15.3-9-24c0.1-9-0.7-19.2,5.5-26.5
				C171.2,767.5,174.7,765.6,178.1,764.5 M181.1,771.4c-6.2,1.1-8.6,8-8.5,13.6c0.2,6.9-0.3,13.9,0.3,20.8c0.7,3.8,1.9,8.5,5.9,10.1
				c3.7,2,8.6,1.3,12.1-0.7c5.1-8.5,4.1-18.8,3.9-28.3c0-4.7-1.3-9.4-3.6-13.5C188.3,771.5,184.6,770.3,181.1,771.4L181.1,771.4z"/>
			<path class="st0" d="M227.1,764.5c5.2-1,10.7-0.5,15.6,1.6c6.1,4.1,10.1,10.8,10.8,18.1c0.5,6.3,0.2,12.7-0.8,18.9
				c-0.3,3.9-2.9,7-4.9,10.2c-4.2,6.3-11.4,11.1-19.1,10.9c-3.5,0.2-7.1,0-10.6-0.5c-0.5-2.8-0.7-5.7-0.4-8.5
				c3.7,0.5,7.4,2.2,11.2,1.2s7.9-1.6,11-4c2.3-3.9,3.9-8,5-12.4c-3.4,0.4-6.5,2.2-10,2.4c-5.4,0.3-11.5,0.2-15.7-3.7
				c-7.3-5.1-8-15.4-5.2-23.1C216.6,770.2,221.8,766.7,227.1,764.5 M223,775.4c-2,3.2-1.3,7.2-1.3,10.7c0.1,3.9,2.6,7.4,6.4,8.6
				c5.6,1.2,11.3,0.1,16.5-2c0.3-5.3,0.6-10.9-1.6-15.9C239.4,769.3,227.9,769.2,223,775.4L223,775.4z"/>
			<path class="st0" d="M315.8,767.3c5.1-2.9,11.1-3.7,16.9-3.4c6.5-0.2,13.5,2.4,17,8.1c3.7,5.7,2,13.3-1.2,18.9
				c-3.8,6-9.1,10.9-14.1,15.9c-3.4,3.4-8,5.4-11.1,9.1c10.1,0.3,20.2-0.2,30.3,0.2c0.1,2.3,0.1,4.5,0,6.8c-13,0.2-26,0.2-38.9,0
				c0.1-3.6-1.4-8.3,2.3-10.6c5.8-4.2,10.2-9.8,15.7-14.3c4.3-3.9,7.6-8.9,9.6-14.4c1.3-3.6-0.4-7.6-2.9-10.2
				c-7.6-4.5-16.4-0.7-23.7,2.5C315.6,773.1,315.6,770.2,315.8,767.3z"/>
			<path class="st0" d="M282.2,765.2c2.1-0.2,4.2-0.2,6.3-0.1c0.5,16.9-0.1,33.9,0.2,50.8c4,0.1,7.9,0,11.9,0.2
				c0.1,2.2,0.1,4.5,0,6.8c-10.6,0.3-21.3,0.2-31.9,0c-0.1-2.3-0.1-4.5,0-6.8c3.9-0.2,7.9-0.1,11.8-0.2c0.2-12.3,0.2-24.5,0-36.8
				c-4-0.2-7.9,0-11.9-0.2c0-1.9,0-3.7,0.1-5.6c3.4-0.6,6.8-1,10-2.3C281.2,770.3,281.5,767.3,282.2,765.2z"/>
			<path class="st0" d="M10.5,938.8c5.9-5.6,14.5-6.3,22.2-5.8c187.7,0,375.4,0,563,0c7.2-0.5,15,0.5,20.7,5.3c2.6,2.5,4.2,5.9,6,9
				c3.2,5.7,3.8,12.2,5.3,18.4v5.6c-1.2,5.3-1.5,10.8-3.9,15.8c-1.8,3.7-3.6,7.6-6.4,10.6c-4.5,4.1-10.5,6.4-16.6,6.3h-575
				c-6.5-0.2-12.7-3-17.2-7.8c-6-7.4-7.8-17.1-8.6-26.4C-0.2,958.7,3.3,947.4,10.5,938.8 M55.7,943.5c-1.4,4.5-1,9.3-1.7,14
				c2.7-1.3,2.7-4.7,4.4-6.8c1-1.3,2.3-2.5,3.7-3.4c3.5-0.7,7-0.4,10.5-0.2c0.3,10.7,0,21.3,0.1,32c-0.1,3.8,0.3,8.5-2.8,11.2
				c-1.8,1.7-6.6-0.7-6.3,2.7c8.7,0.1,17.5,0.1,26.2,0c-0.4-3-4.8-1.8-7-3.1c-1.7-3.4-1.2-7.2-1.2-10.8c0.2-10.6-0.2-21.3,0.1-31.9
				c3-0.2,6-0.3,9-0.1c5.3-0.5,5,6.3,6.4,9.8c0.4,0.1,1.1,0.2,1.5,0.3c1.1-4.5,1.8-9,2.2-13.6c-6.3,0.8-12.8,0.5-19.1,0.5
				C73,943.9,64.3,944.4,55.7,943.5 M312.1,952.5c-0.9,4.7-0.8,10.8,3.5,13.8c4.8,3.9,9.8,7.5,14.8,11.2c4,2.6,5.1,9.3,1.2,12.5
				c-3.2,3.7-9.2,2.5-12.9,0.2c-4.5-2.5-5.8-7.8-8.9-11.5c-0.1,4.7,0.7,9.4,2.6,13.8c7.3,1.7,15.3,2.8,22.4-0.3
				c4.8-1.7,6-7.2,7.6-11.4c0.4-4.1-1.3-8.2-4.4-10.9c-5.3-4.5-12-7.1-17-12c-2.1-1.9-1.3-5.1-1.1-7.6c1.9-6,10.3-7,14.7-3
				c2.2,1.7,2.1,4.7,2.9,7.1c0.5,0.2,1.5,0.7,2.1,0.9c0.3-3.7,0.6-7.3,1.1-11c-5.5-1.3-11.1-1.7-16.7-1
				C318.7,944.1,314.3,947.6,312.1,952.5 M389.9,948.3c-4,3.4-3.9,9.4-2.4,14c1,4.2,5.2,6.2,8.2,8.8c3.5,2.9,7.9,4.7,11.3,7.7
				c3.3,3.5,1.5,8.9-1.6,11.9c-4.2,2.9-9.9,1.2-13.4-1.9c-3.3-2.7-4.4-7.1-7.2-10.2c-0.1,4.4,0.8,8.8,1.2,13.2
				c8.5,2.7,18.5,3.7,26.4-1.2c2.1-2.1,3.1-5.1,4.3-7.8c2.4-4.8-1.2-9.9-4.3-13.6c-4.9-4-10.8-6.5-15.8-10.2
				c-3.2-3.5-3.8-9.9,0.4-12.8c4.3-2.5,11-2,13.9,2.5c1.2,2.1,0.4,6,3.5,6.5c0.4-3.7,0.7-7.4,1.2-11
				C407.1,942.6,396.2,941,389.9,948.3 M546.9,947.3c-3,3-4.1,7.6-4.2,11.7c0.2,6.8,7.3,9.4,11.7,13.4c3.9,3.4,10.5,5.6,10.4,11.8
				c0.6,3.4-2,5.9-4.5,7.7c-5.9,1.7-12.9-1.3-15.2-7c-1.3-2.1-1.8-5.2-4.4-6.1c0,4.5,0.7,8.9,2.3,13.1c6.9,2.7,15,3.3,22,0.6
				c4-1.3,6.5-5.2,8.3-8.7c0.7-4.1-0.2-8.3-2.4-11.8c-4.7-5.5-11.7-8.3-17.4-12.6c-5.3-3.3-3.3-12.4,2.4-14.1
				c3.2-0.5,6.4-0.1,9.3,1.4c2.3,2.2,3,5.3,4,8.2c0.4,0.2,0.8,0.4,1.2,0.6c0.6-3.6,1.4-7.2,1.3-10.9
				C563.6,942.2,553.9,941.9,546.9,947.3 M140.5,944.2c0.5,3.4,5.8,0.9,7,4.2c0.6,10.2,0,20.4,0.3,30.6c-0.2,3.6,0.7,7.5-1.3,10.7
				c-1.3,2.3-5.9,0-5.9,3.3c7.8,0.1,15.6,0.1,23.4,0c-0.8-2.5-4.1-1.9-5.6-3.6c-1.1-1.5-1.7-3.4-1.6-5.3c-0.2-4.4-0.1-8.8,0.1-13.1
				c2.2,0,4.8-0.3,6.4,1.6c3,4.4,5.3,9.2,8.6,13.4c2.2,2.8,4.4,6.2,8.1,6.9c4.4,0.4,8.9,0.4,13.3,0c-2.7-3.3-7.5-3.7-10-7.2
				c-2.3-3-4.5-6.1-7-9c-1.9-2.5-4.5-4.9-4.5-8.3c2.8-2,6.8-2.7,8.1-6.3c3.2-5.3,1.4-13.1-4.2-15.9c-4.1-2.7-9.2-2.1-13.9-2.1
				C154.6,944.3,147.6,943.9,140.5,944.2 M227.4,944.2c0.9,2.5,4.1,2.1,6.1,3.2c0.5,5.9,1.5,11.8,1.3,17.7
				c-0.3,7.9,0.8,15.9-1.4,23.6c-1.2,3.3-7.2,0.8-7.8,4.3c13.3,0,26.6,0.2,39.9-0.1c1.8-4.2,3-8.6,3.4-13.2c-4,1.4-3.6,7.2-7,9.4
				c-2.2,1.1-4.7,0.9-7,1c-3.7,0-7.5,0.3-11-1.3c-0.2-6.3-0.2-12.5,0-18.7c4.2-0.4,8.4-0.3,12.6,0.1c2,1.1,2.1,3.6,2.9,5.6
				c0.6,0.1,1.7,0.2,2.3,0.3c0.3-5.1,0.3-10.3,0-15.4c-2.3,0.6-2.9,3.3-4.2,5.1c-4.4,1.2-9,1.6-13.5,1.2c-0.2-6.6-0.2-13.2,0-19.8
				c4.9-0.3,9.7-0.2,14.6,0.1c2,2.5,2.5,6.2,5.1,8.1c1-3.6,1.4-7.4,1.3-11.1C252.3,944,239.8,944,227.4,944.2 M458.4,944.2
				c0.8,2.5,4.1,2.1,6.1,3.2c1,3.1,1.4,6.4,1.2,9.7c-0.1,8.7,0.1,17.4-0.1,26c-0.2,2.9-0.7,7.2-4.4,7.5c-1.7,0.7-4.8-0.1-4.8,2.4
				c13.3,0,26.5,0.3,39.8-0.1c2.5-3.9,4.1-8.4,3.4-13.1c-3.6,1.7-3.6,6.5-6.2,9.1c-2.3,1.4-5.1,1.2-7.7,1.3c-3.7,0-7.5,0.3-11-1.3
				c-0.2-6.3-0.2-12.5,0-18.7c4.2-0.3,8.4-0.3,12.6,0c1.8,2.1,3,4.5,5,6.3c0.4-5.3,0.4-10.6,0.1-15.9c-2.5,1.6-3,5.5-6.4,5.9
				c-3.7,0.9-7.6,0.7-11.4,0.5c-0.1-6.2-0.4-12.4,0.1-18.6c0.4-0.3,0.8-0.7,1.1-1.1c4.5-0.4,8.9-0.5,13.4-0.1c1.8,2.3,3.1,5,3.8,7.9
				c0.7-0.1,1.3-0.3,1.9-0.6c0.6-3.5,0.7-7,1-10.5C483.6,944.2,471,944,458.4,944.2L458.4,944.2z"/>
			<path class="st0" d="M159,946c3.5,0.6,7.7,0.5,10.1,3.7c3.5,3.3,3.1,8.6,2.3,12.9c-1.3,6.2-9,7.2-14.2,6
				c-0.9-6.1-0.4-12.4-0.4-18.5C156.5,948.3,157.9,947.3,159,946z"/>
		</g>
	</g>
</g>
</svg>
