<?xml version="1.0" encoding="UTF-8" ?>
<!DOCTYPE svg PUBLIC "-//W3C//DTD SVG 1.1//EN" "http://www.w3.org/Graphics/SVG/1.1/DTD/svg11.dtd">
<svg width="707pt" height="500pt" viewBox="0 0 707 500" version="1.1" xmlns="http://www.w3.org/2000/svg">
<g id="#a8a9adff">
<path fill="#a8a9ad" opacity="1.00" d=" M 394.12 80.01 C 395.92 83.26 396.92 87.27 396.92 91.04 C 395.92 91.34 394.92 91.60 393.91 91.85 C 392.80 90.53 394.20 88.55 394.00 86.97 C 394.38 84.65 393.51 82.30 394.12 80.01 Z" />
<path fill="#a8a9ad" opacity="1.00" d=" M 247.09 128.02 C 257.77 109.47 274.15 94.43 293.04 84.48 C 295.41 85.40 297.20 87.78 299.95 88.08 C 309.87 89.87 320.07 89.21 330.01 90.89 C 338.98 93.30 347.58 98.77 352.04 107.13 C 353.36 108.27 351.61 110.65 350.18 110.09 C 344.45 104.64 337.00 100.73 329.05 100.08 C 321.08 99.11 313.01 99.25 305.05 98.21 C 301.94 97.80 299.08 96.39 296.84 94.21 C 281.48 101.61 268.14 113.18 257.71 126.66 C 247.40 139.76 240.58 156.22 241.89 173.13 C 240.35 172.48 240.48 170.34 239.85 169.01 C 236.48 155.10 240.15 140.27 247.09 128.02 Z" />
<path fill="#a8a9ad" opacity="1.00" d=" M 545.20 114.35 C 547.01 113.84 547.17 117.21 545.92 117.81 C 544.40 117.74 544.30 115.18 545.20 114.35 Z" />
<path fill="#a8a9ad" opacity="1.00" d=" M 632.94 113.51 C 634.73 113.06 634.47 115.69 635.29 116.66 C 637.00 120.81 636.40 125.97 633.23 129.26 C 630.95 132.50 629.27 136.24 627.97 139.96 C 628.30 144.02 626.77 148.01 623.70 150.70 C 620.52 158.53 618.51 166.82 616.13 174.93 C 614.46 175.09 612.76 175.20 611.11 174.90 C 612.74 163.39 616.51 152.28 620.22 141.30 C 623.30 138.37 625.29 134.35 624.73 129.99 C 626.05 126.70 627.51 123.42 629.34 120.38 C 631.02 118.37 632.54 116.16 632.94 113.51 Z" />
<path fill="#a8a9ad" opacity="1.00" d=" M 389.06 119.06 C 390.94 119.45 392.83 119.75 394.71 120.19 C 389.98 132.17 384.96 144.05 380.00 155.94 C 379.35 158.51 376.01 157.80 374.33 159.36 C 368.70 162.71 367.95 169.95 368.95 175.82 C 360.05 185.38 349.90 193.70 339.27 201.27 C 328.92 208.50 317.82 214.85 305.81 218.88 C 305.40 219.11 304.59 219.57 304.18 219.80 C 301.57 219.82 299.08 221.04 296.55 221.67 C 282.39 225.27 267.65 226.73 253.05 226.10 C 231.96 224.87 212.37 209.77 206.20 189.54 L 205.97 188.10 C 207.03 188.74 207.38 190.01 208.06 190.98 C 216.88 205.58 233.00 215.43 250.07 216.35 C 273.71 217.21 298.00 213.25 319.01 201.98 C 334.20 193.82 348.04 183.27 360.49 171.39 C 374.93 157.41 387.08 139.53 389.06 119.06 Z" />
<path fill="#a8a9ad" opacity="1.00" d=" M 441.20 133.10 L 442.32 132.51 C 441.03 138.64 437.78 144.19 434.56 149.51 C 429.88 156.62 424.59 163.48 417.93 168.85 C 416.70 169.71 415.59 170.91 414.05 171.16 C 421.18 157.29 430.13 144.17 441.20 133.10 Z" />
<path fill="#a8a9ad" opacity="1.00" d=" M 316.95 157.59 C 320.81 160.04 325.36 161.28 329.94 160.15 C 327.27 162.82 324.26 165.28 321.07 167.29 C 317.95 165.30 316.92 161.12 316.95 157.59 Z" />
<path fill="#a8a9ad" opacity="1.00" d=" M 493.08 164.90 C 498.42 164.71 503.97 164.70 508.90 162.34 C 508.82 162.64 508.66 163.23 508.59 163.52 C 503.11 168.78 497.59 174.75 490.08 176.93 C 489.89 172.74 491.58 168.73 493.08 164.90 Z" />
<path fill="#a8a9ad" opacity="1.00" d=" M 576.32 167.20 L 577.17 167.01 C 577.03 171.30 577.84 175.62 577.78 179.83 C 574.61 185.42 571.28 190.94 568.80 196.88 C 567.18 201.29 566.14 206.22 562.47 209.49 C 557.66 214.67 549.78 215.13 543.51 212.64 C 536.77 210.69 530.71 204.56 531.25 197.16 C 535.24 201.58 541.14 203.76 546.96 204.35 C 552.31 204.80 557.66 202.21 560.84 197.92 C 563.46 194.69 564.25 190.51 565.70 186.72 C 568.75 179.96 572.47 173.53 576.32 167.20 Z" />
<path fill="#a8a9ad" opacity="1.00" d=" M 425.91 200.79 C 437.70 196.11 447.02 187.10 455.64 178.16 C 455.78 181.80 457.40 185.19 457.87 188.71 C 447.79 199.96 435.32 210.33 420.08 213.21 C 419.10 213.32 418.29 213.86 417.51 214.40 C 416.33 212.55 413.06 214.35 411.03 213.79 C 406.28 217.97 402.93 222.27 397.95 225.99 C 400.61 221.17 405.51 218.11 408.36 213.48 C 407.73 213.49 406.48 213.51 405.85 213.52 C 404.68 213.11 403.49 212.97 402.28 213.12 C 401.88 214.90 399.87 216.73 400.70 218.54 C 398.99 219.64 398.76 222.08 397.85 223.83 C 397.13 224.99 398.50 226.79 396.78 227.50 C 395.29 230.58 394.33 234.01 393.50 237.35 C 393.06 238.86 392.65 240.40 392.05 241.87 C 390.42 241.72 388.80 241.66 387.17 241.65 C 389.03 228.30 393.99 215.57 399.14 203.18 C 408.08 204.80 417.46 204.34 425.91 200.79 Z" />
<path fill="#a8a9ad" opacity="1.00" d=" M 496.57 206.40 C 508.66 203.81 518.61 195.66 527.00 186.96 L 527.93 186.55 C 527.94 189.90 528.56 193.27 530.45 196.10 L 530.09 196.95 C 521.46 205.64 511.39 214.14 498.95 216.28 C 488.84 217.46 477.84 215.68 469.71 209.21 C 464.09 204.82 460.78 198.10 459.25 191.25 C 461.73 194.23 463.77 197.68 467.08 199.91 C 475.38 206.20 486.46 207.78 496.57 206.40 Z" />
<path fill="#a8a9ad" opacity="1.00" d=" M 626.34 189.00 C 632.34 196.88 629.23 209.78 620.59 214.50 C 614.00 218.16 605.77 217.92 598.90 215.17 C 589.91 211.42 584.11 202.32 582.21 193.07 C 584.33 195.20 585.43 198.22 587.85 200.14 C 594.05 206.38 603.56 208.81 612.06 206.80 C 617.77 205.54 622.92 201.44 624.88 195.86 C 625.75 193.66 625.84 191.28 626.34 189.00 Z" />
<path fill="#a8a9ad" opacity="1.00" d=" M 400.82 255.98 C 402.53 255.48 402.50 257.91 403.26 258.85 C 405.55 264.52 402.99 271.04 398.38 274.72 C 396.90 275.58 395.47 276.51 393.96 277.30 C 395.23 278.44 396.58 279.55 397.68 280.87 C 395.62 280.35 393.92 279.07 392.16 277.96 C 391.59 278.26 390.44 278.85 389.87 279.14 C 384.27 280.76 377.84 281.33 372.57 278.34 C 364.73 273.94 359.08 266.00 357.15 257.25 C 358.65 257.90 359.22 259.57 360.26 260.73 C 364.91 266.76 372.18 271.72 380.13 270.65 C 388.77 269.70 398.64 265.22 400.82 255.98 Z" />
</g>
<g id="#191617ff">
<path fill="#191617" opacity="1.00" d=" M 81.36 17.58 C 83.56 17.23 85.80 17.17 88.01 16.86 C 264.00 16.85 439.98 16.86 615.96 16.85 C 628.29 16.66 640.70 20.84 650.17 28.80 C 662.13 38.47 669.17 53.69 669.16 69.03 C 669.15 180.69 669.16 292.36 669.16 404.02 C 669.30 411.60 668.35 419.30 665.46 426.36 C 659.40 441.90 645.41 454.10 629.12 457.80 C 621.58 459.78 613.74 459.15 606.03 459.25 C 433.68 459.25 261.32 459.25 88.96 459.25 C 73.47 459.01 58.26 451.44 48.85 439.11 C 41.46 429.79 37.68 417.85 37.84 406.00 C 37.85 293.67 37.85 181.35 37.85 69.03 C 37.84 53.93 44.65 38.93 56.29 29.25 C 63.38 23.18 72.16 19.12 81.36 17.58 M 80.47 28.70 C 62.62 32.71 48.71 49.68 48.65 68.03 C 48.62 181.36 48.62 294.69 48.64 408.02 C 48.66 426.87 63.36 444.36 81.91 447.67 C 85.22 448.48 88.64 448.51 92.03 448.48 C 267.04 448.48 442.04 448.48 617.04 448.49 C 629.35 448.59 641.52 442.72 649.18 433.10 C 655.17 425.81 658.44 416.38 658.37 406.97 C 658.37 294.30 658.37 181.62 658.37 68.95 C 658.40 60.97 656.01 53.00 651.62 46.34 C 644.34 35.13 631.38 27.80 618.00 27.64 C 441.66 27.64 265.33 27.64 89.00 27.64 C 86.11 27.58 83.29 28.16 80.47 28.70 Z" />
<path fill="#191617" opacity="1.00" d=" M 87.29 32.39 C 263.88 32.24 440.47 32.37 617.05 32.32 C 626.67 32.19 636.22 36.21 642.98 43.03 C 649.81 49.82 653.79 59.39 653.68 69.02 C 653.68 181.69 653.68 294.36 653.68 407.04 C 653.79 416.42 650.05 425.77 643.53 432.52 C 636.97 439.44 627.58 443.66 618.04 443.78 C 441.68 443.78 265.32 443.78 88.97 443.78 C 77.74 443.66 66.81 437.82 60.29 428.70 C 55.72 422.47 53.24 414.74 53.32 407.01 C 53.34 293.98 53.30 180.96 53.34 67.93 C 53.37 49.68 69.06 33.26 87.29 32.39 M 84.03 37.18 C 69.45 39.56 57.77 53.20 57.64 67.98 C 57.63 181.33 57.63 294.69 57.64 408.04 C 57.63 424.66 72.41 439.43 89.01 439.51 C 265.00 439.54 441.00 439.51 616.99 439.52 C 630.55 439.77 643.56 430.39 647.70 417.48 C 649.89 411.59 649.34 405.22 649.40 399.06 C 649.38 288.70 649.45 178.34 649.37 67.98 C 649.30 51.36 634.51 36.67 617.91 36.60 C 442.28 36.60 266.64 36.60 91.01 36.60 C 88.67 36.61 86.30 36.57 84.03 37.18 Z" />
<path fill="#191617" opacity="1.00" d=" M 541.04 52.05 C 542.34 50.82 543.97 49.23 545.95 49.93 C 548.40 50.42 549.39 53.73 547.73 55.56 C 537.81 68.79 528.10 82.19 518.06 95.31 C 511.33 94.93 504.93 97.49 498.96 100.04 C 501.69 95.95 504.67 92.00 507.66 88.07 C 497.91 96.19 488.41 104.67 478.85 113.01 C 478.24 111.30 477.41 109.69 476.76 108.03 C 498.22 89.41 519.65 70.76 541.04 52.05 Z" />
<path fill="#191617" opacity="1.00" d=" M 322.88 57.42 C 337.58 55.44 353.43 55.15 367.06 61.83 C 374.68 65.49 381.24 72.39 382.33 81.04 C 383.55 89.15 380.15 97.00 376.63 104.11 C 379.35 114.91 377.08 126.50 372.42 136.46 C 366.78 148.36 357.94 158.44 348.23 167.20 C 333.14 180.53 316.33 192.62 297.03 198.95 C 282.88 203.61 267.89 205.10 253.06 205.07 C 244.00 204.75 234.87 201.94 227.78 196.14 C 217.90 188.56 211.98 176.40 211.62 164.01 C 210.76 146.84 217.55 130.16 227.52 116.46 C 241.37 97.30 260.16 81.93 281.22 71.30 C 294.30 64.62 308.33 59.59 322.88 57.42 M 302.09 67.85 C 281.08 75.91 262.02 89.29 247.85 106.83 C 239.71 116.72 233.01 128.02 229.60 140.44 C 226.59 151.95 225.78 164.60 230.08 175.89 C 234.25 186.83 244.76 194.43 256.07 196.55 C 266.95 198.74 278.30 197.64 288.99 194.93 C 309.76 189.56 329.00 178.37 343.79 162.81 C 355.24 151.25 363.88 136.38 365.67 120.00 C 354.13 132.08 340.27 142.12 325.23 149.48 C 325.31 149.26 325.48 148.83 325.56 148.61 C 339.89 137.33 353.76 125.21 365.42 111.13 C 362.29 94.83 347.43 83.20 331.88 79.60 C 322.39 78.02 312.70 78.21 303.18 77.07 L 303.03 76.24 C 314.79 72.90 327.49 72.02 339.47 74.74 C 352.65 78.22 366.39 84.66 373.47 96.92 C 373.68 96.83 374.10 96.65 374.31 96.56 C 376.75 88.78 376.45 79.52 371.10 72.97 C 364.38 64.59 353.31 61.36 342.98 60.78 C 329.04 60.17 315.08 62.84 302.09 67.85 Z" />
<path fill="#191617" opacity="1.00" d=" M 550.55 104.36 C 549.30 102.66 551.26 100.98 552.91 100.84 C 558.01 100.66 563.46 101.18 567.85 104.03 C 572.56 107.28 574.16 113.61 573.08 119.00 C 570.34 131.29 566.12 143.18 562.28 155.16 C 561.65 157.39 560.30 159.49 560.45 161.88 C 567.90 149.19 576.80 137.34 586.16 125.99 C 590.14 121.77 593.74 116.64 599.30 114.44 L 599.83 115.83 C 583.26 137.06 565.93 158.25 554.82 183.02 C 553.33 186.27 553.29 190.77 549.79 192.62 C 546.19 193.29 541.76 192.05 539.54 189.01 C 539.77 182.15 542.42 175.59 544.18 168.99 C 549.25 151.86 555.59 134.94 557.69 117.10 C 557.86 113.58 558.97 109.80 557.39 106.46 C 555.88 104.16 552.73 104.97 550.55 104.36 Z" />
<path fill="#191617" opacity="1.00" d=" M 395.19 103.36 C 400.56 101.39 406.51 101.80 412.10 102.45 C 416.78 103.13 421.98 105.32 423.76 110.07 C 425.70 114.26 424.23 118.87 422.70 122.92 C 421.15 127.73 418.79 132.26 417.13 137.00 C 425.00 127.07 433.09 116.52 444.61 110.59 C 450.80 107.47 459.29 106.19 464.88 111.14 C 469.79 116.41 469.02 124.29 468.21 130.88 C 465.16 147.21 455.17 161.18 444.27 173.30 C 436.32 181.81 426.76 189.76 415.06 192.13 C 407.54 193.47 399.56 192.15 392.91 188.57 C 384.69 207.56 376.29 227.09 374.88 247.97 C 374.51 251.37 375.73 256.46 380.06 256.22 C 383.04 255.03 386.09 254.01 389.13 252.96 C 390.22 254.35 388.39 255.58 387.45 256.36 C 383.52 258.57 378.23 260.73 374.01 258.09 C 368.85 254.53 364.68 248.52 365.37 242.01 C 366.37 219.72 374.71 198.62 382.82 178.10 C 381.47 175.28 379.48 172.29 380.25 169.02 C 380.58 169.07 381.22 169.17 381.55 169.23 C 381.88 171.37 382.88 173.33 384.10 175.11 C 392.97 155.04 401.60 134.75 409.14 114.11 C 410.17 111.62 410.65 107.82 407.50 106.70 C 402.95 105.30 398.50 108.07 394.01 108.50 C 391.39 107.52 393.06 103.85 395.19 103.36 M 434.61 123.60 C 416.99 140.44 404.71 162.11 394.77 184.08 C 402.85 186.75 412.19 185.95 419.55 181.53 C 429.01 176.00 436.14 167.35 442.35 158.49 C 449.86 147.47 455.84 134.62 455.50 121.02 C 455.59 118.30 454.22 114.64 451.02 114.66 C 444.49 114.83 439.29 119.54 434.61 123.60 Z" />
<path fill="#191617" opacity="1.00" d=" M 509.85 107.99 C 517.08 105.26 525.96 106.96 531.05 112.97 C 535.26 117.40 535.14 124.31 532.61 129.56 C 529.19 136.74 522.83 141.95 516.39 146.33 C 509.54 150.68 501.26 154.37 493.02 152.98 C 492.79 151.61 493.67 150.42 495.06 150.36 C 503.95 147.41 512.87 143.25 519.20 136.13 C 523.93 130.97 526.39 123.94 526.22 116.98 C 526.30 115.77 525.48 113.96 524.02 114.14 C 521.17 114.23 518.81 116.13 516.51 117.61 C 501.84 128.38 490.47 143.32 482.83 159.77 C 479.54 167.53 476.49 176.66 479.86 184.89 C 482.27 189.79 488.62 189.37 493.07 188.08 C 504.61 184.62 512.88 175.38 521.08 167.09 C 527.22 160.99 532.82 154.37 539.08 148.41 C 541.73 148.74 540.44 152.00 539.34 153.29 C 529.31 167.27 518.89 181.75 504.18 191.16 C 496.28 196.47 485.76 196.68 477.22 192.84 C 471.80 190.42 468.21 184.96 467.35 179.18 C 465.50 169.16 468.68 159.01 472.90 149.99 C 477.52 140.37 483.41 131.37 490.16 123.11 C 495.59 116.84 501.83 110.72 509.85 107.99 Z" />
<path fill="#191617" opacity="1.00" d=" M 606.00 109.94 C 608.19 107.27 611.93 107.68 614.98 108.05 C 617.39 108.29 620.33 108.66 621.58 111.09 C 614.81 121.47 610.76 133.42 606.79 145.10 C 603.57 156.82 598.62 168.61 599.89 180.99 C 600.51 184.58 600.71 188.87 603.88 191.27 C 608.17 193.17 611.28 188.34 614.39 186.39 C 615.21 189.54 614.42 193.74 611.11 195.12 C 605.62 197.20 598.73 195.69 594.97 191.02 C 590.54 185.74 589.35 178.65 588.77 171.99 C 587.94 158.01 591.74 144.30 595.85 131.08 C 598.43 123.74 600.70 115.85 606.00 109.94 Z" />
<path fill="#191617" opacity="1.00" d=" M 68.39 112.52 C 70.15 111.44 71.98 112.79 73.58 113.47 C 115.93 133.21 158.32 152.85 200.79 172.33 C 202.21 177.65 203.97 182.93 205.97 188.10 L 206.20 189.54 L 205.46 189.90 C 180.38 178.06 155.27 166.23 130.61 153.53 C 122.45 149.40 114.30 145.25 106.14 141.13 C 118.76 151.02 131.71 160.54 144.43 170.32 C 152.06 175.85 159.24 182.02 167.04 187.27 L 166.57 188.15 C 168.29 188.39 169.40 189.84 170.71 190.57 C 170.99 188.49 168.27 188.17 167.06 187.10 C 158.04 179.56 149.27 171.73 140.18 164.30 C 140.82 164.33 141.39 164.56 141.87 164.97 C 157.17 176.03 171.97 187.80 187.04 199.15 C 211.90 210.81 236.50 223.05 260.53 236.36 C 265.27 239.19 270.45 241.45 274.81 244.84 C 261.22 239.12 247.70 233.16 234.41 226.76 C 232.79 226.09 231.29 225.06 229.56 224.71 C 229.50 223.02 227.47 223.53 226.69 222.51 C 225.41 221.59 223.99 221.10 222.45 221.61 C 238.20 229.16 253.55 237.85 269.10 245.97 C 281.29 252.43 293.44 258.97 305.65 265.38 C 327.56 275.27 350.41 283.67 374.24 287.36 C 365.48 288.70 356.56 286.79 347.90 285.38 C 346.56 285.46 345.87 283.66 344.45 284.37 C 344.38 286.85 347.05 283.98 347.92 285.94 C 358.03 288.91 368.60 290.51 379.12 290.72 C 384.60 288.78 390.07 286.79 395.54 284.80 C 393.68 282.90 391.53 281.25 389.87 279.14 C 390.44 278.85 391.59 278.26 392.16 277.96 C 393.92 279.07 395.62 280.35 397.68 280.87 C 396.58 279.55 395.23 278.44 393.96 277.30 C 395.47 276.51 396.90 275.58 398.38 274.72 C 400.83 276.83 403.13 279.11 405.32 281.48 C 412.21 284.63 419.79 285.56 427.04 287.50 C 434.29 289.39 440.10 294.62 444.49 300.50 C 451.76 310.38 459.12 320.50 468.85 328.14 C 473.76 333.78 478.36 339.82 483.89 344.84 C 481.23 340.57 478.42 336.37 475.90 332.01 C 484.32 334.08 491.15 327.69 497.83 323.71 C 506.63 318.01 517.38 314.81 527.87 316.71 C 543.33 319.35 558.26 327.57 567.26 340.65 C 576.07 353.30 579.27 368.82 580.81 383.91 C 581.34 391.24 581.86 399.19 586.71 405.12 C 580.87 405.22 574.82 406.41 569.12 405.38 C 569.30 406.67 570.47 407.03 571.75 406.29 C 578.36 407.84 585.25 408.07 592.03 408.23 C 605.15 410.68 618.12 405.99 630.98 403.94 C 635.13 403.41 638.84 408.01 637.24 411.95 C 636.43 414.78 633.37 415.77 631.00 416.97 C 612.64 425.53 592.19 428.93 572.03 428.77 C 553.53 428.63 534.58 425.17 518.59 415.46 C 506.30 408.21 496.09 397.91 487.60 386.54 C 475.45 370.23 464.98 352.68 451.94 337.03 C 438.52 320.97 422.30 305.96 401.94 299.57 C 393.55 296.70 384.61 296.94 375.94 295.75 C 363.75 295.08 351.61 292.89 340.16 288.60 C 326.41 300.09 313.54 312.75 298.54 322.68 C 282.89 333.62 264.09 338.28 246.82 345.93 C 228.10 353.59 210.61 365.24 198.33 381.51 C 192.61 389.34 187.48 397.72 184.24 406.89 C 181.82 413.36 182.30 420.67 179.06 426.86 C 176.63 431.90 170.07 434.21 164.94 432.13 C 158.93 429.81 154.44 424.79 148.49 422.34 C 148.43 422.17 148.30 421.82 148.23 421.65 C 154.63 420.71 161.01 419.14 166.95 416.57 C 155.42 418.17 143.66 419.12 132.03 418.01 C 114.88 415.61 97.66 405.13 91.29 388.45 C 86.70 376.06 90.33 362.17 97.42 351.49 C 106.60 336.99 123.22 328.50 140.02 326.83 C 151.72 325.58 163.73 327.00 174.74 331.19 C 182.48 334.19 190.43 336.80 198.65 338.05 C 212.90 340.71 228.21 339.19 241.15 332.36 C 254.12 325.62 264.24 314.65 272.82 303.04 C 281.47 291.34 288.75 278.65 297.20 266.86 C 259.17 246.14 220.63 226.09 182.47 205.53 C 144.33 176.66 106.32 147.64 68.16 118.80 C 65.70 117.53 65.80 113.58 68.39 112.52 M 277.12 306.05 C 273.83 314.84 270.41 323.71 267.24 332.47 C 273.16 330.01 279.22 327.86 284.93 324.90 C 290.85 321.93 296.25 318.06 301.78 314.47 C 301.62 314.45 301.29 314.42 301.13 314.41 C 292.97 318.30 284.83 322.62 276.01 324.81 C 296.68 314.97 315.43 301.03 331.55 284.80 C 322.76 280.38 314.12 275.67 305.44 271.05 C 298.10 279.63 292.20 289.31 286.23 298.83 C 290.21 288.41 295.68 278.59 301.88 269.34 C 292.86 281.02 285.85 294.13 277.12 306.05 M 404.38 291.56 C 404.11 293.79 406.92 291.42 407.96 292.56 C 415.04 293.76 422.15 295.73 427.97 300.14 C 439.75 308.95 448.45 321.07 457.33 332.60 C 457.55 332.53 457.97 332.39 458.18 332.32 L 456.77 331.87 C 454.74 326.78 451.01 322.52 447.98 317.98 C 440.22 307.63 430.95 297.01 418.00 293.47 C 413.58 292.11 408.69 292.36 404.38 291.56 M 237.75 339.85 C 226.71 344.70 214.10 345.38 202.42 342.83 C 212.00 346.76 222.96 346.73 232.82 343.79 C 244.36 340.32 254.47 332.76 261.67 323.18 C 254.57 329.84 246.88 336.16 237.75 339.85 M 511.56 327.74 C 498.84 330.88 489.74 343.09 488.97 355.97 C 488.41 369.82 493.37 383.98 502.95 394.10 C 511.18 403.22 522.74 409.43 535.04 410.50 C 544.26 411.22 553.92 408.09 560.34 401.30 C 567.56 393.93 570.22 383.07 569.12 373.00 C 567.38 356.53 557.05 341.51 542.96 333.05 C 533.65 327.52 522.18 324.83 511.56 327.74 M 116.49 346.42 C 107.09 353.19 99.94 364.11 100.16 375.99 C 100.21 386.43 106.47 396.10 115.16 401.58 C 127.98 409.85 144.62 410.68 158.85 405.77 C 171.22 401.55 182.59 392.49 187.10 379.93 C 190.95 369.81 188.62 357.70 181.24 349.77 C 180.70 348.91 179.53 348.47 179.37 347.40 C 186.10 349.51 192.84 352.29 199.96 352.54 C 187.84 350.05 177.33 342.90 165.58 339.27 C 149.37 333.38 130.40 336.33 116.49 346.42 M 608.75 418.28 C 607.94 419.99 605.54 419.04 604.08 419.65 C 588.15 421.87 571.99 421.40 555.97 420.71 C 552.63 420.61 549.23 419.96 545.93 420.51 C 566.30 425.19 588.45 426.62 608.38 419.30 C 608.47 419.05 608.66 418.53 608.75 418.28 Z" />
<path fill="#191617" opacity="1.00" d=" M 358.44 210.29 C 358.71 210.27 359.24 210.21 359.51 210.19 C 358.15 212.83 358.31 216.10 356.77 218.58 C 351.17 223.40 345.63 228.27 340.04 233.09 C 339.27 233.95 337.92 234.40 337.68 235.63 C 343.15 237.84 348.33 240.75 353.67 243.28 C 354.28 245.24 354.02 247.41 354.44 249.44 C 347.67 245.90 340.80 242.54 333.92 239.23 C 332.87 239.99 331.55 236.93 331.41 238.65 C 338.68 241.69 344.95 246.83 351.86 250.65 C 350.59 250.48 349.31 250.32 348.19 249.64 C 335.36 244.29 322.63 238.48 310.35 232.06 C 305.95 238.98 301.97 246.26 297.18 252.87 C 300.43 244.19 303.34 235.38 306.73 226.76 C 303.56 224.70 299.69 223.76 296.55 221.67 C 299.08 221.04 301.57 219.82 304.18 219.80 C 313.51 224.14 322.90 228.38 332.15 232.89 C 341.12 225.82 349.75 217.85 358.44 210.29 Z" />
<path fill="#191617" opacity="1.00" d=" M 405.85 213.52 C 406.48 213.51 407.73 213.49 408.36 213.48 C 405.51 218.11 400.61 221.17 397.95 225.99 C 402.93 222.27 406.28 217.97 411.03 213.79 C 413.06 214.35 416.33 212.55 417.51 214.40 C 409.37 221.89 401.63 229.84 393.50 237.35 C 394.33 234.01 395.29 230.58 396.78 227.50 C 398.50 226.79 397.13 224.99 397.85 223.83 C 398.76 222.08 398.99 219.64 400.70 218.54 C 402.24 216.70 404.14 215.21 405.85 213.52 Z" />
<path fill="#191617" opacity="1.00" d=" M 333.46 252.80 C 338.46 250.14 345.09 254.35 344.97 259.94 C 345.39 265.91 337.99 270.42 332.91 267.11 C 327.28 264.31 327.63 255.19 333.46 252.80 M 332.73 264.44 C 335.21 267.23 340.50 266.26 341.44 262.56 C 337.95 266.04 331.49 263.39 332.35 258.21 C 330.24 259.58 331.25 262.91 332.73 264.44 Z" />
<path fill="#191617" opacity="1.00" d=" M 288.22 253.19 C 307.01 260.16 325.26 268.47 343.60 276.51 C 344.38 277.52 346.64 277.05 346.59 278.55 C 326.29 273.32 306.82 264.91 288.87 254.08 C 288.71 253.86 288.39 253.41 288.22 253.19 Z" />
</g>
<g id="#ffffffff">
<path fill="#ffffff" opacity="1.00" d=" M 80.47 28.70 C 83.29 28.16 86.11 27.58 89.00 27.64 C 265.33 27.64 441.66 27.64 618.00 27.64 C 631.38 27.80 644.34 35.13 651.62 46.34 C 656.01 53.00 658.40 60.97 658.37 68.95 C 658.37 181.62 658.37 294.30 658.37 406.97 C 658.44 416.38 655.17 425.81 649.18 433.10 C 641.52 442.72 629.35 448.59 617.04 448.49 C 442.04 448.48 267.04 448.48 92.03 448.48 C 88.64 448.51 85.22 448.48 81.91 447.67 C 63.36 444.36 48.66 426.87 48.64 408.02 C 48.62 294.69 48.62 181.36 48.65 68.03 C 48.71 49.68 62.62 32.71 80.47 28.70 M 87.29 32.39 C 69.06 33.26 53.37 49.68 53.34 67.93 C 53.30 180.96 53.34 293.98 53.32 407.01 C 53.24 414.74 55.72 422.47 60.29 428.70 C 66.81 437.82 77.74 443.66 88.97 443.78 C 265.32 443.78 441.68 443.78 618.04 443.78 C 627.58 443.66 636.97 439.44 643.53 432.52 C 650.05 425.77 653.79 416.42 653.68 407.04 C 653.68 294.36 653.68 181.69 653.68 69.02 C 653.79 59.39 649.81 49.82 642.98 43.03 C 636.22 36.21 626.67 32.19 617.05 32.32 C 440.47 32.37 263.88 32.24 87.29 32.39 Z" />
<path fill="#ffffff" opacity="1.00" d=" M 84.03 37.18 C 86.30 36.57 88.67 36.61 91.01 36.60 C 266.64 36.60 442.28 36.60 617.91 36.60 C 634.51 36.67 649.30 51.36 649.37 67.98 C 649.45 178.34 649.38 288.70 649.40 399.06 C 649.34 405.22 649.89 411.59 647.70 417.48 C 643.56 430.39 630.55 439.77 616.99 439.52 C 441.00 439.51 265.00 439.54 89.01 439.51 C 72.41 439.43 57.63 424.66 57.64 408.04 C 57.63 294.69 57.63 181.33 57.64 67.98 C 57.77 53.20 69.45 39.56 84.03 37.18 M 541.04 52.05 C 519.65 70.76 498.22 89.41 476.76 108.03 C 477.41 109.69 478.24 111.30 478.85 113.01 C 488.41 104.67 497.91 96.19 507.66 88.07 C 504.67 92.00 501.69 95.95 498.96 100.04 C 504.93 97.49 511.33 94.93 518.06 95.31 C 528.10 82.19 537.81 68.79 547.73 55.56 C 549.39 53.73 548.40 50.42 545.95 49.93 C 543.97 49.23 542.34 50.82 541.04 52.05 M 322.88 57.42 C 308.33 59.59 294.30 64.62 281.22 71.30 C 260.16 81.93 241.37 97.30 227.52 116.46 C 217.55 130.16 210.76 146.84 211.62 164.01 C 211.98 176.40 217.90 188.56 227.78 196.14 C 234.87 201.94 244.00 204.75 253.06 205.07 C 267.89 205.10 282.88 203.61 297.03 198.95 C 316.33 192.62 333.14 180.53 348.23 167.20 C 357.94 158.44 366.78 148.36 372.42 136.46 C 377.08 126.50 379.35 114.91 376.63 104.11 C 380.15 97.00 383.55 89.15 382.33 81.04 C 381.24 72.39 374.68 65.49 367.06 61.83 C 353.43 55.15 337.58 55.44 322.88 57.42 M 394.12 80.01 C 393.51 82.30 394.38 84.65 394.00 86.97 C 394.20 88.55 392.80 90.53 393.91 91.85 C 394.92 91.60 395.92 91.34 396.92 91.04 C 396.92 87.27 395.92 83.26 394.12 80.01 M 550.55 104.36 C 552.73 104.97 555.88 104.16 557.39 106.46 C 558.97 109.80 557.86 113.58 557.69 117.10 C 555.59 134.94 549.25 151.86 544.18 168.99 C 542.42 175.59 539.77 182.15 539.54 189.01 C 541.76 192.05 546.19 193.29 549.79 192.62 C 553.29 190.77 553.33 186.27 554.82 183.02 C 565.93 158.25 583.26 137.06 599.83 115.83 L 599.30 114.44 C 593.74 116.64 590.14 121.77 586.16 125.99 C 576.80 137.34 567.90 149.19 560.45 161.88 C 560.30 159.49 561.65 157.39 562.28 155.16 C 566.12 143.18 570.34 131.29 573.08 119.00 C 574.16 113.61 572.56 107.28 567.85 104.03 C 563.46 101.18 558.01 100.66 552.91 100.84 C 551.26 100.98 549.30 102.66 550.55 104.36 M 395.19 103.36 C 393.06 103.85 391.39 107.52 394.01 108.50 C 398.50 108.07 402.95 105.30 407.50 106.70 C 410.65 107.82 410.17 111.62 409.14 114.11 C 401.60 134.75 392.97 155.04 384.10 175.11 C 382.88 173.33 381.88 171.37 381.55 169.23 C 381.22 169.17 380.58 169.07 380.25 169.02 C 379.48 172.29 381.47 175.28 382.82 178.10 C 374.71 198.62 366.37 219.72 365.37 242.01 C 364.68 248.52 368.85 254.53 374.01 258.09 C 378.23 260.73 383.52 258.57 387.45 256.36 C 388.39 255.58 390.22 254.35 389.13 252.96 C 386.09 254.01 383.04 255.03 380.06 256.22 C 375.73 256.46 374.51 251.37 374.88 247.97 C 376.29 227.09 384.69 207.56 392.91 188.57 C 399.56 192.15 407.54 193.47 415.06 192.13 C 426.76 189.76 436.32 181.81 444.27 173.30 C 455.17 161.18 465.16 147.21 468.21 130.88 C 469.02 124.29 469.79 116.41 464.88 111.14 C 459.29 106.19 450.80 107.47 444.61 110.59 C 433.09 116.52 425.00 127.07 417.13 137.00 C 418.79 132.26 421.15 127.73 422.70 122.92 C 424.23 118.87 425.70 114.26 423.76 110.07 C 421.98 105.32 416.78 103.13 412.10 102.45 C 406.51 101.80 400.56 101.39 395.19 103.36 M 509.85 107.99 C 501.83 110.72 495.59 116.84 490.16 123.11 C 483.41 131.37 477.52 140.37 472.90 149.99 C 468.68 159.01 465.50 169.16 467.35 179.18 C 468.21 184.96 471.80 190.42 477.22 192.84 C 485.76 196.68 496.28 196.47 504.18 191.16 C 518.89 181.75 529.31 167.27 539.34 153.29 C 540.44 152.00 541.73 148.74 539.08 148.41 C 532.82 154.37 527.22 160.99 521.08 167.09 C 512.88 175.38 504.61 184.62 493.07 188.08 C 488.62 189.37 482.27 189.79 479.86 184.89 C 476.49 176.66 479.54 167.53 482.83 159.77 C 490.47 143.32 501.84 128.38 516.51 117.61 C 518.81 116.13 521.17 114.23 524.02 114.14 C 525.48 113.96 526.30 115.77 526.22 116.98 C 526.39 123.94 523.93 130.97 519.20 136.13 C 512.87 143.25 503.95 147.41 495.06 150.36 C 493.67 150.42 492.79 151.61 493.02 152.98 C 501.26 154.37 509.54 150.68 516.39 146.33 C 522.83 141.95 529.19 136.74 532.61 129.56 C 535.14 124.31 535.26 117.40 531.05 112.97 C 525.96 106.96 517.08 105.26 509.85 107.99 M 606.00 109.94 C 600.70 115.85 598.43 123.74 595.85 131.08 C 591.74 144.30 587.94 158.01 588.77 171.99 C 589.35 178.65 590.54 185.74 594.97 191.02 C 598.73 195.69 605.62 197.20 611.11 195.12 C 614.42 193.74 615.21 189.54 614.39 186.39 C 611.28 188.34 608.17 193.17 603.88 191.27 C 600.71 188.87 600.51 184.58 599.89 180.99 C 598.62 168.61 603.57 156.82 606.79 145.10 C 610.76 133.42 614.81 121.47 621.58 111.09 C 620.33 108.66 617.39 108.29 614.98 108.05 C 611.93 107.68 608.19 107.27 606.00 109.94 M 68.39 112.52 C 65.80 113.58 65.70 117.53 68.16 118.80 C 106.32 147.64 144.33 176.66 182.47 205.53 C 220.63 226.09 259.17 246.14 297.20 266.86 C 288.75 278.65 281.47 291.34 272.82 303.04 C 264.24 314.65 254.12 325.62 241.15 332.36 C 228.21 339.19 212.90 340.71 198.65 338.05 C 190.43 336.80 182.48 334.19 174.74 331.19 C 163.73 327.00 151.72 325.58 140.02 326.83 C 123.22 328.50 106.60 336.99 97.42 351.49 C 90.33 362.17 86.70 376.06 91.29 388.45 C 97.66 405.13 114.88 415.61 132.03 418.01 C 143.66 419.12 155.42 418.17 166.95 416.57 C 161.01 419.14 154.63 420.71 148.23 421.65 C 148.30 421.82 148.43 422.17 148.49 422.34 C 154.44 424.79 158.93 429.81 164.94 432.13 C 170.07 434.21 176.63 431.90 179.06 426.86 C 182.30 420.67 181.82 413.36 184.24 406.89 C 187.48 397.72 192.61 389.34 198.33 381.51 C 210.61 365.24 228.10 353.59 246.82 345.93 C 264.09 338.28 282.89 333.62 298.54 322.68 C 313.54 312.75 326.41 300.09 340.16 288.60 C 351.61 292.89 363.75 295.08 375.94 295.75 C 384.61 296.94 393.55 296.70 401.94 299.57 C 422.30 305.96 438.52 320.97 451.94 337.03 C 464.98 352.68 475.45 370.23 487.60 386.54 C 496.09 397.91 506.30 408.21 518.59 415.46 C 534.58 425.17 553.53 428.63 572.03 428.77 C 592.19 428.93 612.64 425.53 631.00 416.97 C 633.37 415.77 636.43 414.78 637.24 411.95 C 638.84 408.01 635.13 403.41 630.98 403.94 C 618.12 405.99 605.15 410.68 592.03 408.23 C 585.25 408.07 578.36 407.84 571.75 406.29 C 570.47 407.03 569.30 406.67 569.12 405.38 C 574.82 406.41 580.87 405.22 586.71 405.12 C 581.86 399.19 581.34 391.24 580.81 383.91 C 579.27 368.82 576.07 353.30 567.26 340.65 C 558.26 327.57 543.33 319.35 527.87 316.71 C 517.38 314.81 506.63 318.01 497.83 323.71 C 491.15 327.69 484.32 334.08 475.90 332.01 C 478.42 336.37 481.23 340.57 483.89 344.84 C 478.36 339.82 473.76 333.78 468.85 328.14 C 459.12 320.50 451.76 310.38 444.49 300.50 C 440.10 294.62 434.29 289.39 427.04 287.50 C 419.79 285.56 412.21 284.63 405.32 281.48 C 403.13 279.11 400.83 276.83 398.38 274.72 C 402.99 271.04 405.55 264.52 403.26 258.85 C 402.50 257.91 402.53 255.48 400.82 255.98 C 398.64 265.22 388.77 269.70 380.13 270.65 C 372.18 271.72 364.91 266.76 360.26 260.73 C 359.22 259.57 358.65 257.90 357.15 257.25 C 359.08 266.00 364.73 273.94 372.57 278.34 C 377.84 281.33 384.27 280.76 389.87 279.14 C 391.53 281.25 393.68 282.90 395.54 284.80 C 390.07 286.79 384.60 288.78 379.12 290.72 C 368.60 290.51 358.03 288.91 347.92 285.94 C 347.05 283.98 344.38 286.85 344.45 284.37 C 345.87 283.66 346.56 285.46 347.90 285.38 C 356.56 286.79 365.48 288.70 374.24 287.36 C 350.41 283.67 327.56 275.27 305.65 265.38 C 293.44 258.97 281.29 252.43 269.10 245.97 C 253.55 237.85 238.20 229.16 222.45 221.61 C 223.99 221.10 225.41 221.59 226.69 222.51 C 227.47 223.53 229.50 223.02 229.56 224.71 C 231.29 225.06 232.79 226.09 234.41 226.76 C 247.70 233.16 261.22 239.12 274.81 244.84 C 270.45 241.45 265.27 239.19 260.53 236.36 C 236.50 223.05 211.90 210.81 187.04 199.15 C 171.97 187.80 157.17 176.03 141.87 164.97 C 141.39 164.56 140.82 164.33 140.18 164.30 C 149.27 171.73 158.04 179.56 167.06 187.10 C 168.27 188.17 170.99 188.49 170.71 190.57 C 169.40 189.84 168.29 188.39 166.57 188.15 L 167.04 187.27 C 159.24 182.02 152.06 175.85 144.43 170.32 C 131.71 160.54 118.76 151.02 106.14 141.13 C 114.30 145.25 122.45 149.40 130.61 153.53 C 155.27 166.23 180.38 178.06 205.46 189.90 L 206.20 189.54 C 212.37 209.77 231.96 224.87 253.05 226.10 C 267.65 226.73 282.39 225.27 296.55 221.67 C 299.69 223.76 303.56 224.70 306.73 226.76 C 303.34 235.38 300.43 244.19 297.18 252.87 C 301.97 246.26 305.95 238.98 310.35 232.06 C 322.63 238.48 335.36 244.29 348.19 249.64 C 349.31 250.32 350.59 250.48 351.86 250.65 C 344.95 246.83 338.68 241.69 331.41 238.65 C 331.55 236.93 332.87 239.99 333.92 239.23 C 340.80 242.54 347.67 245.90 354.44 249.44 C 354.02 247.41 354.28 245.24 353.67 243.28 C 348.33 240.75 343.15 237.84 337.68 235.63 C 337.92 234.40 339.27 233.95 340.04 233.09 C 345.63 228.27 351.17 223.40 356.77 218.58 C 358.31 216.10 358.15 212.83 359.51 210.19 C 359.24 210.21 358.71 210.27 358.44 210.29 C 349.75 217.85 341.12 225.82 332.15 232.89 C 322.90 228.38 313.51 224.14 304.18 219.80 C 304.59 219.57 305.40 219.11 305.81 218.88 C 317.82 214.85 328.92 208.50 339.27 201.27 C 349.90 193.70 360.05 185.38 368.95 175.82 C 367.95 169.95 368.70 162.71 374.33 159.36 C 376.01 157.80 379.35 158.51 380.00 155.94 C 384.96 144.05 389.98 132.17 394.71 120.19 C 392.83 119.75 390.94 119.45 389.06 119.06 C 387.08 139.53 374.93 157.41 360.49 171.39 C 348.04 183.27 334.20 193.82 319.01 201.98 C 298.00 213.25 273.71 217.21 250.07 216.35 C 233.00 215.43 216.88 205.58 208.06 190.98 C 207.38 190.01 207.03 188.74 205.97 188.10 C 203.97 182.93 202.21 177.65 200.79 172.33 C 158.32 152.85 115.93 133.21 73.58 113.47 C 71.98 112.79 70.15 111.44 68.39 112.52 M 545.20 114.35 C 544.30 115.18 544.40 117.74 545.92 117.81 C 547.17 117.21 547.01 113.84 545.20 114.35 M 632.94 113.51 C 632.54 116.16 631.02 118.37 629.34 120.38 C 627.51 123.42 626.05 126.70 624.73 129.99 C 625.29 134.35 623.30 138.37 620.22 141.30 C 616.51 152.28 612.74 163.39 611.11 174.90 C 612.76 175.20 614.46 175.09 616.13 174.93 C 618.51 166.82 620.52 158.53 623.70 150.70 C 626.77 148.01 628.30 144.02 627.97 139.96 C 629.27 136.24 630.95 132.50 633.23 129.26 C 636.40 125.97 637.00 120.81 635.29 116.66 C 634.47 115.69 634.73 113.06 632.94 113.51 M 493.08 164.90 C 491.58 168.73 489.89 172.74 490.08 176.93 C 497.59 174.75 503.11 168.78 508.59 163.52 C 508.66 163.23 508.82 162.64 508.90 162.34 C 503.97 164.70 498.42 164.71 493.08 164.90 M 576.32 167.20 C 572.47 173.53 568.75 179.96 565.70 186.72 C 564.25 190.51 563.46 194.69 560.84 197.92 C 557.66 202.21 552.31 204.80 546.96 204.35 C 541.14 203.76 535.24 201.58 531.25 197.16 C 530.71 204.56 536.77 210.69 543.51 212.64 C 549.78 215.13 557.66 214.67 562.47 209.49 C 566.14 206.22 567.18 201.29 568.80 196.88 C 571.28 190.94 574.61 185.42 577.78 179.83 C 577.84 175.62 577.03 171.30 577.17 167.01 L 576.32 167.20 M 425.91 200.79 C 417.46 204.34 408.08 204.80 399.14 203.18 C 393.99 215.57 389.03 228.30 387.17 241.65 C 388.80 241.66 390.42 241.72 392.05 241.87 C 392.65 240.40 393.06 238.86 393.50 237.35 C 401.63 229.84 409.37 221.89 417.51 214.40 C 418.29 213.86 419.10 213.32 420.08 213.21 C 435.32 210.33 447.79 199.96 457.87 188.71 C 457.40 185.19 455.78 181.80 455.64 178.16 C 447.02 187.10 437.70 196.11 425.91 200.79 M 496.57 206.40 C 486.46 207.78 475.38 206.20 467.08 199.91 C 463.77 197.68 461.73 194.23 459.25 191.25 C 460.78 198.10 464.09 204.82 469.71 209.21 C 477.84 215.68 488.84 217.46 498.95 216.28 C 511.39 214.14 521.46 205.64 530.09 196.95 L 530.45 196.10 C 528.56 193.27 527.94 189.90 527.93 186.55 L 527.00 186.96 C 518.61 195.66 508.66 203.81 496.57 206.40 M 626.34 189.00 C 625.84 191.28 625.75 193.66 624.88 195.86 C 622.92 201.44 617.77 205.54 612.06 206.80 C 603.56 208.81 594.05 206.38 587.85 200.14 C 585.43 198.22 584.33 195.20 582.21 193.07 C 584.11 202.32 589.91 211.42 598.90 215.17 C 605.77 217.92 614.00 218.16 620.59 214.50 C 629.23 209.78 632.34 196.88 626.34 189.00 M 333.46 252.80 C 327.63 255.19 327.28 264.31 332.91 267.11 C 337.99 270.42 345.39 265.91 344.97 259.94 C 345.09 254.35 338.46 250.14 333.46 252.80 M 288.22 253.19 C 288.39 253.41 288.71 253.86 288.87 254.08 C 306.82 264.91 326.29 273.32 346.59 278.55 C 346.64 277.05 344.38 277.52 343.60 276.51 C 325.26 268.47 307.01 260.16 288.22 253.19 Z" />
<path fill="#ffffff" opacity="1.00" d=" M 302.09 67.85 C 315.08 62.84 329.04 60.17 342.98 60.78 C 353.31 61.36 364.38 64.59 371.10 72.97 C 376.45 79.52 376.75 88.78 374.31 96.56 C 374.10 96.65 373.68 96.83 373.47 96.92 C 366.39 84.66 352.65 78.22 339.47 74.74 C 327.49 72.02 314.79 72.90 303.03 76.24 L 303.18 77.07 C 312.70 78.21 322.39 78.02 331.88 79.60 C 347.43 83.20 362.29 94.83 365.42 111.13 C 353.76 125.21 339.89 137.33 325.56 148.61 C 325.48 148.83 325.31 149.26 325.23 149.48 C 340.27 142.12 354.13 132.08 365.67 120.00 C 363.88 136.38 355.24 151.25 343.79 162.81 C 329.00 178.37 309.76 189.56 288.99 194.93 C 278.30 197.64 266.95 198.74 256.07 196.55 C 244.76 194.43 234.25 186.83 230.08 175.89 C 225.78 164.60 226.59 151.95 229.60 140.44 C 233.01 128.02 239.71 116.72 247.85 106.83 C 262.02 89.29 281.08 75.91 302.09 67.85 M 247.09 128.02 C 240.15 140.27 236.48 155.10 239.85 169.01 C 240.48 170.34 240.35 172.48 241.89 173.13 C 240.58 156.22 247.40 139.76 257.71 126.66 C 268.14 113.18 281.48 101.61 296.84 94.21 C 299.08 96.39 301.94 97.80 305.05 98.21 C 313.01 99.25 321.08 99.11 329.05 100.08 C 337.00 100.73 344.45 104.64 350.18 110.09 C 351.61 110.65 353.36 108.27 352.04 107.13 C 347.58 98.77 338.98 93.30 330.01 90.89 C 320.07 89.21 309.87 89.87 299.95 88.08 C 297.20 87.78 295.41 85.40 293.04 84.48 C 274.15 94.43 257.77 109.47 247.09 128.02 M 316.95 157.59 C 316.92 161.12 317.95 165.30 321.07 167.29 C 324.26 165.28 327.27 162.82 329.94 160.15 C 325.36 161.28 320.81 160.04 316.95 157.59 Z" />
<path fill="#ffffff" opacity="1.00" d=" M 434.61 123.60 C 439.29 119.54 444.49 114.83 451.02 114.66 C 454.22 114.64 455.59 118.30 455.50 121.02 C 455.84 134.62 449.86 147.47 442.35 158.49 C 436.14 167.35 429.01 176.00 419.55 181.53 C 412.19 185.95 402.85 186.75 394.77 184.08 C 404.71 162.11 416.99 140.44 434.61 123.60 M 441.20 133.10 C 430.13 144.17 421.18 157.29 414.05 171.16 C 415.59 170.91 416.70 169.71 417.93 168.85 C 424.59 163.48 429.88 156.62 434.56 149.51 C 437.78 144.19 441.03 138.64 442.32 132.51 L 441.20 133.10 Z" />
<path fill="#ffffff" opacity="1.00" d=" M 402.28 213.12 C 403.49 212.97 404.68 213.11 405.85 213.52 C 404.14 215.21 402.24 216.70 400.70 218.54 C 399.87 216.73 401.88 214.90 402.28 213.12 Z" />
<path fill="#ffffff" opacity="1.00" d=" M 332.73 264.44 C 331.25 262.91 330.24 259.58 332.35 258.21 C 331.49 263.39 337.95 266.04 341.44 262.56 C 340.50 266.26 335.21 267.23 332.73 264.44 Z" />
<path fill="#ffffff" opacity="1.00" d=" M 277.12 306.05 C 285.85 294.13 292.86 281.02 301.88 269.34 C 295.68 278.59 290.21 288.41 286.23 298.83 C 292.20 289.31 298.10 279.63 305.44 271.05 C 314.12 275.67 322.76 280.38 331.55 284.80 C 315.43 301.03 296.68 314.97 276.01 324.81 C 284.83 322.62 292.97 318.30 301.13 314.41 C 301.29 314.42 301.62 314.45 301.78 314.47 C 296.25 318.06 290.85 321.93 284.93 324.90 C 279.22 327.86 273.16 330.01 267.24 332.47 C 270.41 323.71 273.83 314.84 277.12 306.05 Z" />
<path fill="#ffffff" opacity="1.00" d=" M 404.38 291.56 C 408.69 292.36 413.58 292.11 418.00 293.47 C 430.95 297.01 440.22 307.63 447.98 317.98 C 451.01 322.52 454.74 326.78 456.77 331.87 L 458.18 332.32 C 457.97 332.39 457.55 332.53 457.33 332.60 C 448.45 321.07 439.75 308.95 427.97 300.14 C 422.15 295.73 415.04 293.76 407.96 292.56 C 406.92 291.42 404.11 293.79 404.38 291.56 Z" />
<path fill="#ffffff" opacity="1.00" d=" M 237.75 339.85 C 246.88 336.16 254.57 329.84 261.67 323.18 C 254.47 332.76 244.36 340.32 232.82 343.79 C 222.96 346.73 212.00 346.76 202.42 342.83 C 214.10 345.38 226.71 344.70 237.75 339.85 Z" />
<path fill="#ffffff" opacity="1.00" d=" M 511.56 327.74 C 522.18 324.83 533.65 327.52 542.96 333.05 C 557.05 341.51 567.38 356.53 569.12 373.00 C 570.22 383.07 567.56 393.93 560.34 401.30 C 553.92 408.09 544.26 411.22 535.04 410.50 C 522.74 409.43 511.18 403.22 502.95 394.10 C 493.37 383.98 488.41 369.82 488.97 355.97 C 489.74 343.09 498.84 330.88 511.56 327.74 Z" />
<path fill="#ffffff" opacity="1.00" d=" M 116.49 346.42 C 130.40 336.33 149.37 333.38 165.58 339.27 C 177.33 342.90 187.84 350.05 199.96 352.54 C 192.84 352.29 186.10 349.51 179.37 347.40 C 179.53 348.47 180.70 348.91 181.24 349.77 C 188.62 357.70 190.95 369.81 187.10 379.93 C 182.59 392.49 171.22 401.55 158.85 405.77 C 144.62 410.68 127.98 409.85 115.16 401.58 C 106.47 396.10 100.21 386.43 100.16 375.99 C 99.94 364.11 107.09 353.19 116.49 346.42 Z" />
<path fill="#ffffff" opacity="1.00" d=" M 608.75 418.28 C 608.66 418.53 608.47 419.05 608.38 419.30 C 588.45 426.62 566.30 425.19 545.93 420.51 C 549.23 419.96 552.63 420.61 555.97 420.71 C 571.99 421.40 588.15 421.87 604.08 419.65 C 605.54 419.04 607.94 419.99 608.75 418.28 Z" />
</g>
</svg>
