<?xml version="1.0" standalone="no"?>
<!DOCTYPE svg PUBLIC "-//W3C//DTD SVG 20010904//EN"
 "http://www.w3.org/TR/2001/REC-SVG-20010904/DTD/svg10.dtd">
<svg version="1.0" xmlns="http://www.w3.org/2000/svg"
 width="1004.000000pt" height="1004.000000pt" viewBox="0 0 1004.000000 1004.000000"
 preserveAspectRatio="xMidYMid meet">
<metadata>
Created by potrace 1.11, written by Peter Selinger 2001-2013
</metadata>
<g transform="translate(0.000000,1004.000000) scale(0.100000,-0.100000)"
fill="#000000" stroke="none">
<path d="M4709 10017 c-43 -37 -99 -113 -125 -172 -21 -45 -25 -67 -21 -105 7
-61 17 -80 63 -116 54 -43 63 -71 49 -156 -17 -97 -9 -121 74 -235 29 -40 31
-70 8 -133 -22 -62 -23 -101 -3 -112 7 -4 27 -21 45 -37 31 -29 31 -29 15 -67
-8 -22 -19 -48 -24 -59 -22 -46 -19 -74 7 -93 26 -19 27 -19 63 2 90 52 107
77 108 155 0 56 -13 95 -48 146 -27 41 -25 68 8 107 76 90 78 173 5 211 -142
74 -144 76 -96 147 62 92 49 171 -33 209 -24 12 -46 21 -49 21 -15 0 -45 37
-45 55 0 12 18 52 41 89 57 95 63 119 35 145 -28 27 -45 26 -77 -2z"/>
<path d="M4080 9851 c-31 -44 -50 -96 -50 -135 0 -28 7 -41 37 -65 21 -17 47
-31 59 -31 32 0 34 -7 11 -71 -20 -54 -21 -61 -7 -86 12 -21 28 -30 69 -39 29
-7 55 -15 58 -18 3 -3 -4 -21 -16 -41 -26 -44 -27 -67 -3 -87 23 -21 55 -30
108 -30 38 0 44 -2 39 -16 -20 -53 -17 -69 18 -96 22 -17 53 -29 86 -33 50 -6
51 -6 36 -27 -33 -45 -60 -91 -62 -109 -2 -12 14 -39 42 -69 50 -52 48 -44 27
-158 -10 -55 -3 -88 23 -122 23 -29 54 -41 79 -32 23 9 20 23 -14 77 -16 26
-30 51 -30 55 0 4 21 21 46 37 25 17 54 46 64 66 17 33 17 38 4 65 -8 16 -26
39 -40 51 -22 19 -24 24 -13 45 6 13 17 30 24 38 12 14 38 83 40 105 1 6 -3
20 -9 32 -10 24 -34 31 -119 35 l-49 3 32 40 c39 48 63 102 55 123 -4 12 -19
14 -83 9 -42 -4 -92 -9 -109 -12 -18 -4 -33 -4 -33 -2 0 3 18 40 39 83 62 124
62 161 -1 148 -57 -12 -126 -15 -132 -5 -4 5 7 35 24 67 48 88 27 136 -53 118
-17 -3 -34 -9 -37 -13 -9 -11 -65 -38 -94 -45 l-29 -7 8 53 c15 107 15 128 -5
128 -10 0 -28 -13 -40 -29z"/>
<path d="M5281 9844 c-49 -14 -177 -98 -197 -129 -43 -66 -36 -103 44 -203 57
-73 55 -87 -12 -106 -64 -19 -69 -25 -78 -95 -2 -22 6 -45 41 -102 21 -35 41
-76 44 -90 6 -25 4 -27 -37 -33 -95 -15 -110 -90 -38 -194 67 -97 64 -112 -18
-112 -40 0 -48 -4 -63 -30 -45 -76 7 -226 71 -206 26 8 24 40 -4 95 -13 27
-24 58 -24 70 0 19 5 21 76 21 41 0 85 5 97 11 33 17 54 43 51 62 -2 18 -36
68 -71 107 -27 29 -38 59 -26 70 4 4 31 16 58 26 59 22 71 32 91 79 13 32 13
39 -1 68 -9 18 -35 46 -58 62 -23 17 -43 40 -45 52 -4 27 44 83 103 120 52 32
79 77 63 103 -6 9 -34 32 -62 51 -28 19 -54 39 -58 44 -26 35 11 93 95 149 29
19 60 48 70 65 17 30 17 30 -5 45 -26 17 -50 17 -107 0z"/>
<path d="M3874 9502 c-42 -35 -57 -69 -46 -102 9 -24 6 -46 -13 -112 -30 -103
-30 -106 0 -120 18 -8 32 -8 54 2 51 21 55 15 35 -60 -13 -53 -4 -86 29 -112
29 -23 54 -22 100 2 20 11 39 20 42 20 3 0 -5 -19 -18 -42 -34 -63 -35 -110
-2 -136 24 -19 29 -20 67 -6 43 15 78 18 78 8 0 -4 -10 -36 -23 -73 -13 -36
-23 -77 -23 -91 1 -24 3 -25 78 -25 47 -1 83 -6 90 -13 17 -17 13 -73 -7 -112
-9 -18 -15 -45 -13 -60 4 -25 -2 -32 -47 -59 -28 -17 -54 -31 -57 -31 -3 0 11
33 32 73 38 74 44 114 20 142 -19 23 -58 13 -123 -30 -28 -19 -53 -31 -55 -27
-1 5 7 30 18 56 11 26 20 56 20 65 0 18 -46 71 -61 71 -21 0 -57 -24 -84 -56
-87 -103 -105 -108 -57 -17 34 66 39 88 28 121 -10 29 -42 29 -88 -3 -63 -43
-78 -30 -49 42 19 49 19 50 -1 81 -11 18 -24 32 -28 32 -5 0 -16 3 -24 6 -11
4 -35 -13 -76 -56 -72 -76 -80 -75 -111 8 -10 29 -16 33 -43 30 -28 -3 -32 -8
-42 -47 -16 -69 -5 -110 36 -132 55 -30 90 -25 147 21 58 46 77 40 61 -17 -29
-107 -33 -143 -17 -154 21 -13 24 -12 75 36 l46 45 -6 -33 c-4 -17 -9 -41 -12
-52 -15 -70 -13 -83 16 -95 31 -13 41 -9 123 39 43 27 45 22 16 -47 -43 -104
9 -136 106 -67 27 19 50 33 52 32 1 -2 -5 -29 -13 -60 -19 -65 -15 -83 23 -98
17 -6 23 -13 16 -17 -6 -4 -14 -23 -18 -42 -8 -45 18 -72 96 -99 33 -11 53
-24 52 -32 -1 -8 -8 -35 -14 -61 -10 -40 -10 -50 5 -73 9 -14 28 -30 42 -35
l24 -10 -24 -48 c-48 -95 -42 -146 23 -182 35 -20 38 -26 30 -47 -5 -13 -18
-36 -28 -51 -32 -43 -33 -78 -6 -111 14 -16 37 -31 53 -34 40 -8 54 -44 47
-126 -6 -58 -4 -70 15 -94 25 -32 49 -34 81 -8 l24 19 -27 29 c-16 16 -28 36
-28 44 0 8 19 37 41 64 43 52 59 83 59 115 0 19 -12 25 -62 34 -61 10 -62 25
-5 125 54 94 59 106 51 137 -6 24 -9 25 -70 21 -35 -3 -64 -1 -64 3 0 10 54
82 74 99 42 35 65 115 42 146 -13 18 -18 19 -60 7 -104 -27 -117 -7 -51 78 48
63 58 97 35 125 -13 16 -68 15 -182 0 -27 -4 -48 -3 -48 2 0 5 18 24 40 42 45
37 76 86 60 96 -6 3 -10 13 -10 21 0 8 4 12 10 9 26 -16 82 37 112 105 24 55
29 102 14 149 -21 69 -33 80 -86 87 -28 4 -50 9 -50 12 0 3 15 33 34 67 38 68
43 115 15 141 -16 15 -25 15 -84 3 -83 -16 -96 -7 -71 50 24 53 9 104 -35 120
-26 9 -39 5 -98 -24 -38 -19 -74 -35 -80 -35 -10 0 -4 30 9 40 14 12 52 81 56
105 6 32 -22 75 -48 75 -12 0 -44 -14 -74 -30 -29 -17 -55 -26 -58 -21 -7 10
11 52 55 129 33 60 31 88 -8 103 -35 13 -55 11 -79 -9z"/>
<path d="M5859 9046 c-2 -2 -33 -7 -69 -10 -36 -4 -81 -11 -100 -16 -19 -5
-48 -11 -65 -14 -26 -4 -134 -34 -233 -65 -53 -16 -102 -50 -95 -67 7 -18 34
-18 125 2 40 9 87 18 103 20 17 3 46 9 65 14 19 5 53 12 75 16 22 3 43 8 46
10 38 23 249 24 332 1 31 -8 78 -28 105 -43 69 -41 220 -195 266 -273 72 -121
205 -236 383 -329 95 -50 192 -118 193 -135 0 -5 10 -23 23 -40 77 -109 162
-304 181 -417 2 -14 7 -32 10 -40 3 -8 8 -26 10 -40 3 -14 10 -41 15 -60 16
-57 51 -193 56 -220 8 -42 23 -90 52 -163 29 -75 35 -73 49 15 3 24 9 54 11
68 2 14 6 86 8 160 4 121 0 162 -20 250 -3 14 -8 36 -11 50 -16 76 -48 173
-78 235 -35 70 -76 146 -86 155 -3 3 -18 23 -35 45 -45 61 -135 154 -180 185
-22 15 -72 45 -110 66 -106 57 -107 57 -155 88 -82 53 -130 100 -213 206 -172
220 -268 293 -434 330 -77 17 -212 27 -224 16z"/>
<path d="M5397 8824 c-2 -2 -33 -7 -68 -10 -35 -3 -66 -8 -68 -10 -7 -6 5 -15
26 -19 10 -2 18 -4 18 -5 0 -1 206 -9 400 -15 77 -2 151 -6 165 -9 36 -6 83
-16 95 -20 6 -2 21 -7 35 -12 56 -17 205 -99 226 -123 12 -14 31 -37 43 -50
18 -21 43 -69 73 -141 6 -14 19 -41 29 -61 28 -54 23 -65 -15 -35 -19 14 -37
26 -41 26 -7 0 -118 70 -125 79 -3 3 -23 15 -45 26 -22 11 -80 61 -129 110
-49 50 -85 84 -82 78 4 -7 9 -21 11 -30 2 -10 18 -61 35 -113 17 -52 33 -102
35 -110 2 -8 20 -62 40 -120 58 -168 125 -374 125 -386 0 -7 17 -56 39 -110
21 -55 57 -148 80 -209 61 -160 74 -187 166 -326 103 -156 160 -226 284 -355
175 -181 280 -362 305 -524 3 -19 8 -46 11 -60 7 -32 7 -191 0 -250 -5 -35 -3
-41 5 -27 6 9 13 27 16 40 8 35 23 120 27 142 1 11 5 25 9 30 8 13 3 285 -6
340 -5 32 -17 79 -31 125 -1 3 -7 18 -13 33 -7 16 -12 31 -12 34 0 3 -10 19
-22 36 -13 18 -21 32 -18 33 6 1 6 1 -133 189 -56 77 -114 151 -127 165 -92
93 -205 253 -270 380 -36 71 -107 246 -147 360 -20 58 -46 129 -59 158 -13 28
-35 76 -49 106 l-24 55 64 -35 c197 -104 296 -194 369 -334 79 -150 163 -233
312 -308 101 -51 254 -95 254 -74 0 5 -16 20 -35 34 -60 42 -245 219 -245 234
0 8 -4 14 -8 14 -4 0 -16 13 -25 30 -10 16 -23 35 -30 42 -7 7 -37 47 -68 88
-66 87 -145 172 -208 221 -98 76 -111 91 -126 141 -17 58 -112 242 -151 294
-32 42 -132 122 -196 158 -49 27 -134 53 -203 61 -22 3 -66 10 -98 16 -53 9
-411 12 -420 3z"/>
<path d="M3280 8750 c-44 -55 -55 -105 -28 -124 27 -19 43 -12 62 27 12 26 16
28 21 15 4 -10 4 -37 0 -60 -20 -120 -6 -195 38 -215 26 -12 52 -3 91 31 16
14 31 26 32 26 2 0 3 -43 2 -95 -1 -79 2 -99 17 -115 20 -22 76 -27 117 -11
22 8 23 6 26 -38 5 -73 21 -84 119 -78 45 3 86 8 92 11 5 4 12 2 15 -2 3 -5
-15 -33 -39 -61 -25 -29 -45 -56 -45 -59 1 -22 20 -34 46 -29 27 5 27 4 9 -9
-43 -31 -56 -45 -52 -57 6 -20 33 -19 81 2 25 12 55 21 67 21 19 0 21 -3 14
-37 -4 -21 -11 -55 -15 -76 -4 -20 -4 -40 1 -43 4 -2 6 -11 3 -18 -8 -20 57
-81 90 -84 53 -4 66 -18 67 -75 1 -76 7 -100 29 -119 16 -13 27 -14 52 -7 17
5 35 12 40 17 9 9 0 42 -11 42 -4 0 -15 6 -24 13 -14 11 -15 17 -1 67 17 66
18 120 1 141 -7 8 -33 30 -59 48 -27 17 -48 40 -48 49 1 9 9 41 19 71 28 81
13 191 -26 191 -10 0 -29 -10 -43 -23 -30 -28 -106 -80 -140 -96 -22 -11 -23
-11 -7 2 9 8 29 23 43 33 75 55 109 98 118 149 9 54 -2 60 -118 62 -133 3
-146 9 -147 71 -2 117 -16 132 -94 103 -31 -12 -61 -19 -66 -16 -5 3 -6 23 -2
43 19 106 -4 156 -72 156 -20 0 -39 -4 -43 -10 -8 -10 -88 -64 -97 -64 -2 0
-2 21 2 48 13 93 8 146 -16 185 -19 31 -28 37 -56 37 -27 0 -39 -8 -65 -40z"/>
<path d="M5324 8716 c-74 -27 -129 -63 -175 -112 -37 -40 -74 -94 -64 -94 3 0
38 16 78 35 164 77 288 81 424 12 44 -23 77 -53 138 -128 64 -79 129 -266 141
-411 2 -25 6 -75 9 -110 3 -35 8 -139 10 -231 4 -192 10 -261 31 -344 8 -32
16 -65 18 -74 13 -50 109 -229 129 -237 4 -2 7 -8 7 -14 0 -9 124 -166 141
-178 5 -4 107 -131 157 -195 18 -24 72 -134 85 -175 38 -113 54 -313 35 -430
-10 -58 -15 -101 -22 -175 -11 -103 -18 -169 -23 -190 -4 -20 -8 -44 -18 -120
-3 -22 -7 -51 -10 -65 -6 -29 -18 -172 -18 -215 -1 -124 42 -255 101 -308 30
-27 110 -45 157 -35 35 7 46 11 75 23 3 2 15 6 28 10 33 11 27 21 -15 21 -118
3 -205 61 -230 156 -12 45 -11 284 2 374 21 145 77 389 105 457 1 1 8 29 15
62 14 59 16 324 3 370 -3 11 -11 40 -17 65 -43 166 -132 314 -275 456 -45 44
-97 100 -116 125 -19 24 -37 46 -40 49 -16 16 -72 118 -86 160 -16 44 -54 195
-60 235 -3 17 -7 44 -9 60 -4 36 -14 98 -20 142 -6 36 -14 119 -20 208 -6 84
-18 169 -40 287 -11 55 -67 216 -101 287 -25 51 -56 93 -102 140 -68 67 -105
91 -167 107 -102 26 -190 26 -261 0z"/>
<path d="M4732 8694 c-15 -16 -11 -59 9 -95 19 -34 21 -56 8 -101 -22 -84 13
-136 102 -152 l59 -11 -27 -29 c-36 -39 -42 -107 -16 -167 15 -33 33 -52 71
-74 74 -44 80 -59 43 -104 -17 -20 -40 -52 -51 -72 l-19 -37 22 -33 c12 -18
42 -43 67 -56 101 -53 110 -90 40 -157 -45 -42 -72 -80 -78 -105 -12 -60 9
-114 48 -124 19 -5 21 -2 16 16 -23 77 -21 82 35 125 30 22 67 54 82 71 16 17
32 29 36 26 15 -9 -30 -156 -88 -287 -32 -73 -63 -160 -69 -193 -10 -62 -9
-282 3 -345 3 -19 8 -44 10 -55 16 -85 77 -226 136 -312 40 -58 186 -202 261
-257 97 -72 111 -82 148 -119 52 -51 68 -72 101 -137 28 -56 74 -211 84 -289
7 -49 7 -183 0 -251 -12 -128 -15 -148 -19 -161 -3 -8 -7 -32 -10 -54 l-6 -40
20 35 c11 19 26 55 34 80 8 25 22 63 30 85 30 83 50 313 32 374 -4 13 -11 61
-21 141 -1 8 -5 26 -10 40 -4 14 -9 32 -9 40 -9 100 -169 305 -336 430 -25 19
-81 70 -125 115 -62 62 -90 99 -122 165 -40 82 -46 98 -58 165 -7 39 -7 208 0
237 3 13 7 41 9 63 2 22 8 58 14 80 6 22 13 56 16 76 3 20 8 42 10 50 3 8 8
25 10 39 19 102 26 139 32 165 10 51 14 260 5 291 -32 103 -47 142 -64 169
l-19 30 6 -67 c3 -37 3 -69 -1 -71 -11 -6 -73 12 -73 21 0 4 20 46 43 94 l43
87 36 -24 c19 -13 41 -34 50 -47 23 -35 47 -115 43 -140 -2 -13 -6 -62 -9
-109 -3 -48 -8 -93 -10 -100 -3 -8 -8 -48 -11 -89 -6 -77 -11 -119 -20 -180
-3 -19 -8 -53 -11 -75 -31 -219 -32 -286 -9 -380 31 -122 73 -183 200 -284 39
-31 77 -61 85 -68 8 -6 51 -40 96 -75 44 -35 96 -81 115 -103 19 -21 51 -57
72 -78 36 -39 62 -87 95 -177 18 -50 21 -145 8 -290 -4 -52 -9 -122 -11 -155
-5 -84 -6 -335 -1 -343 2 -4 7 -28 10 -54 17 -129 77 -227 236 -387 36 -37 71
-73 77 -81 10 -13 46 -152 58 -225 16 -99 50 -205 96 -300 33 -70 36 -85 24
-124 -9 -28 -82 -173 -124 -248 -22 -40 -25 -51 -12 -44 20 11 144 147 181
198 l24 35 19 -24 c10 -12 34 -43 55 -67 20 -24 39 -48 40 -53 2 -4 9 -8 15
-8 6 0 19 -8 31 -17 14 -13 12 -8 -6 17 -25 34 -103 192 -109 221 -2 8 6 41
16 74 28 84 28 288 1 360 -23 62 -96 166 -153 220 -37 35 -44 48 -50 95 -15
121 -9 544 11 695 3 17 7 62 11 100 4 39 9 78 11 88 2 10 6 44 9 75 3 31 9 82
14 113 12 89 0 240 -24 308 -8 23 -14 44 -14 47 2 11 -26 71 -51 109 -52 84
-105 134 -220 211 -52 34 -109 76 -126 91 -35 33 -101 125 -116 163 -50 125
-71 195 -92 307 -6 28 -16 227 -21 418 -6 205 -13 276 -41 405 -3 14 -7 36
-10 50 -26 135 -118 274 -209 315 -97 43 -253 41 -360 -5 -16 -7 -34 -12 -38
-11 -5 1 -6 -3 -2 -9 3 -6 10 -8 14 -6 4 3 32 -1 61 -9 30 -8 56 -13 58 -10 7
7 114 -35 170 -67 62 -35 132 -94 132 -111 0 -6 6 -18 14 -26 23 -27 63 -143
71 -206 8 -66 8 -79 1 -406 -2 -125 0 -244 4 -265 5 -22 12 -55 15 -74 16 -92
27 -135 85 -330 50 -167 104 -236 256 -329 132 -81 132 -81 176 -120 57 -50
92 -128 105 -231 12 -95 6 -370 -13 -610 -12 -143 -7 -425 10 -575 6 -48 -4
-49 -44 -7 -45 49 -75 112 -100 206 -16 58 -18 98 -15 221 2 83 6 166 9 185 3
19 8 55 11 80 3 25 13 87 21 139 16 99 17 226 2 276 -4 17 -11 43 -13 58 -9
50 -44 111 -103 183 -66 80 -63 78 -215 187 -177 127 -257 196 -300 262 -30
45 -72 153 -81 205 -7 39 -8 274 -2 305 2 11 7 43 10 70 4 28 14 95 22 150 23
145 23 151 24 252 1 82 -3 101 -31 168 -44 107 -100 155 -202 174 -25 4 -61
18 -81 30 -25 16 -49 22 -83 21 -27 -1 -54 -1 -61 -1 -18 1 -6 37 26 79 42 55
40 153 -4 185 -15 11 -47 20 -81 22 -62 4 -73 13 -73 66 0 70 -38 132 -100
164 -21 11 -27 10 -38 -1z m1702 -4103 c38 -66 58 -134 53 -176 -9 -64 -20
-105 -27 -105 -5 0 -18 31 -29 68 -21 66 -26 86 -37 147 -2 17 -9 46 -14 65
-6 19 -10 46 -10 59 0 20 2 22 15 11 9 -7 31 -38 49 -69z"/>
<path d="M4535 8508 c-50 -18 -105 -67 -105 -93 0 -39 25 -45 108 -30 17 3 32
4 32 2 0 -3 -13 -32 -30 -65 -16 -34 -30 -68 -30 -77 0 -18 38 -77 53 -84 27
-11 78 -73 73 -87 -3 -9 -9 -28 -13 -42 -3 -14 -12 -36 -18 -49 -17 -32 4 -91
56 -160 22 -29 42 -59 45 -67 3 -7 -8 -33 -24 -57 -15 -24 -33 -61 -39 -81 -9
-31 -8 -42 9 -70 11 -18 36 -47 56 -65 l35 -33 -19 -22 c-10 -13 -22 -25 -26
-28 -4 -4 -10 -20 -14 -37 -5 -26 -3 -32 17 -39 33 -11 56 -6 109 22 60 31 95
64 121 113 25 49 17 69 -38 96 -119 57 -122 60 -105 106 5 13 11 29 12 34 1 6
11 22 21 37 11 15 26 42 34 61 18 43 7 61 -65 107 -57 37 -60 49 -34 140 30
104 37 153 25 184 -8 21 -16 26 -29 21 -9 -3 -38 -9 -64 -12 -83 -10 -100 27
-48 103 61 87 67 137 23 169 -20 15 -90 17 -128 3z"/>
<path d="M3165 8318 c-39 -21 -74 -61 -81 -92 -14 -62 -12 -88 7 -107 27 -27
46 -14 66 42 10 27 21 49 24 49 10 0 27 -50 34 -100 13 -89 16 -101 28 -121
16 -26 21 -25 64 17 78 73 86 69 81 -47 l-3 -74 -60 0 c-55 0 -64 3 -95 32
-19 18 -38 33 -41 33 -4 0 -25 -17 -48 -37 -33 -30 -47 -54 -66 -111 -16 -46
-22 -83 -18 -102 3 -17 1 -30 -4 -30 -16 0 -34 -68 -27 -105 6 -35 39 -76 65
-81 8 -2 25 -5 39 -9 108 -25 132 -19 162 41 12 25 35 55 50 66 39 27 35 46
-16 68 -52 22 -65 39 -43 55 9 6 24 36 35 66 24 70 50 79 46 15 -2 -36 3 -52
26 -85 34 -46 74 -76 90 -66 5 3 17 20 26 37 21 40 4 113 -38 165 l-29 38 28
9 c15 4 42 19 60 32 17 13 33 24 35 24 3 0 5 -23 5 -51 2 -59 19 -85 52 -74
30 9 126 105 133 133 8 28 -17 29 -52 2 -14 -11 -28 -20 -31 -20 -4 0 -9 27
-11 60 -8 109 -60 147 -125 90 -19 -17 -39 -28 -43 -23 -4 4 -10 35 -13 69 -4
62 -22 103 -44 105 -7 1 -19 2 -25 4 -7 1 -32 -19 -55 -44 -48 -53 -60 -49
-64 19 -6 90 -64 141 -124 108z m81 -502 c2 -17 -20 -30 -74 -42 -26 -5 -26
-5 11 31 40 38 58 41 63 11z m-26 -131 c0 -7 -6 -20 -14 -27 -19 -20 -46 -74
-46 -95 -1 -16 -3 -15 -20 6 -35 41 -22 88 32 121 33 20 48 18 48 -5z"/>
<path d="M3713 7826 c-57 -59 -81 -109 -63 -131 13 -16 40 -21 40 -6 0 5 9 11
20 14 14 4 24 -4 38 -32 17 -33 23 -36 65 -39 41 -3 48 -7 53 -28 5 -17 -2
-40 -20 -74 -24 -44 -25 -49 -9 -52 27 -6 102 22 112 41 15 27 19 102 8 138
-10 31 -34 48 -84 57 -36 7 -63 26 -64 44 -4 70 -20 112 -42 112 -7 0 -31 -20
-54 -44z"/>
<path d="M2830 7724 c-102 -44 -160 -189 -124 -313 17 -59 25 -70 75 -100 46
-28 62 -27 128 11 77 44 88 45 112 3 19 -32 37 -41 77 -36 43 6 0 -108 -69
-178 -22 -23 -37 -46 -35 -50 7 -10 73 1 103 17 30 16 79 81 99 131 30 76 -3
198 -63 226 -18 9 -38 13 -43 10 -6 -3 -10 -1 -10 6 0 7 -3 9 -6 6 -4 -4 -23
6 -43 22 -50 39 -67 43 -106 27 -35 -15 -75 -67 -75 -98 0 -23 -22 -23 -43 0
-21 23 -22 90 -2 120 9 12 37 34 63 49 54 31 65 41 79 68 13 25 1 58 -29 79
-28 20 -43 20 -88 0z"/>
<path d="M6806 7431 c290 -263 312 -284 389 -381 33 -41 63 -77 66 -80 3 -3
12 -20 20 -37 8 -18 17 -33 21 -33 5 0 8 -4 8 -9 0 -5 8 -26 17 -47 9 -22 17
-41 18 -44 1 -3 7 -23 13 -46 18 -63 31 -139 38 -218 3 -39 7 -82 10 -96 6
-35 5 -376 -2 -425 -14 -100 -20 -216 -25 -475 l-1 -55 -18 40 c-11 22 -21 47
-23 55 -14 53 -129 347 -151 385 l-17 30 6 -30 c3 -16 8 -41 11 -55 7 -34 13
-68 20 -110 5 -32 50 -244 59 -280 8 -30 56 -207 76 -280 11 -41 27 -97 34
-125 56 -205 179 -532 255 -678 21 -40 51 -97 67 -127 29 -56 91 -212 99 -253
26 -130 30 -231 13 -317 -11 -54 -57 -180 -69 -190 -3 -3 -16 -21 -28 -41 -19
-31 -62 -78 -62 -68 0 6 -39 222 -44 244 -2 11 -12 52 -21 90 -9 39 -18 79
-21 90 -2 11 -15 58 -29 105 -14 47 -28 96 -31 110 -2 14 -9 36 -14 50 -5 14
-21 66 -36 115 -32 102 -28 91 -38 130 -4 17 -11 39 -16 50 -5 11 -11 31 -13
45 -8 43 -48 183 -68 240 -19 53 -44 149 -53 200 -2 14 -7 32 -10 40 -3 8 -7
31 -10 50 -3 19 -13 58 -22 85 -20 64 -26 91 -39 161 -2 15 -6 29 -9 31 -27
27 -27 -393 0 -488 3 -9 7 -34 10 -55 2 -22 7 -47 10 -56 2 -9 6 -25 9 -35 2
-10 18 -63 36 -118 18 -55 33 -102 34 -105 1 -3 4 -12 7 -20 41 -106 94 -276
126 -405 53 -212 107 -537 105 -637 -1 -33 -15 -48 -103 -107 -137 -93 -242
-198 -334 -334 -26 -38 -70 -158 -81 -223 -12 -63 -13 -195 -2 -235 19 -78
113 -152 208 -165 l44 -6 -20 23 c-11 13 -24 29 -30 34 -7 6 -24 32 -40 59
-45 76 -42 207 6 313 57 122 167 236 290 299 l50 25 -6 -58 c-8 -73 -78 -356
-111 -448 -91 -253 -296 -482 -492 -550 -104 -36 -181 -34 -202 5 -15 27 -12
89 6 149 8 29 14 55 11 57 -8 8 -89 -70 -115 -110 -19 -31 -25 -53 -24 -93 1
-88 53 -155 149 -194 53 -21 60 -22 127 -10 39 7 78 14 86 16 63 10 197 84
280 155 121 102 193 183 274 310 53 82 134 269 151 348 3 12 7 32 10 45 3 12
8 38 11 57 4 19 8 44 10 55 17 87 22 260 11 329 -4 23 1 35 22 53 119 104 184
172 203 212 13 25 23 48 24 51 0 3 6 19 13 35 38 96 53 166 67 312 9 91 9 111
1 178 -18 146 -46 224 -137 375 -44 74 -80 137 -80 142 0 4 -4 8 -9 8 -5 0
-11 8 -15 18 -3 9 -10 24 -15 32 -21 31 -60 127 -181 445 -48 126 -56 155 -70
234 -11 60 -16 391 -7 436 3 11 8 43 12 70 9 52 11 63 14 68 2 2 7 33 15 102
3 22 7 51 11 65 16 72 19 121 19 290 0 155 -5 241 -19 305 -18 87 -84 273
-110 316 -14 21 -25 41 -25 44 0 24 -139 206 -210 276 -82 81 -264 211 -352
252 -39 18 -58 22 -42 8z"/>
<path d="M2925 7313 c-31 -8 -63 -42 -77 -82 -7 -20 -11 -39 -10 -43 4 -14
-13 -8 -57 22 -53 36 -84 38 -116 6 -36 -36 -74 -119 -80 -173 -6 -64 9 -113
50 -163 19 -23 35 -43 35 -44 0 -1 -7 -24 -16 -50 -26 -76 -2 -156 47 -156 15
0 17 -5 13 -30 -9 -43 10 -80 61 -118 35 -27 45 -42 51 -75 4 -23 8 -44 9 -47
14 -60 19 -68 53 -88 l38 -21 -4 -70 c-4 -63 -2 -73 23 -105 32 -42 54 -51 88
-35 55 25 54 80 -3 139 -33 34 -34 53 -1 100 30 43 31 57 5 91 -30 41 -66 61
-99 55 -39 -7 -29 7 19 27 35 14 46 25 51 47 10 48 -21 84 -65 77 -9 -1 -33
-13 -53 -25 -46 -27 -52 -27 -78 -3 -15 14 -19 26 -14 43 13 42 22 47 62 33
47 -16 79 -10 121 22 26 19 32 31 28 47 -3 11 -6 24 -6 28 0 9 -57 20 -102 20
-49 -1 -50 16 -1 20 78 6 108 115 49 176 -32 35 -33 47 -1 68 14 9 25 19 25
23 0 3 -14 20 -30 38 -17 18 -30 43 -30 57 0 22 5 26 30 27 17 1 36 2 43 3 6
0 20 18 31 39 15 32 16 42 6 67 -7 16 -23 36 -36 45 -24 16 -26 16 -59 8z
m-131 -162 c14 -1 -15 -31 -47 -47 -16 -9 -27 -12 -25 -7 26 53 32 61 47 58 9
-2 20 -4 25 -4z m-110 -152 c-1 -33 -5 -63 -7 -66 -9 -8 -21 41 -18 72 2 24
16 55 25 55 2 0 1 -27 0 -61z m161 14 l18 -37 -38 -34 c-42 -39 -54 -34 -62
26 -5 35 -2 44 22 66 32 30 37 28 60 -21z m50 -162 c-8 -26 -21 -27 -35 -2 -8
16 -6 22 7 30 23 13 37 -1 28 -28z m-125 -69 c16 -58 12 -77 -19 -111 -31 -33
-44 -39 -35 -17 3 8 1 30 -4 50 -8 28 -6 43 11 80 11 25 24 43 28 40 5 -3 13
-21 19 -42z"/>
<path d="M3555 6766 c-179 -49 -285 -98 -285 -131 0 -13 98 -13 118 -1 22 14
102 21 222 21 176 -1 189 -4 457 -109 164 -65 205 -70 221 -28 53 142 37 169
-123 208 -5 1 -64 16 -130 34 -96 25 -144 32 -240 35 -110 3 -130 1 -240 -29z"/>
<path d="M3224 6509 c3 -19 14 -51 24 -70 33 -63 74 -129 81 -129 3 0 12 -9
19 -20 27 -44 -37 10 -75 64 -21 28 -45 59 -54 69 -14 16 -15 15 -11 -13 2
-16 9 -30 14 -30 5 0 7 -4 3 -9 -3 -5 0 -16 7 -23 7 -8 26 -28 42 -46 47 -51
17 -37 -51 24 -35 31 -63 51 -63 46 0 -25 64 -99 127 -145 39 -29 96 -75 127
-102 82 -70 142 -109 211 -134 33 -12 69 -26 80 -31 48 -23 138 -38 240 -39
98 -1 121 3 210 31 55 17 102 32 105 33 44 10 80 29 80 44 0 46 -160 213 -241
252 -111 54 -232 76 -504 94 -149 10 -226 41 -282 114 -53 69 -35 -16 21 -99
17 -26 22 -39 12 -30 -20 15 -57 70 -89 130 -29 54 -40 61 -33 19z m477 -236
c1 -10 1 -29 0 -43 -2 -38 29 -111 58 -137 85 -75 227 -51 278 48 13 24 23 55
22 69 -2 42 0 42 43 18 22 -13 72 -58 111 -102 l69 -78 -54 -20 c-149 -54
-176 -61 -260 -63 -53 -2 -112 3 -150 12 -35 8 -70 16 -79 18 -34 7 -168 67
-210 94 -24 15 -61 45 -82 66 l-39 39 34 17 c32 18 105 45 144 54 10 3 35 9
54 14 52 13 60 13 61 -6z m292 -8 c29 -52 19 -104 -26 -139 -43 -33 -95 -41
-140 -22 -44 18 -67 60 -74 133 l-6 55 117 -3 c105 -4 119 -6 129 -24z"/>
<path d="M6793 6270 c3 -74 8 -151 11 -170 2 -19 7 -62 11 -95 5 -49 16 -115
39 -230 2 -5 12 -40 23 -76 21 -65 32 -116 38 -174 2 -16 6 -57 10 -90 3 -33
8 -73 10 -90 27 -208 25 -560 -5 -755 -19 -128 -37 -216 -44 -229 -3 -4 -7
-25 -10 -47 -5 -46 -16 -95 -25 -109 -3 -5 -7 -18 -8 -28 -2 -10 -12 -36 -23
-59 -11 -23 -22 -56 -26 -75 -3 -18 -10 -33 -15 -33 -5 0 -9 -5 -9 -11 0 -7
-22 -55 -49 -108 -92 -183 -131 -250 -205 -353 -49 -68 -38 -52 -209 -296
-260 -370 -297 -434 -361 -612 -31 -89 -45 -113 -89 -160 -55 -58 -120 -156
-154 -230 -11 -25 -28 -63 -37 -85 -26 -58 -65 -190 -72 -244 -3 -25 -8 -57
-11 -71 -3 -14 -6 -102 -7 -196 l-1 -170 -34 -42 c-66 -85 -207 -174 -341
-217 -34 -11 -88 -19 -140 -19 -147 -2 -190 37 -190 169 0 62 -1 65 -19 53
-28 -17 -61 -81 -61 -117 0 -58 53 -136 115 -169 81 -42 241 -51 340 -17 94
32 200 88 275 147 42 32 79 58 82 58 4 0 9 -15 13 -33 11 -48 79 -187 111
-226 38 -45 132 -105 197 -127 127 -42 269 -8 366 88 85 83 112 252 59 368
-23 49 -109 148 -95 109 17 -50 18 -133 2 -204 -13 -61 -23 -83 -51 -110 -135
-135 -356 -95 -444 82 -12 24 -30 72 -40 107 -20 73 -26 53 56 198 39 69 123
250 128 278 1 3 4 10 8 15 7 11 66 236 74 285 3 14 11 50 19 80 8 30 16 69 19
85 17 95 12 87 126 181 101 84 146 123 249 219 57 53 62 56 44 25 -68 -114
-148 -323 -167 -440 -24 -148 -30 -276 -16 -360 7 -41 13 -82 15 -90 1 -8 5
-22 8 -30 4 -8 8 -27 11 -42 2 -14 10 -37 17 -50 7 -12 11 -25 10 -28 -4 -9
33 -95 61 -143 15 -26 28 -52 28 -58 0 -5 32 -42 70 -83 54 -56 90 -83 148
-112 73 -37 82 -39 172 -39 81 0 103 4 150 26 117 54 175 135 166 231 -4 47
-12 93 -16 93 -1 0 -3 9 -5 19 -2 10 -11 26 -19 35 -15 14 -16 13 -17 -14 -2
-91 -35 -169 -86 -202 -52 -34 -166 -23 -259 25 -117 61 -182 159 -229 346
-14 56 -16 98 -12 225 3 86 7 165 10 176 11 50 31 161 29 168 -1 4 3 7 9 7 5
0 8 4 5 9 -16 25 136 412 173 441 3 3 20 25 36 50 17 25 55 70 85 100 64 63
138 157 171 215 99 176 136 255 174 370 24 74 47 190 70 345 7 46 8 172 1 225
-2 17 -7 50 -10 75 -6 49 -36 200 -57 288 -15 62 -33 70 -25 10 7 -48 8 -386
1 -433 -2 -16 -6 -47 -9 -68 -3 -21 -8 -41 -11 -46 -3 -5 -7 -27 -10 -49 -3
-21 -19 -84 -36 -138 -17 -54 -34 -111 -39 -125 -24 -78 -169 -313 -225 -364
-6 -5 -27 -32 -47 -60 -32 -45 -175 -188 -253 -255 -41 -34 -353 -270 -388
-293 -16 -10 -31 -17 -33 -14 -12 12 57 162 102 224 13 17 24 36 24 41 0 6 3
12 8 14 4 2 32 32 62 68 30 35 76 87 102 115 25 27 56 63 69 79 12 16 36 43
51 60 54 57 170 217 219 299 68 116 164 312 184 377 9 30 19 62 22 70 8 19 5
8 52 195 22 88 43 178 47 200 3 22 7 42 9 45 19 31 28 694 11 840 -4 41 -10
93 -12 115 -1 22 -6 51 -9 65 -3 14 -8 43 -11 65 -9 74 -54 280 -84 390 -17
61 -32 119 -35 130 -2 12 -13 46 -24 78 -11 31 -18 57 -16 57 7 0 -56 174 -67
185 -7 7 -8 -34 -5 -125z m-1004 -4317 c-27 -112 -68 -241 -80 -249 -15 -9 -3
53 33 171 27 91 53 155 62 155 2 0 -5 -35 -15 -77z"/>
<path d="M4577 4830 c-37 -9 -70 -14 -73 -11 -3 3 -2 -2 1 -11 5 -12 40 -37
40 -28 0 1 13 -4 30 -10 16 -6 47 -14 69 -17 21 -3 71 -25 110 -49 86 -53 119
-63 188 -59 124 8 249 63 313 137 87 102 13 85 -249 -56 -77 -41 -128 -29
-240 58 -32 25 -59 46 -60 46 -1 0 -15 4 -31 8 -20 6 -52 3 -98 -8z"/>
<path d="M5564 4292 c-39 -28 -109 -63 -152 -77 -37 -11 -69 -15 -272 -30 -36
-3 -78 -9 -95 -14 -19 -5 -46 -3 -75 5 -84 24 -148 31 -205 21 -32 -6 -129
-20 -157 -23 -10 -1 -20 -3 -23 -4 -7 -4 -15 -5 -68 -14 -27 -4 -56 -9 -65
-11 -10 -1 -53 -9 -96 -16 -92 -14 -92 -14 74 -60 184 -52 170 -49 280 -54 67
-3 119 1 175 13 91 20 86 20 144 3 29 -8 74 -10 135 -6 136 9 240 43 309 101
59 50 163 194 139 194 -5 0 -27 -13 -48 -28z"/>
<path d="M5159 3749 c-76 -46 -142 -58 -248 -47 -3 0 -10 -1 -16 -2 -18 -4
-210 0 -234 5 -13 2 -39 9 -58 16 -19 6 -37 9 -39 6 -10 -10 51 -59 101 -82
73 -34 121 -39 191 -17 33 10 88 20 122 21 152 5 204 30 251 119 16 29 8 27
-70 -19z"/>
<path d="M2208 3175 c-79 -16 -93 -23 -137 -68 -57 -60 -60 -152 -8 -208 46
-49 74 -65 142 -79 97 -20 143 -40 149 -63 10 -38 -17 -52 -102 -52 -42 0 -86
4 -97 9 -11 5 -22 10 -25 11 -3 1 -26 12 -52 25 -26 13 -50 21 -53 18 -3 -3
-7 -34 -8 -68 -3 -68 -4 -66 78 -96 69 -25 201 -25 278 0 142 47 189 191 92
288 -24 25 -68 43 -150 64 -16 4 -32 8 -35 9 -3 1 -19 5 -36 9 -18 4 -39 15
-48 25 -15 17 -15 20 1 40 14 17 33 24 78 28 53 5 70 1 134 -26 40 -17 76 -31
80 -31 12 0 10 118 -2 134 -12 16 -30 20 -127 32 -25 3 -54 6 -65 8 -11 2 -50
-2 -87 -9z"/>
<path d="M5057 3179 c-136 -33 -217 -136 -221 -281 -4 -136 42 -223 144 -277
53 -28 72 -33 133 -33 98 -1 111 2 181 37 55 29 64 38 96 99 51 101 53 235 2
313 -7 12 -13 23 -12 25 11 23 -63 81 -132 105 -54 19 -142 24 -191 12z m158
-139 c13 -13 31 -42 39 -66 16 -48 15 -166 -2 -186 -6 -7 -10 -17 -11 -23 0
-5 -9 -20 -21 -32 -29 -30 -84 -39 -135 -22 -32 11 -44 23 -62 59 -20 41 -23
64 -23 168 0 53 41 104 100 126 29 11 92 -3 115 -24z"/>
<path d="M2559 3166 c-6 -57 -3 -109 5 -112 6 -2 45 -5 86 -6 l75 -3 2 -220
c1 -121 2 -224 2 -228 1 -4 36 -7 79 -5 l77 3 2 170 c1 94 2 196 2 228 1 31 4
56 9 56 4 -1 43 -1 88 0 l81 1 -1 63 -1 62 -253 1 c-179 1 -252 -2 -253 -10z"/>
<path d="M3139 3173 c0 -4 -1 -101 -1 -215 -1 -195 0 -208 21 -250 41 -78 77
-103 170 -116 137 -19 230 7 280 77 41 58 49 102 50 310 l2 198 -76 0 c-41 0
-78 -4 -81 -8 -3 -5 -5 -89 -5 -186 -1 -214 -7 -248 -53 -270 -37 -17 -88 -12
-120 12 -24 18 -26 32 -29 265 l-2 185 -77 3 c-43 2 -78 -1 -79 -5z"/>
<path d="M3790 3143 c-3 -189 0 -546 3 -550 6 -5 226 -5 253 1 12 2 38 7 58
10 127 20 230 143 227 269 -2 89 -15 147 -32 147 -5 0 -9 6 -9 14 0 26 -86
102 -131 115 -65 20 -81 22 -231 27 l-138 4 0 -37z m275 -97 c11 -2 21 -5 23
-5 1 -1 5 -1 8 0 3 0 15 -10 26 -23 63 -73 60 -207 -6 -274 -18 -17 -67 -30
-123 -33 l-52 -2 -3 93 c-2 51 -2 131 0 177 l3 83 52 -5 c29 -3 61 -8 72 -11z"/>
<path d="M4408 3157 c-2 -12 -1 -40 2 -62 5 -40 5 -40 50 -40 l45 0 1 -172 1
-173 -48 0 c-53 0 -51 3 -51 -75 0 -14 0 -29 1 -35 1 -6 67 -10 177 -10 l175
0 -3 58 -3 57 -48 3 -47 3 2 172 3 172 48 3 48 3 -3 57 -3 57 -172 2 c-168 1
-171 1 -175 -20z"/>
<path d="M3719 2406 c-2 -2 -21 -7 -43 -10 -77 -12 -140 -87 -152 -181 -9 -70
-9 -181 1 -238 16 -99 106 -187 186 -181 98 7 143 38 182 124 37 82 28 330
-14 398 -18 30 -77 70 -111 76 -15 2 -32 7 -36 10 -5 3 -11 4 -13 2z m50 -89
c43 -22 63 -96 60 -227 -4 -172 -28 -220 -109 -216 -90 4 -111 48 -112 235 -1
139 13 184 64 206 41 18 66 18 97 2z"/>
<path d="M4120 2379 c-83 -50 -112 -95 -112 -178 -2 -143 112 -214 278 -174
l42 10 -9 -31 c-26 -91 -51 -111 -168 -130 -8 -2 -31 0 -52 4 -41 8 -50 -3
-39 -50 6 -28 16 -32 80 -33 98 0 177 43 230 126 34 54 42 88 46 197 4 126
-36 219 -110 257 -49 26 -145 27 -186 2z m145 -64 c41 -20 56 -53 61 -132 4
-60 3 -63 -23 -76 -16 -8 -55 -15 -89 -16 -57 -2 -63 0 -88 29 -25 31 -30 53
-26 115 3 43 17 65 53 80 42 19 72 18 112 0z"/>
<path d="M5079 2384 c-37 -15 -50 -43 -41 -86 3 -15 6 -15 40 -1 166 69 274
-4 204 -138 -28 -55 -208 -239 -233 -239 -12 0 -26 -61 -21 -88 l4 -22 192 2
191 3 1 28 c1 15 -3 30 -8 33 -6 4 -73 6 -149 6 l-140 0 31 27 c97 81 205 199
226 245 47 102 13 198 -83 230 -58 20 -166 20 -214 0z"/>
<path d="M4700 2375 c0 -18 -32 -47 -57 -52 -10 -2 -25 -5 -33 -8 -8 -2 -21
-4 -27 -4 -8 -1 -13 -14 -13 -31 0 -30 1 -30 54 -30 34 0 55 -5 58 -12 3 -7 4
-89 4 -183 l-1 -170 -58 0 -57 0 0 -37 0 -38 158 0 159 0 1 30 c1 37 -6 41
-68 42 l-50 0 -1 126 c0 70 0 184 -1 255 l0 127 -34 0 c-24 0 -34 -5 -34 -15z"/>
<path d="M2070 698 c-116 -33 -193 -187 -186 -368 2 -49 7 -93 11 -99 3 -6 8
-19 10 -28 17 -83 77 -155 151 -183 55 -20 56 -20 2968 -20 2642 0 2917 1
2952 16 87 36 135 102 169 231 27 102 8 235 -51 343 -33 61 -46 73 -107 99
l-48 21 -2917 -1 c-1903 0 -2929 -4 -2952 -11z m609 -100 c208 0 209 -1 204
-22 -4 -19 -8 -45 -11 -88 -3 -31 -18 -20 -30 21 -16 53 -31 63 -93 59 l-53
-3 -1 -193 c0 -106 3 -201 7 -212 4 -12 20 -23 38 -26 66 -14 24 -24 -96 -24
-81 0 -123 4 -119 10 3 6 14 10 23 10 9 0 26 7 37 16 19 14 20 28 22 219 l1
205 -54 0 c-47 0 -59 -4 -79 -26 -14 -15 -25 -32 -25 -39 0 -7 -7 -18 -16 -26
-14 -11 -15 -6 -9 47 7 59 20 88 36 79 4 -3 102 -6 218 -7z m2588 1 c19 -7 21
-14 17 -51 -3 -24 -9 -47 -15 -52 -8 -9 -9 -8 -9 9 0 3 -7 19 -15 36 -26 49
-97 65 -138 31 -24 -19 -31 -35 -28 -71 2 -33 14 -46 101 -104 41 -28 81 -57
88 -64 20 -20 40 -76 36 -101 -5 -27 -31 -81 -49 -99 -22 -21 -101 -35 -167
-30 -35 3 -66 6 -70 6 -13 1 -27 37 -33 84 -4 26 -4 47 -2 47 3 0 18 -20 34
-45 42 -67 113 -94 169 -65 48 26 44 105 -9 142 -18 12 -36 26 -42 30 -128
100 -135 109 -135 178 0 44 43 99 91 116 38 14 142 16 176 3z m734 5 c27 -5
36 -11 34 -23 -2 -9 -4 -33 -4 -53 -1 -48 -16 -49 -31 -3 -14 44 -44 65 -91
65 -44 0 -77 -25 -83 -63 -8 -45 11 -70 83 -115 87 -54 126 -91 141 -136 16
-50 -19 -129 -70 -153 -68 -33 -239 -21 -241 16 0 9 -2 36 -5 61 l-4 45 17
-25 c43 -59 67 -80 103 -91 54 -16 87 -5 107 35 25 54 12 79 -74 137 -112 75
-133 101 -133 167 0 104 104 160 251 136z m1587 -8 c5 -3 8 -20 7 -38 -2 -18
-3 -41 -4 -50 -2 -29 -16 -21 -29 16 -16 44 -34 58 -82 63 -51 6 -90 -29 -90
-80 0 -38 17 -57 100 -110 97 -62 119 -90 125 -157 4 -48 -29 -98 -80 -121
-43 -19 -130 -24 -184 -9 -42 11 -50 26 -57 103 -4 45 9 41 35 -11 10 -20 27
-44 37 -53 50 -43 131 -40 152 6 29 63 14 86 -109 176 -82 60 -102 89 -96 137
10 78 36 109 108 131 34 10 150 8 167 -3z m-3952 -18 c77 -46 77 -153 0 -199
-31 -18 -35 -25 -29 -47 3 -15 12 -31 18 -37 7 -5 32 -36 55 -68 24 -33 63
-70 89 -85 l46 -27 -69 -3 c-88 -4 -101 5 -182 124 -48 70 -66 90 -87 92 -25
3 -27 1 -28 -40 -3 -120 4 -140 51 -161 23 -11 20 -12 -32 -15 -32 -2 -86 -1
-120 0 -63 4 -63 4 -31 17 25 10 34 21 40 49 4 21 6 42 4 47 -1 6 -4 84 -4
175 l-2 164 -32 10 c-18 5 -33 12 -33 16 0 4 71 7 157 7 135 0 162 -3 189 -19z
m891 5 c3 -8 2 -33 -3 -56 l-9 -42 -25 43 -24 42 -72 0 -71 0 -1 -101 -1 -101
65 5 c48 3 69 9 79 23 8 11 15 22 15 27 0 4 5 7 10 7 13 0 13 -137 0 -145 -5
-3 -16 8 -24 24 -17 32 -36 38 -103 33 l-42 -4 1 -94 c1 -107 -1 -106 98 -105
62 0 100 13 100 34 0 7 11 26 25 42 l24 30 -5 -30 c-7 -34 -8 -39 -19 -77 l-7
-28 -201 0 c-110 0 -197 3 -193 7 4 4 21 12 39 18 41 13 47 42 45 215 -3 207
-4 217 -40 224 -69 14 -7 23 158 23 142 0 177 -3 181 -14z m2309 -26 c-2 -23
-5 -48 -5 -54 -2 -25 -17 -12 -35 27 l-17 40 -75 0 -74 0 -1 -42 c-1 -49 -1
-126 0 -146 1 -9 18 -12 62 -11 53 2 65 6 89 32 l27 29 0 -71 c-1 -74 -14 -92
-35 -47 -9 20 -18 23 -75 25 l-66 2 -3 -38 c-2 -21 -1 -64 0 -95 4 -66 13 -73
101 -70 76 2 89 8 111 53 11 21 25 39 30 39 15 0 11 -41 -8 -80 l-17 -35 -199
-3 c-110 -1 -196 1 -192 5 4 4 21 12 39 18 41 13 45 29 46 216 1 167 -4 219
-23 219 -7 0 -21 6 -31 14 -16 11 7 14 168 15 l187 1 -4 -43z"/>
<path d="M3461 566 c-13 -15 -18 -186 -6 -206 5 -8 22 -11 53 -7 66 7 92 39
89 111 -3 60 -17 83 -64 103 -41 17 -58 17 -72 -1z"/>
</g>
</svg>
