<?xml version="1.0" encoding="UTF-8" ?>
<!DOCTYPE svg PUBLIC "-//W3C//DTD SVG 1.1//EN" "http://www.w3.org/Graphics/SVG/1.1/DTD/svg11.dtd">
<svg width="888pt" height="911pt" viewBox="0 0 888 911" version="1.1" xmlns="http://www.w3.org/2000/svg">
<g id="#000000ff">
<path fill="#000000" opacity="1.00" d=" M 426.37 96.36 C 431.93 91.52 439.99 89.04 447.04 92.00 C 456.46 95.96 462.51 104.77 467.92 113.02 C 494.96 157.86 522.55 202.37 549.94 247.00 C 614.96 247.00 679.98 247.00 745.00 247.00 C 744.99 249.92 744.99 252.84 745.00 255.76 C 681.84 255.73 618.68 255.78 555.53 255.73 C 576.28 289.71 597.66 323.30 618.79 357.04 C 623.49 365.19 628.06 374.26 627.13 383.94 C 626.60 390.09 622.20 395.29 616.74 397.85 C 607.83 402.10 597.67 402.26 588.01 401.77 C 490.65 401.73 393.29 401.76 295.93 401.75 C 285.09 402.15 273.70 402.04 263.73 397.21 C 258.54 394.73 254.20 389.87 253.63 383.98 C 252.78 376.15 256.21 368.67 260.00 362.04 C 281.56 326.60 303.42 291.32 324.73 255.72 C 261.82 255.79 198.91 255.73 136.00 255.76 C 136.00 252.84 136.00 249.92 136.00 247.00 C 200.77 247.01 265.55 246.97 330.32 247.02 C 354.67 207.45 379.02 167.90 403.19 128.22 C 410.08 117.07 416.21 104.97 426.37 96.36 M 431.37 108.35 C 424.81 115.08 420.20 123.37 415.37 131.36 C 391.94 170.02 368.16 208.46 344.52 247.00 C 408.35 246.99 472.17 247.01 536.00 246.99 C 512.85 209.47 489.61 172.01 466.68 134.36 C 461.71 126.36 457.52 117.81 451.41 110.59 C 448.60 107.45 445.32 104.08 440.93 103.50 C 437.13 103.25 433.95 105.88 431.37 108.35 Z" />
<path fill="#000000" opacity="1.00" d=" M 681.60 339.76 C 692.39 337.72 704.15 341.08 711.86 348.97 C 720.19 357.50 722.43 371.33 717.00 381.98 C 709.92 395.75 692.20 402.74 677.61 397.50 C 665.91 393.66 656.52 382.57 656.27 370.03 C 655.67 355.42 667.38 342.14 681.60 339.76 M 682.40 343.64 C 672.42 345.37 663.71 353.11 661.15 362.95 C 658.53 371.89 662.13 381.87 668.99 387.94 C 678.97 397.08 695.56 397.39 706.06 388.95 C 712.95 383.61 717.21 374.61 715.73 365.86 C 714.57 357.33 708.62 349.92 701.02 346.11 C 695.31 343.19 688.66 342.65 682.40 343.64 Z" />
<path fill="#000000" opacity="1.00" d=" M 675.22 351.53 C 681.48 351.60 687.77 351.15 694.00 351.85 C 697.67 352.28 701.96 353.64 703.52 357.35 C 704.54 360.53 704.27 364.41 701.97 367.00 C 700.40 368.81 698.01 369.50 695.89 370.42 C 698.68 375.48 701.29 380.64 703.95 385.77 C 701.51 385.75 699.08 385.73 696.65 385.69 C 694.17 380.85 691.62 376.06 689.09 371.25 C 686.64 371.25 684.19 371.25 681.76 371.25 C 681.75 376.08 681.75 380.92 681.75 385.75 C 679.58 385.75 677.41 385.75 675.25 385.75 C 675.23 374.35 675.28 362.94 675.22 351.53 M 681.75 355.50 C 681.75 359.42 681.75 363.34 681.76 367.27 C 686.13 367.13 690.74 367.64 694.92 366.04 C 698.65 364.53 698.68 358.54 695.13 356.81 C 690.96 354.89 686.20 355.64 681.75 355.50 Z" />
<path fill="#000000" opacity="1.00" d=" M 195.53 416.40 C 196.56 414.11 197.20 410.94 200.00 410.25 C 203.83 411.90 204.26 416.75 205.82 420.16 C 220.81 463.54 235.26 507.10 250.47 550.40 C 253.54 558.81 256.18 567.48 260.84 575.19 C 262.93 578.55 265.52 581.98 269.38 583.39 C 273.24 584.65 277.35 584.64 281.37 584.98 C 281.52 587.20 280.55 589.02 278.09 588.83 C 265.09 589.23 252.07 588.98 239.07 588.76 C 235.82 588.68 232.42 588.88 229.38 587.54 C 228.30 584.16 233.76 584.91 234.17 581.92 C 233.42 576.63 231.09 571.72 229.67 566.59 C 225.49 554.28 222.04 541.68 217.44 529.53 C 202.31 528.87 187.10 529.44 171.94 529.26 C 167.80 540.93 164.29 552.83 160.40 564.59 C 158.93 569.78 156.89 575.27 158.11 580.70 C 160.11 585.95 166.69 584.21 171.01 585.13 C 172.06 586.52 171.46 588.01 170.08 588.87 C 164.09 589.37 158.08 588.57 152.08 588.48 C 142.07 588.05 132.05 589.58 122.04 588.84 C 120.02 588.59 120.71 586.32 120.43 584.95 C 125.54 584.47 131.32 584.92 135.54 581.43 C 140.55 577.35 142.70 570.95 144.85 565.07 C 161.78 515.53 178.61 465.95 195.53 416.40 M 190.11 471.96 C 185.73 485.65 181.43 499.36 176.99 513.02 C 176.60 514.43 175.84 515.98 176.76 517.37 C 189.00 517.59 201.26 517.61 213.49 517.32 C 211.44 508.75 208.39 500.47 205.93 492.02 C 202.28 480.59 199.04 469.03 195.08 457.72 C 192.92 462.28 191.67 467.18 190.11 471.96 Z" />
<path fill="#000000" opacity="1.00" d=" M 570.22 449.27 C 573.57 450.81 576.88 452.43 580.21 454.02 C 576.27 462.03 572.24 469.99 568.27 477.98 C 580.50 485.24 588.44 498.23 591.13 512.01 C 594.77 530.64 592.37 550.97 582.21 567.25 C 575.60 577.83 565.10 586.03 552.97 589.19 C 541.29 592.28 528.58 591.55 517.41 586.88 C 513.80 594.30 510.18 601.71 506.48 609.09 C 503.12 607.58 499.82 605.94 496.56 604.26 C 500.29 596.57 504.14 588.95 508.00 581.33 C 493.64 569.77 486.55 551.13 486.22 533.04 C 485.73 517.39 490.17 501.28 500.02 488.95 C 506.96 480.26 517.06 474.20 527.98 472.11 C 537.98 470.12 548.43 470.74 558.22 473.51 C 562.36 465.50 566.14 457.31 570.22 449.27 M 528.42 479.51 C 520.28 481.57 513.70 487.79 510.17 495.28 C 504.60 506.93 504.05 520.20 504.62 532.89 C 505.61 546.82 509.61 561.25 519.18 571.80 C 526.51 580.06 538.10 584.58 549.06 582.58 C 556.01 581.29 562.07 576.76 565.84 570.87 C 571.17 562.61 573.15 552.69 573.92 543.03 C 574.95 529.63 573.87 515.77 568.66 503.27 C 565.37 495.56 560.36 488.32 553.27 483.68 C 546.08 478.84 536.79 477.23 528.42 479.51 Z" />
<path fill="#000000" opacity="1.00" d=" M 634.96 477.03 C 635.05 474.84 634.82 472.51 635.90 470.53 C 637.76 469.89 638.96 471.88 640.06 473.02 C 652.31 488.69 664.89 504.11 677.73 519.30 C 689.16 532.44 699.83 546.20 710.97 559.57 C 710.82 536.39 710.18 513.21 709.77 490.03 C 709.51 485.97 709.81 481.25 706.94 478.00 C 704.01 475.48 699.77 476.31 696.23 475.75 C 696.25 472.04 700.58 473.11 703.01 473.00 C 711.02 473.63 719.03 473.48 727.04 472.98 C 728.72 472.99 733.26 472.98 731.03 475.60 C 728.19 476.36 724.50 475.69 722.54 478.36 C 720.60 481.15 720.59 484.73 720.49 487.99 C 719.92 518.98 719.56 549.96 719.01 580.94 C 718.93 584.08 719.34 587.34 718.30 590.37 C 716.51 591.68 714.82 589.61 713.63 588.47 C 700.79 573.91 688.51 558.88 675.80 544.22 C 664.36 531.07 653.70 517.27 642.97 503.54 C 643.60 524.70 643.97 545.87 644.50 567.04 C 644.67 572.17 644.56 577.56 646.69 582.35 C 648.31 585.91 652.82 585.44 656.05 585.94 C 657.62 585.78 658.30 586.50 658.08 588.09 C 654.54 589.38 650.65 588.61 646.97 588.70 C 638.72 588.05 630.47 589.04 622.22 588.70 C 622.15 588.04 622.02 586.74 621.96 586.08 C 625.49 585.43 630.95 586.57 632.40 582.22 C 634.57 574.36 633.35 566.08 633.88 558.04 C 634.24 531.04 634.54 504.03 634.96 477.03 Z" />
<path fill="#000000" opacity="1.00" d=" M 268.19 473.26 C 276.11 472.56 284.05 473.73 291.98 473.49 C 297.03 473.46 302.08 472.78 307.13 473.08 C 308.82 472.88 309.59 474.19 309.78 475.66 C 306.96 476.34 302.20 475.35 301.32 479.12 C 301.05 482.17 302.16 485.12 302.99 488.01 C 310.92 512.49 318.66 537.04 326.65 561.51 C 335.25 536.20 343.93 510.91 352.37 485.54 C 353.10 483.14 353.85 480.61 353.38 478.09 C 351.20 475.20 346.66 477.10 344.14 474.90 C 344.67 473.69 345.59 473.09 346.89 473.10 C 352.25 472.67 357.60 473.59 362.97 473.48 C 367.02 473.47 371.07 472.78 375.13 473.12 C 376.72 472.87 376.85 474.55 377.40 475.60 C 374.11 476.20 370.10 475.87 367.73 478.69 C 365.14 481.76 363.75 485.60 362.30 489.29 C 359.57 496.84 356.88 504.40 353.95 511.87 C 344.25 536.71 335.35 561.85 325.77 586.73 C 324.90 588.52 323.90 592.04 321.26 590.78 C 319.23 588.05 318.49 584.64 317.32 581.50 C 306.34 550.21 295.30 518.94 284.31 487.65 C 282.94 484.11 281.48 480.10 277.99 478.11 C 274.99 476.25 271.38 476.11 267.97 475.73 C 268.03 475.11 268.13 473.88 268.19 473.26 Z" />
<path fill="#000000" opacity="1.00" d=" M 396.89 473.93 C 400.26 472.12 404.29 473.31 407.94 473.20 C 417.31 473.94 426.68 473.06 436.04 473.04 C 437.82 472.74 438.60 474.25 438.77 475.75 C 435.79 476.09 432.70 475.97 429.82 476.88 C 427.09 478.00 426.55 481.26 426.39 483.88 C 425.70 498.26 426.11 512.67 426.00 527.07 C 426.12 541.32 425.63 555.59 426.62 569.82 C 427.03 572.96 427.30 576.98 430.57 578.54 C 435.03 580.71 440.17 580.39 445.01 580.54 C 449.57 580.44 454.81 580.65 458.45 577.41 C 461.74 574.19 462.14 569.36 463.48 565.20 C 463.95 565.11 464.89 564.92 465.36 564.83 C 465.82 570.91 464.87 577.00 464.04 583.02 C 463.60 585.37 463.14 588.99 460.01 589.01 C 443.02 590.15 426.01 587.58 409.02 588.70 C 405.50 588.86 401.97 589.01 398.46 588.65 C 398.41 588.04 398.31 586.84 398.26 586.24 C 401.11 585.57 404.68 586.16 406.93 583.96 C 409.16 580.03 408.89 575.27 409.20 570.91 C 409.82 544.61 409.35 518.30 409.50 492.00 C 409.25 487.73 409.78 483.14 407.86 479.20 C 405.56 475.63 400.76 476.47 397.18 475.59 C 397.11 475.17 396.96 474.35 396.89 473.93 Z" />
<path fill="#000000" opacity="1.00" d=" M 358.83 657.89 C 363.53 654.48 369.84 655.05 374.94 657.22 C 374.99 660.24 375.00 663.26 375.04 666.29 C 372.12 664.73 368.68 662.69 365.35 664.35 C 361.55 666.00 361.17 670.92 362.36 674.40 C 365.67 685.17 372.48 694.49 375.85 705.24 C 377.87 711.62 377.49 719.43 372.53 724.41 C 367.70 729.66 359.25 730.17 353.33 726.53 C 352.67 723.19 353.07 719.75 352.99 716.38 C 356.19 718.70 360.34 721.63 364.40 719.48 C 368.95 717.22 368.62 711.07 366.91 707.04 C 362.55 696.64 355.88 687.14 353.27 676.05 C 351.74 669.65 353.08 661.82 358.83 657.89 Z" />
<path fill="#000000" opacity="1.00" d=" M 409.18 668.13 C 410.85 663.19 413.92 658.11 419.08 656.27 C 424.36 654.40 430.11 655.77 434.92 658.32 C 435.00 661.57 435.00 664.82 435.03 668.08 C 431.56 665.40 427.05 662.52 422.54 664.48 C 417.84 666.69 416.89 672.41 416.21 677.02 C 415.15 687.50 415.13 698.16 416.64 708.60 C 417.46 712.79 418.69 718.08 423.19 719.73 C 427.79 721.19 431.78 717.82 435.02 715.03 C 434.99 718.33 434.99 721.62 435.03 724.93 C 430.09 729.47 422.20 730.09 416.58 726.47 C 412.57 723.82 410.30 719.33 408.84 714.90 C 406.62 707.83 406.12 700.35 406.23 692.99 C 406.13 684.64 406.56 676.12 409.18 668.13 Z" />
<path fill="#000000" opacity="1.00" d=" M 643.33 656.36 C 648.71 654.32 654.67 655.74 659.49 658.54 C 659.50 661.75 659.49 664.96 659.51 668.18 C 656.23 665.76 652.37 662.81 648.03 664.15 C 642.73 665.61 641.40 671.77 640.71 676.51 C 639.63 686.62 639.64 696.90 640.80 707.01 C 641.61 711.59 642.44 717.53 647.27 719.63 C 652.00 721.33 656.25 717.81 659.55 714.89 C 659.49 718.23 659.49 721.59 659.49 724.95 C 655.08 728.74 648.71 729.96 643.31 727.66 C 638.20 725.63 635.14 720.63 633.43 715.65 C 630.98 708.37 630.42 700.60 630.47 692.97 C 630.44 684.47 630.89 675.79 633.71 667.70 C 635.38 662.94 638.42 658.20 643.33 656.36 Z" />
<path fill="#000000" opacity="1.00" d=" M 131.75 656.75 C 142.25 656.75 152.75 656.74 163.25 656.75 C 163.25 659.58 163.25 662.41 163.25 665.25 C 159.50 665.25 155.75 665.25 152.00 665.25 C 151.99 686.08 152.01 706.92 152.00 727.76 C 149.00 727.75 146.00 727.75 143.00 727.76 C 142.99 706.92 143.01 686.08 143.00 665.25 C 139.25 665.25 135.50 665.25 131.75 665.25 C 131.75 662.41 131.75 659.58 131.75 656.75 Z" />
<path fill="#000000" opacity="1.00" d=" M 192.00 656.75 C 195.00 656.74 198.00 656.74 201.00 656.75 C 201.00 667.08 200.99 677.42 201.01 687.75 C 205.67 687.74 210.33 687.74 215.00 687.75 C 215.01 677.42 214.99 667.08 215.00 656.75 C 217.92 656.74 220.83 656.74 223.75 656.75 C 223.75 680.42 223.75 704.08 223.75 727.75 C 220.83 727.75 217.92 727.75 215.00 727.76 C 214.99 717.25 215.01 706.75 215.00 696.25 C 210.33 696.25 205.67 696.25 201.01 696.25 C 200.99 706.75 201.01 717.25 200.99 727.76 C 198.00 727.75 195.00 727.75 192.00 727.76 C 191.99 704.09 192.00 680.42 192.00 656.75 Z" />
<path fill="#000000" opacity="1.00" d=" M 257.75 656.75 C 266.25 656.75 274.75 656.75 283.25 656.75 C 283.25 659.58 283.25 662.41 283.25 665.25 C 277.75 665.25 272.25 665.25 266.76 665.25 C 266.75 672.25 266.75 679.24 266.76 686.24 C 271.83 686.24 276.92 686.25 282.00 686.24 C 282.00 689.08 282.00 691.91 282.00 694.76 C 276.91 694.75 271.83 694.75 266.76 694.76 C 266.75 702.83 266.75 710.92 266.75 719.00 C 272.50 719.00 278.25 719.00 284.00 719.00 C 284.00 721.91 284.00 724.83 284.00 727.76 C 275.25 727.75 266.50 727.75 257.75 727.75 C 257.75 704.09 257.75 680.42 257.75 656.75 Z" />
<path fill="#000000" opacity="1.00" d=" M 466.00 656.75 C 469.00 656.74 472.00 656.74 475.00 656.75 C 475.00 680.42 475.01 704.09 474.99 727.76 C 471.99 727.75 469.00 727.75 466.00 727.76 C 465.99 704.09 466.00 680.42 466.00 656.75 Z" />
<path fill="#000000" opacity="1.00" d=" M 509.50 656.75 C 518.00 656.74 526.50 656.75 535.00 656.75 C 535.00 659.58 535.00 662.41 535.00 665.25 C 529.49 665.25 523.99 665.23 518.49 665.28 C 518.52 672.26 518.49 679.25 518.51 686.25 C 523.59 686.24 528.67 686.24 533.75 686.25 C 533.75 689.08 533.75 691.91 533.75 694.75 C 528.67 694.75 523.59 694.75 518.50 694.76 C 518.50 702.83 518.50 710.92 518.50 719.00 C 524.33 719.00 530.17 719.00 536.00 719.00 C 536.00 721.91 535.99 724.83 536.00 727.76 C 527.16 727.75 518.33 727.75 509.50 727.76 C 509.49 704.09 509.50 680.42 509.50 656.75 Z" />
<path fill="#000000" opacity="1.00" d=" M 567.50 656.76 C 570.09 656.75 572.69 656.73 575.29 656.72 C 580.71 672.26 586.67 687.63 591.42 703.40 C 590.74 687.86 591.07 672.30 591.00 656.75 C 593.83 656.74 596.66 656.74 599.50 656.75 C 599.49 680.43 599.52 704.10 599.48 727.78 C 596.86 727.76 594.24 727.73 591.62 727.70 C 586.38 712.39 580.62 697.26 575.63 681.87 C 576.39 697.15 575.83 712.46 575.99 727.76 C 573.16 727.75 570.33 727.75 567.50 727.76 C 567.49 704.09 567.50 680.42 567.50 656.76 Z" />
<path fill="#000000" opacity="1.00" d=" M 690.00 656.75 C 698.50 656.75 707.00 656.75 715.50 656.75 C 715.50 659.58 715.50 662.41 715.50 665.25 C 709.92 665.25 704.34 665.25 698.76 665.25 C 698.75 672.25 698.75 679.24 698.76 686.24 C 703.92 686.24 709.08 686.24 714.25 686.25 C 714.24 689.08 714.24 691.91 714.25 694.75 C 709.08 694.75 703.92 694.75 698.76 694.75 C 698.75 702.83 698.75 710.92 698.75 719.00 C 704.58 719.00 710.42 719.00 716.25 719.00 C 716.25 721.91 716.24 724.83 716.25 727.75 C 707.50 727.75 698.75 727.75 690.00 727.76 C 689.99 704.09 690.00 680.42 690.00 656.75 Z" />
<path fill="#000000" opacity="1.00" d=" M 227.28 755.26 C 231.18 753.61 235.49 754.72 239.38 755.78 C 238.00 759.16 237.62 763.11 235.27 766.00 C 232.76 764.19 230.38 761.66 227.03 761.73 C 223.24 761.35 219.82 764.15 218.75 767.67 C 216.61 774.39 215.57 781.40 214.13 788.29 C 218.40 788.11 222.69 787.89 226.91 787.18 C 226.22 789.65 225.48 792.11 224.81 794.59 C 220.89 794.47 216.96 794.49 213.04 794.50 C 210.25 807.62 207.59 820.77 204.58 833.85 C 202.24 843.41 199.73 853.47 192.96 860.98 C 188.24 866.34 181.28 871.69 173.71 869.16 C 174.74 865.77 175.58 862.33 176.75 858.99 C 179.69 860.21 182.44 863.31 185.89 861.88 C 190.58 860.24 192.53 855.13 193.70 850.73 C 198.66 832.27 201.02 813.27 204.41 794.49 C 201.28 794.49 198.16 794.50 195.04 794.57 C 195.27 793.69 195.50 792.81 195.73 791.94 C 199.05 790.61 202.35 789.22 205.52 787.57 C 206.54 782.60 207.39 777.58 208.67 772.67 C 209.92 767.60 214.36 764.40 218.20 761.29 C 221.10 759.10 223.98 756.81 227.28 755.26 Z" />
<path fill="#000000" opacity="1.00" d=" M 513.90 758.95 C 519.49 753.75 528.25 754.66 534.28 758.61 C 534.25 761.75 534.24 764.90 534.27 768.06 C 530.88 765.55 526.67 762.58 522.26 764.28 C 517.45 765.94 516.24 771.55 515.54 775.98 C 514.35 786.52 514.37 797.25 515.71 807.78 C 516.55 812.11 517.55 817.60 522.05 819.59 C 526.75 821.28 531.00 817.76 534.27 814.85 C 534.24 818.19 534.24 821.55 534.26 824.90 C 530.11 828.48 524.23 829.80 519.02 827.96 C 512.75 825.90 509.28 819.57 507.65 813.58 C 504.84 803.04 504.89 791.96 505.78 781.17 C 506.67 773.35 507.99 764.69 513.90 758.95 Z" />
<path fill="#000000" opacity="1.00" d=" M 282.75 756.75 C 285.66 756.74 288.58 756.74 291.50 756.75 C 291.50 767.07 291.52 777.40 291.49 787.72 C 296.24 787.76 300.99 787.75 305.75 787.75 C 305.75 777.41 305.75 767.08 305.75 756.75 C 308.75 756.74 311.75 756.74 314.75 756.75 C 314.75 780.42 314.75 804.08 314.75 827.75 C 311.75 827.75 308.75 827.75 305.75 827.76 C 305.75 817.17 305.75 806.59 305.75 796.01 C 301.00 795.99 296.24 795.99 291.49 796.01 C 291.51 806.59 291.50 817.17 291.50 827.76 C 288.58 827.75 285.67 827.75 282.75 827.75 C 282.74 804.09 282.75 780.42 282.75 756.75 Z" />
<path fill="#000000" opacity="1.00" d=" M 341.30 827.73 C 345.75 804.07 350.04 780.38 354.52 756.72 C 357.79 756.74 361.06 756.74 364.34 756.76 C 368.76 780.41 373.21 804.07 377.64 827.72 C 374.54 827.75 371.45 827.75 368.36 827.77 C 367.51 822.52 366.62 817.27 365.75 812.02 C 361.52 811.99 357.29 811.99 353.06 812.00 C 352.16 817.25 351.22 822.50 350.32 827.76 C 347.31 827.75 344.31 827.75 341.30 827.73 M 359.45 771.60 C 358.05 782.27 356.16 792.87 354.46 803.50 C 357.72 803.49 360.98 803.49 364.24 803.50 C 362.66 792.86 360.44 782.32 359.45 771.60 Z" />
<path fill="#000000" opacity="1.00" d=" M 405.75 756.74 C 408.75 756.74 411.76 756.75 414.77 756.77 C 414.73 780.43 414.76 804.09 414.75 827.75 C 411.76 827.75 408.77 827.75 405.78 827.77 C 405.71 804.10 405.76 780.42 405.75 756.74 Z" />
<path fill="#000000" opacity="1.00" d=" M 448.75 756.76 C 455.44 756.88 463.11 755.55 468.64 760.30 C 477.33 767.85 477.44 784.25 467.29 790.69 C 472.36 794.63 474.30 800.98 475.79 806.96 C 477.43 813.87 479.09 820.79 480.65 827.73 C 477.56 827.75 474.48 827.75 471.41 827.75 C 469.61 820.18 468.02 812.57 465.95 805.07 C 464.64 800.71 462.89 795.27 457.65 794.54 C 457.33 805.60 457.58 816.68 457.50 827.75 C 454.58 827.75 451.67 827.75 448.75 827.76 C 448.74 804.09 448.75 780.43 448.75 756.76 M 457.54 764.65 C 457.49 772.13 457.45 779.62 457.56 787.10 C 460.07 786.51 463.05 785.92 464.27 783.34 C 466.45 778.87 466.11 773.39 464.16 768.91 C 463.07 766.16 460.06 765.42 457.54 764.65 Z" />
<path fill="#000000" opacity="1.00" d=" M 576.01 756.75 C 579.29 756.74 582.58 756.74 585.87 756.77 C 590.25 780.44 594.73 804.08 599.09 827.75 C 596.03 827.75 592.97 827.75 589.92 827.75 C 589.09 822.51 588.18 817.28 587.43 812.03 C 583.15 811.99 578.87 812.00 574.60 811.99 C 573.70 817.24 572.84 822.50 571.95 827.76 C 568.92 827.75 565.90 827.75 562.88 827.75 C 567.20 804.07 571.65 780.42 576.01 756.75 M 576.08 803.54 C 579.32 803.49 582.58 803.49 585.83 803.48 C 584.21 792.88 582.24 782.33 580.89 771.69 C 579.79 782.37 577.62 792.91 576.08 803.54 Z" />
<path fill="#000000" opacity="1.00" d=" M 628.24 756.76 C 634.66 756.95 641.91 755.54 647.40 759.76 C 656.94 766.94 657.18 784.17 646.72 790.71 C 650.36 793.63 652.65 797.82 653.91 802.27 C 656.40 810.65 658.05 819.26 660.13 827.75 C 657.06 827.75 653.99 827.75 650.93 827.75 C 649.10 820.10 647.51 812.39 645.38 804.83 C 644.06 800.55 642.27 795.26 637.13 794.59 C 636.83 805.64 637.08 816.70 636.99 827.76 C 634.07 827.75 631.16 827.75 628.25 827.75 C 628.24 804.09 628.25 780.42 628.24 756.76 M 637.04 764.66 C 637.01 772.16 636.89 779.67 637.13 787.17 C 639.76 786.50 642.87 785.74 644.00 782.92 C 645.87 778.39 645.59 772.95 643.48 768.55 C 642.32 766.02 639.44 765.39 637.04 764.66 Z" />
<path fill="#000000" opacity="1.00" d=" M 689.00 756.75 C 697.50 756.75 706.00 756.75 714.50 756.75 C 714.50 759.58 714.50 762.41 714.50 765.25 C 709.00 765.25 703.50 765.25 698.01 765.25 C 697.99 772.24 698.00 779.24 698.00 786.25 C 703.08 786.24 708.17 786.24 713.26 786.25 C 713.25 789.08 713.24 791.92 713.22 794.77 C 708.15 794.74 703.07 794.75 698.00 794.75 C 698.00 802.83 698.00 810.92 698.00 819.00 C 703.83 819.00 709.67 819.00 715.50 819.00 C 715.50 821.91 715.50 824.83 715.50 827.76 C 706.66 827.75 697.83 827.75 689.00 827.76 C 688.99 804.09 689.00 780.42 689.00 756.75 Z" />
<path fill="#000000" opacity="1.00" d=" M 763.40 770.60 C 774.20 768.04 786.17 771.12 794.26 778.76 C 803.50 787.49 805.86 802.55 799.57 813.62 C 792.17 826.64 775.18 833.06 761.01 828.15 C 753.42 825.59 746.66 820.29 742.84 813.19 C 738.20 804.88 738.37 794.22 743.01 785.95 C 747.10 778.13 754.89 772.62 763.40 770.60 M 764.39 774.46 C 754.02 776.65 745.35 785.53 743.78 796.07 C 742.06 806.12 747.71 816.51 756.33 821.61 C 763.22 825.82 771.87 826.51 779.59 824.44 C 789.00 821.80 797.02 813.81 798.77 804.07 C 800.63 794.55 795.88 784.45 788.01 779.01 C 781.30 774.13 772.43 772.64 764.39 774.46 Z" />
<path fill="#000000" opacity="1.00" d=" M 758.49 782.01 C 764.67 782.07 770.88 781.73 777.04 782.40 C 780.21 782.82 783.68 783.71 785.72 786.38 C 788.41 790.14 787.59 796.07 783.77 798.79 C 782.33 799.75 780.64 800.24 779.06 800.91 C 781.81 805.99 784.37 811.16 787.10 816.25 C 784.69 816.24 782.28 816.25 779.88 816.26 C 777.28 811.44 774.76 806.58 772.19 801.75 C 769.79 801.74 767.39 801.75 765.00 801.76 C 765.00 806.58 765.00 811.41 765.00 816.24 C 762.83 816.24 760.67 816.25 758.52 816.26 C 758.47 804.84 758.51 793.43 758.49 782.01 M 765.00 785.98 C 765.00 789.90 764.99 793.83 765.01 797.76 C 769.24 797.64 773.67 798.19 777.75 796.76 C 781.96 795.44 781.88 788.61 777.81 787.16 C 773.75 785.56 769.26 786.10 765.00 785.98 Z" />
<path fill="#000000" opacity="1.00" d=" M 164.42 783.66 C 169.83 781.99 176.15 782.66 180.64 786.28 C 183.36 788.47 184.94 791.79 185.45 795.21 C 186.85 805.72 184.10 816.54 178.58 825.52 C 174.78 831.79 168.51 836.49 161.51 838.59 C 156.52 839.78 150.66 839.86 146.43 836.55 C 142.82 833.87 141.12 829.36 140.84 825.00 C 140.27 816.51 141.50 807.76 145.19 800.04 C 149.01 792.27 156.07 786.10 164.42 783.66 M 163.40 787.58 C 159.38 788.70 156.49 792.09 154.73 795.74 C 150.91 803.55 149.89 812.40 149.79 821.01 C 149.88 825.04 150.23 829.67 153.43 832.56 C 157.87 836.19 165.37 835.42 168.72 830.63 C 174.51 823.09 175.97 813.31 176.64 804.09 C 176.88 799.19 176.62 793.62 173.16 789.78 C 170.76 787.07 166.72 786.76 163.40 787.58 Z" />
</g>
</svg>
