<?xml version="1.0" encoding="UTF-8" ?>
<!DOCTYPE svg PUBLIC "-//W3C//DTD SVG 1.1//EN" "http://www.w3.org/Graphics/SVG/1.1/DTD/svg11.dtd">
<svg width="1280pt" height="653pt" viewBox="0 0 1280 653" version="1.1" xmlns="http://www.w3.org/2000/svg">
<g id="#ffffffff">
</g>
<g id="#e9b813ff">
<path fill="#e9b813" opacity="1.00" d=" M 443.70 24.65 C 467.63 24.69 491.56 24.73 515.49 24.63 C 515.84 42.95 515.63 61.28 515.61 79.61 C 491.65 79.63 467.68 79.69 443.71 79.58 C 443.69 61.27 443.69 42.96 443.70 24.65 Z" />
<path fill="#e9b813" opacity="1.00" d=" M 560.37 24.67 C 584.11 24.67 607.86 24.71 631.60 24.66 C 631.95 69.43 631.64 114.22 631.75 159.00 C 631.75 214.40 631.75 269.79 631.75 325.19 C 614.83 325.42 597.91 325.18 581.00 325.27 C 574.08 325.14 567.14 325.61 560.25 324.89 C 560.17 268.93 560.24 212.96 560.22 157.00 C 560.32 112.89 560.00 68.78 560.37 24.67 Z" />
<path fill="#e9b813" opacity="1.00" d=" M 674.25 24.61 C 698.01 24.76 721.77 24.64 745.54 24.69 C 746.00 70.79 745.54 116.91 745.77 163.01 C 745.81 168.05 745.39 173.12 746.23 178.12 C 748.79 176.04 751.10 173.67 753.20 171.12 C 765.40 157.36 777.84 143.83 790.05 130.08 C 796.78 123.44 802.42 115.81 808.99 109.03 C 810.67 106.97 813.46 106.69 815.94 106.71 C 839.30 106.75 862.65 106.75 886.01 106.71 C 888.67 106.69 891.32 107.11 893.97 107.49 C 882.69 119.68 870.68 131.18 859.11 143.11 C 844.74 158.96 828.87 173.39 814.45 189.20 C 819.36 197.08 824.80 204.62 829.65 212.54 C 834.00 219.74 839.25 226.35 843.72 233.48 C 860.60 258.91 877.84 284.09 894.33 309.78 C 897.56 314.82 901.27 319.55 903.99 324.90 C 898.68 325.57 893.33 325.22 888.01 325.27 C 867.00 325.28 846.00 325.23 824.99 325.30 C 822.44 325.30 819.91 324.97 817.39 324.65 C 813.27 317.52 808.98 310.47 804.50 303.56 C 793.85 285.88 783.23 268.18 772.40 250.62 C 769.78 246.33 767.45 241.83 764.14 238.02 C 759.31 242.23 754.92 246.89 750.12 251.11 C 748.25 253.03 745.56 254.92 745.74 257.93 C 745.56 280.39 746.01 302.87 745.51 325.33 C 721.80 325.24 698.09 325.22 674.39 325.33 C 673.71 320.25 673.67 315.12 673.75 310.00 C 673.76 228.00 673.75 146.00 673.76 64.00 C 674.02 50.88 673.18 37.70 674.25 24.61 Z" />
<path fill="#e9b813" opacity="1.00" d=" M 164.81 105.69 C 177.78 100.10 192.30 99.42 206.18 100.93 C 220.96 102.84 235.99 108.55 246.07 119.94 C 250.35 124.24 253.04 129.73 256.00 134.94 C 263.16 126.82 270.32 118.46 279.62 112.67 C 290.54 105.83 303.12 101.57 315.97 100.42 C 325.39 100.14 334.92 99.92 344.16 102.11 C 357.89 103.94 371.17 110.10 380.59 120.40 C 387.56 126.79 391.76 135.44 395.02 144.16 C 398.83 155.50 400.22 167.43 401.45 179.27 C 401.86 188.51 401.60 197.76 401.68 207.00 C 401.62 246.19 401.79 285.39 401.59 324.58 C 377.67 324.61 353.76 324.59 329.84 324.58 C 329.39 280.71 329.85 236.82 329.62 192.95 C 329.18 184.08 326.79 174.92 320.94 168.03 C 318.27 165.12 314.80 163.07 311.24 161.44 C 306.17 159.09 300.41 159.43 294.97 159.65 C 284.80 160.02 274.77 166.51 271.28 176.25 C 267.97 185.76 266.45 195.89 266.39 205.95 C 266.16 245.49 266.58 285.04 266.18 324.58 C 242.25 324.58 218.32 324.63 194.38 324.57 C 194.14 282.05 194.33 239.52 194.29 197.00 C 194.02 187.03 192.51 176.54 186.69 168.16 C 184.46 164.73 180.82 162.56 177.19 160.86 C 172.68 159.11 167.71 159.51 162.97 159.54 C 155.29 159.58 147.74 163.00 142.45 168.50 C 135.19 176.50 133.12 187.62 131.81 197.97 C 130.85 215.30 131.39 232.66 131.25 250.00 C 131.21 274.80 131.31 299.61 131.20 324.41 C 107.14 324.75 83.07 324.63 59.01 324.47 C 58.88 323.60 58.74 322.73 58.66 321.86 C 58.72 250.11 58.67 178.34 58.69 106.59 C 81.95 106.41 105.21 106.48 128.47 106.55 C 128.83 116.21 128.47 125.88 128.81 135.54 C 132.99 132.37 135.09 127.40 138.65 123.66 C 145.89 115.86 154.85 109.52 164.81 105.69 Z" />
<path fill="#e9b813" opacity="1.00" d=" M 444.14 107.01 C 449.07 106.41 454.04 106.67 459.00 106.65 C 473.33 106.64 487.67 106.65 502.00 106.64 C 506.51 106.66 511.08 106.29 515.52 107.35 C 515.87 167.23 515.57 227.12 515.67 287.00 C 515.50 299.81 516.04 312.65 515.35 325.45 C 494.21 325.10 473.07 325.29 451.93 325.32 C 449.53 325.02 446.51 326.32 444.52 324.57 C 443.09 321.59 443.81 318.18 443.67 315.00 C 443.73 252.33 443.68 189.67 443.70 127.00 C 443.89 120.34 443.19 113.63 444.14 107.01 Z" />
<path fill="#e9b813" opacity="1.00" d=" M 961.43 326.28 C 968.59 325.04 975.80 326.41 983.00 326.21 C 1041.67 326.17 1100.33 326.21 1159.00 326.19 C 1163.48 326.16 1167.96 326.16 1172.44 326.40 C 1172.21 336.73 1172.41 347.07 1172.38 357.40 C 1102.09 357.69 1031.79 357.56 961.49 357.46 C 961.31 347.06 961.50 336.67 961.43 326.28 Z" />
<path fill="#e9b813" opacity="1.00" d=" M 274.20 342.17 C 276.10 341.93 278.02 341.72 279.95 341.70 C 297.98 341.79 316.02 341.77 334.05 341.73 C 336.33 341.71 338.61 341.95 340.87 342.25 C 341.68 346.79 341.33 351.41 341.35 356.00 C 341.33 383.67 341.39 411.35 341.32 439.02 C 341.32 441.11 341.43 443.20 341.57 445.29 C 344.85 441.30 347.40 436.75 350.99 433.02 C 356.07 427.50 362.72 423.80 369.29 420.37 C 380.72 415.04 393.35 411.93 406.01 412.46 C 419.88 412.67 434.16 414.91 446.50 421.58 C 451.40 424.01 455.32 427.94 459.13 431.79 C 467.55 440.30 472.99 451.56 474.80 463.38 C 475.79 470.56 477.74 477.66 477.56 484.96 C 477.53 530.49 477.61 576.01 477.52 621.54 C 455.16 621.62 432.80 621.70 410.45 621.54 C 410.26 581.69 410.48 541.85 410.32 502.00 C 410.19 491.11 407.36 478.72 397.84 472.18 C 389.23 467.33 378.80 466.66 369.20 468.20 C 362.27 469.86 355.32 473.20 351.02 479.08 C 344.95 487.05 341.21 496.93 341.37 507.01 C 341.33 545.17 341.35 583.34 341.36 621.50 C 319.00 621.81 296.64 621.46 274.28 621.69 C 273.47 603.81 273.80 585.90 273.75 568.00 C 273.75 507.00 273.75 446.00 273.75 385.00 C 273.99 370.73 273.22 356.42 274.20 342.17 Z" />
<path fill="#e9b813" opacity="1.00" d=" M 738.84 342.17 C 744.53 341.43 750.28 341.81 756.00 341.76 C 770.01 341.74 784.02 341.79 798.03 341.73 C 800.62 341.70 803.20 342.06 805.78 342.36 C 806.51 347.23 805.86 352.12 805.77 357.00 C 805.77 397.01 805.78 437.01 805.76 477.01 C 805.74 479.72 806.16 482.41 806.59 485.09 C 809.82 481.80 812.53 478.05 815.60 474.62 C 825.59 464.24 834.92 453.25 844.54 442.52 C 851.13 434.79 858.37 427.64 864.82 419.78 C 866.18 417.79 868.87 418.40 870.93 418.23 C 895.29 418.42 919.66 418.04 944.02 418.43 C 924.82 439.39 904.31 459.12 884.86 479.86 C 879.97 484.94 874.88 489.82 870.05 494.96 C 875.73 505.09 883.09 514.18 888.98 524.20 C 908.83 553.02 927.50 582.65 947.35 611.48 C 949.57 614.64 951.68 617.90 953.15 621.50 C 935.10 621.77 917.05 621.55 899.00 621.62 C 890.23 621.54 881.45 621.84 872.69 621.37 C 864.40 607.68 856.41 593.80 847.64 580.40 C 842.61 572.99 838.65 564.94 833.74 557.46 C 830.08 551.88 827.37 545.65 822.96 540.59 C 817.45 544.81 812.89 550.10 807.92 554.91 C 805.88 556.63 805.76 559.46 805.74 561.93 C 805.79 581.77 805.77 601.61 805.79 621.45 C 783.62 621.69 761.44 621.82 739.28 621.35 C 738.30 613.60 738.85 605.79 738.72 598.00 C 738.80 512.73 738.56 427.45 738.84 342.17 Z" />
<path fill="#e9b813" opacity="1.00" d=" M 121.00 414.36 C 135.13 411.51 149.64 412.28 163.97 412.44 C 181.11 414.31 198.86 417.12 213.79 426.36 C 225.54 433.27 235.20 444.29 239.20 457.46 C 241.10 464.03 242.61 470.78 242.68 477.65 C 235.83 478.65 228.89 478.10 222.00 478.23 C 208.46 477.98 194.87 478.77 181.36 477.75 C 180.36 473.13 179.92 468.04 176.72 464.30 C 172.32 459.13 165.49 456.94 159.00 455.86 C 149.98 454.99 140.65 455.15 131.95 457.93 C 127.63 459.12 124.15 462.87 123.16 467.22 C 121.48 472.00 124.24 477.08 127.57 480.40 C 135.82 486.81 146.39 488.79 156.18 491.72 C 170.10 494.78 184.24 496.81 198.17 499.81 C 208.85 502.31 219.65 505.78 228.42 512.59 C 236.64 519.68 244.03 528.34 247.15 538.94 C 250.56 547.04 249.95 556.00 249.23 564.56 C 247.44 577.02 243.14 589.90 233.63 598.63 C 218.62 615.12 196.43 622.52 174.91 625.65 C 162.33 626.98 149.62 628.24 137.00 626.59 C 118.72 625.21 100.04 621.45 84.20 611.79 C 74.29 605.36 65.38 596.91 59.77 586.42 C 54.83 576.47 52.23 565.38 52.14 554.29 C 73.25 554.31 94.37 554.05 115.47 554.41 C 116.49 561.76 118.66 569.47 124.12 574.80 C 131.21 580.18 139.96 583.88 148.97 583.75 C 154.07 583.73 159.34 584.10 164.20 582.21 C 170.12 580.18 176.80 577.87 180.02 572.04 C 182.96 566.72 184.06 559.63 180.52 554.30 C 177.24 549.12 171.16 546.83 165.64 544.90 C 155.01 541.52 143.90 540.11 133.16 537.19 C 118.27 533.52 102.85 531.45 88.73 525.19 C 79.38 520.98 70.65 514.93 64.27 506.84 C 57.41 496.33 55.10 483.37 55.70 470.99 C 56.38 458.52 60.79 445.75 70.05 437.04 C 83.78 423.81 102.40 417.01 121.00 414.36 Z" />
<path fill="#e9b813" opacity="1.00" d=" M 564.26 417.51 C 576.55 414.20 589.25 412.11 602.00 412.25 C 612.69 411.20 623.40 412.88 634.11 412.52 C 632.47 412.82 630.84 413.07 629.24 413.52 C 638.18 413.09 647.06 414.89 655.65 417.21 C 668.35 420.44 680.55 426.78 689.43 436.56 C 699.24 447.96 703.16 463.19 703.52 477.96 C 703.47 509.97 703.50 541.99 703.51 574.00 C 703.50 586.25 703.79 598.71 707.29 610.55 C 708.49 614.14 709.83 617.69 710.90 621.33 C 688.48 621.26 666.06 621.47 643.64 621.22 C 641.76 615.25 640.76 609.09 639.69 602.95 C 634.67 606.78 630.02 611.15 624.56 614.36 C 613.40 620.84 600.72 624.41 588.01 626.17 C 579.81 626.55 571.58 627.94 563.40 626.61 C 545.49 625.45 527.31 618.43 515.54 604.46 C 508.52 596.42 505.78 585.76 503.77 575.54 C 502.80 562.87 503.17 549.55 508.69 537.86 C 516.00 522.87 530.99 513.14 546.56 508.39 C 555.28 506.06 564.00 503.59 572.93 502.14 C 586.22 500.18 599.62 498.90 612.85 496.47 C 619.96 495.53 627.40 494.46 633.56 490.53 C 642.45 483.46 640.98 468.30 631.82 462.09 C 620.62 454.73 606.28 453.95 593.52 456.97 C 586.41 459.55 580.17 464.89 577.01 471.83 C 575.59 474.61 574.98 477.80 573.11 480.35 C 552.63 480.80 532.11 480.60 511.62 480.43 C 511.74 462.65 519.28 444.59 533.12 433.13 C 542.01 425.40 553.01 420.66 564.26 417.51 M 622.94 531.81 C 615.18 533.17 607.49 534.86 599.80 536.52 C 593.59 538.04 587.26 539.65 581.69 542.89 C 575.85 546.70 570.75 552.70 570.38 559.94 C 569.87 566.98 571.33 575.12 577.34 579.58 C 586.05 586.09 597.56 586.59 607.95 585.21 C 617.49 583.59 627.31 578.74 631.78 569.73 C 639.21 556.85 638.99 541.48 638.54 527.08 C 633.27 528.45 628.33 530.93 622.94 531.81 Z" />
<path fill="#e9b813" opacity="1.00" d=" M 1025.27 419.02 C 1052.62 409.45 1083.34 410.16 1110.31 420.73 C 1125.63 427.02 1138.77 437.99 1148.93 450.96 C 1166.77 475.29 1172.91 506.48 1171.44 536.17 C 1121.54 536.44 1071.63 536.11 1021.73 536.33 C 1021.79 544.84 1024.18 553.33 1028.01 560.90 C 1034.77 573.48 1048.68 581.81 1062.96 581.73 C 1068.56 581.71 1074.35 582.32 1079.77 580.57 C 1085.81 578.57 1092.11 576.33 1096.63 571.64 C 1100.11 568.36 1102.76 564.34 1105.24 560.29 C 1115.80 559.45 1126.41 559.99 1137.00 559.84 C 1147.29 559.77 1157.58 559.84 1167.87 560.29 C 1164.74 571.53 1159.78 582.34 1152.56 591.56 C 1143.11 603.17 1130.59 612.17 1116.80 617.93 C 1095.76 626.55 1072.41 629.27 1049.91 626.33 C 1026.90 624.37 1003.98 615.81 986.74 600.16 C 967.19 583.11 957.32 557.16 955.41 531.74 C 953.62 519.74 954.98 507.55 957.08 495.69 C 963.48 464.88 984.80 437.54 1013.35 424.22 C 1017.33 422.51 1021.27 420.68 1025.27 419.02 M 1043.46 463.30 C 1031.13 470.62 1023.61 484.52 1022.04 498.54 C 1049.43 498.64 1076.83 498.60 1104.22 498.56 C 1103.92 486.97 1098.55 475.72 1090.48 467.51 C 1077.95 456.07 1057.85 454.33 1043.46 463.30 Z" />
<path fill="#e9b813" opacity="1.00" d=" M 1196.41 416.85 C 1203.32 415.46 1210.76 416.63 1216.82 420.27 C 1222.02 424.10 1226.32 429.61 1227.50 436.10 C 1229.46 444.42 1226.68 453.61 1220.54 459.54 C 1209.73 470.55 1188.82 468.89 1180.38 455.77 C 1175.43 448.99 1175.00 439.74 1177.81 432.02 C 1180.81 424.13 1188.26 418.53 1196.41 416.85 M 1196.40 422.44 C 1185.89 425.34 1179.55 438.19 1183.74 448.30 C 1186.31 455.95 1193.93 461.44 1201.98 461.57 C 1206.70 461.81 1211.31 459.79 1214.93 456.86 C 1222.33 449.91 1223.66 437.59 1217.61 429.36 C 1212.83 423.05 1204.02 419.90 1196.40 422.44 Z" />
<path fill="#e9b813" opacity="1.00" d=" M 1192.38 429.41 C 1197.02 428.49 1201.81 428.02 1206.53 428.65 C 1210.11 429.24 1213.29 432.24 1213.32 436.02 C 1213.09 438.80 1210.61 440.42 1208.69 442.08 C 1211.97 445.37 1213.80 449.79 1213.68 454.47 C 1211.71 454.46 1209.76 454.46 1207.83 454.46 C 1206.88 451.67 1206.30 448.70 1204.82 446.14 C 1203.42 444.13 1200.69 444.64 1198.61 444.35 C 1198.37 447.68 1198.25 451.02 1198.04 454.37 C 1196.20 454.45 1194.38 454.52 1192.57 454.61 C 1191.86 446.23 1192.28 437.80 1192.38 429.41 M 1198.43 433.44 C 1198.38 435.70 1198.34 437.96 1198.33 440.23 C 1200.64 440.29 1203.26 440.72 1205.25 439.17 C 1207.22 437.80 1206.12 435.32 1205.96 433.40 C 1203.44 433.37 1200.93 433.40 1198.43 433.44 Z" />
</g>
</svg>
