<?xml version="1.0" encoding="UTF-8" ?>
<!DOCTYPE svg PUBLIC "-//W3C//DTD SVG 1.1//EN" "http://www.w3.org/Graphics/SVG/1.1/DTD/svg11.dtd">
<svg width="521pt" height="146pt" viewBox="0 0 521 146" version="1.1" xmlns="http://www.w3.org/2000/svg">
<g id="#fefefdff">
<path fill="#fefefd" opacity="1.00" d=" M 0.00 0.00 L 521.00 0.00 L 521.00 146.00 L 0.00 146.00 L 0.00 0.00 M 302.35 8.41 C 298.21 12.53 295.35 18.47 289.64 20.66 C 291.59 22.42 293.46 25.16 291.87 27.79 C 288.01 37.07 284.19 46.37 280.44 55.71 C 279.95 55.85 278.96 56.15 278.46 56.29 C 279.39 59.69 277.41 62.81 276.20 65.86 C 272.33 74.76 269.27 84.06 264.48 92.53 C 262.06 97.00 257.14 99.03 252.63 100.75 C 252.75 101.49 252.97 102.96 253.08 103.70 C 262.32 103.72 271.55 103.71 280.79 103.68 C 280.81 102.62 280.83 101.56 280.86 100.51 C 277.93 99.86 274.74 99.75 272.16 98.06 C 270.66 96.81 270.31 94.61 270.86 92.81 C 272.35 86.91 275.09 81.41 276.94 75.62 C 289.59 75.73 302.25 75.75 314.90 75.59 C 316.76 80.13 318.85 84.57 320.92 89.02 C 321.82 91.19 322.86 93.45 322.69 95.86 C 321.97 97.13 321.00 98.22 320.11 99.36 C 317.59 99.57 315.08 99.77 312.56 99.92 C 312.40 101.16 312.24 102.41 312.09 103.66 C 333.76 103.81 355.42 103.73 377.09 103.63 C 377.20 102.87 377.43 101.36 377.55 100.60 C 373.01 99.78 367.67 99.12 364.94 94.87 C 363.36 91.49 363.58 87.62 363.52 83.98 C 363.79 62.20 363.32 40.43 363.67 18.65 C 387.52 47.47 411.18 76.45 434.82 105.44 C 436.42 105.44 438.04 105.44 439.65 105.45 C 439.81 81.64 439.66 57.83 439.69 34.01 C 439.76 27.81 439.01 21.39 441.39 15.48 C 444.34 14.06 447.54 13.35 450.79 13.18 C 450.80 12.02 450.82 10.86 450.84 9.70 C 441.12 9.53 431.41 9.71 421.69 9.67 C 421.67 10.84 421.66 12.01 421.65 13.18 C 425.01 13.56 428.74 13.30 431.66 15.26 C 434.91 17.75 434.98 22.29 435.17 26.01 C 435.25 43.30 435.21 60.59 435.24 77.88 C 416.40 55.40 398.46 32.17 379.70 9.63 C 369.28 9.77 358.85 9.49 348.44 9.77 C 347.65 10.76 347.98 12.06 347.87 13.22 C 351.63 13.40 355.30 14.32 358.69 15.96 C 358.68 40.64 359.81 65.33 358.75 90.00 C 358.76 94.84 354.81 99.21 349.98 99.51 C 344.15 98.84 341.48 92.97 339.52 88.18 C 328.08 62.28 316.46 36.45 305.04 10.54 C 304.36 9.50 303.98 7.25 302.35 8.41 M 8.76 13.37 C 12.57 13.57 16.28 14.51 19.76 16.05 C 20.36 21.34 19.79 26.65 19.83 31.96 C 19.93 49.96 19.78 67.96 19.88 85.96 C 19.83 89.30 19.93 92.96 17.96 95.85 C 15.71 98.90 11.78 99.65 8.33 100.53 C 8.37 101.59 8.41 102.65 8.45 103.72 C 18.35 103.88 28.25 103.74 38.15 103.79 C 38.27 102.70 38.38 101.62 38.49 100.54 C 34.82 99.94 30.72 99.79 27.87 97.06 C 24.60 94.44 24.51 89.86 24.49 86.02 C 24.63 64.65 24.38 43.28 24.56 21.91 C 27.25 27.39 28.92 33.28 31.20 38.93 C 39.65 60.79 47.36 82.93 56.08 104.68 C 59.44 102.38 59.80 98.03 61.30 94.57 C 70.69 69.68 79.80 44.69 89.36 19.87 C 89.75 42.92 89.36 65.97 89.55 89.02 C 89.35 92.19 89.79 96.01 87.47 98.53 C 84.45 100.26 80.78 100.00 77.43 100.41 C 77.46 101.52 77.48 102.63 77.51 103.74 C 91.27 103.85 105.03 103.84 118.79 103.71 C 118.78 102.61 118.78 101.51 118.78 100.41 C 115.44 100.02 111.59 100.47 108.78 98.30 C 106.88 96.01 106.76 92.87 106.67 90.04 C 106.81 68.37 106.76 46.70 106.72 25.03 C 106.71 21.92 107.28 18.85 107.80 15.80 C 111.15 13.72 115.10 13.40 118.95 13.32 C 118.81 12.24 118.65 11.16 118.46 10.09 C 110.36 9.28 102.19 10.04 94.06 9.75 C 91.97 10.10 88.46 8.68 87.69 11.47 C 79.63 33.08 71.86 54.82 63.69 76.40 C 59.94 67.32 56.68 58.05 53.27 48.84 L 54.91 48.63 C 54.45 48.60 53.54 48.54 53.08 48.51 C 48.17 35.57 43.51 22.52 38.40 9.65 C 28.91 10.07 19.40 9.50 9.91 9.86 C 8.51 10.50 8.98 12.14 8.76 13.37 M 128.19 9.68 C 128.21 10.91 128.23 12.14 128.25 13.37 C 131.22 13.56 134.40 13.36 137.11 14.83 C 140.26 16.20 139.88 20.23 140.22 23.07 C 140.33 45.05 140.24 67.02 140.27 89.00 C 140.17 92.52 140.44 96.97 136.98 99.07 C 134.27 100.35 131.14 100.09 128.22 100.35 C 128.25 101.49 128.27 102.63 128.30 103.77 C 141.97 103.62 155.68 104.18 169.33 103.54 C 169.46 102.78 169.72 101.27 169.86 100.52 C 166.60 100.04 163.18 100.07 160.11 98.75 C 157.49 96.77 157.67 92.97 157.46 90.02 C 157.45 67.69 157.47 45.36 157.45 23.03 C 157.57 20.12 157.51 16.36 160.36 14.66 C 163.18 13.38 166.36 13.56 169.38 13.43 C 169.43 12.31 169.48 11.18 169.53 10.06 C 155.77 9.16 141.97 10.10 128.19 9.68 M 178.93 35.97 C 180.37 35.51 182.09 35.38 182.89 33.89 C 189.05 25.27 196.51 16.04 207.44 13.76 C 215.58 13.09 223.79 13.56 231.95 13.47 C 214.96 41.68 198.11 69.99 181.07 98.17 C 180.13 99.86 179.98 101.84 179.58 103.70 C 203.14 103.73 226.70 103.67 250.26 103.69 C 252.71 94.24 254.94 84.73 257.32 75.26 C 256.30 74.73 255.41 74.01 254.40 73.47 C 255.25 76.24 252.83 78.28 251.58 80.45 C 246.95 87.60 241.17 94.73 232.94 97.77 C 222.95 101.59 212.03 99.78 201.60 100.28 C 202.79 97.94 204.02 95.62 205.35 93.37 C 221.38 67.67 236.97 41.69 252.92 15.95 C 254.17 14.08 254.44 11.85 254.61 9.66 C 231.65 9.76 208.70 9.83 185.75 9.64 C 183.71 18.48 180.82 27.10 178.93 35.97 M 455.70 9.69 C 455.68 10.56 455.65 12.31 455.63 13.19 C 459.02 13.49 462.81 13.10 465.76 15.15 C 467.54 16.90 467.46 19.67 467.63 21.98 C 467.82 44.34 467.72 66.70 467.75 89.06 C 467.58 92.23 467.92 96.01 465.48 98.44 C 462.56 100.20 458.94 99.78 455.69 100.28 C 455.68 101.41 455.68 102.53 455.68 103.65 C 469.48 103.62 483.29 103.54 497.10 103.69 C 497.08 102.53 497.07 101.37 497.06 100.22 C 494.05 99.89 490.87 100.08 488.05 98.85 C 484.92 97.09 485.29 93.07 485.15 90.01 C 485.14 67.67 485.04 45.33 485.18 22.99 C 485.29 20.48 485.16 17.73 486.59 15.53 C 489.29 12.92 493.40 13.52 496.83 13.22 C 496.78 12.01 496.75 10.80 496.74 9.59 C 483.06 9.73 469.38 9.66 455.70 9.69 M 505.44 89.57 C 500.50 91.01 498.69 98.01 502.34 101.65 C 506.37 105.96 515.08 103.14 514.96 96.96 C 515.44 91.96 510.06 88.31 505.44 89.57 M 83.96 112.12 C 85.33 115.79 87.60 119.02 89.34 122.50 C 90.23 125.52 90.03 128.75 90.26 131.87 C 90.77 131.79 91.79 131.63 92.30 131.55 C 92.43 128.28 91.64 124.69 93.41 121.74 C 95.15 118.63 96.98 115.56 98.21 112.20 C 94.20 113.42 93.52 118.06 90.98 120.86 C 88.99 117.71 87.91 113.40 83.96 112.12 M 108.09 132.05 C 111.13 131.87 111.42 128.54 112.63 126.49 C 115.25 126.47 117.87 126.48 120.49 126.48 C 121.17 128.24 121.85 130.01 122.51 131.78 C 123.11 131.69 124.30 131.52 124.89 131.44 C 122.11 124.92 119.33 118.40 116.51 111.89 C 113.79 118.65 110.33 125.11 108.09 132.05 M 142.45 112.67 C 142.37 117.50 142.45 122.33 142.37 127.17 C 137.37 122.22 132.78 116.88 127.77 111.95 C 128.01 118.52 127.28 125.15 128.18 131.68 C 128.56 131.72 129.31 131.81 129.69 131.86 C 130.66 127.16 129.62 122.34 130.21 117.60 C 134.82 122.64 139.51 127.61 144.46 132.32 C 144.63 125.77 144.57 119.22 144.53 112.67 C 144.01 112.67 142.97 112.67 142.45 112.67 M 258.20 112.78 C 256.84 117.59 254.91 122.20 253.12 126.86 C 251.14 122.41 249.85 117.68 247.83 113.26 C 247.21 113.02 245.97 112.53 245.35 112.29 C 247.69 119.15 250.38 125.90 253.07 132.63 C 255.33 127.10 257.57 121.56 259.66 115.97 C 260.22 116.16 261.35 116.55 261.91 116.74 C 261.27 116.36 259.97 115.60 259.32 115.22 C 259.85 114.66 260.90 113.54 261.42 112.97 C 260.34 112.91 259.27 112.85 258.20 112.78 M 267.07 112.62 C 265.28 119.40 261.55 125.44 259.32 132.07 C 262.51 131.98 262.89 128.74 263.86 126.44 C 266.52 126.44 269.18 126.44 271.84 126.45 C 272.47 128.13 273.11 129.81 273.74 131.50 C 274.35 131.56 275.55 131.68 276.16 131.74 C 275.22 129.15 274.26 126.57 273.33 123.98 C 273.76 123.55 274.62 122.70 275.06 122.28 C 274.59 122.68 273.66 123.50 273.19 123.91 C 271.55 120.12 269.83 116.37 268.34 112.53 C 268.02 112.55 267.39 112.60 267.07 112.62 M 355.57 111.87 C 355.29 118.47 355.59 125.09 355.43 131.70 C 355.98 131.71 357.09 131.72 357.65 131.73 C 357.70 127.09 357.57 122.45 358.08 117.83 C 362.74 122.80 367.49 127.68 372.20 132.61 C 372.12 126.13 372.49 119.64 372.09 113.17 C 371.55 112.96 370.45 112.53 369.90 112.32 C 369.98 117.30 369.92 122.28 369.54 127.25 C 365.24 121.80 359.97 117.23 355.57 111.87 M 385.41 112.59 C 385.38 118.96 385.21 125.33 385.28 131.70 C 388.15 131.54 391.21 132.04 393.92 130.88 C 396.21 129.89 396.17 127.07 396.66 125.00 C 395.82 123.99 395.00 122.99 394.18 121.98 C 394.36 119.94 394.51 117.91 394.63 115.87 C 394.21 115.32 393.37 114.23 392.96 113.68 C 390.47 113.10 387.94 112.78 385.41 112.59 M 426.90 131.75 C 427.46 131.68 428.57 131.55 429.13 131.48 C 429.92 129.78 430.73 128.10 431.55 126.41 C 434.08 126.44 436.62 126.49 439.15 126.56 C 439.96 128.24 440.76 129.93 441.56 131.62 C 442.12 131.60 443.25 131.58 443.82 131.57 C 441.03 125.00 438.21 118.44 435.38 111.90 C 432.45 118.47 429.48 125.03 426.90 131.75 M 486.61 112.73 C 486.62 119.03 486.67 125.32 486.65 131.62 C 489.90 131.64 493.16 131.64 496.42 131.66 L 496.36 129.56 C 493.81 129.61 491.26 129.66 488.72 129.73 C 488.75 127.32 488.76 124.91 488.76 122.50 C 491.49 122.08 495.27 123.56 496.99 120.63 C 494.22 120.42 491.45 120.42 488.69 120.37 C 488.68 118.66 488.69 116.95 488.70 115.24 C 491.37 115.01 494.04 114.81 496.73 114.63 C 496.60 114.17 496.34 113.24 496.21 112.77 C 493.01 112.81 489.81 112.80 486.61 112.73 M 8.28 112.48 C 8.18 118.88 8.27 125.29 8.34 131.69 C 11.03 131.58 13.80 131.90 16.42 131.16 C 19.03 130.15 19.19 127.11 19.60 124.76 C 18.60 123.70 17.61 122.64 16.61 121.58 C 17.29 119.53 18.46 117.00 16.93 115.04 C 14.94 112.37 11.15 113.03 8.28 112.48 M 23.28 112.74 C 23.28 119.05 23.28 125.36 23.30 131.68 C 26.69 131.68 30.08 131.68 33.47 131.54 C 32.12 128.31 28.00 130.05 25.32 129.60 C 25.35 127.22 25.38 124.84 25.41 122.46 C 27.82 122.43 30.22 122.41 32.63 122.41 L 32.58 120.51 C 30.17 120.47 27.76 120.42 25.36 120.37 C 25.39 118.51 25.43 116.64 25.48 114.78 C 27.95 114.79 30.42 114.79 32.89 114.81 L 32.79 112.75 C 29.62 112.79 26.45 112.77 23.28 112.74 M 36.01 132.44 C 38.35 131.22 39.17 128.64 40.23 126.42 C 42.80 126.44 45.37 126.48 47.95 126.54 C 48.99 128.76 49.59 131.85 52.60 131.98 C 50.00 125.17 46.91 118.56 44.06 111.84 C 41.52 118.77 37.24 125.08 36.01 132.44 M 55.38 113.06 C 55.45 117.88 55.00 122.74 55.69 127.53 C 56.27 130.63 59.53 131.59 62.05 132.61 C 64.43 131.68 66.68 130.42 68.55 128.65 C 68.49 123.58 69.00 118.48 68.42 113.44 C 67.98 113.08 67.09 112.35 66.64 111.98 C 66.26 117.02 66.95 122.11 66.28 127.13 C 65.18 130.52 59.72 130.79 57.96 127.85 C 57.00 123.04 57.56 118.08 57.47 113.20 C 56.95 113.16 55.90 113.09 55.38 113.06 M 70.49 114.15 C 72.23 114.43 73.97 114.66 75.73 114.84 C 76.48 120.50 76.03 126.22 76.23 131.90 C 76.77 131.79 77.84 131.56 78.38 131.44 C 78.17 125.88 78.13 120.30 78.24 114.74 C 79.76 114.77 81.29 114.80 82.81 114.82 C 82.77 114.30 82.69 113.25 82.65 112.72 C 78.60 112.95 74.14 111.87 70.49 114.15 M 149.27 131.70 C 152.79 131.61 156.71 132.05 159.71 129.78 C 164.93 125.94 164.17 116.53 158.20 113.80 C 155.37 112.92 152.38 112.82 149.46 112.50 C 149.12 118.89 149.35 125.30 149.27 131.70 M 175.49 131.68 C 175.99 131.67 176.99 131.66 177.50 131.65 C 177.44 125.56 177.87 119.44 177.35 113.37 C 176.94 113.02 176.12 112.33 175.70 111.98 C 175.27 118.54 175.48 125.11 175.49 131.68 M 182.53 132.19 C 182.97 132.17 183.86 132.14 184.30 132.12 C 184.38 127.24 184.28 122.35 184.41 117.47 C 189.31 122.33 193.96 127.44 198.77 132.39 C 198.92 126.00 199.04 119.58 198.61 113.21 C 198.16 112.96 197.25 112.46 196.79 112.22 C 196.64 117.21 196.78 122.22 196.64 127.21 C 191.92 122.14 187.09 117.17 182.42 112.05 C 182.07 118.76 182.09 125.49 182.53 132.19 M 203.73 111.84 C 203.48 118.39 203.69 124.94 203.56 131.50 C 204.09 131.56 205.14 131.68 205.66 131.74 C 205.76 126.98 205.89 122.22 206.23 117.48 C 210.74 122.62 215.47 127.57 220.32 132.39 C 220.52 125.81 220.41 119.23 220.40 112.64 C 219.85 112.67 218.75 112.72 218.20 112.75 C 218.23 117.53 218.32 122.30 218.16 127.08 C 213.22 122.12 208.39 117.05 203.73 111.84 M 230.25 113.21 C 226.56 114.91 223.76 118.90 224.18 123.05 C 224.45 127.94 229.01 132.30 234.00 131.84 C 240.33 132.41 245.02 125.39 243.42 119.59 C 241.73 114.40 235.47 110.77 230.25 113.21 M 275.40 115.02 C 276.91 114.91 278.43 114.83 279.95 114.77 C 280.30 119.19 279.75 123.62 279.99 128.04 C 280.16 129.70 280.13 131.73 281.68 132.78 C 282.97 126.80 281.91 120.67 282.42 114.62 C 284.09 114.67 285.77 114.70 287.44 114.70 C 287.08 114.28 286.34 113.44 285.97 113.02 C 282.59 112.50 279.15 112.80 275.75 112.74 C 275.66 113.31 275.48 114.45 275.40 115.02 M 289.77 112.04 C 289.60 118.49 289.85 124.94 289.65 131.39 C 290.17 131.52 291.20 131.79 291.71 131.92 C 291.80 125.72 292.23 119.47 291.58 113.30 C 291.13 112.99 290.22 112.36 289.77 112.04 M 301.35 113.37 C 294.81 115.92 293.44 125.63 299.01 129.84 C 304.37 134.26 314.05 131.29 314.89 124.07 C 316.58 116.80 308.05 109.92 301.35 113.37 M 318.67 111.88 C 318.73 118.39 318.74 124.90 318.71 131.42 C 319.23 131.54 320.27 131.79 320.79 131.92 C 321.25 127.19 320.68 122.44 320.96 117.70 C 325.90 122.48 330.41 127.68 335.40 132.41 C 335.41 125.65 335.61 118.88 335.37 112.13 L 333.64 113.28 C 332.94 117.87 333.56 122.55 333.35 127.17 C 328.21 122.31 323.52 117.01 318.67 111.88 M 348.62 131.64 C 349.14 131.68 350.17 131.75 350.68 131.78 C 350.62 125.40 350.91 119.02 350.61 112.65 C 350.17 112.71 349.29 112.82 348.86 112.88 C 348.34 119.12 348.84 125.39 348.62 131.64 M 398.67 132.07 C 401.51 131.66 402.03 128.68 403.09 126.52 C 405.70 126.46 408.32 126.43 410.94 126.50 C 412.00 128.77 412.57 131.87 415.65 132.13 C 413.18 125.18 409.91 118.55 407.01 111.77 C 404.58 118.69 400.84 125.06 398.67 132.07 M 418.45 131.67 C 420.96 131.65 423.46 131.62 425.97 131.59 C 425.82 131.05 425.53 129.98 425.39 129.45 C 423.77 129.57 422.15 129.68 420.55 129.81 C 420.47 124.27 420.73 118.71 420.36 113.18 C 419.98 112.93 419.21 112.45 418.83 112.21 C 417.74 118.63 418.58 125.19 418.45 131.67 M 446.65 112.51 C 446.54 118.84 446.80 125.17 446.57 131.49 C 447.13 131.58 448.25 131.76 448.81 131.85 C 449.08 127.15 448.69 122.46 448.88 117.77 C 453.97 122.39 458.36 127.70 463.41 132.35 C 463.50 125.93 463.44 119.51 463.47 113.09 C 462.93 113.10 461.86 113.13 461.33 113.15 C 461.36 117.81 461.44 122.48 461.29 127.15 C 456.05 122.62 452.19 116.69 446.65 112.51 M 473.29 113.30 C 467.04 115.47 464.91 124.70 469.90 129.18 C 473.05 132.76 478.39 132.16 482.38 130.51 C 482.45 129.92 482.59 128.74 482.66 128.15 C 479.47 129.50 475.54 130.88 472.41 128.61 C 467.86 125.50 468.33 117.61 473.50 115.38 C 476.63 113.36 479.98 115.59 482.99 116.69 C 482.38 112.26 476.60 111.85 473.29 113.30 Z" />
<path fill="#fefefd" opacity="1.00" d=" M 294.95 31.72 C 298.08 37.81 300.48 44.24 303.41 50.43 C 306.21 57.38 309.73 64.04 312.13 71.16 C 301.03 71.19 289.92 71.27 278.82 71.13 C 283.82 57.85 289.37 44.77 294.95 31.72 Z" />
<path fill="#fefefd" opacity="1.00" d=" M 505.13 90.97 C 507.64 91.29 511.07 90.76 512.39 93.54 C 514.69 96.87 512.19 102.26 508.07 102.31 C 505.18 102.63 502.35 99.88 502.17 97.03 C 501.88 94.58 503.93 92.84 505.13 90.97 M 504.79 92.23 C 504.78 94.99 504.76 97.76 504.73 100.52 L 506.37 100.54 C 506.42 99.55 506.51 97.57 506.55 96.59 C 507.69 97.95 508.75 99.41 510.26 100.41 C 510.67 99.40 509.77 98.52 509.56 97.57 C 510.27 96.02 510.84 94.42 511.33 92.79 C 509.15 92.55 506.97 92.37 504.79 92.23 Z" />
<path fill="#fefefd" opacity="1.00" d=" M 506.45 93.23 C 507.57 93.60 508.70 93.97 509.83 94.36 C 509.59 94.69 509.11 95.37 508.87 95.71 C 508.21 95.69 506.88 95.65 506.22 95.63 C 506.28 95.03 506.39 93.83 506.45 93.23 Z" />
<path fill="#fefefd" opacity="1.00" d=" M 303.48 114.76 C 308.38 113.43 313.65 117.85 312.70 122.98 C 312.80 128.89 304.87 132.08 300.55 128.38 C 295.58 124.82 297.54 116.03 303.48 114.76 Z" />
<path fill="#fefefd" opacity="1.00" d=" M 10.40 114.40 C 12.03 114.85 13.64 115.31 15.26 115.78 C 15.35 116.72 15.53 118.62 15.62 119.56 C 13.96 120.13 11.97 122.48 10.47 120.48 C 10.31 118.45 10.37 116.43 10.40 114.40 Z" />
<path fill="#fefefd" opacity="1.00" d=" M 151.44 114.91 C 154.72 114.59 158.80 115.44 160.23 118.80 C 161.11 121.75 161.21 125.52 158.77 127.80 C 156.77 129.56 153.94 129.50 151.46 129.91 C 151.42 124.91 151.43 119.91 151.44 114.91 Z" />
<path fill="#fefefd" opacity="1.00" d=" M 226.39 123.04 C 225.52 117.67 231.81 112.80 236.75 115.23 C 240.67 116.79 242.77 121.99 240.67 125.74 C 239.63 128.38 236.62 129.13 234.40 130.42 C 234.30 129.84 234.10 128.67 234.00 128.09 C 233.90 128.65 233.69 129.78 233.59 130.35 C 230.18 129.31 226.46 127.05 226.39 123.04 Z" />
<path fill="#fefefd" opacity="1.00" d=" M 387.57 115.00 C 389.18 114.75 390.80 115.33 392.40 115.53 C 392.41 117.05 392.35 118.57 392.24 120.10 C 390.66 120.62 389.02 120.88 387.40 121.20 C 387.42 119.13 387.38 117.06 387.57 115.00 Z" />
<path fill="#fefefd" opacity="1.00" d=" M 116.60 117.02 C 117.54 119.42 118.38 121.86 119.05 124.36 C 117.17 124.39 115.29 124.42 113.41 124.45 C 114.43 121.96 115.49 119.48 116.60 117.02 Z" />
<path fill="#fefefd" opacity="1.00" d=" M 432.27 124.41 C 433.37 121.94 434.40 119.44 435.44 116.94 C 436.38 119.42 437.31 121.91 438.17 124.42 C 436.20 124.41 434.23 124.40 432.27 124.41 Z" />
<path fill="#fefefd" opacity="1.00" d=" M 40.97 124.44 C 42.02 122.09 43.06 119.74 44.12 117.39 C 45.14 119.71 46.10 122.06 47.08 124.40 C 45.05 124.41 43.01 124.43 40.97 124.44 Z" />
<path fill="#fefefd" opacity="1.00" d=" M 264.93 124.43 C 265.73 122.03 266.74 119.71 268.02 117.53 C 269.01 119.80 269.95 122.09 270.87 124.40 C 268.89 124.41 266.91 124.42 264.93 124.43 Z" />
<path fill="#fefefd" opacity="1.00" d=" M 403.97 124.36 C 404.97 122.38 405.42 119.57 406.96 118.17 C 408.56 119.53 409.00 122.41 410.02 124.40 C 408.00 124.39 405.98 124.39 403.97 124.36 Z" />
<path fill="#fefefd" opacity="1.00" d=" M 10.37 123.11 C 12.25 123.24 14.15 123.32 15.99 123.74 C 17.20 125.04 16.75 126.99 16.56 128.57 C 14.68 129.60 12.48 129.61 10.41 129.93 C 10.39 127.66 10.38 125.38 10.37 123.11 Z" />
<path fill="#fefefd" opacity="1.00" d=" M 387.50 123.11 C 389.51 123.27 391.53 123.45 393.55 123.65 C 393.65 125.41 393.73 127.17 393.80 128.93 C 391.70 129.27 389.59 129.56 387.49 129.83 C 387.50 127.59 387.50 125.35 387.50 123.11 Z" />
</g>
<g id="#bb8b51ff">
<path fill="#bb8b51" opacity="1.00" d=" M 302.35 8.41 C 303.98 7.25 304.36 9.50 305.04 10.54 C 316.46 36.45 328.08 62.28 339.52 88.18 C 341.48 92.97 344.15 98.84 349.98 99.51 C 354.81 99.21 358.76 94.84 358.75 90.00 C 359.81 65.33 358.68 40.64 358.69 15.96 C 355.30 14.32 351.63 13.40 347.87 13.22 C 347.98 12.06 347.65 10.76 348.44 9.77 C 358.85 9.49 369.28 9.77 379.70 9.63 C 398.46 32.17 416.40 55.40 435.24 77.88 C 435.21 60.59 435.25 43.30 435.17 26.01 C 434.98 22.29 434.91 17.75 431.66 15.26 C 428.74 13.30 425.01 13.56 421.65 13.18 C 421.66 12.01 421.67 10.84 421.69 9.67 C 431.41 9.71 441.12 9.53 450.84 9.70 C 450.82 10.86 450.80 12.02 450.79 13.18 C 447.54 13.35 444.34 14.06 441.39 15.48 C 439.01 21.39 439.76 27.81 439.69 34.01 C 439.66 57.83 439.81 81.64 439.65 105.45 C 438.04 105.44 436.42 105.44 434.82 105.44 C 411.18 76.45 387.52 47.47 363.67 18.65 C 363.32 40.43 363.79 62.20 363.52 83.98 C 363.58 87.62 363.36 91.49 364.94 94.87 C 367.67 99.12 373.01 99.78 377.55 100.60 C 377.43 101.36 377.20 102.87 377.09 103.63 C 355.42 103.73 333.76 103.81 312.09 103.66 C 312.24 102.41 312.40 101.16 312.56 99.92 C 315.08 99.77 317.59 99.57 320.11 99.36 C 321.00 98.22 321.97 97.13 322.69 95.86 C 322.86 93.45 321.82 91.19 320.92 89.02 C 318.85 84.57 316.76 80.13 314.90 75.59 C 302.25 75.75 289.59 75.73 276.94 75.62 C 275.09 81.41 272.35 86.91 270.86 92.81 C 270.31 94.61 270.66 96.81 272.16 98.06 C 274.74 99.75 277.93 99.86 280.86 100.51 C 280.83 101.56 280.81 102.62 280.79 103.68 C 271.55 103.71 262.32 103.72 253.08 103.70 C 252.97 102.96 252.75 101.49 252.63 100.75 C 257.14 99.03 262.06 97.00 264.48 92.53 C 269.27 84.06 272.33 74.76 276.20 65.86 C 277.41 62.81 279.39 59.69 278.46 56.29 C 278.96 56.15 279.95 55.85 280.44 55.71 C 284.19 46.37 288.01 37.07 291.87 27.79 C 293.46 25.16 291.59 22.42 289.64 20.66 C 295.35 18.47 298.21 12.53 302.35 8.41 M 294.95 31.72 C 289.37 44.77 283.82 57.85 278.82 71.13 C 289.92 71.27 301.03 71.19 312.13 71.16 C 309.73 64.04 306.21 57.38 303.41 50.43 C 300.48 44.24 298.08 37.81 294.95 31.72 Z" />
<path fill="#bb8b51" opacity="1.00" d=" M 8.76 13.37 C 8.98 12.14 8.51 10.50 9.91 9.86 C 19.40 9.50 28.91 10.07 38.40 9.65 C 43.51 22.52 48.17 35.57 53.08 48.51 C 53.54 48.54 54.45 48.60 54.91 48.63 L 53.27 48.84 C 56.68 58.05 59.94 67.32 63.69 76.40 C 71.86 54.82 79.63 33.08 87.69 11.47 C 88.46 8.68 91.97 10.10 94.06 9.75 C 102.19 10.04 110.36 9.28 118.46 10.09 C 118.65 11.16 118.81 12.24 118.95 13.32 C 115.10 13.40 111.15 13.72 107.80 15.80 C 107.28 18.85 106.71 21.92 106.72 25.03 C 106.76 46.70 106.81 68.37 106.67 90.04 C 106.76 92.87 106.88 96.01 108.78 98.30 C 111.59 100.47 115.44 100.02 118.78 100.41 C 118.78 101.51 118.78 102.61 118.79 103.71 C 105.03 103.84 91.27 103.85 77.51 103.74 C 77.48 102.63 77.46 101.52 77.43 100.41 C 80.78 100.00 84.45 100.26 87.47 98.53 C 89.79 96.01 89.35 92.19 89.55 89.02 C 89.36 65.97 89.75 42.92 89.36 19.87 C 79.80 44.69 70.69 69.68 61.30 94.57 C 59.80 98.03 59.44 102.38 56.08 104.68 C 47.36 82.93 39.65 60.79 31.20 38.93 C 28.92 33.28 27.25 27.39 24.56 21.91 C 24.38 43.28 24.63 64.65 24.49 86.02 C 24.51 89.86 24.60 94.44 27.87 97.06 C 30.72 99.79 34.82 99.94 38.49 100.54 C 38.38 101.62 38.27 102.70 38.15 103.79 C 28.25 103.74 18.35 103.88 8.45 103.72 C 8.41 102.65 8.37 101.59 8.33 100.53 C 11.78 99.65 15.71 98.90 17.96 95.85 C 19.93 92.96 19.83 89.30 19.88 85.96 C 19.78 67.96 19.93 49.96 19.83 31.96 C 19.79 26.65 20.36 21.34 19.76 16.05 C 16.28 14.51 12.57 13.57 8.76 13.37 Z" />
<path fill="#bb8b51" opacity="1.00" d=" M 128.19 9.68 C 141.97 10.10 155.77 9.16 169.53 10.06 C 169.48 11.18 169.43 12.31 169.38 13.43 C 166.36 13.56 163.18 13.38 160.36 14.66 C 157.51 16.36 157.57 20.12 157.45 23.03 C 157.47 45.36 157.45 67.69 157.46 90.02 C 157.67 92.97 157.49 96.77 160.11 98.75 C 163.18 100.07 166.60 100.04 169.86 100.52 C 169.72 101.27 169.46 102.78 169.33 103.54 C 155.68 104.18 141.97 103.62 128.30 103.77 C 128.27 102.63 128.25 101.49 128.22 100.35 C 131.14 100.09 134.27 100.35 136.98 99.07 C 140.44 96.97 140.17 92.52 140.27 89.00 C 140.24 67.02 140.33 45.05 140.22 23.07 C 139.88 20.23 140.26 16.20 137.11 14.83 C 134.40 13.36 131.22 13.56 128.25 13.37 C 128.23 12.14 128.21 10.91 128.19 9.68 Z" />
<path fill="#bb8b51" opacity="1.00" d=" M 178.93 35.97 C 180.82 27.10 183.71 18.48 185.75 9.64 C 208.70 9.83 231.65 9.76 254.61 9.66 C 254.44 11.85 254.17 14.08 252.92 15.95 C 236.97 41.69 221.38 67.67 205.35 93.37 C 204.02 95.62 202.79 97.94 201.60 100.28 C 212.03 99.78 222.95 101.59 232.94 97.77 C 241.17 94.73 246.95 87.60 251.58 80.45 C 252.83 78.28 255.25 76.24 254.40 73.47 C 255.41 74.01 256.30 74.73 257.32 75.26 C 254.94 84.73 252.71 94.24 250.26 103.69 C 226.70 103.67 203.14 103.73 179.58 103.70 C 179.98 101.84 180.13 99.86 181.07 98.17 C 198.11 69.99 214.96 41.68 231.95 13.47 C 223.79 13.56 215.58 13.09 207.44 13.76 C 196.51 16.04 189.05 25.27 182.89 33.89 C 182.09 35.38 180.37 35.51 178.93 35.97 Z" />
<path fill="#bb8b51" opacity="1.00" d=" M 455.70 9.69 C 469.38 9.66 483.06 9.73 496.74 9.59 C 496.75 10.80 496.78 12.01 496.83 13.22 C 493.40 13.52 489.29 12.92 486.59 15.53 C 485.16 17.73 485.29 20.48 485.18 22.99 C 485.04 45.33 485.14 67.67 485.15 90.01 C 485.29 93.07 484.92 97.09 488.05 98.85 C 490.87 100.08 494.05 99.89 497.06 100.22 C 497.07 101.37 497.08 102.53 497.10 103.69 C 483.29 103.54 469.48 103.62 455.68 103.65 C 455.68 102.53 455.68 101.41 455.69 100.28 C 458.94 99.78 462.56 100.20 465.48 98.44 C 467.92 96.01 467.58 92.23 467.75 89.06 C 467.72 66.70 467.82 44.34 467.63 21.98 C 467.46 19.67 467.54 16.90 465.76 15.15 C 462.81 13.10 459.02 13.49 455.63 13.19 C 455.65 12.31 455.68 10.56 455.70 9.69 Z" />
<path fill="#bb8b51" opacity="1.00" d=" M 505.44 89.57 C 510.06 88.31 515.44 91.96 514.96 96.96 C 515.08 103.14 506.37 105.96 502.34 101.65 C 498.69 98.01 500.50 91.01 505.44 89.57 M 505.13 90.97 C 503.93 92.84 501.88 94.58 502.17 97.03 C 502.35 99.88 505.18 102.63 508.07 102.31 C 512.19 102.26 514.69 96.87 512.39 93.54 C 511.07 90.76 507.64 91.29 505.13 90.97 Z" />
<path fill="#bb8b51" opacity="1.00" d=" M 504.79 92.23 C 506.97 92.37 509.15 92.55 511.33 92.79 C 510.84 94.42 510.27 96.02 509.56 97.57 C 509.77 98.52 510.67 99.40 510.26 100.41 C 508.75 99.41 507.69 97.95 506.55 96.59 C 506.51 97.57 506.42 99.55 506.37 100.54 L 504.73 100.52 C 504.76 97.76 504.78 94.99 504.79 92.23 M 506.45 93.23 C 506.39 93.83 506.28 95.03 506.22 95.63 C 506.88 95.65 508.21 95.69 508.87 95.71 C 509.11 95.37 509.59 94.69 509.83 94.36 C 508.70 93.97 507.57 93.60 506.45 93.23 Z" />
<path fill="#bb8b51" opacity="1.00" d=" M 83.96 112.12 C 87.91 113.40 88.99 117.71 90.98 120.86 C 93.52 118.06 94.20 113.42 98.21 112.20 C 96.98 115.56 95.15 118.63 93.41 121.74 C 91.64 124.69 92.43 128.28 92.30 131.55 C 91.79 131.63 90.77 131.79 90.26 131.87 C 90.03 128.75 90.23 125.52 89.34 122.50 C 87.60 119.02 85.33 115.79 83.96 112.12 Z" />
<path fill="#bb8b51" opacity="1.00" d=" M 108.09 132.05 C 110.33 125.11 113.79 118.65 116.51 111.89 C 119.33 118.40 122.11 124.92 124.89 131.44 C 124.30 131.52 123.11 131.69 122.51 131.78 C 121.85 130.01 121.17 128.24 120.49 126.48 C 117.87 126.48 115.25 126.47 112.63 126.49 C 111.42 128.54 111.13 131.87 108.09 132.05 M 116.60 117.02 C 115.49 119.48 114.43 121.96 113.41 124.45 C 115.29 124.42 117.17 124.39 119.05 124.36 C 118.38 121.86 117.54 119.42 116.60 117.02 Z" />
<path fill="#bb8b51" opacity="1.00" d=" M 142.45 112.67 C 142.97 112.67 144.01 112.67 144.53 112.67 C 144.57 119.22 144.63 125.77 144.46 132.32 C 139.51 127.61 134.82 122.64 130.21 117.60 C 129.62 122.34 130.66 127.16 129.69 131.86 C 129.31 131.81 128.56 131.72 128.18 131.68 C 127.28 125.15 128.01 118.52 127.77 111.95 C 132.78 116.88 137.37 122.22 142.37 127.17 C 142.45 122.33 142.37 117.50 142.45 112.67 Z" />
<path fill="#bb8b51" opacity="1.00" d=" M 258.20 112.78 C 259.27 112.85 260.34 112.91 261.42 112.97 C 260.90 113.54 259.85 114.66 259.32 115.22 C 259.97 115.60 261.27 116.36 261.91 116.74 C 261.35 116.55 260.22 116.16 259.66 115.97 C 257.57 121.56 255.33 127.10 253.07 132.63 C 250.38 125.90 247.69 119.15 245.35 112.29 C 245.97 112.53 247.21 113.02 247.83 113.26 C 249.85 117.68 251.14 122.41 253.12 126.86 C 254.91 122.20 256.84 117.59 258.20 112.78 Z" />
<path fill="#bb8b51" opacity="1.00" d=" M 267.07 112.62 C 267.39 112.60 268.02 112.55 268.34 112.53 C 269.83 116.37 271.55 120.12 273.19 123.91 C 273.66 123.50 274.59 122.68 275.06 122.28 C 274.62 122.70 273.76 123.55 273.33 123.98 C 274.26 126.57 275.22 129.15 276.16 131.74 C 275.55 131.68 274.35 131.56 273.74 131.50 C 273.11 129.81 272.47 128.13 271.84 126.45 C 269.18 126.44 266.52 126.44 263.86 126.44 C 262.89 128.74 262.51 131.98 259.32 132.07 C 261.55 125.44 265.28 119.40 267.07 112.62 M 264.93 124.43 C 266.91 124.42 268.89 124.41 270.87 124.40 C 269.95 122.09 269.01 119.80 268.02 117.53 C 266.74 119.71 265.73 122.03 264.93 124.43 Z" />
<path fill="#bb8b51" opacity="1.00" d=" M 355.57 111.87 C 359.97 117.23 365.24 121.80 369.54 127.25 C 369.92 122.28 369.98 117.30 369.90 112.32 C 370.45 112.53 371.55 112.96 372.09 113.17 C 372.49 119.64 372.12 126.13 372.20 132.61 C 367.49 127.68 362.74 122.80 358.08 117.83 C 357.57 122.45 357.70 127.09 357.65 131.73 C 357.09 131.72 355.98 131.71 355.43 131.70 C 355.59 125.09 355.29 118.47 355.57 111.87 Z" />
<path fill="#bb8b51" opacity="1.00" d=" M 385.41 112.59 C 387.94 112.78 390.47 113.10 392.96 113.68 C 393.37 114.23 394.21 115.32 394.63 115.87 C 394.51 117.91 394.36 119.94 394.18 121.98 C 395.00 122.99 395.82 123.99 396.66 125.00 C 396.17 127.07 396.21 129.89 393.92 130.88 C 391.21 132.04 388.15 131.54 385.28 131.70 C 385.21 125.33 385.38 118.96 385.41 112.59 M 387.57 115.00 C 387.38 117.06 387.42 119.13 387.40 121.20 C 389.02 120.88 390.66 120.62 392.24 120.10 C 392.35 118.57 392.41 117.05 392.40 115.53 C 390.80 115.33 389.18 114.75 387.57 115.00 M 387.50 123.11 C 387.50 125.35 387.50 127.59 387.49 129.83 C 389.59 129.56 391.70 129.27 393.80 128.93 C 393.73 127.17 393.65 125.41 393.55 123.65 C 391.53 123.45 389.51 123.27 387.50 123.11 Z" />
<path fill="#bb8b51" opacity="1.00" d=" M 426.90 131.75 C 429.48 125.03 432.45 118.47 435.38 111.90 C 438.21 118.44 441.03 125.00 443.82 131.57 C 443.25 131.58 442.12 131.60 441.56 131.62 C 440.76 129.93 439.96 128.24 439.15 126.56 C 436.62 126.49 434.08 126.44 431.55 126.41 C 430.73 128.10 429.92 129.78 429.13 131.48 C 428.57 131.55 427.46 131.68 426.90 131.75 M 432.27 124.41 C 434.23 124.40 436.20 124.41 438.17 124.42 C 437.31 121.91 436.38 119.42 435.44 116.94 C 434.40 119.44 433.37 121.94 432.27 124.41 Z" />
<path fill="#bb8b51" opacity="1.00" d=" M 486.61 112.73 C 489.81 112.80 493.01 112.81 496.21 112.77 C 496.34 113.24 496.60 114.17 496.73 114.63 C 494.04 114.81 491.37 115.01 488.70 115.24 C 488.69 116.95 488.68 118.66 488.69 120.37 C 491.45 120.42 494.22 120.42 496.99 120.63 C 495.27 123.56 491.49 122.08 488.76 122.50 C 488.76 124.91 488.75 127.32 488.72 129.73 C 491.26 129.66 493.81 129.61 496.36 129.56 L 496.42 131.66 C 493.16 131.64 489.90 131.64 486.65 131.62 C 486.67 125.32 486.62 119.03 486.61 112.73 Z" />
<path fill="#bb8b51" opacity="1.00" d=" M 8.28 112.48 C 11.15 113.03 14.94 112.37 16.93 115.04 C 18.46 117.00 17.29 119.53 16.61 121.58 C 17.61 122.64 18.60 123.70 19.60 124.76 C 19.19 127.11 19.03 130.15 16.42 131.16 C 13.80 131.90 11.03 131.58 8.34 131.69 C 8.27 125.29 8.18 118.88 8.28 112.48 M 10.40 114.40 C 10.37 116.43 10.31 118.45 10.47 120.48 C 11.97 122.48 13.96 120.13 15.62 119.56 C 15.53 118.62 15.35 116.72 15.26 115.78 C 13.64 115.31 12.03 114.85 10.40 114.40 M 10.37 123.11 C 10.38 125.38 10.39 127.66 10.41 129.93 C 12.48 129.61 14.68 129.60 16.56 128.57 C 16.75 126.99 17.20 125.04 15.99 123.74 C 14.15 123.32 12.25 123.24 10.37 123.11 Z" />
<path fill="#bb8b51" opacity="1.00" d=" M 23.28 112.74 C 26.45 112.77 29.62 112.79 32.79 112.75 L 32.89 114.81 C 30.42 114.79 27.95 114.79 25.48 114.78 C 25.43 116.64 25.39 118.51 25.36 120.37 C 27.76 120.42 30.17 120.47 32.58 120.51 L 32.63 122.41 C 30.22 122.41 27.82 122.43 25.41 122.46 C 25.38 124.84 25.35 127.22 25.32 129.60 C 28.00 130.05 32.12 128.31 33.47 131.54 C 30.08 131.68 26.69 131.68 23.30 131.68 C 23.28 125.36 23.28 119.05 23.28 112.74 Z" />
<path fill="#bb8b51" opacity="1.00" d=" M 36.01 132.44 C 37.24 125.08 41.52 118.77 44.06 111.84 C 46.91 118.56 50.00 125.17 52.60 131.98 C 49.59 131.85 48.99 128.76 47.95 126.54 C 45.37 126.48 42.80 126.44 40.23 126.42 C 39.17 128.64 38.35 131.22 36.01 132.44 M 40.97 124.44 C 43.01 124.43 45.05 124.41 47.08 124.40 C 46.10 122.06 45.14 119.71 44.12 117.39 C 43.06 119.74 42.02 122.09 40.97 124.44 Z" />
<path fill="#bb8b51" opacity="1.00" d=" M 55.38 113.06 C 55.90 113.09 56.95 113.16 57.47 113.20 C 57.56 118.08 57.00 123.04 57.96 127.85 C 59.72 130.79 65.18 130.52 66.28 127.13 C 66.95 122.11 66.26 117.02 66.64 111.98 C 67.09 112.35 67.98 113.08 68.42 113.44 C 69.00 118.48 68.49 123.58 68.55 128.65 C 66.68 130.42 64.43 131.68 62.05 132.61 C 59.53 131.59 56.27 130.63 55.69 127.53 C 55.00 122.74 55.45 117.88 55.38 113.06 Z" />
<path fill="#bb8b51" opacity="1.00" d=" M 70.49 114.15 C 74.14 111.87 78.60 112.95 82.65 112.72 C 82.69 113.25 82.77 114.30 82.81 114.82 C 81.29 114.80 79.76 114.77 78.24 114.74 C 78.13 120.30 78.17 125.88 78.38 131.44 C 77.84 131.56 76.77 131.79 76.23 131.90 C 76.03 126.22 76.48 120.50 75.73 114.84 C 73.97 114.66 72.23 114.43 70.49 114.15 Z" />
<path fill="#bb8b51" opacity="1.00" d=" M 149.27 131.70 C 149.35 125.30 149.12 118.89 149.46 112.50 C 152.38 112.82 155.37 112.92 158.20 113.80 C 164.17 116.53 164.93 125.94 159.71 129.78 C 156.71 132.05 152.79 131.61 149.27 131.70 M 151.44 114.91 C 151.43 119.91 151.42 124.91 151.46 129.91 C 153.94 129.50 156.77 129.56 158.77 127.80 C 161.21 125.52 161.11 121.75 160.23 118.80 C 158.80 115.44 154.72 114.59 151.44 114.91 Z" />
<path fill="#bb8b51" opacity="1.00" d=" M 175.49 131.68 C 175.48 125.11 175.27 118.54 175.70 111.98 C 176.12 112.33 176.94 113.02 177.35 113.37 C 177.87 119.44 177.44 125.56 177.50 131.65 C 176.99 131.66 175.99 131.67 175.49 131.68 Z" />
<path fill="#bb8b51" opacity="1.00" d=" M 182.53 132.19 C 182.09 125.49 182.07 118.76 182.42 112.05 C 187.09 117.17 191.92 122.14 196.64 127.21 C 196.78 122.22 196.64 117.21 196.79 112.22 C 197.25 112.46 198.16 112.96 198.61 113.21 C 199.04 119.58 198.92 126.00 198.77 132.39 C 193.96 127.44 189.31 122.33 184.41 117.47 C 184.28 122.35 184.38 127.24 184.30 132.12 C 183.86 132.14 182.97 132.17 182.53 132.19 Z" />
<path fill="#bb8b51" opacity="1.00" d=" M 203.73 111.84 C 208.39 117.05 213.22 122.12 218.16 127.08 C 218.32 122.30 218.23 117.53 218.20 112.75 C 218.75 112.72 219.85 112.67 220.40 112.64 C 220.41 119.23 220.52 125.81 220.32 132.39 C 215.47 127.57 210.74 122.62 206.23 117.48 C 205.89 122.22 205.76 126.98 205.66 131.74 C 205.14 131.68 204.09 131.56 203.56 131.50 C 203.69 124.94 203.48 118.39 203.73 111.84 Z" />
<path fill="#bb8b51" opacity="1.00" d=" M 230.25 113.21 C 235.47 110.77 241.73 114.40 243.42 119.59 C 245.02 125.39 240.33 132.41 234.00 131.84 C 229.01 132.30 224.45 127.94 224.18 123.05 C 223.76 118.90 226.56 114.91 230.25 113.21 M 226.39 123.04 C 226.46 127.05 230.18 129.31 233.59 130.35 C 233.69 129.78 233.90 128.65 234.00 128.09 C 234.10 128.67 234.30 129.84 234.40 130.42 C 236.62 129.13 239.63 128.38 240.67 125.74 C 242.77 121.99 240.67 116.79 236.75 115.23 C 231.81 112.80 225.52 117.67 226.39 123.04 Z" />
<path fill="#bb8b51" opacity="1.00" d=" M 275.40 115.02 C 275.48 114.45 275.66 113.31 275.75 112.74 C 279.15 112.80 282.59 112.50 285.97 113.02 C 286.34 113.44 287.08 114.28 287.44 114.70 C 285.77 114.70 284.09 114.67 282.42 114.62 C 281.91 120.67 282.97 126.80 281.68 132.78 C 280.13 131.73 280.16 129.70 279.99 128.04 C 279.75 123.62 280.30 119.19 279.95 114.77 C 278.43 114.83 276.91 114.91 275.40 115.02 Z" />
<path fill="#bb8b51" opacity="1.00" d=" M 289.77 112.04 C 290.22 112.36 291.13 112.99 291.58 113.30 C 292.23 119.47 291.80 125.72 291.71 131.92 C 291.20 131.79 290.17 131.52 289.65 131.39 C 289.85 124.94 289.60 118.49 289.77 112.04 Z" />
<path fill="#bb8b51" opacity="1.00" d=" M 301.35 113.37 C 308.05 109.92 316.58 116.80 314.89 124.07 C 314.05 131.29 304.37 134.26 299.01 129.84 C 293.44 125.63 294.81 115.92 301.35 113.37 M 303.48 114.76 C 297.54 116.03 295.58 124.82 300.55 128.38 C 304.87 132.08 312.80 128.89 312.70 122.98 C 313.65 117.85 308.38 113.43 303.48 114.76 Z" />
<path fill="#bb8b51" opacity="1.00" d=" M 318.67 111.88 C 323.52 117.01 328.21 122.31 333.35 127.17 C 333.56 122.55 332.94 117.87 333.64 113.28 L 335.37 112.13 C 335.61 118.88 335.41 125.65 335.40 132.41 C 330.41 127.68 325.90 122.48 320.96 117.70 C 320.68 122.44 321.25 127.19 320.79 131.92 C 320.27 131.79 319.23 131.54 318.71 131.42 C 318.74 124.90 318.73 118.39 318.67 111.88 Z" />
<path fill="#bb8b51" opacity="1.00" d=" M 348.62 131.64 C 348.84 125.39 348.34 119.12 348.86 112.88 C 349.29 112.82 350.17 112.71 350.61 112.65 C 350.91 119.02 350.62 125.40 350.68 131.78 C 350.17 131.75 349.14 131.68 348.62 131.64 Z" />
<path fill="#bb8b51" opacity="1.00" d=" M 398.67 132.07 C 400.84 125.06 404.58 118.69 407.01 111.77 C 409.91 118.55 413.18 125.18 415.65 132.13 C 412.57 131.87 412.00 128.77 410.94 126.50 C 408.32 126.43 405.70 126.46 403.09 126.52 C 402.03 128.68 401.51 131.66 398.67 132.07 M 403.97 124.36 C 405.98 124.39 408.00 124.39 410.02 124.40 C 409.00 122.41 408.56 119.53 406.96 118.17 C 405.42 119.57 404.97 122.38 403.97 124.36 Z" />
<path fill="#bb8b51" opacity="1.00" d=" M 418.45 131.67 C 418.58 125.19 417.74 118.63 418.83 112.21 C 419.21 112.45 419.98 112.93 420.36 113.18 C 420.73 118.71 420.47 124.27 420.55 129.81 C 422.15 129.68 423.77 129.57 425.39 129.45 C 425.53 129.98 425.82 131.05 425.97 131.59 C 423.46 131.62 420.96 131.65 418.45 131.67 Z" />
<path fill="#bb8b51" opacity="1.00" d=" M 446.65 112.51 C 452.19 116.69 456.05 122.62 461.29 127.15 C 461.44 122.48 461.36 117.81 461.33 113.15 C 461.86 113.13 462.93 113.10 463.47 113.09 C 463.44 119.51 463.50 125.93 463.41 132.35 C 458.36 127.70 453.97 122.39 448.88 117.77 C 448.69 122.46 449.08 127.15 448.81 131.85 C 448.25 131.76 447.13 131.58 446.57 131.49 C 446.80 125.17 446.54 118.84 446.65 112.51 Z" />
<path fill="#bb8b51" opacity="1.00" d=" M 473.29 113.30 C 476.60 111.85 482.38 112.26 482.99 116.69 C 479.98 115.59 476.63 113.36 473.50 115.38 C 468.33 117.61 467.86 125.50 472.41 128.61 C 475.54 130.88 479.47 129.50 482.66 128.15 C 482.59 128.74 482.45 129.92 482.38 130.51 C 478.39 132.16 473.05 132.76 469.90 129.18 C 464.91 124.70 467.04 115.47 473.29 113.30 Z" />
</g>
</svg>
