<?xml version="1.0" encoding="UTF-8" ?>
<!DOCTYPE svg PUBLIC "-//W3C//DTD SVG 1.1//EN" "http://www.w3.org/Graphics/SVG/1.1/DTD/svg11.dtd">
<svg width="629pt" height="1191pt" viewBox="0 0 629 1191" version="1.1" xmlns="http://www.w3.org/2000/svg">
<g id="#ffffffff">
<path fill="#ffffff" opacity="1.00" d=" M 154.25 299.25 C 154.79 299.79 154.79 299.79 154.25 299.25 Z" />
<path fill="#ffffff" opacity="1.00" d=" M 109.25 453.25 C 109.79 453.78 109.79 453.78 109.25 453.25 Z" />
<path fill="#ffffff" opacity="1.00" d=" M 449.93 619.82 C 455.27 625.67 459.92 632.52 461.66 640.36 C 462.94 646.01 460.79 651.58 459.64 657.06 C 457.77 657.23 457.65 655.19 457.11 653.91 C 455.40 648.09 453.54 642.29 452.72 636.26 C 451.94 630.74 449.47 625.49 449.93 619.82 Z" />
<path fill="#ffffff" opacity="1.00" d=" M 394.24 882.25 C 394.77 882.78 394.77 882.78 394.24 882.25 Z" />
</g>
<g id="#020202ff">
<path fill="#020202" opacity="1.00" d=" M 276.26 95.27 C 279.53 91.20 282.08 86.03 287.21 83.99 C 290.25 83.61 293.41 85.87 293.83 88.97 C 292.32 96.75 285.08 101.98 284.03 109.91 C 285.19 115.16 291.48 115.36 295.37 117.66 C 301.67 120.38 302.33 128.91 299.33 134.32 C 297.60 138.04 292.31 140.73 294.29 145.44 C 299.49 150.43 307.78 151.02 311.73 157.45 C 312.66 161.00 311.22 164.71 310.01 168.04 C 308.43 172.47 302.76 174.80 302.93 179.91 C 303.61 182.57 305.87 184.49 307.02 186.97 C 310.21 192.23 310.69 198.69 309.68 204.63 C 306.87 210.38 301.10 214.23 295.12 216.16 C 293.81 215.28 292.48 214.42 291.15 213.59 C 289.43 207.06 294.14 201.83 296.18 196.07 C 294.12 192.28 290.19 190.34 287.02 187.67 C 285.99 181.13 291.89 175.77 290.86 169.24 C 290.00 165.02 286.38 162.34 284.07 158.95 C 281.77 155.06 279.20 150.79 280.00 146.07 C 280.14 140.60 283.78 134.69 280.41 129.60 C 278.86 126.11 274.55 125.50 272.33 122.65 C 270.47 119.74 269.48 116.32 269.09 112.92 C 269.50 106.47 272.22 100.28 276.26 95.27 Z" />
<path fill="#020202" opacity="1.00" d=" M 221.71 101.70 C 222.85 99.89 225.04 99.97 226.93 99.82 C 227.76 106.05 225.14 111.96 224.92 118.12 C 228.59 117.60 232.10 116.24 235.18 114.19 C 238.25 112.24 241.83 109.92 245.61 111.24 C 248.68 111.99 249.80 115.85 248.65 118.55 C 247.13 122.56 244.36 125.93 242.71 129.88 C 248.90 133.48 255.75 127.15 262.09 130.26 C 261.68 138.82 255.78 145.48 252.75 153.12 C 257.60 153.09 262.12 150.96 266.96 150.93 C 269.87 150.80 272.78 150.94 275.65 151.47 C 276.72 154.40 275.07 157.22 273.72 159.73 C 271.88 163.17 268.52 165.43 266.61 168.82 C 271.01 169.20 275.44 168.73 279.83 169.14 C 282.91 169.38 284.09 172.60 284.93 175.11 C 283.57 181.22 279.99 186.48 277.10 191.93 C 277.51 193.35 279.17 193.90 280.14 194.91 C 282.59 196.58 283.88 199.31 284.94 201.98 C 283.54 205.02 282.49 208.62 279.42 210.41 C 276.75 212.19 274.13 214.04 271.67 216.10 C 273.43 220.53 278.47 223.54 278.05 228.73 C 276.73 229.17 275.48 229.94 274.07 230.01 C 269.63 228.32 265.53 224.09 265.91 219.03 C 265.20 213.86 268.18 209.19 268.07 204.11 C 267.30 198.57 260.40 197.12 258.97 191.92 C 260.01 186.47 264.20 182.60 267.36 178.34 C 261.16 178.12 254.15 176.85 250.17 171.59 C 249.71 168.69 251.66 165.97 252.20 163.16 C 247.67 162.74 242.71 163.85 238.59 161.42 C 236.28 160.41 234.65 157.78 235.03 155.26 C 236.46 152.59 239.06 150.41 239.19 147.19 C 234.95 144.47 227.70 146.96 225.57 141.34 C 223.65 136.36 228.04 131.80 229.14 127.08 C 227.02 126.33 224.81 125.93 222.68 125.25 C 217.89 123.25 214.45 117.58 216.42 112.45 C 218.06 108.83 219.40 104.96 221.71 101.70 Z" />
<path fill="#020202" opacity="1.00" d=" M 323.82 113.83 C 331.23 108.20 339.30 102.43 348.97 102.05 C 351.18 101.77 352.37 103.99 353.87 105.21 C 352.64 108.25 351.01 111.37 347.97 112.94 C 343.42 115.51 338.89 118.54 336.00 123.00 C 334.87 124.63 334.67 126.72 335.15 128.60 C 339.22 133.39 346.73 134.64 349.06 140.96 C 347.99 143.12 347.19 145.66 345.02 146.99 C 339.96 150.48 334.04 153.64 331.25 159.41 C 329.69 163.03 333.79 165.07 336.21 166.78 C 339.45 168.54 342.02 171.46 342.88 175.10 C 342.42 178.12 341.57 181.27 339.76 183.77 C 335.76 187.13 330.15 187.35 325.84 190.23 C 325.88 193.64 328.56 196.00 330.72 198.30 C 333.45 201.09 335.47 204.48 337.04 208.04 C 335.61 212.77 330.53 214.77 326.00 214.98 C 321.97 215.12 317.94 214.86 313.92 215.11 C 313.36 220.15 316.71 224.15 318.67 228.45 C 320.46 231.34 316.56 235.59 313.67 233.44 C 309.63 231.97 309.28 227.19 308.36 223.63 C 307.22 218.94 308.07 213.86 311.22 210.12 C 315.23 209.91 319.40 210.38 323.20 208.78 C 322.24 200.91 313.65 196.81 312.98 188.88 C 312.43 185.44 314.55 182.10 317.39 180.33 C 320.16 179.19 323.19 179.03 326.12 178.60 C 325.72 171.30 319.24 166.46 317.10 159.79 C 316.61 156.22 316.93 152.13 319.18 149.18 C 322.33 146.94 326.54 147.20 330.06 145.75 C 329.93 144.12 330.42 142.22 329.18 140.90 C 325.98 136.73 322.40 132.81 319.66 128.32 C 317.58 123.30 319.60 117.13 323.82 113.83 Z" />
<path fill="#020202" opacity="1.00" d=" M 202.46 136.29 C 206.30 134.76 213.66 137.58 211.66 142.55 C 209.27 148.29 205.29 153.21 203.06 159.04 C 203.30 159.53 203.78 160.53 204.03 161.02 C 209.02 159.31 212.85 153.56 218.63 155.14 C 221.08 157.05 222.92 160.45 221.68 163.56 C 220.00 168.68 215.74 172.32 213.67 177.24 C 219.90 176.76 224.58 172.32 230.12 170.06 C 232.36 170.27 234.45 171.47 236.24 172.80 C 238.19 175.96 238.86 180.39 236.55 183.59 C 235.74 185.19 233.76 187.74 236.31 188.84 C 241.20 190.06 245.70 185.94 250.58 187.20 C 252.15 188.43 254.16 189.87 254.08 192.10 C 254.69 198.90 248.93 203.73 246.71 209.65 C 250.70 210.36 256.13 209.42 258.67 213.34 C 260.48 216.92 261.65 220.92 261.91 224.93 C 261.13 230.31 259.29 235.67 256.17 240.15 C 253.45 242.82 250.08 246.14 245.96 244.37 C 246.93 245.63 247.85 246.93 248.78 248.23 C 247.74 251.37 245.84 254.17 243.22 256.20 C 241.29 257.99 238.46 259.18 237.77 261.97 C 245.45 261.81 252.97 259.29 260.68 260.10 C 261.48 261.72 262.26 263.35 262.98 265.01 C 260.95 270.57 256.45 274.57 253.32 279.45 C 252.28 280.82 253.45 283.07 255.19 283.01 C 259.54 283.46 263.34 280.23 267.75 280.94 C 270.20 283.65 270.79 287.60 268.75 290.74 C 266.24 297.50 258.26 300.81 256.79 308.03 C 261.14 307.83 265.42 306.66 269.80 307.00 C 270.64 309.05 271.64 311.35 270.64 313.54 C 268.35 319.32 264.66 324.37 261.79 329.86 C 261.04 331.02 261.04 332.44 260.87 333.77 C 264.05 335.83 267.96 335.84 271.56 336.55 C 273.27 341.25 270.64 346.08 267.25 349.26 C 265.09 351.76 261.99 354.23 261.87 357.77 C 263.58 359.95 266.01 361.51 267.31 364.04 C 265.77 365.94 263.72 368.00 261.12 367.96 C 259.21 367.41 257.32 366.36 256.29 364.62 C 253.40 358.71 258.09 351.89 255.06 345.95 C 253.31 342.26 248.22 343.22 245.69 340.35 C 243.63 338.90 243.84 336.25 243.90 334.03 C 243.82 328.97 250.30 326.36 249.92 321.33 C 247.55 318.66 243.35 318.61 241.23 315.66 C 240.74 312.29 240.65 308.76 241.42 305.42 C 242.85 302.34 245.01 299.62 246.10 296.36 C 242.56 294.52 238.81 292.22 238.13 287.91 C 238.78 283.87 240.37 280.06 241.65 276.20 C 235.37 275.08 227.42 273.74 224.87 266.93 C 225.84 264.42 226.92 261.96 228.03 259.51 C 226.55 259.09 225.08 258.69 223.60 258.31 C 222.87 256.73 221.46 255.10 222.19 253.26 C 223.34 249.78 225.11 246.42 225.10 242.66 C 221.45 244.33 219.15 247.97 215.35 249.39 C 213.45 250.32 211.28 250.03 209.24 250.03 C 208.41 248.72 207.41 247.45 207.03 245.91 C 208.15 241.31 210.76 237.24 212.16 232.73 C 207.56 233.62 204.80 238.09 200.30 239.39 C 197.77 240.87 195.07 239.33 193.02 237.79 C 192.04 231.76 195.41 226.36 195.93 220.48 C 192.25 223.71 189.49 228.07 184.96 230.25 C 183.98 229.40 182.99 228.56 182.00 227.75 C 182.80 221.48 185.55 215.62 186.01 209.30 C 185.53 208.91 184.55 208.14 184.07 207.75 C 179.87 211.09 175.98 216.41 170.04 216.07 C 165.61 216.09 161.01 213.34 160.08 208.80 C 159.70 204.43 160.84 200.08 162.24 195.98 C 164.61 196.08 167.89 195.14 169.23 197.78 C 170.03 200.07 170.41 202.49 171.25 204.77 C 172.20 205.16 173.13 205.61 174.03 206.11 C 180.29 203.96 181.00 194.90 188.02 194.11 C 191.52 195.13 194.66 198.30 195.03 201.98 C 194.23 205.45 192.03 208.40 190.88 211.76 C 191.96 212.15 193.02 212.57 194.07 213.03 C 197.84 211.23 200.96 206.78 205.61 208.14 C 207.89 210.09 208.83 213.62 207.35 216.32 C 205.21 220.68 202.08 224.56 200.77 229.32 C 202.21 228.67 203.99 228.36 204.91 226.94 C 208.31 222.44 211.63 217.15 217.11 215.03 C 220.70 215.36 223.94 218.49 224.81 221.96 C 223.59 226.57 221.14 230.76 219.86 235.36 C 225.36 233.37 229.01 227.86 235.02 226.97 C 236.76 227.03 238.84 227.85 239.43 229.65 C 240.96 233.03 239.50 236.84 237.93 239.93 C 235.81 243.61 234.15 247.52 232.13 251.24 C 236.31 248.88 240.02 245.78 244.31 243.60 C 241.35 239.11 245.61 234.93 246.65 230.59 C 247.51 228.11 246.99 225.45 245.75 223.20 C 240.76 220.92 235.48 223.92 230.32 222.85 C 228.51 221.90 228.94 219.73 228.94 218.05 C 229.20 212.60 232.26 207.94 234.20 203.00 C 229.94 202.35 225.96 203.88 222.18 205.63 C 219.21 204.54 215.94 202.54 215.95 198.96 C 216.54 193.77 219.64 189.31 222.08 184.82 C 218.89 186.37 216.10 188.69 212.77 189.89 C 207.24 190.86 201.58 184.73 203.25 179.28 C 204.18 175.82 205.25 172.37 205.12 168.74 C 202.65 169.71 200.42 171.26 197.88 172.03 C 195.33 172.62 193.72 170.25 192.12 168.75 C 193.51 162.80 195.65 157.06 197.08 151.13 C 197.88 149.10 196.03 147.52 195.12 145.90 C 195.97 141.75 199.26 138.78 202.46 136.29 Z" />
<path fill="#020202" opacity="1.00" d=" M 363.57 190.54 C 376.61 186.19 390.30 184.15 403.95 182.98 C 411.45 182.36 418.77 184.42 426.03 185.99 C 439.14 189.33 449.69 198.74 457.81 209.21 C 464.36 217.85 470.32 227.31 479.20 233.81 C 490.19 243.12 504.26 247.65 515.70 256.31 C 529.31 268.65 540.05 284.23 546.50 301.46 C 548.47 308.03 549.83 314.77 551.63 321.40 C 556.07 340.14 553.74 359.65 549.75 378.26 C 547.80 373.22 545.81 368.18 543.91 363.12 C 540.57 352.41 539.22 341.18 535.44 330.60 C 532.91 320.00 530.72 309.27 526.93 299.02 C 523.88 292.31 520.43 285.77 516.39 279.60 C 513.27 274.85 510.78 269.24 505.53 266.43 C 499.26 261.19 491.37 258.68 484.42 254.57 C 477.64 250.57 471.90 245.12 465.80 240.20 C 457.72 233.62 453.72 223.68 447.21 215.78 C 440.13 208.47 433.04 200.74 423.70 196.30 C 418.56 194.09 412.91 193.56 407.46 192.54 C 400.57 191.21 393.56 192.49 386.78 193.83 C 377.03 196.42 367.02 197.87 357.21 200.19 C 352.52 201.19 347.77 202.27 342.94 201.98 C 342.99 200.72 343.02 199.46 343.02 198.20 C 349.26 194.26 356.50 192.37 363.57 190.54 Z" />
<path fill="#020202" opacity="1.00" d=" M 338.82 207.15 C 347.94 207.16 356.86 204.57 366.00 204.97 C 374.25 205.21 382.53 204.60 390.75 205.27 C 400.72 207.23 411.11 207.50 420.61 211.40 C 428.33 214.83 435.03 220.11 441.24 225.76 C 448.55 233.12 452.30 242.94 457.02 251.98 C 459.23 256.11 459.79 260.93 461.93 265.07 C 468.59 270.38 475.66 275.25 481.77 281.24 C 490.92 291.26 498.43 302.60 506.56 313.43 C 511.56 320.42 518.87 325.12 524.78 331.23 C 528.05 334.46 532.20 336.63 535.36 339.99 C 528.99 339.19 522.46 338.29 516.66 335.36 C 512.38 333.24 507.84 331.68 503.68 329.33 C 496.83 325.44 491.07 319.96 485.76 314.21 C 479.36 306.81 476.68 297.04 470.45 289.53 C 465.25 282.28 457.45 277.69 450.21 272.78 C 445.13 269.07 439.06 267.16 433.70 263.93 C 438.20 274.27 444.17 284.09 446.91 295.13 C 449.30 302.74 452.18 310.19 455.52 317.43 C 459.41 328.17 464.89 338.26 471.32 347.69 C 476.10 357.12 484.17 364.14 490.78 372.22 C 495.98 377.80 499.69 384.55 504.68 390.31 C 513.17 400.67 520.14 412.51 523.40 425.58 C 526.02 439.33 527.41 453.62 524.43 467.43 C 522.84 475.18 522.42 483.56 518.08 490.40 C 521.55 475.27 520.50 459.33 516.58 444.39 C 512.56 432.76 506.72 421.68 498.81 412.21 C 493.25 404.83 485.98 399.02 479.82 392.18 C 473.31 384.61 467.19 376.68 461.60 368.40 C 458.03 362.36 453.92 356.66 450.41 350.59 C 446.80 344.34 445.30 337.19 442.34 330.65 C 439.97 325.46 438.84 319.79 436.31 314.67 C 432.70 307.59 431.19 299.73 428.80 292.21 C 425.87 283.01 423.07 273.73 419.20 264.86 C 416.86 257.19 414.33 249.58 412.06 241.89 C 409.74 235.88 407.63 229.78 406.26 223.47 C 410.18 227.33 413.80 231.48 417.26 235.75 C 420.99 240.29 426.69 242.30 431.38 245.62 C 438.28 250.64 445.81 254.70 453.10 259.12 C 450.48 253.88 447.57 248.75 445.82 243.14 C 443.57 236.42 438.84 230.99 434.10 225.90 C 422.71 218.55 409.83 212.78 396.15 211.76 C 384.80 209.87 373.21 212.15 361.87 210.22 C 354.89 209.59 347.80 210.68 340.90 209.08 C 339.56 209.13 338.86 208.48 338.82 207.15 Z" />
<path fill="#020202" opacity="1.00" d=" M 144.35 209.13 C 146.46 208.90 148.59 208.88 150.71 209.06 C 153.70 212.54 156.55 217.01 155.87 221.81 C 155.23 226.64 154.43 231.45 153.99 236.31 C 159.45 234.35 163.18 229.02 169.02 227.95 C 172.26 228.23 175.04 230.80 176.42 233.66 C 178.77 238.68 173.52 244.23 176.06 249.05 C 179.70 248.34 183.10 246.90 186.46 245.41 C 188.75 243.98 190.59 246.83 191.38 248.65 C 192.68 252.86 191.55 257.38 192.19 261.70 C 193.02 262.67 194.18 263.26 195.38 263.66 C 202.77 265.10 210.70 262.38 217.82 265.20 C 220.39 269.10 218.27 273.50 215.87 276.86 C 213.67 280.62 209.81 282.83 206.47 285.43 C 203.71 287.45 201.09 289.80 197.84 290.99 C 195.46 291.77 194.00 289.62 192.72 288.03 C 195.15 283.15 200.48 280.45 202.39 275.23 C 197.89 275.74 193.41 276.38 188.93 276.95 C 185.97 277.19 182.21 277.32 180.27 274.64 C 178.80 271.31 179.06 267.58 178.84 264.03 C 174.79 265.55 170.05 267.30 165.92 265.08 C 163.94 264.21 163.25 261.92 163.07 259.95 C 162.69 254.17 162.92 248.35 163.73 242.62 C 159.03 243.97 156.68 250.40 151.22 249.00 C 147.54 247.89 146.48 243.56 145.69 240.24 C 143.49 233.12 149.80 225.54 145.72 218.70 C 144.97 221.92 143.89 225.20 140.74 226.81 C 139.55 226.06 138.36 225.33 137.14 224.65 C 136.98 222.10 136.44 219.24 138.03 217.01 C 139.91 214.21 142.15 211.68 144.35 209.13 Z" />
<path fill="#020202" opacity="1.00" d=" M 320.84 237.26 C 327.51 224.20 341.45 215.12 356.01 213.98 C 365.60 214.82 376.03 215.84 383.70 222.31 C 387.34 225.65 390.97 229.07 394.01 232.98 C 401.03 243.49 404.66 255.76 408.20 267.77 C 410.54 280.41 412.88 293.14 413.13 306.03 C 413.86 316.42 415.93 326.65 417.00 337.00 C 417.48 342.05 418.95 346.92 420.23 351.80 C 422.15 358.29 423.49 365.09 427.04 370.95 C 431.89 378.86 437.43 386.42 444.25 392.76 C 449.42 398.25 455.49 402.99 459.66 409.36 C 467.97 420.30 473.50 433.20 476.46 446.59 C 478.79 453.84 477.82 461.52 478.02 469.00 C 478.67 482.50 474.20 495.50 470.22 508.20 C 466.46 521.84 464.50 535.92 463.09 549.97 C 463.11 559.65 461.78 569.92 466.01 578.97 C 468.29 583.95 473.14 587.03 478.08 588.92 C 482.65 590.71 487.64 589.72 492.42 590.11 C 488.43 592.57 483.95 594.02 479.56 595.55 C 474.79 596.82 469.69 595.65 465.26 593.74 C 462.01 592.43 460.38 589.16 458.52 586.44 C 454.91 581.26 454.49 574.77 453.27 568.76 C 451.44 549.88 456.73 531.39 458.67 512.74 C 459.65 501.41 460.86 490.09 462.82 478.88 C 463.75 461.88 461.83 443.94 452.95 429.06 C 444.36 414.16 431.39 402.53 421.13 388.87 C 412.50 376.53 405.38 362.66 403.39 347.57 C 400.73 335.25 402.72 322.59 401.78 310.14 C 400.62 303.46 401.31 296.63 400.18 289.95 C 399.81 278.42 396.82 267.18 392.46 256.55 C 390.13 249.56 384.97 244.14 380.58 238.40 C 377.93 234.88 373.85 232.92 370.03 230.95 C 360.91 225.79 349.67 226.01 339.85 228.86 C 333.11 230.70 327.37 234.89 320.84 237.26 Z" />
<path fill="#020202" opacity="1.00" d=" M 284.98 220.20 C 285.07 218.56 286.84 217.83 287.91 216.85 C 294.94 219.39 300.30 226.42 300.02 234.00 C 300.07 236.44 299.71 239.50 302.35 240.77 C 306.80 241.60 312.18 239.67 315.80 243.20 C 319.81 246.38 319.52 252.10 318.63 256.61 C 317.34 261.58 311.82 264.61 311.89 269.96 C 315.01 270.13 318.11 269.80 321.20 269.39 C 324.83 269.01 327.60 271.76 330.44 273.56 C 336.81 274.66 343.85 275.39 348.40 280.57 C 353.77 283.79 355.14 290.11 357.59 295.40 C 359.42 299.35 358.99 303.78 359.03 308.00 C 358.95 312.81 359.32 317.67 358.45 322.43 C 356.44 334.00 355.10 345.66 353.29 357.26 C 352.65 363.82 353.16 370.43 352.97 377.01 C 352.67 388.46 356.77 399.60 362.89 409.13 C 370.68 418.44 380.82 425.31 390.44 432.56 C 397.33 437.58 405.37 441.46 410.48 448.53 C 414.16 453.21 418.59 457.44 421.06 462.96 C 422.88 466.54 423.64 470.52 424.67 474.38 C 426.75 481.38 425.98 488.77 425.92 495.97 C 424.75 505.31 422.51 514.51 421.84 523.93 C 420.97 531.60 419.56 539.24 419.96 547.00 C 420.15 556.02 420.87 565.21 424.34 573.64 C 426.37 580.80 431.27 586.69 437.06 591.20 C 436.15 584.16 435.92 577.07 435.07 570.02 C 434.82 561.69 435.09 553.34 434.99 545.00 C 435.00 539.86 434.71 534.68 435.56 529.59 C 436.50 523.62 435.45 517.53 436.55 511.58 C 437.39 506.50 436.65 501.34 437.30 496.25 C 438.59 487.55 438.10 478.70 437.12 469.99 C 437.16 464.85 435.21 460.05 433.77 455.20 C 431.95 449.38 427.88 444.43 422.64 441.34 C 413.98 434.41 402.97 430.92 395.25 422.74 C 390.38 417.22 385.97 410.96 384.27 403.67 C 379.72 389.31 375.85 374.74 373.20 359.91 C 372.82 351.69 371.11 343.48 372.32 335.25 C 373.88 326.76 372.15 318.08 373.55 309.58 C 374.11 305.94 374.07 302.21 373.47 298.58 C 372.39 291.41 372.25 283.82 368.70 277.31 C 366.34 272.82 364.43 267.89 360.71 264.31 C 356.90 260.91 352.30 258.64 347.95 256.04 C 339.70 251.15 329.80 251.03 320.71 248.72 C 332.58 241.80 347.50 241.26 360.31 245.68 C 372.36 252.47 379.99 265.75 381.77 279.26 C 384.06 289.02 385.70 298.94 386.18 308.96 C 387.69 319.24 386.78 329.65 386.97 340.00 C 386.64 346.05 388.09 351.99 388.05 358.03 C 388.65 371.48 393.15 384.39 398.33 396.69 C 402.80 405.32 409.11 413.50 417.77 418.24 C 424.58 422.61 431.50 426.99 437.21 432.77 C 441.95 438.59 446.75 444.63 449.11 451.87 C 451.13 458.41 453.16 465.09 453.05 472.02 C 452.99 476.21 454.35 480.37 453.62 484.56 C 451.62 496.67 450.87 508.94 449.11 521.08 C 447.74 531.68 447.20 542.36 446.07 552.98 C 445.91 569.19 445.47 585.54 448.37 601.55 C 450.53 604.09 453.61 605.66 455.69 608.30 C 460.41 614.08 465.21 620.04 467.88 627.10 C 470.45 634.12 470.01 641.68 470.05 649.02 C 470.29 656.33 467.74 663.32 465.22 670.07 C 469.39 679.05 472.96 688.40 479.09 696.30 C 471.97 691.20 466.39 684.38 461.43 677.22 C 458.73 682.64 454.51 687.01 450.38 691.36 C 447.17 695.58 443.48 699.48 438.89 702.22 C 444.03 693.12 449.49 684.15 453.48 674.46 C 454.23 672.35 455.73 670.40 455.81 668.13 C 454.27 661.69 449.98 656.37 447.89 650.14 C 444.43 639.33 442.47 628.13 439.94 617.09 C 438.89 613.06 439.05 608.25 435.76 605.24 C 427.71 596.95 418.58 589.41 412.68 579.32 C 410.12 574.32 407.13 569.39 406.19 563.77 C 404.97 557.25 403.76 550.66 403.97 544.00 C 404.10 536.95 403.55 529.85 404.75 522.86 C 405.17 516.56 404.78 510.22 405.82 503.96 C 405.85 496.48 408.06 488.99 406.47 481.54 C 405.26 475.66 402.95 470.04 400.38 464.63 C 398.25 459.73 393.79 456.55 390.26 452.75 C 387.74 450.25 385.93 447.10 383.15 444.87 C 372.73 436.99 362.49 428.87 352.32 420.66 C 349.16 417.49 346.35 413.97 343.46 410.56 C 340.16 404.49 338.37 397.67 337.14 390.90 C 336.09 376.82 339.47 362.93 340.99 349.00 C 341.59 342.99 343.05 337.06 342.97 330.99 C 342.80 324.89 345.40 319.11 345.01 313.00 C 344.53 308.01 346.90 302.91 344.96 298.09 C 343.82 294.74 342.54 291.39 340.58 288.43 C 338.36 286.09 335.42 284.61 332.79 282.80 C 330.77 284.84 330.65 287.90 329.33 290.35 C 327.78 294.24 324.63 297.41 323.84 301.61 C 326.55 302.46 329.31 303.16 332.09 303.75 C 332.24 298.98 330.93 294.34 331.03 289.58 C 336.42 295.87 337.87 304.40 339.73 312.22 C 340.55 322.47 340.14 332.87 337.94 342.94 C 335.34 353.87 333.51 364.97 330.91 375.90 C 329.73 383.54 328.79 391.26 328.97 399.00 C 327.92 416.40 336.91 433.00 349.23 444.76 C 355.46 450.60 362.91 454.97 368.83 461.15 C 373.88 464.76 377.42 469.89 381.67 474.33 C 384.48 477.91 386.61 481.97 389.53 485.48 C 394.89 495.04 395.23 506.30 397.17 516.85 C 399.19 526.99 397.47 537.32 396.46 547.46 C 395.99 552.34 393.82 556.78 392.48 561.44 C 391.06 566.69 388.29 571.41 385.98 576.30 C 385.61 569.69 388.85 563.59 388.94 557.02 C 388.84 550.32 390.42 543.72 390.05 537.00 C 390.45 528.93 388.93 520.95 386.82 513.19 C 385.14 505.60 382.69 498.07 378.52 491.46 C 374.32 485.76 369.67 480.20 363.64 476.36 C 354.95 470.59 347.00 463.74 339.73 456.27 C 328.97 446.12 321.46 432.75 317.39 418.60 C 313.59 402.11 312.53 384.78 316.21 368.19 C 319.45 359.98 323.05 351.89 326.94 343.97 C 329.30 337.45 330.61 330.59 331.78 323.77 C 328.68 326.67 325.85 329.85 322.74 332.74 C 320.11 335.26 316.42 336.45 314.16 339.39 C 313.28 343.13 315.50 346.61 316.16 350.20 C 312.10 350.05 308.38 346.16 308.88 342.02 C 308.51 337.92 309.79 333.70 312.72 330.76 C 315.92 327.54 319.98 325.00 322.04 320.80 C 322.25 315.97 317.61 312.97 313.67 311.33 C 309.86 309.77 305.54 307.41 304.94 302.90 C 304.38 299.88 306.24 297.28 308.24 295.24 C 310.62 292.76 312.60 289.94 314.20 286.90 C 311.19 282.65 305.77 281.40 302.19 277.80 C 298.43 274.34 297.70 268.85 297.94 264.00 C 297.77 259.67 301.72 257.09 304.13 254.05 C 300.95 253.12 297.61 253.13 294.37 252.59 C 290.70 251.55 288.60 247.92 287.32 244.58 C 285.79 240.04 289.75 235.80 288.88 231.25 C 287.59 227.58 284.48 224.33 284.98 220.20 M 449.93 619.82 C 449.47 625.49 451.94 630.74 452.72 636.26 C 453.54 642.29 455.40 648.09 457.11 653.91 C 457.65 655.19 457.77 657.23 459.64 657.06 C 460.79 651.58 462.94 646.01 461.66 640.36 C 459.92 632.52 455.27 625.67 449.93 619.82 Z" />
<path fill="#020202" opacity="1.00" d=" M 266.92 236.91 C 270.38 235.97 274.10 235.47 277.64 236.27 C 280.76 237.06 281.96 240.41 282.92 243.11 C 281.64 248.63 278.08 253.34 274.85 257.90 C 273.63 259.24 274.03 261.10 273.94 262.74 C 278.51 266.99 284.70 263.84 289.95 263.08 C 291.34 265.10 292.33 267.46 292.08 269.97 C 291.55 278.41 286.71 286.11 287.00 294.65 C 291.51 298.15 298.21 299.93 299.97 305.97 C 297.43 313.09 291.16 318.82 290.97 326.71 C 294.78 329.30 299.09 330.95 303.32 332.72 C 305.79 333.64 308.03 336.16 307.90 338.85 C 305.11 348.17 296.01 353.37 287.42 356.43 C 285.12 357.44 283.04 355.36 280.98 354.63 C 280.30 349.68 285.35 346.96 287.25 342.95 C 283.67 339.08 278.74 336.04 277.02 330.79 C 276.45 324.19 280.78 318.51 284.64 313.59 C 280.94 306.93 274.06 301.82 273.01 293.88 C 272.92 288.69 276.81 284.35 277.00 279.17 C 274.54 273.77 266.88 272.69 265.14 266.77 C 264.67 265.36 263.80 263.88 264.34 262.37 C 265.74 257.51 268.47 253.18 270.94 248.81 C 265.94 249.01 260.23 252.91 255.93 248.74 C 256.02 246.91 255.48 244.54 257.40 243.45 C 260.43 241.10 263.01 237.80 266.92 236.91 Z" />
<path fill="#020202" opacity="1.00" d=" M 120.93 268.97 C 120.85 262.67 125.76 257.46 131.24 255.06 C 134.89 254.20 138.86 256.19 140.41 259.59 C 142.70 263.25 141.79 267.72 142.16 271.80 C 143.06 272.09 143.95 272.43 144.83 272.82 C 148.00 270.53 149.41 266.68 152.34 264.18 C 154.95 263.90 158.35 264.91 159.43 267.59 C 162.20 272.37 160.55 278.09 161.13 283.31 C 164.52 282.23 166.80 279.45 169.52 277.35 C 172.66 275.66 175.62 278.31 177.05 280.97 C 179.96 285.18 178.74 290.49 179.17 295.26 C 183.05 294.80 184.92 289.99 189.19 290.89 C 187.92 297.92 181.15 301.91 176.10 306.21 C 174.05 308.30 170.40 306.45 170.11 303.82 C 169.85 300.42 170.05 297.02 169.82 293.62 C 165.65 296.56 161.66 300.64 156.08 300.08 C 160.79 303.75 163.97 309.27 164.99 315.13 C 165.86 319.24 162.98 322.80 160.05 325.30 C 155.85 323.19 153.43 318.99 150.41 315.59 C 147.76 312.51 149.98 308.38 149.99 304.83 C 145.05 304.34 144.92 309.81 144.20 313.26 C 144.05 316.03 141.38 317.34 139.65 319.13 C 141.98 322.91 147.17 322.22 149.91 325.35 C 150.90 327.97 147.96 329.08 146.34 330.41 C 141.99 332.98 142.83 340.15 137.62 341.73 C 132.84 342.85 128.20 340.48 123.55 339.69 C 118.98 339.07 115.46 334.88 115.58 330.28 C 114.17 326.36 117.23 323.21 118.85 319.96 C 119.96 317.96 117.46 315.78 118.75 313.77 C 120.10 310.80 120.90 307.65 121.52 304.46 C 122.89 299.13 127.63 295.68 132.04 292.88 C 135.36 294.89 137.76 298.21 141.39 299.73 C 145.06 300.40 148.75 299.15 152.42 298.89 C 151.80 293.19 152.14 287.46 151.83 281.75 C 146.39 282.79 143.88 288.53 139.26 291.04 C 138.27 289.90 137.12 288.86 136.38 287.53 C 134.57 280.27 135.79 272.05 131.19 265.66 C 129.71 268.88 128.90 272.34 127.59 275.61 C 126.84 277.77 124.06 276.98 122.34 276.93 C 120.02 275.03 121.12 271.59 120.93 268.97 M 154.25 299.25 C 154.79 299.79 154.79 299.79 154.25 299.25 M 127.47 311.84 C 130.91 310.49 134.37 309.11 138.04 308.51 C 138.14 306.60 138.04 304.64 136.06 303.76 C 132.47 305.56 129.56 308.44 127.47 311.84 M 125.01 325.21 C 124.25 328.37 126.49 331.08 128.56 333.17 C 129.59 329.64 130.49 325.90 133.21 323.24 C 135.14 321.61 135.14 319.07 135.13 316.76 C 131.03 318.31 126.23 320.59 125.01 325.21 Z" />
<path fill="#020202" opacity="1.00" d=" M 218.90 277.79 C 219.90 276.69 221.43 276.99 222.75 276.90 C 226.96 283.42 226.34 292.24 223.03 299.03 C 222.14 301.02 220.87 304.25 223.35 305.61 C 226.37 308.34 230.69 309.57 233.11 312.93 C 235.76 319.44 232.79 326.38 231.08 332.75 C 233.06 333.91 235.03 335.12 237.00 336.32 C 236.98 336.88 236.93 338.02 236.90 338.59 C 234.72 339.66 232.63 341.15 230.19 341.51 C 228.59 341.02 227.05 340.27 225.74 339.23 C 223.29 334.31 224.46 328.63 223.74 323.37 C 222.19 320.40 218.32 321.39 215.67 320.28 C 210.75 319.03 207.81 313.86 207.90 309.01 C 207.50 304.13 210.21 299.71 210.08 294.86 C 205.83 294.56 202.03 296.54 198.42 298.50 C 196.37 299.69 193.78 299.13 192.60 297.04 C 196.02 292.39 201.49 290.18 206.30 287.33 C 210.93 284.76 214.92 281.25 218.90 277.79 Z" />
<path fill="#020202" opacity="1.00" d=" M 177.31 315.40 C 179.99 309.41 184.46 304.14 190.12 300.76 C 194.62 303.49 193.62 309.24 194.27 313.68 C 197.48 317.22 202.70 316.46 206.74 318.25 C 209.25 320.83 210.04 324.75 209.41 328.23 C 208.92 331.23 209.37 334.80 207.24 337.24 C 203.65 339.87 198.97 340.33 194.66 340.00 C 196.02 337.01 198.34 334.61 199.88 331.74 C 199.94 329.62 200.95 326.51 198.65 325.27 C 195.85 324.97 193.03 325.00 190.22 324.87 C 188.60 322.28 187.23 319.54 185.71 316.89 C 183.62 317.14 182.29 318.91 180.79 320.19 C 178.75 319.82 176.01 317.64 177.31 315.40 Z" />
<path fill="#020202" opacity="1.00" d=" M 96.29 315.28 C 98.67 313.79 101.63 313.71 104.20 314.75 C 107.17 315.34 107.79 318.71 108.98 321.01 C 107.77 323.86 106.43 327.04 103.34 328.31 C 98.62 330.93 91.92 333.64 91.91 340.02 C 91.41 343.78 93.17 349.34 97.75 349.13 C 98.93 345.70 98.86 341.41 102.23 339.21 C 104.95 337.34 108.82 334.98 112.04 336.93 C 114.00 337.85 115.64 339.30 117.24 340.74 C 120.36 344.16 125.94 342.42 129.17 345.82 C 133.62 352.00 135.78 360.40 132.64 367.63 C 130.23 373.06 126.59 378.45 121.07 381.07 C 118.50 382.43 115.51 382.03 112.72 381.96 C 112.78 378.08 117.07 376.83 118.88 373.89 C 121.93 369.56 125.25 364.71 125.09 359.20 C 122.47 359.10 119.85 358.93 117.23 358.86 C 116.11 356.53 114.98 354.21 113.75 351.95 C 108.21 351.07 104.64 356.14 99.91 357.93 C 95.64 360.18 90.73 357.42 87.67 354.34 C 83.64 350.71 82.83 345.00 82.17 339.91 C 82.59 330.18 86.99 319.58 96.29 315.28 Z" />
<path fill="#020202" opacity="1.00" d=" M 491.62 342.80 C 498.66 344.91 504.40 349.69 510.72 353.26 C 517.06 356.65 522.80 361.09 528.26 365.75 C 533.66 371.34 539.72 376.41 544.17 382.85 C 549.47 390.38 554.44 398.14 558.67 406.32 C 561.08 411.56 562.41 417.21 564.39 422.61 C 567.84 431.70 568.69 441.47 569.90 451.04 C 570.21 458.69 569.90 466.35 570.04 474.01 C 570.24 484.50 566.97 494.59 565.94 504.97 C 564.16 514.90 561.65 524.84 561.98 535.00 C 562.14 543.32 561.80 551.65 562.11 559.97 C 563.26 569.52 564.60 579.31 569.00 588.00 C 571.13 592.17 572.39 596.70 573.87 601.13 C 577.88 612.76 582.65 624.12 587.72 635.31 C 593.30 644.39 599.07 653.35 604.46 662.54 C 609.89 670.85 612.26 680.70 613.57 690.42 C 614.07 694.76 615.33 699.13 614.60 703.54 C 613.26 714.01 613.18 724.76 609.90 734.89 C 608.07 740.51 606.02 746.07 603.39 751.38 C 600.88 756.88 595.72 760.39 591.79 764.79 C 588.86 768.12 584.87 770.12 581.18 772.45 C 580.26 778.35 582.40 784.12 582.05 790.02 C 580.84 805.75 578.95 821.66 573.57 836.58 C 568.99 845.92 565.58 855.93 559.40 864.40 C 554.67 870.93 549.78 877.38 544.25 883.25 C 538.67 888.00 533.14 892.82 527.47 897.46 C 523.26 901.05 517.94 902.75 512.98 905.00 C 507.41 907.46 501.31 908.19 495.41 909.45 C 491.12 910.58 486.79 908.87 482.95 907.08 C 473.72 903.18 467.18 891.86 471.05 882.06 C 473.95 875.87 479.00 870.74 485.09 867.62 C 483.02 873.16 481.33 878.90 481.21 884.86 C 481.47 887.89 483.23 890.91 486.36 891.67 C 492.34 893.02 498.38 891.16 503.92 888.97 C 510.33 887.01 515.77 882.98 521.14 879.12 C 538.17 864.47 550.44 844.51 555.68 822.65 C 559.16 809.86 562.73 797.03 563.81 783.77 C 553.39 787.74 544.69 795.12 537.34 803.33 C 533.48 808.76 529.86 814.47 527.86 820.87 C 525.57 826.94 525.75 833.54 526.12 839.91 C 527.29 847.74 533.36 853.25 538.02 859.18 C 529.63 858.78 521.06 854.86 515.81 848.18 C 511.14 841.81 511.83 833.48 512.08 826.03 C 512.95 818.32 514.68 810.67 517.40 803.40 C 520.14 796.10 525.27 790.11 530.17 784.18 C 539.37 772.10 552.55 764.13 564.77 755.48 C 565.72 749.62 563.75 743.84 563.92 737.98 C 563.15 729.87 561.34 721.90 560.15 713.85 C 558.49 701.68 554.78 689.93 552.01 677.99 C 550.15 669.16 546.16 661.01 543.63 652.38 C 540.49 642.27 536.14 632.57 533.79 622.21 C 531.64 613.21 530.75 603.98 529.20 594.87 C 528.65 583.17 528.83 571.43 530.23 559.79 C 530.61 559.92 531.37 560.19 531.75 560.32 C 532.93 564.42 532.71 568.82 534.20 572.85 C 538.34 584.60 539.76 597.04 543.00 609.03 C 544.28 614.43 546.92 619.38 548.22 624.78 C 553.53 647.06 561.12 668.72 567.24 690.78 C 570.30 700.79 572.27 711.08 574.75 721.24 C 576.50 728.86 577.00 736.72 578.99 744.29 C 586.12 737.26 590.74 728.11 593.60 718.60 C 595.41 711.44 596.90 703.93 595.45 696.56 C 594.01 689.11 594.26 681.17 590.77 674.27 C 587.96 668.20 586.34 661.65 583.30 655.69 C 580.40 650.58 576.95 645.76 574.72 640.29 C 569.22 627.05 563.44 613.91 558.65 600.39 C 553.87 584.94 549.01 569.51 545.19 553.79 C 540.37 536.94 536.52 519.82 533.46 502.58 C 533.10 497.52 531.00 492.76 530.94 487.67 C 533.45 492.53 535.97 497.45 537.22 502.81 C 538.26 507.31 540.87 511.18 542.49 515.46 C 545.05 523.97 548.25 532.31 551.82 540.44 C 552.22 529.95 551.86 519.45 551.99 508.96 C 552.73 495.63 555.49 482.40 555.00 469.00 C 554.89 460.98 555.47 452.92 554.15 444.96 C 553.43 426.53 550.71 407.34 540.39 391.60 C 535.81 385.55 530.91 379.75 526.13 373.86 C 524.34 371.66 522.24 369.72 520.00 367.99 C 516.04 364.99 512.95 361.02 509.00 358.01 C 506.18 355.85 503.76 353.23 501.23 350.76 C 498.29 347.77 494.26 346.10 491.62 342.80 Z" />
<path fill="#020202" opacity="1.00" d=" M 104.79 356.77 C 111.30 353.51 118.07 361.97 115.13 368.06 C 114.19 373.25 108.01 372.95 103.97 373.27 C 103.99 374.73 103.86 376.21 104.14 377.66 C 106.26 380.10 108.55 382.40 110.31 385.15 C 108.74 387.45 103.84 387.98 105.17 391.53 C 106.94 393.55 109.74 394.71 110.72 397.35 C 111.91 401.90 110.57 406.91 107.32 410.29 C 105.32 412.77 101.78 411.72 99.02 412.21 C 99.02 412.67 99.03 413.60 99.04 414.06 C 103.58 414.14 108.65 412.32 112.66 415.34 C 113.73 416.83 114.60 418.77 113.83 420.60 C 111.88 423.22 108.92 424.86 105.90 425.95 C 102.26 427.34 98.65 424.99 95.19 424.05 C 93.59 426.02 90.95 428.64 92.56 431.34 C 93.34 433.48 95.58 434.85 97.80 434.96 C 101.39 432.57 105.18 429.50 109.79 430.00 C 113.15 431.01 115.34 435.09 113.44 438.35 C 111.74 443.21 105.55 442.40 102.41 445.64 C 105.06 445.56 107.80 444.65 110.41 445.49 C 114.15 446.33 116.19 449.95 118.01 452.99 C 119.55 455.39 117.23 457.95 115.80 459.79 C 113.85 461.88 113.31 464.80 113.09 467.56 C 116.88 469.94 120.30 473.33 120.79 478.02 C 119.83 481.00 117.87 484.81 114.17 484.46 C 109.54 484.78 107.28 480.05 105.35 476.62 C 104.37 472.18 105.21 467.58 105.75 463.13 C 102.98 460.30 97.51 459.46 97.11 454.89 C 96.62 450.70 95.35 446.66 94.52 442.54 C 90.40 439.34 84.81 436.54 84.09 430.77 C 82.97 424.97 87.71 420.51 91.70 417.10 C 89.72 413.11 91.15 407.70 87.33 404.73 C 85.95 407.85 84.12 410.80 83.20 414.10 C 84.03 417.76 86.35 421.65 83.93 425.25 C 81.03 424.42 78.15 422.71 77.29 419.63 C 75.80 414.24 78.73 409.09 80.11 404.01 C 78.23 401.54 75.78 399.55 74.01 397.00 C 70.18 390.28 70.09 381.72 73.95 374.98 C 76.36 370.49 78.66 363.25 84.96 363.88 C 89.75 363.77 92.22 368.78 96.48 370.19 C 97.56 365.01 99.20 358.73 104.79 356.77 M 107.21 364.16 C 105.87 364.86 105.85 365.53 107.14 366.19 C 108.47 365.50 108.49 364.82 107.21 364.16 M 88.42 371.97 C 87.25 374.35 86.04 376.70 85.00 379.14 C 87.89 377.42 91.59 376.32 93.29 373.20 C 91.70 372.65 90.08 372.20 88.42 371.97 M 79.26 384.39 C 78.67 388.23 78.03 393.09 81.97 395.36 C 80.62 390.40 81.24 385.39 83.06 380.65 C 81.72 381.81 80.32 382.95 79.26 384.39 M 89.51 387.59 C 88.25 390.91 90.29 394.19 91.38 397.25 C 94.49 395.48 96.86 392.75 99.55 390.45 C 98.44 387.38 96.93 384.47 95.12 381.77 C 92.94 383.35 89.93 384.58 89.51 387.59 M 98.95 400.26 C 98.99 401.39 99.02 402.53 99.03 403.67 C 100.02 404.09 101.00 404.54 101.97 405.03 C 103.31 403.16 103.94 401.04 102.93 398.87 C 101.60 399.33 100.28 399.80 98.95 400.26 M 109.25 453.25 C 109.79 453.78 109.79 453.78 109.25 453.25 Z" />
<path fill="#020202" opacity="1.00" d=" M 177.19 409.16 C 183.63 407.31 190.41 408.07 197.02 408.03 C 205.12 408.82 213.16 410.47 220.88 413.08 C 227.32 415.11 234.09 416.04 240.33 418.67 C 243.56 419.86 245.58 423.49 244.98 426.87 C 244.22 431.08 242.55 435.08 240.65 438.90 C 234.75 439.94 229.34 437.00 224.03 434.94 C 219.61 432.80 214.71 431.92 210.32 429.70 C 200.27 424.87 189.24 421.62 178.00 421.98 C 170.79 422.25 163.39 421.12 156.39 423.37 C 150.98 424.57 145.26 426.80 139.77 424.78 C 140.85 420.94 144.93 419.53 148.27 418.25 C 152.88 416.59 157.20 414.14 161.98 412.96 C 167.05 411.69 172.14 410.49 177.19 409.16 Z" />
<path fill="#020202" opacity="1.00" d=" M 134.89 433.59 C 135.24 433.84 135.94 434.33 136.30 434.58 C 140.51 441.36 143.41 449.42 150.08 454.29 C 148.01 450.63 145.02 447.55 143.28 443.71 C 141.78 440.59 141.19 437.14 140.87 433.73 C 142.92 437.33 144.87 441.21 148.38 443.64 C 153.75 447.52 160.28 450.18 166.99 450.03 C 175.03 450.22 182.97 451.70 191.00 452.07 C 201.10 452.80 211.03 455.18 220.59 458.43 C 226.99 461.59 233.17 465.73 237.47 471.54 C 240.48 475.22 244.12 478.42 246.63 482.52 C 247.35 483.81 246.93 485.37 247.08 486.79 C 244.03 488.71 240.31 488.76 237.05 490.12 C 231.22 492.66 225.00 494.13 218.90 495.83 C 207.24 496.06 194.86 497.19 184.00 492.02 C 178.05 489.74 171.82 488.06 166.40 484.59 C 158.92 480.34 153.32 473.65 146.52 468.51 C 138.74 464.23 131.07 457.72 128.80 448.78 C 131.24 450.82 133.33 453.20 135.43 455.59 C 138.44 458.40 141.84 460.78 145.26 463.07 C 140.15 457.58 133.69 451.92 133.89 443.70 C 138.80 450.34 142.87 458.00 150.43 462.07 C 143.45 453.84 136.22 444.66 134.89 433.59 M 154.12 468.34 C 161.24 478.39 173.06 483.49 184.21 487.73 C 191.71 489.53 199.15 492.42 206.99 492.07 C 213.94 492.18 221.02 491.27 227.44 488.49 C 232.29 486.79 236.86 484.16 242.05 483.64 C 239.31 480.81 236.48 478.04 234.10 474.89 C 230.07 469.83 224.96 465.71 219.23 462.73 C 218.99 466.57 219.23 470.67 217.10 474.07 C 214.56 480.07 207.86 482.68 201.89 483.74 C 197.15 483.24 192.05 481.94 188.68 478.34 C 183.27 473.67 182.48 465.57 183.77 458.93 C 173.47 460.44 163.32 463.42 154.12 468.34 M 187.98 459.12 C 187.93 464.63 188.51 470.59 191.76 475.23 C 198.05 481.81 210.52 479.06 213.88 470.78 C 214.25 467.40 214.53 463.50 212.27 460.68 C 204.55 457.75 196.04 459.28 187.98 459.12 Z" />
<path fill="#020202" opacity="1.00" d=" M 492.14 446.57 C 495.23 452.01 497.09 458.05 498.99 463.98 C 501.60 475.62 505.92 486.78 508.62 498.39 C 513.01 516.27 516.63 534.37 518.34 552.73 C 518.99 560.82 520.32 568.87 520.02 577.01 C 519.90 591.01 520.15 605.02 519.91 619.02 C 518.95 627.10 518.74 635.26 517.27 643.28 C 513.61 660.67 509.23 677.93 503.83 694.87 C 500.14 703.31 496.57 711.85 491.74 719.72 C 486.75 728.03 482.67 736.94 476.43 744.44 C 467.66 756.82 457.12 767.77 447.22 779.22 C 435.93 791.10 425.54 804.82 421.79 821.07 C 430.26 816.01 437.51 809.24 445.56 803.58 C 452.66 798.01 460.34 793.14 466.84 786.84 C 473.80 781.18 479.90 774.56 486.19 768.18 C 493.83 758.46 501.53 748.74 508.57 738.58 C 512.26 731.39 516.58 724.36 518.46 716.42 C 520.21 710.24 522.79 704.28 523.93 697.93 C 524.99 692.03 526.61 686.24 527.33 680.29 C 528.47 673.59 527.90 666.76 528.01 660.00 C 527.89 653.38 528.32 646.73 527.78 640.13 C 527.20 636.27 526.75 632.38 527.06 628.49 C 529.62 634.31 530.53 640.68 532.19 646.78 C 535.06 661.91 538.33 677.26 536.70 692.74 C 534.22 707.80 532.75 723.34 526.44 737.43 C 522.40 748.96 515.93 759.37 509.91 769.94 C 507.51 773.78 504.35 777.06 501.83 780.82 C 499.39 784.68 495.15 786.79 492.26 790.25 C 481.13 803.33 472.58 818.79 468.48 835.52 C 464.59 845.63 463.09 856.43 460.96 867.00 C 459.19 875.90 460.33 885.01 459.97 894.02 C 459.48 903.91 463.56 913.16 466.70 922.32 C 470.63 929.93 476.98 936.34 484.50 940.47 C 491.40 943.48 498.98 946.36 506.61 944.61 C 512.25 942.98 515.80 937.80 517.53 932.47 C 519.48 928.48 518.88 923.97 519.17 919.70 C 521.90 920.47 521.89 923.91 523.01 926.09 C 525.74 932.16 525.79 939.28 523.56 945.51 C 516.14 958.96 498.67 964.68 484.22 960.83 C 478.82 960.07 474.29 956.94 469.66 954.31 C 466.18 952.25 463.63 949.03 460.72 946.29 C 455.76 941.90 453.16 935.67 449.97 930.01 C 444.50 919.60 441.67 908.09 439.44 896.61 C 438.67 890.58 437.32 884.49 438.38 878.40 C 439.62 869.57 439.61 860.51 441.94 851.87 C 444.37 845.71 445.39 839.09 447.96 832.98 C 451.23 824.87 455.15 817.00 460.10 809.80 C 456.17 812.94 452.91 816.81 449.24 820.24 C 442.15 826.14 435.70 832.76 428.33 838.34 C 425.07 841.09 421.49 843.48 418.40 846.43 C 415.49 851.21 415.94 857.13 414.38 862.39 C 411.30 874.14 408.85 886.05 405.74 897.79 C 401.62 908.11 397.54 918.50 392.34 928.35 C 389.82 933.33 386.27 937.70 383.74 942.68 C 382.81 944.51 384.33 946.42 384.58 948.28 C 386.54 957.71 390.69 967.47 399.03 972.95 C 404.28 976.00 410.35 978.90 416.59 977.64 C 420.94 976.71 425.80 976.39 429.28 973.29 C 431.96 971.00 435.26 969.09 436.71 965.72 C 438.41 961.94 439.00 957.79 439.75 953.76 C 440.75 948.05 439.20 942.38 438.22 936.79 C 441.83 940.22 445.81 943.56 447.74 948.30 C 450.29 954.27 451.86 961.00 450.49 967.47 C 449.51 972.88 447.54 978.12 444.95 982.96 C 439.12 989.37 431.65 994.93 422.73 995.77 C 412.21 998.62 401.33 994.22 392.67 988.34 C 381.78 980.96 377.03 967.94 373.57 955.82 C 369.28 957.43 366.43 961.19 362.80 963.82 C 356.62 969.30 348.58 971.71 341.29 975.28 C 328.94 980.19 314.56 980.23 302.48 974.50 C 297.70 971.21 294.02 966.22 292.10 960.77 C 290.85 954.11 295.16 948.00 300.48 944.48 C 299.96 950.84 298.86 957.88 302.33 963.65 C 310.18 970.82 321.76 969.07 331.29 967.24 C 338.26 964.32 345.79 962.46 352.03 958.03 C 359.19 953.37 365.96 947.78 370.57 940.50 C 372.52 932.23 368.91 923.85 370.51 915.57 C 371.63 907.87 371.88 900.06 373.42 892.42 C 375.76 881.44 380.28 871.12 384.97 860.98 C 388.50 853.86 393.10 847.30 398.27 841.28 C 400.86 838.22 404.85 835.96 405.71 831.77 C 406.90 826.62 409.35 821.90 410.90 816.87 C 418.35 798.01 431.42 782.27 442.62 765.61 C 451.81 752.79 460.82 739.84 469.96 726.98 C 477.93 714.52 484.52 701.27 490.95 687.98 C 493.54 681.75 495.60 675.31 498.01 669.01 C 501.03 661.73 501.00 653.69 503.21 646.18 C 505.71 637.46 506.22 628.36 507.49 619.42 C 508.48 613.24 507.49 606.92 508.67 600.75 C 510.11 582.45 507.75 564.20 506.02 546.01 C 505.05 536.54 504.50 526.87 501.12 517.87 C 494.78 500.22 494.45 481.29 492.20 462.87 C 491.79 457.45 491.90 451.99 492.14 446.57 M 394.24 882.25 C 394.77 882.78 394.77 882.78 394.24 882.25 M 386.90 900.88 C 385.21 906.95 383.45 913.07 382.96 919.38 C 384.29 917.44 385.41 915.37 386.15 913.15 C 389.50 903.53 392.14 893.66 394.07 883.67 C 390.32 888.75 388.87 894.99 386.90 900.88 Z" />
<path fill="#020202" opacity="1.00" d=" M 331.33 606.34 C 335.02 604.58 338.95 603.25 343.03 602.77 C 340.94 609.09 335.81 614.18 329.73 616.79 C 323.05 621.43 314.90 622.97 306.99 624.02 C 297.81 624.70 290.07 619.05 282.98 614.04 C 276.27 611.91 267.97 612.60 262.69 607.07 C 268.64 605.75 274.63 603.33 280.81 604.11 C 287.46 606.10 291.39 612.56 297.62 615.38 C 302.31 618.00 308.37 619.34 313.16 616.16 C 318.87 612.27 325.16 609.40 331.33 606.34 Z" />
<path fill="#020202" opacity="1.00" d=" M 362.31 663.28 C 367.13 661.27 370.85 657.49 375.29 654.85 C 373.39 660.82 369.38 665.70 365.48 670.48 C 361.22 676.22 354.64 679.55 348.18 682.21 C 344.02 684.00 339.51 684.84 335.00 685.01 C 328.94 685.19 322.73 687.17 316.76 685.20 C 314.52 684.69 312.44 683.41 310.13 683.34 C 301.01 685.02 291.79 688.22 282.42 686.59 C 277.49 685.74 272.31 686.46 267.61 684.42 C 258.84 681.01 249.25 680.15 240.64 676.33 C 258.54 674.31 276.00 669.41 293.98 667.95 C 300.92 667.45 307.62 669.61 314.15 671.65 C 326.32 668.07 339.18 669.75 351.56 667.49 C 355.23 666.32 358.75 664.74 362.31 663.28 Z" />
<path fill="#020202" opacity="1.00" d=" M 317.93 717.90 C 325.44 716.59 331.56 711.53 338.08 707.91 C 335.94 711.16 334.24 714.72 331.70 717.69 C 328.02 721.59 322.39 721.81 317.43 722.49 C 313.67 723.10 309.86 722.83 306.08 723.15 C 301.33 723.80 297.02 726.49 292.18 726.63 C 283.06 726.27 273.60 721.84 268.46 714.15 C 273.86 715.80 279.19 718.14 284.96 718.02 C 295.95 717.90 306.94 718.16 317.93 717.90 Z" />
<path fill="#020202" opacity="1.00" d=" M 29.40 771.41 C 33.23 770.60 37.06 769.59 40.98 769.33 C 48.25 769.76 55.44 770.95 62.53 772.57 C 63.49 777.40 63.05 782.36 62.85 787.25 C 56.37 785.75 50.95 780.67 44.04 780.91 C 40.37 780.93 36.18 780.77 33.18 783.22 C 30.91 784.90 31.82 788.73 34.43 789.61 C 42.75 792.83 52.51 792.46 59.76 798.24 C 63.86 802.43 66.36 808.77 64.62 814.59 C 62.77 818.47 60.60 822.55 56.68 824.70 C 52.27 827.98 46.62 828.30 41.44 829.47 C 36.48 830.69 31.46 829.24 26.56 828.44 C 22.58 827.79 18.80 826.35 15.14 824.68 C 14.82 820.06 14.84 815.42 15.15 810.80 C 18.89 810.87 21.70 813.59 25.00 814.98 C 31.61 818.21 39.62 819.36 46.61 816.67 C 49.88 815.43 49.85 810.64 46.67 809.32 C 39.60 806.04 31.09 806.87 24.40 802.60 C 21.43 800.24 18.67 797.55 16.35 794.56 C 15.78 790.33 15.42 785.76 16.65 781.65 C 19.68 777.12 23.80 772.51 29.40 771.41 Z" />
<path fill="#020202" opacity="1.00" d=" M 323.43 769.35 C 332.69 768.36 342.19 771.75 349.18 777.81 C 353.28 784.43 356.69 792.02 356.09 800.00 C 356.79 807.69 352.95 814.78 349.18 821.18 C 344.35 825.30 338.39 828.33 332.02 829.10 C 322.06 831.29 311.39 827.79 303.86 821.15 C 300.46 816.03 296.66 810.47 296.96 804.04 C 297.00 799.76 296.73 795.45 297.22 791.20 C 298.23 786.26 301.10 781.96 303.88 777.86 C 309.29 773.10 316.20 769.95 323.43 769.35 M 323.39 781.32 C 319.96 782.02 316.58 783.85 315.25 787.27 C 312.16 791.97 313.02 797.74 312.96 803.06 C 312.83 807.31 314.86 811.36 317.27 814.74 C 321.40 817.60 327.07 819.32 331.80 816.80 C 337.57 815.32 338.47 808.64 339.78 803.77 C 340.64 796.95 339.61 789.29 335.17 783.81 C 331.90 781.34 327.40 780.35 323.39 781.32 Z" />
<path fill="#020202" opacity="1.00" d=" M 69.10 770.10 C 86.04 769.92 102.98 769.94 119.91 770.09 C 120.14 774.36 120.13 778.64 119.90 782.92 C 113.97 783.22 108.03 782.78 102.09 783.08 C 101.78 798.35 102.24 813.63 101.91 828.90 C 96.64 829.13 91.35 829.12 86.08 828.91 C 85.77 813.63 86.22 798.34 85.90 783.07 C 80.31 782.78 74.71 783.23 69.12 782.89 C 68.84 778.63 68.85 774.35 69.10 770.10 Z" />
<path fill="#020202" opacity="1.00" d=" M 127.12 770.14 C 132.38 769.86 137.65 769.86 142.91 770.09 C 143.20 782.40 142.87 794.72 143.01 807.04 C 143.00 809.61 143.69 812.11 144.31 814.59 C 147.70 816.46 151.52 819.11 155.57 817.65 C 157.80 816.74 160.40 815.80 161.63 813.58 C 162.47 811.15 162.94 808.58 163.00 806.02 C 163.12 794.05 162.78 782.07 163.10 770.10 C 168.37 769.86 173.64 769.88 178.91 770.11 C 179.21 780.06 178.88 790.03 179.04 799.99 C 179.38 807.07 178.47 814.51 174.60 820.60 C 172.14 823.87 169.08 827.23 164.79 827.81 C 159.24 828.72 153.53 830.71 147.91 829.15 C 142.66 827.99 136.56 827.60 132.84 823.18 C 129.82 819.07 126.65 814.40 126.95 809.07 C 127.13 796.09 126.77 783.11 127.12 770.14 Z" />
<path fill="#020202" opacity="1.00" d=" M 192.09 770.08 C 201.39 769.87 210.74 769.67 219.98 771.00 C 227.47 771.16 235.04 774.26 239.59 780.38 C 241.81 783.56 244.22 786.73 245.58 790.40 C 246.74 796.11 246.73 802.03 245.77 807.78 C 242.78 816.89 235.34 824.38 226.04 827.04 C 214.97 829.88 203.40 828.92 192.08 828.92 C 191.94 809.31 191.94 789.69 192.09 770.08 M 207.12 782.09 C 206.90 793.70 206.94 805.33 207.09 816.94 C 212.67 817.39 218.40 816.85 223.58 814.61 C 228.01 811.19 230.25 805.56 230.06 800.02 C 230.58 794.41 228.46 788.52 224.22 784.78 C 219.00 782.07 212.90 781.62 207.12 782.09 Z" />
<path fill="#020202" opacity="1.00" d=" M 254.11 770.10 C 265.69 769.93 277.29 769.88 288.87 770.13 C 289.18 774.03 289.18 777.96 288.87 781.87 C 285.62 781.98 282.37 782.02 279.11 782.13 C 278.90 793.71 278.95 805.31 279.09 816.91 C 282.36 816.98 285.64 817.01 288.91 817.10 C 289.17 821.03 289.17 824.97 288.92 828.91 C 277.31 829.08 265.69 829.08 254.09 828.92 C 253.84 824.99 253.83 821.06 254.14 817.14 C 257.40 817.01 260.66 816.97 263.91 816.90 C 264.07 805.30 264.06 793.69 263.92 782.09 C 260.64 782.01 257.38 781.98 254.11 781.89 C 253.83 777.96 253.83 774.03 254.11 770.10 Z" />
<path fill="#020202" opacity="1.00" d=" M 179.41 848.42 C 185.01 847.29 191.20 847.59 196.00 851.00 C 202.93 855.06 204.20 863.75 204.92 871.03 C 205.19 879.08 205.44 887.34 203.12 895.15 C 200.64 900.86 196.41 906.79 189.81 907.81 C 184.46 908.41 178.39 908.62 173.94 905.06 C 166.60 899.47 164.68 889.74 164.95 881.01 C 165.01 872.04 164.26 861.78 170.49 854.49 C 172.54 851.36 175.99 849.62 179.41 848.42 M 182.44 855.35 C 176.22 856.44 173.82 863.35 173.96 868.96 C 174.15 875.90 173.68 882.87 174.22 889.81 C 174.95 893.61 176.10 898.33 180.08 899.93 C 183.79 901.92 188.65 901.27 192.20 899.24 C 197.28 890.71 196.25 880.49 196.07 870.99 C 196.21 866.23 194.71 861.62 192.50 857.46 C 189.64 855.50 185.86 854.34 182.44 855.35 Z" />
<path fill="#020202" opacity="1.00" d=" M 228.39 848.39 C 233.56 847.38 239.16 847.90 244.00 850.01 C 250.06 854.05 254.05 860.85 254.84 868.09 C 255.36 874.39 255.05 880.75 254.06 887.00 C 253.73 890.87 251.13 893.97 249.17 897.16 C 244.99 903.47 237.78 908.21 230.05 908.07 C 226.50 908.13 222.93 908.15 219.42 907.58 C 218.86 904.77 218.85 901.92 218.98 899.09 C 222.68 899.64 226.43 901.32 230.18 900.26 C 233.95 899.30 238.05 898.67 241.19 896.21 C 243.46 892.38 245.14 888.14 246.18 883.81 C 242.75 884.23 239.65 886.05 236.16 886.17 C 230.78 886.49 224.69 886.40 220.50 882.49 C 213.23 877.40 212.49 867.09 215.30 859.35 C 217.89 854.11 223.15 850.62 228.39 848.39 M 224.30 859.31 C 222.31 862.50 223.01 866.46 222.97 870.03 C 222.88 873.91 225.80 877.40 229.37 878.65 C 234.92 879.84 240.65 878.72 245.86 876.65 C 246.19 871.35 246.45 865.74 244.24 860.79 C 240.71 853.28 229.16 853.09 224.30 859.31 Z" />
<path fill="#020202" opacity="1.00" d=" M 317.14 851.31 C 322.26 848.40 328.23 847.65 334.03 847.92 C 340.49 847.69 347.53 850.30 351.04 855.99 C 354.74 861.73 353.06 869.30 349.86 874.88 C 346.05 880.90 340.77 885.77 335.78 890.78 C 332.41 894.22 327.81 896.17 324.68 899.90 C 334.76 900.25 344.86 899.71 354.95 900.10 C 355.07 902.36 355.07 904.63 354.98 906.90 C 342.01 907.07 329.03 907.08 316.06 906.90 C 316.12 903.33 314.67 898.58 318.31 896.30 C 324.09 892.14 328.48 886.45 333.97 881.95 C 338.35 878.06 341.54 872.99 343.62 867.55 C 344.87 863.96 343.17 859.92 340.68 857.33 C 333.07 852.82 324.27 856.59 316.99 859.87 C 316.85 857.01 316.90 854.15 317.14 851.31 Z" />
<path fill="#020202" opacity="1.00" d=" M 283.55 849.13 C 285.64 848.93 287.75 848.92 289.85 849.06 C 290.32 866.00 289.74 882.96 290.09 899.91 C 294.05 900.04 298.02 899.91 301.98 900.10 C 302.09 902.34 302.07 904.60 301.94 906.86 C 291.32 907.13 280.68 907.09 270.06 906.87 C 269.93 904.61 269.92 902.36 270.04 900.11 C 273.99 899.92 277.94 900.05 281.88 899.89 C 282.10 887.62 282.06 875.34 281.90 863.07 C 277.93 862.92 273.95 863.06 269.98 862.90 C 269.95 861.03 269.97 859.18 270.04 857.33 C 273.39 856.71 276.85 856.37 280.01 855.04 C 282.49 854.16 282.77 851.26 283.55 849.13 Z" />
<path fill="#020202" opacity="1.00" d=" M 11.79 1022.78 C 17.71 1017.18 26.26 1016.46 34.00 1016.97 C 221.67 1017.01 409.33 1017.03 597.00 1016.96 C 604.23 1016.43 611.99 1017.42 617.69 1022.29 C 620.31 1024.83 621.93 1028.18 623.71 1031.33 C 626.88 1036.98 627.51 1043.52 629.00 1049.72 L 629.00 1055.27 C 627.76 1060.53 627.46 1066.10 625.06 1071.03 C 623.25 1074.75 621.47 1078.59 618.65 1081.66 C 614.24 1085.90 608.10 1087.99 602.04 1088.01 C 410.36 1087.98 218.67 1088.02 26.99 1087.99 C 20.55 1087.81 14.13 1085.02 9.83 1080.18 C 3.85 1072.77 2.03 1063.05 1.24 1053.80 C 1.13 1042.66 4.64 1031.40 11.79 1022.78 M 56.97 1027.52 C 55.56 1032.04 55.95 1036.87 55.32 1041.53 C 58.01 1040.19 58.00 1036.86 59.74 1034.73 C 60.78 1033.41 62.00 1032.22 63.41 1031.30 C 66.87 1030.61 70.42 1030.95 73.92 1031.07 C 74.19 1041.72 73.88 1052.37 74.05 1063.02 C 73.96 1066.80 74.39 1071.48 71.28 1074.25 C 69.48 1075.94 64.67 1073.53 64.94 1076.94 C 73.68 1077.05 82.42 1077.01 91.16 1076.94 C 90.73 1073.90 86.35 1075.19 84.18 1073.84 C 82.50 1070.46 83.01 1066.63 82.96 1063.00 C 83.12 1052.36 82.80 1041.72 83.09 1031.09 C 86.07 1030.93 89.05 1030.79 92.04 1030.95 C 97.37 1030.40 97.01 1037.28 98.45 1040.76 C 98.81 1040.84 99.54 1041.00 99.91 1041.08 C 101.11 1036.64 101.57 1032.05 102.14 1027.51 C 95.79 1028.28 89.38 1027.97 83.00 1028.00 C 74.33 1027.93 65.62 1028.38 56.97 1027.52 M 313.36 1036.37 C 312.50 1041.04 312.52 1047.12 316.83 1050.16 C 321.63 1054.06 326.65 1057.69 331.61 1061.39 C 335.61 1063.95 336.66 1070.71 332.84 1073.85 C 329.64 1077.57 323.68 1076.35 319.97 1074.03 C 315.46 1071.56 314.21 1066.24 311.03 1062.58 C 310.71 1067.33 311.95 1072.00 313.64 1076.41 C 320.96 1078.06 328.93 1079.19 336.04 1076.06 C 340.80 1074.39 342.08 1068.88 343.62 1064.65 C 343.94 1060.68 342.42 1056.31 339.27 1053.74 C 333.94 1049.25 327.28 1046.60 322.22 1041.77 C 320.13 1039.90 320.95 1036.68 321.08 1034.21 C 323.01 1028.16 331.42 1027.19 335.81 1031.17 C 338.01 1032.86 337.93 1035.86 338.66 1038.31 C 339.17 1038.54 340.21 1039.00 340.73 1039.23 C 341.03 1035.55 341.38 1031.88 341.87 1028.22 C 336.43 1026.88 330.76 1026.57 325.20 1027.23 C 320.04 1027.95 315.46 1031.66 313.36 1036.37 M 391.18 1032.19 C 387.13 1035.63 387.32 1041.55 388.78 1046.20 C 389.79 1050.41 393.98 1052.39 396.99 1055.02 C 400.48 1057.97 404.86 1059.67 408.24 1062.76 C 411.57 1066.23 409.74 1071.69 406.67 1074.65 C 402.50 1077.54 396.82 1075.85 393.24 1072.79 C 389.90 1070.09 388.85 1065.68 386.03 1062.56 C 385.93 1067.01 386.84 1071.38 387.25 1075.80 C 395.71 1078.50 405.74 1079.53 413.62 1074.63 C 415.76 1072.54 416.76 1069.57 417.93 1066.88 C 420.29 1062.05 416.70 1056.93 413.68 1053.32 C 408.80 1049.35 402.92 1046.82 397.85 1043.12 C 394.67 1039.64 394.02 1033.21 398.30 1030.29 C 402.63 1027.81 409.30 1028.29 412.17 1032.78 C 413.36 1034.89 412.58 1038.75 415.66 1039.24 C 416.01 1035.56 416.35 1031.88 416.87 1028.23 C 408.42 1026.54 397.55 1024.92 391.18 1032.19 M 548.24 1031.23 C 545.26 1034.21 544.18 1038.80 544.03 1042.90 C 544.27 1049.66 551.37 1052.33 555.71 1056.28 C 559.57 1059.70 566.23 1061.91 566.09 1068.03 C 566.72 1071.42 564.14 1073.98 561.59 1075.73 C 555.72 1077.38 548.74 1074.42 546.35 1068.70 C 545.04 1066.59 544.58 1063.53 541.98 1062.63 C 541.77 1067.12 542.88 1071.51 544.28 1075.74 C 551.23 1078.39 559.27 1079.00 566.33 1076.33 C 570.34 1074.98 572.83 1071.17 574.66 1067.59 C 575.50 1063.59 574.33 1059.20 572.21 1055.78 C 567.50 1050.27 560.56 1047.44 554.83 1043.19 C 549.49 1039.89 551.51 1030.81 557.22 1029.04 C 560.36 1028.59 563.68 1028.95 566.53 1030.40 C 568.78 1032.59 569.50 1035.70 570.50 1038.56 C 570.81 1038.70 571.43 1038.99 571.73 1039.14 C 572.35 1035.53 573.09 1031.92 573.01 1028.25 C 564.90 1026.05 555.17 1025.79 548.24 1031.23 M 141.82 1028.11 C 142.29 1031.51 147.66 1028.98 148.78 1032.35 C 149.40 1042.53 148.78 1052.78 149.04 1062.99 C 148.87 1066.54 149.71 1070.48 147.75 1073.69 C 146.43 1075.96 141.80 1073.68 141.86 1076.95 C 149.67 1077.03 157.49 1077.09 165.30 1076.92 C 164.48 1074.43 161.18 1075.07 159.68 1073.28 C 158.48 1071.80 158.07 1069.87 158.03 1068.02 C 157.84 1063.65 157.90 1059.27 158.13 1054.91 C 160.31 1054.95 162.93 1054.60 164.51 1056.49 C 167.51 1060.87 169.77 1065.73 173.09 1069.90 C 175.25 1072.68 177.46 1076.11 181.17 1076.84 C 185.58 1077.28 190.03 1077.11 194.44 1076.81 C 191.78 1073.53 186.91 1073.08 184.42 1069.59 C 182.11 1066.57 179.88 1063.48 177.42 1060.58 C 175.55 1058.06 172.95 1055.66 172.91 1052.31 C 175.69 1050.32 179.76 1049.57 181.06 1046.05 C 184.27 1040.80 182.48 1032.92 176.85 1030.13 C 172.76 1027.40 167.65 1028.03 162.99 1027.99 C 155.94 1028.17 148.87 1027.79 141.82 1028.11 M 228.72 1028.10 C 229.57 1030.56 232.77 1030.23 234.78 1031.26 C 235.24 1037.17 236.30 1043.05 236.03 1049.00 C 235.76 1056.86 236.85 1064.92 234.62 1072.59 C 233.38 1075.90 227.39 1073.36 226.84 1076.94 C 240.13 1076.98 253.44 1077.16 266.73 1076.87 C 268.55 1072.70 269.76 1068.25 270.12 1063.72 C 266.07 1065.13 266.56 1070.96 263.08 1073.10 C 260.90 1074.18 258.40 1074.00 256.05 1074.10 C 252.37 1074.05 248.53 1074.40 245.09 1072.83 C 244.88 1066.58 244.89 1060.33 245.09 1054.10 C 249.27 1053.93 253.48 1053.64 257.64 1054.23 C 259.62 1055.33 259.76 1057.87 260.54 1059.78 C 261.12 1059.86 262.28 1060.01 262.86 1060.08 C 263.15 1054.96 263.15 1049.82 262.83 1044.71 C 260.48 1045.33 259.91 1048.00 258.62 1049.77 C 254.21 1050.96 249.64 1051.33 245.09 1050.96 C 244.89 1044.35 244.90 1037.73 245.08 1031.12 C 249.92 1030.88 254.79 1030.79 259.63 1031.18 C 261.66 1033.64 262.09 1037.34 264.72 1039.24 C 265.57 1035.60 266.19 1031.88 266.02 1028.13 C 253.59 1027.89 241.15 1027.94 228.72 1028.10 M 459.73 1028.09 C 460.53 1030.59 463.80 1030.22 465.81 1031.26 C 466.87 1034.38 467.14 1037.68 467.05 1040.97 C 466.91 1049.65 467.14 1058.33 466.97 1067.00 C 466.73 1069.90 466.31 1074.24 462.59 1074.50 C 460.93 1075.22 457.83 1074.38 457.83 1076.94 C 471.08 1076.91 484.36 1077.22 497.61 1076.82 C 500.08 1072.89 501.75 1068.39 500.96 1063.68 C 497.40 1065.34 497.38 1070.14 494.72 1072.76 C 492.43 1074.19 489.63 1074.00 487.05 1074.09 C 483.36 1074.05 479.52 1074.40 476.09 1072.83 C 475.88 1066.58 475.89 1060.34 476.09 1054.10 C 480.30 1053.84 484.52 1053.83 488.73 1054.12 C 490.48 1056.17 491.71 1058.64 493.74 1060.45 C 494.16 1055.17 494.18 1049.85 493.81 1044.56 C 491.30 1046.18 490.76 1050.10 487.44 1050.44 C 483.73 1051.36 479.87 1051.10 476.09 1050.94 C 475.99 1044.73 475.69 1038.50 476.21 1032.32 C 476.49 1032.06 477.06 1031.52 477.34 1031.25 C 481.78 1030.64 486.29 1030.94 490.76 1031.13 C 492.69 1033.40 493.79 1036.19 494.57 1039.04 C 495.06 1038.90 496.03 1038.60 496.52 1038.46 C 497.09 1034.98 497.18 1031.47 497.51 1027.99 C 484.91 1028.05 472.32 1027.89 459.73 1028.09 Z" />
<path fill="#020202" opacity="1.00" d=" M 160.25 1030.01 C 163.78 1030.59 167.97 1030.52 170.33 1033.69 C 173.84 1036.99 173.41 1042.29 172.63 1046.61 C 171.35 1052.80 163.59 1053.84 158.43 1052.58 C 157.50 1046.45 158.06 1040.21 158.03 1034.04 C 157.76 1032.26 159.24 1031.19 160.25 1030.01 Z" />
</g>
</svg>
