<?xml version="1.0" encoding="UTF-8" ?>
<!DOCTYPE svg PUBLIC "-//W3C//DTD SVG 1.1//EN" "http://www.w3.org/Graphics/SVG/1.1/DTD/svg11.dtd">
<svg width="400pt" height="400pt" viewBox="0 0 400 400" version="1.1" xmlns="http://www.w3.org/2000/svg">
<g id="#b61f26ff">
<path fill="#b61f26" opacity="1.00" d=" M 0.00 0.00 L 400.00 0.00 L 400.00 400.00 L 0.00 400.00 L 0.00 0.00 M 55.58 62.08 C 67.16 119.35 79.33 176.51 91.08 233.75 C 92.42 240.68 94.12 247.57 96.65 254.18 C 100.52 263.78 107.38 272.49 116.72 277.22 C 125.39 281.79 135.63 282.87 145.20 281.10 C 159.15 278.15 171.60 267.95 176.51 254.46 C 180.00 245.15 181.52 235.27 183.62 225.59 C 188.20 202.74 193.02 179.94 197.52 157.07 C 199.41 157.91 201.27 158.81 203.09 159.81 C 227.84 173.43 252.64 186.97 277.39 200.58 C 283.33 203.73 289.35 207.04 294.09 211.90 C 302.40 219.29 302.23 233.86 294.65 241.67 C 289.02 247.34 280.54 247.99 273.00 248.11 C 249.87 248.15 226.74 248.10 203.62 248.13 C 203.47 258.21 203.49 268.30 203.58 278.38 C 224.05 278.52 244.52 278.41 264.99 278.44 C 275.09 278.27 285.33 277.97 295.12 275.26 C 303.68 272.90 311.73 268.33 317.70 261.70 C 328.64 249.81 333.29 232.68 330.60 216.83 C 329.09 206.76 323.87 197.44 316.50 190.49 C 306.87 181.13 294.63 175.27 282.99 168.88 C 261.94 157.29 240.85 145.79 219.80 134.22 C 214.38 131.24 209.35 126.80 207.33 120.79 C 204.84 113.68 206.73 105.34 211.93 99.92 C 216.55 94.42 224.21 93.15 231.00 92.77 C 259.93 92.69 288.87 92.83 317.80 92.70 C 317.95 82.52 317.85 72.34 317.87 62.17 C 297.25 62.05 276.62 62.16 256.00 62.12 C 241.76 62.16 227.33 61.92 213.37 65.18 C 201.38 67.93 190.16 75.17 183.91 85.93 C 178.84 94.84 176.85 105.06 174.83 114.99 C 166.61 155.45 158.34 195.90 150.12 236.36 C 149.29 240.37 148.35 244.54 145.89 247.91 C 142.43 252.48 135.40 253.04 130.61 250.38 C 126.00 247.77 124.53 242.25 123.51 237.42 C 111.61 178.95 99.79 120.46 87.82 62.00 C 77.08 61.83 66.32 61.74 55.58 62.08 M 335.39 62.49 C 329.24 63.75 324.58 69.77 324.62 76.00 C 324.41 83.59 331.32 90.64 339.02 89.92 C 346.65 90.01 353.30 82.73 352.50 75.13 C 352.33 66.75 343.41 60.39 335.39 62.49 M 118.42 310.22 C 116.41 318.98 113.80 327.59 111.91 336.38 C 113.67 336.44 115.42 336.49 117.18 336.55 C 119.95 327.55 121.77 318.28 124.40 309.25 C 124.92 307.74 125.82 305.34 127.64 307.10 C 129.51 311.85 130.37 316.93 131.78 321.84 C 128.84 322.02 125.91 322.12 122.98 322.19 C 122.60 323.84 122.23 325.48 121.88 327.14 C 125.56 327.22 129.25 327.20 132.93 327.20 C 133.80 330.27 134.62 333.36 135.43 336.45 C 137.25 336.47 139.08 336.49 140.91 336.51 C 138.94 326.64 136.09 316.95 133.63 307.20 C 132.79 303.09 128.36 300.23 124.29 301.49 C 120.51 302.64 119.19 306.76 118.42 310.22 M 219.10 306.10 C 215.28 311.29 216.98 318.07 216.62 324.04 C 216.13 330.62 221.45 336.44 227.91 337.10 C 227.90 335.51 227.90 333.92 227.89 332.33 C 225.69 330.99 222.70 329.73 222.38 326.81 C 221.92 321.72 221.91 316.56 222.36 311.48 C 223.62 304.59 234.99 304.65 236.49 311.37 C 236.98 316.20 236.82 321.10 236.62 325.96 C 236.76 329.28 233.42 330.83 231.06 332.36 C 231.05 333.90 231.05 335.45 231.05 337.00 C 235.00 336.46 238.74 334.28 240.67 330.72 C 242.70 327.16 242.10 322.92 242.21 319.00 C 242.17 314.48 242.70 309.26 239.37 305.66 C 234.30 299.68 223.90 299.93 219.10 306.10 M 261.43 301.56 C 255.89 302.30 251.34 307.39 251.32 312.97 C 251.23 317.58 251.11 322.20 251.44 326.80 C 252.03 332.38 257.12 336.64 262.61 336.92 C 262.59 335.45 262.58 333.99 262.58 332.52 C 260.08 331.00 256.83 329.37 256.80 325.99 C 256.62 321.05 256.32 316.03 257.01 311.13 C 258.60 304.28 270.45 304.87 271.22 311.94 C 271.47 316.91 271.64 321.93 271.11 326.88 C 270.69 329.85 267.48 330.73 265.58 332.55 C 265.44 334.01 265.46 335.48 265.43 336.95 C 271.14 336.56 276.49 331.93 276.64 326.02 C 276.74 321.02 276.95 315.99 276.53 311.00 C 275.30 304.26 267.93 300.12 261.43 301.56 M 84.75 302.67 C 78.73 304.34 77.01 313.27 81.96 317.04 C 87.01 320.45 93.25 321.40 98.52 324.37 C 101.49 325.96 100.08 330.79 96.86 330.97 C 91.09 331.66 85.25 330.97 79.45 331.37 C 79.50 333.06 79.53 334.74 79.57 336.43 C 84.71 336.54 89.85 336.56 95.00 336.47 C 98.23 336.40 101.92 335.71 103.88 332.87 C 106.73 329.24 106.35 323.29 102.57 320.45 C 97.49 317.03 91.17 316.14 85.96 313.00 C 83.53 311.65 84.66 307.55 87.31 307.24 C 92.94 306.39 98.67 307.10 104.34 306.83 C 104.36 305.15 104.36 303.47 104.35 301.79 C 97.84 302.01 91.10 300.87 84.75 302.67 M 149.37 305.39 C 146.17 308.94 147.08 315.35 151.34 317.67 C 156.41 320.61 162.36 321.62 167.42 324.60 C 169.68 326.31 168.63 330.37 165.82 330.86 C 159.97 331.73 154.01 331.05 148.12 331.27 C 148.04 332.96 147.95 334.65 147.87 336.35 C 154.22 336.52 160.63 336.84 166.95 336.11 C 173.96 335.24 176.83 325.14 171.30 320.72 C 166.32 317.18 160.06 316.13 154.71 313.29 C 151.94 312.16 152.98 307.00 156.14 307.17 C 161.66 306.49 167.25 307.09 172.80 306.80 C 172.79 305.15 172.78 303.50 172.77 301.85 C 167.84 301.70 162.90 301.59 157.96 301.78 C 154.80 301.89 151.44 302.83 149.37 305.39 M 183.59 316.39 C 188.66 320.68 195.84 321.12 201.29 324.78 C 203.87 326.81 201.99 330.94 198.95 331.05 C 193.28 331.56 187.57 331.08 181.89 331.33 C 181.83 333.00 181.79 334.67 181.75 336.36 C 187.50 336.57 193.27 336.62 199.02 336.36 C 202.66 336.29 206.18 333.99 207.53 330.58 C 209.06 326.79 207.71 322.03 204.13 319.91 C 199.29 317.08 193.64 316.03 188.74 313.33 C 185.80 312.13 186.93 307.02 190.11 307.11 C 195.63 306.55 201.20 306.99 206.75 306.82 C 206.73 305.18 206.72 303.54 206.72 301.90 C 200.55 301.76 194.28 301.23 188.17 302.31 C 182.01 303.44 178.98 311.88 183.59 316.39 M 287.70 305.04 C 287.42 315.50 287.63 325.97 287.63 336.43 C 289.28 336.44 290.94 336.46 292.60 336.47 C 292.79 327.65 292.55 318.82 292.69 310.00 C 297.57 318.02 301.60 326.53 306.32 334.64 C 307.27 336.86 310.26 337.31 312.18 336.16 C 314.21 334.88 313.79 332.12 313.96 330.07 C 313.87 320.62 314.08 311.16 313.86 301.71 C 312.19 301.70 310.52 301.70 308.86 301.71 C 308.66 310.53 308.94 319.35 308.65 328.17 C 303.94 320.16 299.99 311.73 295.34 303.69 C 293.89 300.06 287.69 301.08 287.70 305.04 Z" />
<path fill="#b61f26" opacity="1.00" d=" M 336.33 64.26 C 343.40 62.62 350.89 68.73 350.61 75.99 C 350.97 83.01 344.00 89.22 337.06 88.03 C 330.06 87.41 324.92 79.80 326.85 73.05 C 328.02 68.70 331.89 65.06 336.33 64.26 M 333.12 68.33 C 332.67 73.47 332.69 78.65 333.18 83.78 C 333.75 83.74 334.89 83.66 335.45 83.61 C 335.51 81.57 335.57 79.54 335.67 77.50 C 337.65 77.62 339.61 77.90 341.55 78.35 C 341.93 80.08 342.30 81.81 342.64 83.55 C 343.18 83.58 344.27 83.63 344.82 83.66 C 344.75 81.15 344.30 78.65 342.89 76.53 C 344.75 74.75 345.90 71.38 343.51 69.51 C 340.39 67.69 336.56 68.58 333.12 68.33 Z" />
<path fill="#b61f26" opacity="1.00" d=" M 335.46 70.21 C 337.50 70.28 339.55 70.39 341.59 70.54 C 341.90 72.10 342.77 73.96 341.28 75.22 C 339.44 75.82 337.46 75.64 335.56 75.67 C 335.52 73.85 335.50 72.03 335.46 70.21 Z" />
</g>
<g id="#fefefeff">
<path fill="#fefefe" opacity="1.00" d=" M 55.58 62.08 C 66.32 61.74 77.08 61.83 87.82 62.00 C 99.79 120.46 111.61 178.95 123.51 237.42 C 124.53 242.25 126.00 247.77 130.61 250.38 C 135.40 253.04 142.43 252.48 145.89 247.91 C 148.35 244.54 149.29 240.37 150.12 236.36 C 158.34 195.90 166.61 155.45 174.83 114.99 C 176.85 105.06 178.84 94.84 183.91 85.93 C 190.16 75.17 201.38 67.93 213.37 65.18 C 227.33 61.92 241.76 62.16 256.00 62.12 C 276.62 62.16 297.25 62.05 317.87 62.17 C 317.85 72.34 317.95 82.52 317.80 92.70 C 288.87 92.83 259.93 92.69 231.00 92.77 C 224.21 93.15 216.55 94.42 211.93 99.92 C 206.73 105.34 204.84 113.68 207.33 120.79 C 209.35 126.80 214.38 131.24 219.80 134.22 C 240.85 145.79 261.94 157.29 282.99 168.88 C 294.63 175.27 306.87 181.13 316.50 190.49 C 323.87 197.44 329.09 206.76 330.60 216.83 C 333.29 232.68 328.64 249.81 317.70 261.70 C 311.73 268.33 303.68 272.90 295.12 275.26 C 285.33 277.97 275.09 278.27 264.99 278.44 C 244.52 278.41 224.05 278.52 203.58 278.38 C 203.49 268.30 203.47 258.21 203.62 248.13 C 226.74 248.10 249.87 248.15 273.00 248.11 C 280.54 247.99 289.02 247.34 294.65 241.67 C 302.23 233.86 302.40 219.29 294.09 211.90 C 289.35 207.04 283.33 203.73 277.39 200.58 C 252.64 186.97 227.84 173.43 203.09 159.81 C 201.27 158.81 199.41 157.91 197.52 157.07 C 193.02 179.94 188.20 202.74 183.62 225.59 C 181.52 235.27 180.00 245.15 176.51 254.46 C 171.60 267.95 159.15 278.15 145.20 281.10 C 135.63 282.87 125.39 281.79 116.72 277.22 C 107.38 272.49 100.52 263.78 96.65 254.18 C 94.12 247.57 92.42 240.68 91.08 233.75 C 79.33 176.51 67.16 119.35 55.58 62.08 Z" />
<path fill="#fefefe" opacity="1.00" d=" M 335.39 62.49 C 343.41 60.39 352.33 66.75 352.50 75.13 C 353.30 82.73 346.65 90.01 339.02 89.92 C 331.32 90.64 324.41 83.59 324.62 76.00 C 324.58 69.77 329.24 63.75 335.39 62.49 M 336.33 64.26 C 331.89 65.06 328.02 68.70 326.85 73.05 C 324.92 79.80 330.06 87.41 337.06 88.03 C 344.00 89.22 350.97 83.01 350.61 75.99 C 350.89 68.73 343.40 62.62 336.33 64.26 Z" />
<path fill="#fefefe" opacity="1.00" d=" M 333.12 68.33 C 336.56 68.58 340.39 67.69 343.51 69.51 C 345.90 71.38 344.75 74.75 342.89 76.53 C 344.30 78.65 344.75 81.15 344.82 83.66 C 344.27 83.63 343.18 83.58 342.64 83.55 C 342.30 81.81 341.93 80.08 341.55 78.35 C 339.61 77.90 337.65 77.62 335.67 77.50 C 335.57 79.54 335.51 81.57 335.45 83.61 C 334.89 83.66 333.75 83.74 333.18 83.78 C 332.69 78.65 332.67 73.47 333.12 68.33 M 335.46 70.21 C 335.50 72.03 335.52 73.85 335.56 75.67 C 337.46 75.64 339.44 75.82 341.28 75.22 C 342.77 73.96 341.90 72.10 341.59 70.54 C 339.55 70.39 337.50 70.28 335.46 70.21 Z" />
<path fill="#fefefe" opacity="1.00" d=" M 118.42 310.22 C 119.19 306.76 120.51 302.64 124.29 301.49 C 128.36 300.23 132.79 303.09 133.63 307.20 C 136.09 316.95 138.94 326.64 140.91 336.51 C 139.08 336.49 137.25 336.47 135.43 336.45 C 134.62 333.36 133.80 330.27 132.93 327.20 C 129.25 327.20 125.56 327.22 121.88 327.14 C 122.23 325.48 122.60 323.84 122.98 322.19 C 125.91 322.12 128.84 322.02 131.78 321.84 C 130.37 316.93 129.51 311.85 127.64 307.10 C 125.82 305.34 124.92 307.74 124.40 309.25 C 121.77 318.28 119.95 327.55 117.18 336.55 C 115.42 336.49 113.67 336.44 111.91 336.38 C 113.80 327.59 116.41 318.98 118.42 310.22 Z" />
<path fill="#fefefe" opacity="1.00" d=" M 219.10 306.10 C 223.90 299.93 234.30 299.68 239.37 305.66 C 242.70 309.26 242.17 314.48 242.21 319.00 C 242.10 322.92 242.70 327.16 240.67 330.72 C 238.74 334.28 235.00 336.46 231.05 337.00 C 231.05 335.45 231.05 333.90 231.06 332.36 C 233.42 330.83 236.76 329.28 236.62 325.96 C 236.82 321.10 236.98 316.20 236.49 311.37 C 234.99 304.65 223.62 304.59 222.36 311.48 C 221.91 316.56 221.92 321.72 222.38 326.81 C 222.70 329.73 225.69 330.99 227.89 332.33 C 227.90 333.92 227.90 335.51 227.91 337.10 C 221.45 336.44 216.13 330.62 216.62 324.04 C 216.98 318.07 215.28 311.29 219.10 306.10 Z" />
<path fill="#fefefe" opacity="1.00" d=" M 261.43 301.56 C 267.93 300.12 275.30 304.26 276.53 311.00 C 276.95 315.99 276.74 321.02 276.64 326.02 C 276.49 331.93 271.14 336.56 265.43 336.95 C 265.46 335.48 265.44 334.01 265.58 332.55 C 267.48 330.73 270.69 329.85 271.11 326.88 C 271.64 321.93 271.47 316.91 271.22 311.94 C 270.45 304.87 258.60 304.28 257.01 311.13 C 256.32 316.03 256.62 321.05 256.80 325.99 C 256.83 329.37 260.08 331.00 262.58 332.52 C 262.58 333.99 262.59 335.45 262.61 336.92 C 257.12 336.64 252.03 332.38 251.44 326.80 C 251.11 322.20 251.23 317.58 251.32 312.97 C 251.34 307.39 255.89 302.30 261.43 301.56 Z" />
<path fill="#fefefe" opacity="1.00" d=" M 84.75 302.67 C 91.10 300.87 97.84 302.01 104.35 301.79 C 104.36 303.47 104.36 305.15 104.34 306.83 C 98.67 307.10 92.94 306.39 87.31 307.24 C 84.66 307.55 83.53 311.65 85.96 313.00 C 91.17 316.14 97.49 317.03 102.57 320.45 C 106.35 323.29 106.73 329.24 103.88 332.87 C 101.92 335.71 98.23 336.40 95.00 336.47 C 89.85 336.56 84.71 336.54 79.57 336.43 C 79.53 334.74 79.50 333.06 79.45 331.37 C 85.25 330.97 91.09 331.66 96.86 330.97 C 100.08 330.79 101.49 325.96 98.52 324.37 C 93.25 321.40 87.01 320.45 81.96 317.04 C 77.01 313.27 78.73 304.34 84.75 302.67 Z" />
<path fill="#fefefe" opacity="1.00" d=" M 149.37 305.39 C 151.44 302.83 154.80 301.89 157.96 301.78 C 162.90 301.59 167.84 301.70 172.77 301.85 C 172.78 303.50 172.79 305.15 172.80 306.80 C 167.25 307.09 161.66 306.49 156.14 307.17 C 152.98 307.00 151.94 312.16 154.71 313.29 C 160.06 316.13 166.32 317.18 171.30 320.72 C 176.83 325.14 173.96 335.24 166.95 336.11 C 160.63 336.84 154.22 336.52 147.87 336.35 C 147.95 334.65 148.04 332.96 148.12 331.27 C 154.01 331.05 159.97 331.73 165.82 330.86 C 168.63 330.37 169.68 326.31 167.42 324.60 C 162.36 321.62 156.41 320.61 151.34 317.67 C 147.08 315.35 146.17 308.94 149.37 305.39 Z" />
<path fill="#fefefe" opacity="1.00" d=" M 183.59 316.39 C 178.98 311.88 182.01 303.44 188.17 302.31 C 194.28 301.23 200.55 301.76 206.72 301.90 C 206.72 303.54 206.73 305.18 206.75 306.82 C 201.20 306.99 195.63 306.55 190.11 307.11 C 186.93 307.02 185.80 312.13 188.74 313.33 C 193.64 316.03 199.29 317.08 204.13 319.91 C 207.71 322.03 209.06 326.79 207.53 330.58 C 206.18 333.99 202.66 336.29 199.02 336.36 C 193.27 336.62 187.50 336.57 181.75 336.36 C 181.79 334.67 181.83 333.00 181.89 331.33 C 187.57 331.08 193.28 331.56 198.95 331.05 C 201.99 330.94 203.87 326.81 201.29 324.78 C 195.84 321.12 188.66 320.68 183.59 316.39 Z" />
<path fill="#fefefe" opacity="1.00" d=" M 287.70 305.04 C 287.69 301.08 293.89 300.06 295.34 303.69 C 299.99 311.73 303.94 320.16 308.65 328.17 C 308.94 319.35 308.66 310.53 308.86 301.71 C 310.52 301.70 312.19 301.70 313.86 301.71 C 314.08 311.16 313.87 320.62 313.96 330.07 C 313.79 332.12 314.21 334.88 312.18 336.16 C 310.26 337.31 307.27 336.86 306.32 334.64 C 301.60 326.53 297.57 318.02 292.69 310.00 C 292.55 318.82 292.79 327.65 292.60 336.47 C 290.94 336.46 289.28 336.44 287.63 336.43 C 287.63 325.97 287.42 315.50 287.70 305.04 Z" />
</g>
</svg>
