<?xml version="1.0" encoding="UTF-8" ?>
<!DOCTYPE svg PUBLIC "-//W3C//DTD SVG 1.1//EN" "http://www.w3.org/Graphics/SVG/1.1/DTD/svg11.dtd">
<svg width="900pt" height="900pt" viewBox="0 0 900 900" version="1.1" xmlns="http://www.w3.org/2000/svg">
<g id="#fefefeff">
</g>
<g id="#c91240ff">
<path fill="#c91240" opacity="1.00" d=" M 280.40 161.53 C 296.59 160.79 312.92 163.96 327.86 170.18 C 354.91 182.26 378.67 200.20 402.60 217.39 C 422.78 231.54 443.21 246.08 466.62 254.40 C 485.21 262.06 506.08 264.95 525.87 260.78 C 544.72 257.11 561.27 246.90 578.86 239.72 C 589.41 234.65 600.63 231.22 611.74 227.59 C 625.41 223.68 639.91 220.91 654.07 223.77 C 668.48 225.76 680.50 236.19 687.13 248.76 C 689.31 252.81 689.81 257.45 689.65 261.98 C 685.02 261.68 682.36 257.62 679.09 254.92 C 670.19 247.55 658.29 244.25 646.84 245.57 C 619.33 249.45 594.15 261.90 568.95 272.90 C 550.39 280.92 531.45 289.39 510.96 290.51 C 499.50 290.74 487.87 291.09 476.66 288.29 C 463.94 285.03 451.42 280.59 440.04 273.97 C 423.15 265.02 407.56 253.91 391.73 243.28 C 381.45 236.24 371.35 228.95 361.06 221.91 C 345.54 210.61 329.70 199.16 311.52 192.52 C 299.26 188.01 285.92 187.43 273.06 189.06 C 263.41 190.34 254.22 194.56 246.75 200.76 C 243.06 203.80 240.53 207.91 237.51 211.54 C 233.81 216.02 228.18 218.12 223.90 221.91 C 217.45 227.55 211.00 233.91 208.26 242.26 C 205.83 249.14 205.67 256.50 204.48 263.63 C 203.50 269.79 199.06 274.57 194.80 278.80 C 187.25 285.73 178.91 291.73 170.42 297.43 C 168.69 298.78 165.73 301.06 167.39 303.46 C 170.59 307.34 176.62 309.18 177.34 314.82 C 178.89 320.32 174.75 324.85 173.40 329.84 C 175.03 332.81 177.79 334.97 179.41 337.96 C 178.10 340.41 176.15 342.50 175.08 345.08 C 175.53 349.22 178.84 353.08 177.31 357.35 C 175.69 362.07 172.11 366.81 173.91 372.03 C 175.36 377.02 181.51 377.60 185.89 377.54 C 196.24 376.71 206.59 375.50 217.00 375.65 C 232.57 375.34 248.83 376.85 262.89 384.05 C 279.89 392.84 287.64 412.74 288.68 430.92 C 286.83 430.52 284.48 430.55 283.62 428.52 C 279.31 420.78 274.93 412.77 268.12 406.90 C 257.21 397.09 242.29 392.92 227.87 392.42 C 210.50 391.53 193.28 394.47 175.94 394.63 C 168.22 394.81 159.11 394.67 153.60 388.39 C 149.66 384.28 150.25 378.20 150.24 372.97 C 150.13 368.21 151.96 363.71 152.28 359.00 C 151.29 356.02 148.82 353.83 147.66 350.94 C 147.11 346.29 151.44 343.35 153.53 339.73 C 152.83 336.49 149.52 334.25 149.32 330.80 C 148.86 325.63 155.08 323.00 155.40 318.06 C 152.63 312.60 146.74 309.46 144.23 303.81 C 142.77 300.82 143.04 296.90 145.49 294.51 C 150.16 289.64 156.42 286.77 161.81 282.81 C 168.87 277.65 176.84 273.30 182.19 266.19 C 184.70 262.91 185.17 258.68 185.83 254.74 C 187.36 244.72 190.50 234.97 194.87 225.83 C 197.57 219.92 202.49 215.49 207.31 211.31 C 211.46 207.67 216.54 205.30 220.77 201.77 C 224.51 198.63 225.03 193.43 227.47 189.44 C 234.94 176.58 248.61 168.80 262.50 164.68 C 268.40 163.30 274.36 162.06 280.40 161.53 Z" />
<path fill="#c91240" opacity="1.00" d=" M 301.92 221.29 C 314.13 220.72 326.30 224.19 336.78 230.38 C 354.45 240.79 369.53 254.83 385.64 267.37 C 395.10 274.33 404.22 281.76 414.35 287.75 C 423.38 294.26 433.36 299.21 442.85 304.99 C 450.21 309.13 458.07 312.30 466.14 314.78 C 478.50 319.55 491.90 320.36 505.00 321.06 C 515.98 320.40 527.21 319.62 537.57 315.62 C 543.84 313.40 550.41 312.07 556.56 309.48 C 566.48 305.38 576.59 301.73 586.42 297.40 C 594.93 294.05 602.91 289.51 611.52 286.43 C 621.69 282.71 631.80 278.64 642.43 276.41 C 653.13 274.20 664.02 271.48 675.03 272.83 C 686.22 274.61 697.64 278.19 706.36 285.70 C 714.78 294.37 720.68 306.34 719.47 318.68 C 717.63 318.47 715.70 318.62 713.97 317.93 C 711.15 315.03 709.67 311.08 706.71 308.29 C 702.30 304.04 696.73 301.21 691.06 299.05 C 684.98 296.66 678.33 297.44 671.96 297.35 C 663.90 297.23 656.07 299.41 648.36 301.49 C 630.21 307.10 612.57 314.28 595.47 322.53 C 575.11 332.02 553.93 339.81 532.12 345.24 C 520.25 347.73 508.19 349.91 496.01 349.45 C 481.46 350.04 466.74 347.51 453.34 341.78 C 449.64 340.31 445.87 339.04 442.11 337.73 C 434.58 335.20 427.92 330.79 421.16 326.74 C 406.48 317.92 394.14 305.90 381.76 294.22 C 373.32 286.99 366.07 278.52 357.59 271.34 C 352.77 267.18 348.58 262.33 343.60 258.34 C 331.90 248.61 318.29 240.66 303.35 237.29 C 293.07 234.86 282.67 237.64 272.32 237.49 C 272.51 235.03 272.14 232.06 274.45 230.45 C 282.04 224.15 292.10 221.05 301.92 221.29 Z" />
<path fill="#c91240" opacity="1.00" d=" M 322.69 297.68 C 323.84 292.87 329.44 292.13 333.58 292.60 C 349.75 294.49 363.47 304.21 375.60 314.41 C 387.29 324.34 397.96 335.44 409.86 345.14 C 417.71 350.80 425.30 357.00 434.15 361.08 C 442.77 365.49 451.68 369.30 460.49 373.32 C 479.94 379.06 500.73 380.37 520.70 376.64 C 539.66 373.90 557.86 367.62 575.54 360.44 C 585.07 356.31 594.90 352.89 604.18 348.18 C 622.09 341.48 639.58 333.28 658.37 329.21 C 667.74 326.83 677.37 325.70 686.96 324.64 C 702.64 324.77 719.48 329.69 729.69 342.30 C 735.21 349.83 739.25 358.70 740.12 368.07 C 740.26 370.05 739.94 372.57 737.89 373.47 C 734.85 372.22 733.14 369.26 731.17 366.82 C 727.65 362.04 722.94 358.21 717.74 355.40 C 712.35 352.95 706.41 352.16 700.65 351.04 C 692.72 349.47 684.75 351.45 676.91 352.59 C 670.05 353.60 663.54 356.08 656.81 357.65 C 650.50 359.09 645.01 362.70 638.93 364.80 C 624.33 370.06 610.59 377.34 596.29 383.31 C 591.45 385.45 586.78 388.00 581.67 389.48 C 570.31 392.76 559.34 397.27 548.08 400.87 C 538.38 403.38 528.34 404.10 518.47 405.70 C 508.36 407.01 498.13 406.37 487.97 406.37 C 471.51 404.96 454.50 402.48 440.08 393.87 C 427.32 387.58 416.07 378.78 404.93 370.04 C 397.96 363.35 390.46 357.20 383.89 350.11 C 374.86 339.83 364.93 330.40 355.39 320.60 C 349.99 314.94 343.77 310.16 337.67 305.29 C 333.28 301.69 327.80 299.96 322.69 297.68 Z" />
<path fill="#c91240" opacity="1.00" d=" M 432.53 450.76 C 439.90 450.23 447.35 450.44 454.73 450.64 C 457.58 450.55 457.51 453.92 457.54 455.94 C 457.47 487.65 457.51 519.36 457.50 551.07 C 457.16 555.66 461.41 559.67 465.93 559.46 C 487.96 559.49 510.01 559.51 532.05 559.43 C 535.11 559.19 538.21 560.36 539.98 562.96 C 543.47 567.97 545.36 574.39 544.30 580.48 C 543.43 583.01 540.32 583.48 538.00 583.50 C 510.33 583.47 482.66 583.46 454.99 583.49 C 447.13 583.63 439.23 579.89 434.68 573.42 C 431.57 568.59 430.37 562.73 430.40 557.04 C 430.47 523.34 430.45 489.64 430.39 455.94 C 430.57 454.13 430.11 451.16 432.53 450.76 Z" />
<path fill="#c91240" opacity="1.00" d=" M 61.63 451.68 C 65.60 450.35 69.87 450.68 73.99 450.60 C 77.70 450.68 81.58 450.50 85.09 451.92 C 87.65 453.28 88.39 456.32 89.18 458.88 C 91.11 466.36 93.83 473.59 96.05 480.98 C 100.17 493.64 103.89 506.43 108.09 519.07 C 110.57 525.82 112.55 532.74 114.46 539.67 C 115.53 539.66 116.61 539.68 117.69 539.74 C 125.22 518.96 132.46 498.07 140.25 477.39 C 142.58 471.12 144.23 464.49 147.78 458.76 C 149.76 455.48 153.28 453.38 157.06 452.97 C 163.04 452.25 169.22 452.41 175.06 453.94 C 178.60 454.87 180.30 458.43 181.47 461.57 C 183.76 468.01 185.63 474.59 188.12 480.96 C 192.58 491.88 195.30 503.48 200.73 513.99 C 204.91 522.57 205.28 532.48 209.85 540.88 C 210.40 540.68 211.50 540.26 212.05 540.06 C 217.08 526.48 220.70 512.43 225.67 498.83 C 229.96 484.89 235.21 471.26 239.21 457.23 C 239.98 454.35 241.64 451.08 245.04 450.95 C 252.32 450.44 259.69 450.46 266.95 451.36 C 266.95 457.86 263.50 463.55 261.88 469.69 C 260.12 476.04 257.77 482.20 255.57 488.41 C 245.85 517.99 235.92 547.50 226.15 577.05 C 225.41 579.49 223.87 582.16 221.00 582.29 C 215.67 582.77 210.31 582.41 204.97 582.52 C 202.44 582.42 199.26 582.68 197.66 580.27 C 194.20 575.41 193.06 569.40 190.93 563.93 C 181.93 540.16 173.67 516.12 164.67 492.36 C 164.03 492.32 162.74 492.25 162.10 492.22 C 158.59 499.02 156.39 506.38 153.54 513.47 C 145.44 534.70 137.34 555.94 129.25 577.17 C 128.22 579.37 127.01 582.59 124.06 582.40 C 117.08 582.47 110.05 582.82 103.09 582.17 C 98.68 577.19 98.12 570.07 95.88 564.02 C 87.95 540.19 80.31 516.27 72.50 492.40 C 68.96 480.43 64.94 468.60 60.97 456.76 C 60.61 455.12 59.57 452.58 61.63 451.68 Z" />
<path fill="#c91240" opacity="1.00" d=" M 556.74 453.08 C 557.80 450.71 560.75 451.38 562.84 451.23 C 568.17 451.55 573.56 451.14 578.88 451.80 C 581.72 452.32 581.47 455.74 581.56 457.95 C 581.40 486.63 581.58 515.32 581.46 544.00 C 581.51 547.42 581.11 550.93 581.91 554.30 C 583.24 557.58 586.43 560.37 590.10 560.43 C 615.28 560.70 640.50 560.04 665.68 560.76 C 664.95 566.39 661.38 570.97 659.11 576.03 C 657.67 578.89 655.82 582.59 652.06 582.43 C 629.04 582.58 606.01 582.36 583.00 582.52 C 579.01 582.56 574.92 582.43 571.17 580.94 C 562.37 577.60 556.45 568.35 556.43 559.04 C 556.47 527.69 556.48 496.34 556.45 465.00 C 556.50 461.02 556.07 457.01 556.74 453.08 Z" />
<path fill="#c91240" opacity="1.00" d=" M 743.33 451.32 C 750.17 450.22 757.13 450.79 764.03 450.70 C 772.28 450.59 781.06 454.32 785.23 461.73 C 790.58 472.23 795.85 482.77 800.50 493.60 C 805.73 504.02 810.39 514.72 815.84 525.04 C 821.77 538.11 827.96 551.06 834.03 564.06 C 835.90 568.29 838.47 572.15 840.63 576.23 C 841.89 578.17 841.21 580.50 840.93 582.62 C 833.41 582.55 825.89 582.35 818.38 582.59 C 815.71 582.74 812.74 582.27 811.08 579.95 C 806.28 573.06 805.11 564.02 799.53 557.65 C 795.37 557.10 791.17 557.48 787.00 557.42 C 763.35 557.47 739.70 557.38 716.06 557.46 C 713.13 557.27 711.67 560.27 710.60 562.50 C 708.14 568.28 706.16 574.35 702.57 579.57 C 701.69 580.79 700.60 582.14 698.98 582.25 C 694.01 582.81 688.99 582.33 684.00 582.50 C 680.40 582.44 676.70 582.85 673.20 581.87 C 671.03 578.70 674.02 575.20 675.19 572.24 C 680.05 562.65 684.90 553.04 689.15 543.16 C 695.44 530.05 702.11 517.10 707.75 503.69 C 712.59 493.92 717.48 484.18 722.23 474.37 C 724.56 469.24 726.74 463.84 730.85 459.83 C 734.45 456.35 738.09 452.09 743.33 451.32 M 748.04 482.27 C 743.04 492.91 737.88 503.48 732.94 514.15 C 729.61 521.35 725.35 528.35 724.24 536.34 C 743.16 536.87 762.10 536.34 781.03 536.62 C 784.00 536.85 786.91 536.07 789.31 534.28 C 786.75 527.77 784.52 521.10 781.26 514.90 C 776.17 504.54 771.61 493.93 766.44 483.62 C 764.26 479.86 761.68 475.26 756.96 474.55 C 752.40 474.31 749.77 478.70 748.04 482.27 Z" />
<path fill="#c91240" opacity="1.00" d=" M 295.03 455.87 C 300.23 452.21 306.82 451.66 312.98 451.52 C 343.33 451.52 373.67 451.60 404.02 451.46 C 406.71 451.62 409.84 451.12 412.09 452.95 C 414.04 454.94 413.11 457.84 412.57 460.20 C 411.38 465.74 406.49 469.70 405.84 475.42 C 376.87 475.51 347.91 475.50 318.95 475.44 C 315.90 475.43 312.40 475.88 310.45 478.52 C 307.02 482.89 307.53 488.80 307.47 494.02 C 307.64 496.70 307.27 499.77 308.96 502.05 C 310.88 503.71 313.60 503.44 315.97 503.56 C 336.67 503.43 357.37 503.57 378.07 503.47 C 380.09 503.49 383.46 503.38 383.38 506.26 C 383.80 513.29 383.36 520.35 383.41 527.40 C 365.94 527.72 348.47 527.46 331.00 527.57 C 323.33 527.66 315.64 527.19 308.00 528.03 C 307.31 535.69 307.56 543.40 307.60 551.08 C 307.40 555.69 311.08 560.69 315.99 560.47 C 344.34 560.40 372.70 560.49 401.05 560.41 C 404.11 560.40 407.56 560.85 409.64 563.37 C 412.65 566.85 413.86 571.52 414.42 576.00 C 414.55 578.06 414.78 580.75 412.75 582.02 C 409.24 582.88 405.57 582.47 402.00 582.53 C 371.99 582.41 341.97 582.58 311.96 582.46 C 305.07 581.91 297.33 582.01 291.74 577.28 C 284.61 571.81 280.53 562.99 280.61 554.03 C 280.51 529.69 280.68 505.34 280.55 480.99 C 280.56 475.86 281.08 470.44 283.94 466.04 C 286.72 461.78 290.89 458.70 295.03 455.87 Z" />
<path fill="#c91240" opacity="1.00" d=" M 223.40 604.61 C 229.53 603.97 235.69 604.98 241.59 606.60 C 247.68 608.24 252.53 613.10 255.27 618.65 C 257.85 624.88 257.75 631.83 257.39 638.45 C 256.99 646.29 252.14 653.34 245.91 657.82 C 236.93 662.67 226.15 662.13 216.39 660.49 C 205.61 658.89 198.11 648.35 197.51 637.90 C 197.01 629.25 197.44 619.42 203.85 612.84 C 208.73 607.22 216.30 605.38 223.40 604.61 M 223.39 611.43 C 217.59 611.88 211.29 613.91 207.89 618.96 C 203.66 624.70 204.29 632.27 204.80 638.99 C 205.34 645.62 210.03 651.64 216.35 653.73 C 224.22 656.34 233.13 656.21 240.74 652.79 C 247.95 649.24 250.96 640.61 250.71 633.00 C 250.97 625.84 248.37 617.88 241.99 613.99 C 236.30 611.02 229.62 611.21 223.39 611.43 Z" />
<path fill="#c91240" opacity="1.00" d=" M 401.72 606.86 C 410.89 602.96 421.31 604.08 430.67 606.66 C 433.16 607.04 435.88 610.39 433.55 612.52 C 432.27 614.52 429.57 613.20 427.67 613.11 C 419.65 610.98 410.79 610.46 403.09 613.99 C 399.08 615.93 397.72 622.69 402.25 624.85 C 410.45 628.65 420.07 627.84 428.19 631.91 C 432.42 634.53 437.18 638.47 436.67 644.01 C 437.35 651.04 431.86 657.07 425.71 659.61 C 420.80 661.93 415.24 661.63 409.95 661.61 C 404.45 661.62 398.85 660.54 393.99 657.90 C 391.21 656.62 392.97 653.24 393.09 650.99 C 400.66 652.60 407.97 656.61 415.94 655.30 C 421.17 654.43 427.32 652.28 429.34 646.86 C 430.65 643.38 427.89 640.35 424.94 638.96 C 416.66 635.00 406.72 636.10 398.81 631.14 C 395.58 629.13 392.05 626.18 392.32 621.96 C 391.42 615.46 395.85 609.28 401.72 606.86 Z" />
<path fill="#c91240" opacity="1.00" d=" M 466.40 604.55 C 471.96 604.02 477.50 605.07 482.91 606.27 C 484.78 606.77 486.94 607.17 488.21 608.80 C 489.34 610.53 488.40 613.88 485.90 613.50 C 481.45 613.21 477.22 611.41 472.73 611.32 C 466.51 611.07 459.53 611.42 454.50 615.51 C 451.00 618.68 453.03 624.15 456.73 626.15 C 466.02 631.01 477.85 628.96 486.39 635.55 C 491.33 638.91 491.88 646.13 489.11 651.03 C 485.81 656.28 480.40 660.50 474.09 661.17 C 465.70 662.06 456.75 661.68 449.08 657.85 C 446.24 656.93 446.81 652.46 449.27 651.40 C 452.72 652.24 455.87 654.01 459.35 654.77 C 467.62 656.64 477.19 655.61 483.59 649.57 C 486.37 647.36 486.26 642.65 483.59 640.40 C 480.71 637.38 476.45 636.51 472.54 635.71 C 465.95 634.37 458.98 633.56 453.19 629.88 C 449.34 627.45 446.37 622.80 447.74 618.14 C 450.12 610.09 458.19 604.82 466.40 604.55 Z" />
<path fill="#c91240" opacity="1.00" d=" M 558.41 604.59 C 567.31 604.01 576.96 605.43 584.38 610.67 C 592.63 619.03 593.36 632.11 591.01 643.04 C 590.12 648.78 585.57 652.78 581.52 656.49 C 576.03 661.48 568.06 661.30 561.10 661.51 C 552.10 661.72 542.02 659.27 536.62 651.49 C 530.83 641.10 530.20 627.91 535.29 617.12 C 537.20 613.49 540.75 611.16 544.03 608.89 C 548.21 605.92 553.42 605.09 558.41 604.59 M 559.41 611.43 C 553.33 612.13 545.78 612.28 542.09 618.02 C 537.84 623.41 538.26 630.58 538.46 637.04 C 538.47 641.44 540.67 645.43 543.16 648.92 C 545.73 652.59 550.44 653.56 554.53 654.56 C 563.00 656.63 572.29 655.29 579.63 650.53 C 583.67 647.77 585.24 642.68 585.55 638.02 C 585.75 633.80 586.95 629.44 585.50 625.32 C 584.14 621.26 582.04 617.06 578.23 614.80 C 572.63 611.35 565.80 611.05 559.41 611.43 Z" />
<path fill="#c91240" opacity="1.00" d=" M 815.79 606.96 C 821.97 603.78 829.14 604.25 835.86 604.62 C 840.04 605.19 844.49 605.62 848.17 607.87 C 848.52 609.76 848.55 611.68 848.65 613.60 C 840.47 613.76 832.51 610.06 824.31 611.94 C 819.64 612.48 814.67 615.08 813.55 620.01 C 814.39 624.39 819.21 626.12 823.00 627.22 C 831.50 629.42 841.65 629.03 848.16 635.85 C 853.31 640.60 852.11 649.05 848.14 654.15 C 844.00 659.08 837.43 661.68 831.05 661.57 C 823.39 661.74 815.18 661.65 808.45 657.51 C 806.08 656.33 806.58 653.37 806.11 651.22 C 813.99 651.19 821.02 656.08 828.97 655.41 C 833.92 654.90 839.00 653.18 842.63 649.65 C 845.20 647.30 845.45 642.54 842.19 640.68 C 833.45 634.67 821.76 636.58 812.73 631.15 C 808.40 628.66 805.83 623.31 806.61 618.39 C 808.06 613.64 811.33 609.26 815.79 606.96 Z" />
<path fill="#c91240" opacity="1.00" d=" M 611.51 605.56 C 614.55 604.65 616.72 607.51 618.70 609.30 C 630.91 622.16 644.08 634.13 655.36 647.86 C 657.21 644.81 656.74 641.20 656.99 637.82 C 657.83 627.57 657.18 617.28 657.42 607.02 C 659.64 606.51 663.46 605.77 663.44 609.21 C 663.73 623.47 663.40 637.76 663.58 652.03 C 663.52 654.40 663.74 656.86 663.08 659.18 C 661.82 661.06 658.99 661.00 657.45 659.53 C 652.61 655.37 648.95 650.05 644.39 645.61 C 637.75 638.58 630.37 632.24 624.39 624.62 C 622.22 621.94 619.36 619.97 616.50 618.14 C 615.53 621.67 615.30 625.35 615.45 629.00 C 615.65 639.06 615.34 649.11 615.62 659.17 C 613.22 659.55 610.77 659.54 608.38 659.15 C 608.61 643.09 608.39 627.03 608.46 610.97 C 608.31 608.74 609.23 606.30 611.51 605.56 Z" />
<path fill="#c91240" opacity="1.00" d=" M 77.46 606.55 C 82.61 605.87 87.83 606.61 93.00 606.04 C 98.80 605.44 104.68 605.68 110.41 606.77 C 114.99 607.71 118.44 611.29 121.03 614.97 C 124.76 620.42 123.63 627.92 120.21 633.24 C 118.08 636.68 114.10 638.23 110.37 639.24 C 101.23 641.87 91.60 639.50 82.34 641.32 C 81.24 647.57 82.02 653.96 81.00 660.22 C 79.21 659.68 77.16 659.62 75.69 658.34 C 75.27 655.92 75.35 653.46 75.34 651.02 C 75.49 637.68 75.34 624.33 75.35 610.98 C 75.44 609.35 75.30 606.79 77.46 606.55 M 82.23 613.33 C 80.86 620.02 81.54 626.99 82.31 633.73 C 88.51 634.64 94.79 634.55 101.04 634.42 C 105.61 634.26 110.57 633.32 113.90 629.93 C 118.74 624.99 116.22 615.33 109.58 613.36 C 103.89 611.71 97.88 611.61 92.00 611.58 C 88.71 611.67 85.15 611.57 82.23 613.33 Z" />
<path fill="#c91240" opacity="1.00" d=" M 274.37 610.98 C 274.27 609.06 274.66 606.23 277.23 606.46 C 285.15 606.32 293.08 605.49 301.00 606.20 C 306.74 606.60 312.55 605.73 318.24 606.73 C 318.64 608.33 318.77 609.98 318.95 611.63 C 306.50 613.50 293.80 611.08 281.38 613.11 C 281.46 618.16 280.80 623.29 281.70 628.31 C 281.94 628.56 282.43 629.08 282.68 629.34 C 292.63 630.48 302.75 628.72 312.69 630.49 C 312.67 632.18 312.68 633.88 312.69 635.58 C 302.41 636.24 292.09 635.03 281.83 636.17 C 280.69 644.03 281.97 652.03 280.50 659.87 C 278.60 659.44 276.06 660.09 274.76 658.31 C 274.27 655.91 274.39 653.45 274.36 651.02 C 274.45 637.68 274.38 624.33 274.37 610.98 Z" />
<path fill="#c91240" opacity="1.00" d=" M 333.70 607.69 C 336.47 605.43 340.63 606.24 344.00 605.80 C 355.28 606.57 366.58 606.22 377.88 606.30 C 378.23 607.89 378.61 609.48 379.04 611.07 C 367.38 613.90 355.25 611.30 343.42 612.56 C 341.69 612.79 340.37 614.51 340.42 616.24 C 340.11 620.18 340.60 624.14 340.94 628.07 C 351.37 630.68 362.05 628.21 372.57 629.41 C 372.55 630.98 372.63 632.55 372.86 634.13 C 363.92 635.29 354.90 634.20 345.93 634.75 C 344.11 635.05 341.85 635.03 340.66 636.68 C 339.99 642.30 340.34 648.02 341.24 653.60 C 353.35 655.33 365.62 653.84 377.78 654.50 C 380.38 654.26 381.19 657.31 380.39 659.30 C 377.91 660.90 374.84 660.54 372.04 660.62 C 361.39 660.42 350.73 660.69 340.08 660.57 C 337.45 660.61 333.65 659.94 333.59 656.60 C 333.00 645.76 333.75 634.89 333.47 624.03 C 333.55 618.59 332.98 613.10 333.70 607.69 Z" />
<path fill="#c91240" opacity="1.00" d=" M 507.45 609.23 C 507.21 606.18 511.09 605.74 513.21 606.68 C 514.10 609.35 514.38 612.19 514.26 614.99 C 513.04 629.90 514.20 644.88 513.54 659.82 C 511.47 659.59 509.41 659.38 507.35 659.15 C 507.60 642.51 507.21 625.86 507.45 609.23 Z" />
<path fill="#c91240" opacity="1.00" d=" M 754.09 606.06 C 756.07 606.56 758.70 606.00 760.14 607.79 C 760.55 609.47 760.51 611.21 760.56 612.94 C 760.43 624.64 760.46 636.35 760.48 648.05 C 760.60 649.95 760.53 653.04 763.10 653.26 C 773.61 654.08 784.21 653.06 794.74 653.62 C 797.52 653.44 798.34 657.13 797.16 659.11 C 796.16 660.94 793.77 660.33 792.06 660.59 C 781.02 660.56 769.97 660.53 758.93 660.60 C 756.87 660.56 753.47 660.68 753.61 657.75 C 753.15 648.85 753.64 639.91 753.49 631.00 C 753.72 622.69 752.84 614.32 754.09 606.06 Z" />
<path fill="#c91240" opacity="1.00" d=" M 139.46 607.46 C 142.38 605.92 145.83 606.56 149.01 606.44 C 156.35 606.71 163.70 606.17 171.03 606.64 C 180.19 607.38 187.36 618.33 182.95 626.77 C 180.90 631.93 175.48 634.15 170.92 636.57 C 173.81 644.88 181.37 650.16 186.29 657.15 C 187.31 660.10 182.94 660.05 181.36 658.89 C 174.41 652.76 170.77 643.53 163.45 637.80 C 157.20 636.92 150.85 637.66 144.56 637.57 C 144.28 644.02 144.85 650.49 144.27 656.92 C 144.23 658.61 142.32 659.33 140.95 659.70 C 138.81 657.74 138.40 654.79 138.46 652.05 C 138.51 639.35 138.57 626.66 138.45 613.97 C 138.56 611.78 138.27 609.40 139.46 607.46 M 148.36 612.31 C 147.33 612.52 146.39 612.93 145.54 613.55 C 144.05 617.85 144.49 622.54 144.74 627.01 C 145.06 628.63 144.89 631.10 147.14 631.17 C 152.72 631.96 158.40 631.35 164.02 631.55 C 168.16 631.76 172.55 630.65 175.39 627.46 C 179.92 623.06 177.03 614.07 170.81 613.02 C 163.48 611.46 155.75 610.94 148.36 612.31 Z" />
<path fill="#c91240" opacity="1.00" d=" M 706.30 606.95 C 709.61 605.12 712.78 608.04 714.25 610.85 C 719.78 621.56 725.55 632.14 731.48 642.64 C 734.61 648.33 739.44 653.41 740.07 660.15 C 738.40 660.18 736.58 660.76 735.01 660.07 C 731.27 656.24 730.87 649.99 726.45 646.76 C 721.01 646.04 715.48 646.64 710.00 646.49 C 703.31 646.72 696.53 645.90 689.89 646.90 C 687.07 650.66 686.33 655.69 683.05 659.13 C 681.41 660.78 678.96 660.22 676.90 660.18 C 677.31 658.51 677.50 656.75 678.35 655.23 C 685.55 644.74 690.47 632.91 696.89 621.95 C 699.96 616.95 700.85 610.09 706.30 606.95 M 707.40 612.82 C 702.84 621.63 699.12 630.85 694.11 639.44 C 699.59 641.12 705.35 640.39 710.99 640.52 C 714.88 640.50 718.89 640.76 722.62 639.38 C 718.84 631.14 715.55 622.64 711.12 614.72 C 710.30 613.45 708.68 613.29 707.40 612.82 Z" />
</g>
</svg>
