<?xml version="1.0" encoding="UTF-8" ?>
<!DOCTYPE svg PUBLIC "-//W3C//DTD SVG 1.1//EN" "http://www.w3.org/Graphics/SVG/1.1/DTD/svg11.dtd">
<svg width="707pt" height="507pt" viewBox="0 0 707 507" version="1.1" xmlns="http://www.w3.org/2000/svg">
<g id="#a8a9adff">
<path fill="#a8a9ad" opacity="1.00" d=" M 334.96 81.91 C 340.43 86.26 344.69 92.76 344.39 99.98 C 344.00 110.45 339.06 120.06 334.03 129.02 C 328.55 128.15 322.96 127.97 317.46 128.78 C 323.91 117.64 331.36 106.69 334.42 93.99 C 335.37 90.03 335.32 85.94 334.96 81.91 Z" />
<path fill="#a8a9ad" opacity="1.00" d=" M 630.57 91.60 C 639.25 97.58 642.63 109.98 638.58 119.65 C 632.06 136.79 623.60 153.11 615.63 169.62 C 604.13 193.28 591.36 216.72 585.45 242.58 C 582.17 240.96 578.50 241.05 574.97 241.48 C 576.25 222.75 583.54 205.12 591.18 188.20 C 600.86 167.94 611.06 147.93 620.58 127.59 C 624.13 119.62 628.04 111.74 630.53 103.35 C 631.76 99.51 630.85 95.51 630.57 91.60 Z" />
<path fill="#a8a9ad" opacity="1.00" d=" M 581.43 101.81 C 583.27 101.99 585.12 102.18 586.98 102.37 C 586.20 104.87 585.23 107.31 584.02 109.63 C 582.17 107.45 581.50 104.60 581.43 101.81 Z" />
<path fill="#a8a9ad" opacity="1.00" d=" M 160.98 123.87 C 175.77 114.98 192.57 108.57 210.02 108.58 C 214.26 108.71 218.67 108.83 222.59 110.64 C 220.94 114.12 219.53 117.70 218.26 121.34 C 195.08 121.84 173.62 132.89 155.53 146.66 C 140.70 158.16 127.97 172.52 118.94 189.01 C 113.68 198.80 109.71 209.74 110.30 221.02 C 110.27 225.19 111.45 229.22 112.25 233.28 C 104.71 227.32 101.30 217.36 101.18 207.99 C 100.52 192.20 108.11 177.54 116.79 164.87 C 128.32 148.21 143.61 134.25 160.98 123.87 Z" />
<path fill="#a8a9ad" opacity="1.00" d=" M 240.02 145.04 C 243.59 135.14 249.88 126.52 255.97 118.04 C 255.60 119.37 255.22 120.70 254.70 121.98 C 247.04 140.17 241.24 159.07 236.08 178.11 C 229.00 177.50 223.89 171.32 222.81 164.60 C 225.85 164.98 229.02 165.87 232.04 164.81 C 237.44 163.35 241.32 157.61 240.45 152.05 C 240.17 149.73 238.91 147.34 240.02 145.04 Z" />
<path fill="#a8a9ad" opacity="1.00" d=" M 506.50 161.54 C 508.63 162.97 510.26 164.98 511.81 167.00 C 510.31 169.03 508.79 171.03 507.23 173.00 C 507.31 169.16 506.93 165.35 506.50 161.54 Z" />
<path fill="#a8a9ad" opacity="1.00" d=" M 270.80 188.91 C 276.41 182.52 281.53 175.71 287.22 169.39 C 287.68 171.62 288.23 173.85 288.49 176.13 C 287.70 178.53 285.84 180.42 284.67 182.65 C 278.05 194.30 273.54 207.47 273.47 220.97 C 273.31 225.64 272.53 230.26 272.17 234.92 C 269.40 233.42 266.35 232.53 263.20 232.53 C 262.38 219.92 264.58 207.32 266.97 194.98 C 267.26 192.45 269.31 190.77 270.80 188.91 Z" />
<path fill="#a8a9ad" opacity="1.00" d=" M 398.14 182.19 C 406.68 176.22 417.75 171.83 428.05 175.88 C 425.42 179.99 422.79 184.11 420.40 188.36 C 411.79 191.46 403.65 196.47 397.82 203.60 C 394.47 199.88 391.04 196.17 388.24 192.02 C 390.31 187.76 394.39 184.90 398.14 182.19 Z" />
<path fill="#a8a9ad" opacity="1.00" d=" M 318.05 203.76 C 322.66 203.99 327.35 203.69 331.55 201.59 C 329.33 209.56 325.42 217.01 320.87 223.90 C 318.29 227.43 315.39 231.47 310.92 232.57 C 308.92 232.92 309.38 230.23 309.14 229.07 C 308.35 219.76 312.96 211.18 318.05 203.76 Z" />
<path fill="#a8a9ad" opacity="1.00" d=" M 363.98 211.78 C 366.07 213.83 367.38 216.50 369.28 218.71 C 372.17 222.42 375.78 225.45 378.97 228.88 C 375.93 230.50 375.01 226.23 373.52 224.49 C 371.46 227.09 371.96 232.10 367.95 232.62 C 362.41 234.22 356.65 235.00 351.21 236.95 C 356.86 229.35 360.91 220.70 363.98 211.78 Z" />
<path fill="#a8a9ad" opacity="1.00" d=" M 448.88 215.71 C 456.99 216.42 464.83 214.21 472.40 211.59 C 467.14 217.57 461.44 223.35 454.88 227.91 C 451.74 229.95 448.42 231.87 444.66 232.40 C 444.63 226.58 446.46 220.94 448.88 215.71 Z" />
<path fill="#a8a9ad" opacity="1.00" d=" M 225.79 234.77 C 226.53 233.97 227.47 233.42 228.47 233.00 C 228.80 238.79 230.50 244.37 232.96 249.59 C 221.62 260.10 208.26 268.31 194.01 274.25 C 175.36 282.00 155.28 287.00 134.99 286.57 C 119.69 286.39 104.15 281.59 92.43 271.54 C 87.07 266.87 82.09 261.49 78.95 255.05 C 88.88 264.36 101.39 270.96 114.96 272.84 C 137.87 275.99 161.14 270.87 182.40 262.42 C 198.39 256.00 213.51 246.95 225.79 234.77 Z" />
<path fill="#a8a9ad" opacity="1.00" d=" M 452.94 262.25 C 466.54 259.72 477.23 250.12 486.85 240.80 C 489.47 245.33 492.57 249.60 496.37 253.22 C 486.47 263.01 475.24 273.05 460.96 275.23 C 451.21 276.29 440.85 274.78 432.42 269.56 C 428.65 267.31 425.90 263.86 423.12 260.55 C 414.66 272.56 399.87 280.35 385.05 279.31 C 377.14 278.88 369.06 277.06 362.45 272.52 C 358.66 269.92 355.62 265.92 355.27 261.21 C 365.17 265.98 376.62 267.85 387.44 265.60 C 397.74 263.14 407.13 256.93 413.50 248.48 C 413.76 248.42 414.29 248.30 414.56 248.24 C 422.85 260.45 439.02 264.26 452.94 262.25 Z" />
<path fill="#a8a9ad" opacity="1.00" d=" M 327.03 256.29 C 334.44 253.65 340.63 248.68 346.25 243.31 C 346.20 246.18 345.80 249.21 346.93 251.95 C 347.95 254.76 350.12 256.92 352.14 259.05 C 341.69 269.30 326.30 273.88 311.89 271.57 C 300.83 270.20 289.85 263.24 286.21 252.33 C 298.07 260.33 313.81 261.22 327.03 256.29 Z" />
<path fill="#a8a9ad" opacity="1.00" d=" M 534.51 252.45 C 537.64 249.96 540.01 246.66 543.16 244.20 C 544.05 248.89 544.79 253.74 547.16 257.96 C 547.59 259.08 549.06 260.61 547.58 261.61 C 541.09 268.21 532.67 274.23 523.00 273.94 C 514.95 274.01 507.85 269.07 502.77 263.21 C 500.36 260.25 497.67 257.34 496.46 253.65 C 500.82 256.87 505.41 260.25 510.95 260.95 C 519.68 262.38 528.10 258.01 534.51 252.45 Z" />
<path fill="#a8a9ad" opacity="1.00" d=" M 277.38 245.90 C 285.72 248.37 288.74 259.15 284.27 266.22 C 279.53 274.09 269.26 275.43 260.89 274.78 C 251.30 274.14 243.24 266.90 240.19 258.00 C 249.04 263.29 260.64 263.60 269.73 258.73 C 274.40 256.18 276.89 251.05 277.38 245.90 Z" />
<path fill="#a8a9ad" opacity="1.00" d=" M 575.74 269.65 C 582.97 267.35 590.55 262.51 591.84 254.40 C 597.03 255.59 601.22 260.55 600.86 265.98 C 601.00 271.41 597.20 276.06 592.81 278.81 C 586.88 282.43 579.77 284.82 572.79 283.35 C 564.33 281.97 557.15 275.33 554.86 267.12 C 561.09 270.73 568.83 272.19 575.74 269.65 Z" />
<path fill="#a8a9ad" opacity="1.00" d=" M 524.29 366.46 C 536.54 367.33 548.75 368.51 560.93 370.04 C 557.92 369.86 554.91 369.65 551.90 369.64 C 553.40 370.92 555.42 371.16 557.26 371.70 C 551.41 372.66 545.60 371.07 539.80 370.43 C 540.65 370.48 542.33 370.57 543.18 370.61 L 542.42 369.21 C 536.30 368.88 530.36 367.23 524.29 366.46 Z" />
</g>
<g id="#1e1a1bff">
<path fill="#1e1a1b" opacity="1.00" d=" M 79.55 41.78 C 82.66 41.19 85.81 40.81 88.97 40.75 C 261.64 40.74 434.32 40.75 606.99 40.75 C 614.00 40.81 621.11 40.31 628.01 41.91 C 642.47 44.93 655.35 54.49 662.51 67.40 C 666.90 75.15 669.10 84.05 669.16 92.95 C 669.16 205.61 669.17 318.28 669.16 430.94 C 669.22 445.61 662.77 460.13 651.79 469.86 C 642.33 478.38 629.70 483.18 616.97 483.15 C 444.66 483.14 272.35 483.15 100.04 483.15 C 93.01 483.10 85.89 483.54 78.97 481.98 C 64.33 478.90 51.29 469.12 44.20 455.94 C 40.00 448.33 37.91 439.65 37.84 430.98 C 37.84 319.32 37.86 207.66 37.83 95.99 C 37.62 87.84 38.83 79.58 42.16 72.09 C 48.73 56.71 63.13 45.00 79.55 41.78 M 80.49 52.61 C 62.57 56.57 48.66 73.65 48.66 92.04 C 48.62 205.00 48.65 317.97 48.64 430.94 C 48.29 448.75 60.94 465.67 78.02 470.60 C 84.79 472.85 92.00 472.31 99.02 472.35 C 271.99 472.35 444.96 472.35 617.93 472.35 C 626.57 472.22 635.12 469.18 641.99 463.95 C 652.18 456.31 658.47 443.78 658.36 431.03 C 658.35 318.05 658.37 205.07 658.35 92.08 C 658.29 75.84 647.55 60.41 632.46 54.51 C 627.56 52.53 622.29 51.50 617.01 51.52 C 441.33 51.53 265.66 51.53 89.98 51.52 C 86.79 51.51 83.60 51.88 80.49 52.61 Z" />
<path fill="#1e1a1b" opacity="1.00" d=" M 86.26 56.35 C 127.82 56.01 169.40 56.30 210.97 56.20 C 346.64 56.21 482.31 56.19 617.98 56.21 C 636.93 56.10 653.77 73.07 653.67 92.00 C 653.71 205.00 653.68 318.01 653.69 431.02 C 653.77 439.70 650.55 448.34 644.90 454.92 C 638.07 462.97 627.61 467.83 617.04 467.69 C 441.04 467.68 265.03 467.70 89.03 467.68 C 79.26 467.56 69.67 463.17 63.06 455.99 C 56.82 449.29 53.22 440.18 53.31 431.01 C 53.32 317.99 53.29 204.97 53.33 91.95 C 53.31 74.01 68.38 57.74 86.26 56.35 M 87.40 60.58 C 74.95 61.43 63.53 70.21 59.48 82.00 C 56.80 89.03 57.85 96.66 57.65 104.00 C 57.65 213.34 57.64 322.67 57.65 432.00 C 57.81 444.66 66.30 456.63 78.10 461.13 C 85.98 464.48 94.70 463.11 103.01 463.39 C 274.36 463.39 445.71 463.38 617.07 463.40 C 627.44 463.47 637.65 458.11 643.54 449.59 C 647.55 443.93 649.56 436.96 649.40 430.04 C 649.37 317.37 649.43 204.70 649.37 92.03 C 649.35 75.96 635.63 61.53 619.61 60.58 C 607.74 60.36 595.86 60.55 584.00 60.49 C 418.46 60.55 252.93 60.36 87.40 60.58 Z" />
<path fill="#1e1a1b" opacity="1.00" d=" M 289.59 80.44 C 292.87 76.77 296.76 72.85 301.90 72.28 C 309.20 71.87 316.43 75.39 321.37 80.65 C 325.10 84.64 323.68 90.52 322.15 95.15 C 318.30 106.10 311.92 115.92 305.55 125.54 C 290.96 146.93 274.46 166.94 257.71 186.66 C 256.61 187.82 256.46 189.47 256.11 190.95 C 253.25 204.75 250.95 218.83 251.66 232.97 C 252.08 236.94 252.50 241.51 255.60 244.40 C 258.49 246.97 262.09 244.28 265.25 243.85 C 266.69 246.54 264.53 249.37 261.81 249.86 C 256.47 251.16 249.92 251.48 245.65 247.39 C 241.68 243.50 240.47 237.77 239.82 232.46 C 238.64 220.51 241.00 208.59 243.43 196.94 C 250.22 166.45 259.84 136.51 273.17 108.22 C 277.77 98.50 282.65 88.73 289.59 80.44 M 303.75 88.82 C 295.11 99.02 288.96 111.01 282.76 122.77 C 273.45 140.86 265.38 159.62 259.17 179.00 C 263.33 174.17 266.91 168.88 270.79 163.83 C 283.80 146.12 296.73 128.25 307.47 109.04 C 311.12 102.07 315.03 94.96 316.14 87.06 C 316.31 85.33 316.45 82.32 314.13 82.03 C 309.73 82.23 306.55 85.82 303.75 88.82 Z" />
<path fill="#1e1a1b" opacity="1.00" d=" M 252.41 83.56 C 256.75 83.10 262.79 82.64 265.40 86.95 C 255.56 99.96 245.00 112.48 236.45 126.41 C 232.86 132.50 229.29 138.86 228.05 145.91 C 227.41 148.67 228.79 151.33 229.12 154.04 C 224.60 153.89 224.63 148.35 224.66 145.03 C 225.50 131.18 231.43 118.30 237.34 105.96 C 227.48 97.21 213.41 96.32 200.91 97.61 C 176.86 100.26 154.92 112.35 136.26 127.24 C 120.51 140.06 107.16 156.00 97.94 174.13 C 90.79 188.17 87.32 204.64 91.32 220.14 C 94.43 233.51 104.56 244.59 117.04 249.98 C 130.50 255.82 145.76 255.20 159.87 252.43 C 182.43 247.87 202.30 234.54 217.93 218.01 C 219.99 216.25 222.14 213.12 225.10 213.62 C 226.63 216.19 224.81 219.07 223.10 221.02 C 205.44 241.32 180.07 253.28 154.24 259.33 C 137.53 262.89 119.37 264.45 103.24 257.70 C 88.70 251.65 77.20 238.16 74.87 222.41 C 72.08 202.52 78.18 182.33 88.29 165.30 C 106.60 133.54 137.42 109.94 171.92 98.18 C 189.54 92.14 208.89 90.43 227.08 94.84 C 231.82 95.92 236.19 98.05 240.59 100.06 C 243.40 93.98 246.11 86.79 252.41 83.56 Z" />
<path fill="#1e1a1b" opacity="1.00" d=" M 587.12 85.19 C 595.14 83.12 604.05 83.22 611.83 86.21 C 618.21 88.62 621.47 96.55 618.73 102.76 C 612.29 119.66 603.92 135.74 596.06 152.00 C 585.55 173.86 573.76 195.36 567.33 218.89 C 564.82 228.30 562.85 238.10 563.81 247.89 C 564.20 251.05 565.33 255.36 569.05 255.94 C 573.09 255.53 576.53 252.71 580.64 252.69 C 579.28 256.10 575.63 257.45 572.49 258.69 C 567.60 260.66 561.44 259.04 558.46 254.61 C 554.59 248.89 554.32 241.64 554.43 234.97 C 555.25 219.56 560.31 204.83 563.77 189.93 C 555.73 206.17 546.21 221.76 534.77 235.84 C 529.97 241.32 524.69 247.12 517.51 249.32 C 512.07 250.98 506.75 247.77 503.19 243.90 C 499.63 239.98 496.23 235.46 495.30 230.13 C 494.38 221.45 497.32 212.97 500.75 205.13 C 491.04 218.40 481.13 231.84 468.21 242.20 C 461.87 247.14 454.36 251.60 446.04 251.33 C 439.31 251.16 432.03 249.85 426.97 245.05 C 421.76 240.28 420.16 232.84 420.30 226.03 C 420.51 213.80 425.70 202.33 431.62 191.87 C 437.59 181.77 444.25 171.92 452.74 163.74 C 458.85 157.97 466.36 152.84 475.00 152.34 C 482.23 151.72 489.73 155.25 493.62 161.41 C 496.56 166.04 496.15 172.06 494.08 176.95 C 491.06 184.09 485.14 189.49 479.08 194.07 C 470.58 200.37 460.18 205.31 449.34 204.13 C 449.29 202.45 450.31 201.08 452.02 200.89 C 461.51 197.73 470.94 193.33 477.95 186.01 C 483.55 180.19 486.77 172.15 486.55 164.05 C 486.66 162.54 485.84 160.19 483.94 160.53 C 481.00 160.80 478.50 162.62 476.11 164.19 C 464.97 172.22 455.56 182.53 447.98 193.95 C 442.31 202.65 437.11 211.89 434.47 222.01 C 433.14 227.60 432.40 233.81 434.73 239.23 C 436.42 243.13 441.07 244.62 445.02 243.95 C 456.00 242.57 465.12 235.31 472.75 227.78 C 482.53 218.50 491.24 208.16 500.98 198.87 L 501.94 199.07 C 502.19 199.48 502.69 200.31 502.94 200.72 C 509.80 187.89 518.50 176.02 528.61 165.57 C 534.63 159.72 541.49 154.05 549.86 152.16 C 556.25 150.62 563.17 152.83 568.22 156.85 C 570.21 158.23 570.72 162.20 567.97 162.99 C 565.05 162.70 562.92 160.27 560.14 159.52 C 554.27 160.47 549.77 164.78 545.64 168.74 C 536.18 178.47 528.47 189.72 521.02 201.02 C 515.99 208.90 511.10 216.95 507.75 225.71 C 506.35 229.60 505.04 233.76 505.65 237.94 C 505.78 239.52 507.18 241.04 508.88 240.51 C 513.88 238.42 517.89 234.59 521.93 231.07 C 535.26 218.28 547.11 204.03 558.29 189.35 C 562.41 183.61 566.98 178.15 570.49 172.00 C 581.70 146.59 592.00 120.78 602.45 95.05 C 603.89 92.41 601.90 89.20 599.05 88.81 C 594.30 88.22 589.79 90.69 585.06 90.80 C 581.95 89.44 584.69 85.55 587.12 85.19 Z" />
<path fill="#1e1a1b" opacity="1.00" d=" M 299.59 156.94 C 302.74 148.27 310.76 141.39 319.95 140.04 C 328.44 138.75 337.94 140.62 344.17 146.87 C 348.31 150.74 350.64 156.02 352.68 161.20 C 357.09 162.07 361.70 162.89 365.54 165.37 C 368.30 166.87 367.84 171.68 364.98 172.77 C 362.04 172.67 359.16 171.98 356.27 171.53 C 358.55 191.18 354.57 211.85 343.32 228.32 C 337.23 237.55 328.10 245.49 316.89 247.32 C 308.44 248.52 298.72 247.95 292.08 241.93 C 285.94 236.09 284.67 227.03 284.96 218.97 C 286.04 204.20 291.91 189.57 301.87 178.55 C 298.52 171.97 297.42 164.05 299.59 156.94 M 310.19 154.12 C 305.09 160.03 304.69 168.27 306.22 175.59 C 311.24 172.17 316.07 168.45 321.33 165.38 C 326.17 162.56 331.29 159.64 337.04 159.41 C 335.95 157.13 334.82 154.81 333.00 153.02 C 326.95 146.96 315.29 146.68 310.19 154.12 M 317.43 186.59 C 319.91 188.23 322.80 188.47 325.70 188.39 C 327.32 189.81 325.82 191.97 324.06 192.22 C 320.63 192.84 317.22 191.77 314.18 190.26 C 306.29 199.67 299.20 210.57 297.77 223.04 C 297.32 228.58 297.42 234.70 300.60 239.50 C 303.61 243.92 309.74 244.89 314.60 243.46 C 321.66 241.40 326.76 235.59 330.77 229.73 C 336.61 220.90 341.15 211.16 343.78 200.90 C 345.98 191.34 347.32 180.77 343.17 171.53 C 333.14 173.27 324.47 179.50 317.43 186.59 Z" />
<path fill="#1e1a1b" opacity="1.00" d=" M 382.66 162.67 C 391.55 155.13 402.03 148.22 414.01 147.56 C 416.82 147.17 418.88 149.51 420.89 151.09 C 424.30 154.34 427.88 157.55 430.42 161.55 C 431.11 162.52 430.72 164.36 429.27 164.29 C 424.90 163.46 420.48 162.12 416.00 162.94 C 402.81 164.69 390.61 171.87 381.57 181.46 C 378.02 185.76 373.66 192.84 378.19 197.89 C 386.40 209.24 397.26 218.62 404.12 230.95 C 406.39 234.51 406.29 239.30 403.55 242.59 C 399.38 247.91 393.41 251.76 387.03 253.88 C 380.12 255.98 372.61 255.19 365.78 253.18 C 362.55 251.89 358.44 250.60 357.36 246.87 C 365.73 245.16 374.09 243.09 381.99 239.78 C 385.91 238.05 389.95 235.99 392.54 232.46 C 393.58 230.91 394.44 228.58 393.11 226.96 C 389.27 221.52 383.43 217.96 379.27 212.80 C 372.60 205.20 368.36 195.19 368.88 184.97 C 369.68 175.84 376.05 168.47 382.66 162.67 Z" />
<path fill="#1e1a1b" opacity="1.00" d=" M 176.39 287.41 C 186.68 281.34 199.55 279.91 210.99 283.30 C 224.21 287.24 235.20 296.89 242.43 308.47 C 246.67 314.85 248.58 322.35 251.79 329.24 C 258.06 343.19 268.54 356.03 283.10 361.74 C 300.28 368.63 319.26 366.21 337.09 363.68 C 346.34 362.37 355.63 360.72 365.01 361.01 C 380.76 362.28 396.35 364.88 412.02 366.77 C 440.02 365.13 468.02 363.19 496.02 361.44 C 501.35 361.17 506.70 360.38 512.04 360.95 C 551.04 364.80 590.06 368.41 629.05 372.30 C 632.26 372.54 632.31 377.78 629.10 378.06 C 604.81 381.13 580.45 383.74 556.17 386.89 C 580.07 390.46 604.08 393.40 627.99 396.87 C 631.62 397.33 630.60 403.08 627.11 402.72 C 589.70 405.71 552.29 408.66 514.88 411.63 C 511.62 411.90 508.35 412.32 505.07 412.11 C 476.43 409.77 447.78 407.50 419.15 405.04 C 416.46 404.86 413.78 404.38 411.09 404.67 C 392.78 406.78 374.48 409.24 356.06 410.02 C 346.77 410.41 337.48 409.36 328.44 407.26 C 317.55 404.38 305.98 407.77 296.52 413.33 C 290.53 416.56 284.92 420.95 278.06 422.12 C 272.10 423.26 266.02 421.81 260.51 419.54 C 251.26 415.69 241.78 412.08 231.80 410.68 C 225.54 409.05 219.52 406.55 213.17 405.30 C 216.83 407.31 221.12 408.82 224.44 411.03 C 222.04 412.31 219.44 413.71 218.03 416.23 C 214.19 422.40 212.07 429.59 207.31 435.21 C 201.43 442.69 192.18 446.59 182.99 448.03 C 172.49 449.97 161.33 448.42 151.95 443.26 C 140.72 437.18 132.20 427.31 124.72 417.18 C 121.86 413.22 118.34 409.46 113.60 407.83 C 117.35 404.60 121.69 402.17 125.72 399.34 C 117.75 402.04 110.70 406.71 103.14 410.31 C 95.23 415.12 89.20 422.32 82.14 428.20 C 78.71 430.82 73.38 427.23 74.36 423.07 C 75.36 420.13 77.40 417.70 79.12 415.16 C 90.44 399.68 106.02 387.60 123.12 379.10 C 135.69 372.83 149.84 369.39 163.93 370.50 C 170.33 370.87 176.61 372.29 182.80 373.93 C 175.70 369.23 178.10 359.71 175.79 352.66 C 180.29 355.95 184.75 359.36 189.79 361.79 C 182.80 355.82 176.25 349.31 170.57 342.06 C 163.36 332.12 160.08 319.18 162.47 307.06 C 164.10 298.93 169.25 291.63 176.39 287.41 M 177.27 298.35 C 171.12 304.55 169.04 313.99 170.83 322.40 C 175.01 342.88 196.24 358.55 217.09 355.91 C 226.61 354.77 235.49 348.26 238.49 339.00 C 239.51 336.72 239.13 334.00 240.34 331.82 C 242.42 336.97 244.66 342.10 247.70 346.77 C 243.45 337.59 241.57 327.56 237.70 318.25 C 231.69 302.91 216.54 291.48 200.05 290.31 C 191.82 289.76 183.07 292.27 177.27 298.35 M 266.07 358.62 C 275.07 366.89 287.55 370.43 299.60 370.11 C 299.57 370.01 299.52 369.81 299.49 369.71 C 287.52 368.82 275.34 365.00 266.30 356.84 C 261.82 353.02 258.68 348.00 255.32 343.25 C 257.93 348.97 261.32 354.43 266.07 358.62 M 198.55 370.79 C 195.01 373.09 191.18 375.09 186.91 375.53 C 191.29 376.66 195.40 378.55 199.56 380.29 C 216.21 387.39 232.56 395.40 250.03 400.34 C 256.54 402.12 263.29 403.49 270.08 403.00 C 285.27 401.84 300.26 397.70 313.70 390.48 C 293.78 382.76 276.22 369.37 255.17 364.45 C 244.94 362.09 234.28 361.14 223.85 362.68 C 215.07 363.91 206.07 365.84 198.55 370.79 M 350.03 366.13 C 340.09 367.50 330.16 369.10 320.19 370.28 C 312.75 372.75 305.50 375.82 298.10 378.41 C 303.29 381.16 308.45 384.11 314.05 385.97 C 310.53 383.68 306.82 381.55 304.01 378.38 C 309.61 381.72 315.58 384.66 322.08 385.74 C 329.23 382.76 335.90 378.69 343.12 375.84 C 353.20 371.75 364.06 369.54 374.94 369.44 C 360.28 367.35 345.43 369.56 330.90 371.61 C 336.64 369.21 342.82 367.96 348.93 366.84 C 351.93 366.82 354.81 366.10 357.71 365.39 C 355.12 365.30 352.50 365.27 350.03 366.13 M 524.29 366.46 C 530.36 367.23 536.30 368.88 542.42 369.21 L 543.18 370.61 C 542.33 370.57 540.65 370.48 539.80 370.43 C 530.19 369.44 520.57 368.56 510.97 367.44 C 507.28 366.96 503.62 367.93 499.95 368.21 C 475.35 370.78 450.67 373.13 425.92 373.46 C 433.13 371.77 440.54 371.22 447.85 370.13 C 456.15 369.35 464.38 367.63 472.72 367.60 C 471.78 366.72 470.14 367.57 468.97 367.42 C 444.29 369.08 419.60 370.65 394.92 372.22 C 374.81 374.79 354.71 378.93 335.97 386.81 C 340.53 382.64 346.52 380.55 352.05 377.98 C 354.09 376.75 356.80 377.24 358.66 375.76 C 358.02 374.61 355.77 375.47 355.09 376.43 C 346.73 378.47 338.84 382.13 331.38 386.35 C 327.59 390.20 324.35 394.56 320.83 398.65 C 326.18 398.96 331.42 400.39 336.29 402.61 C 334.52 401.85 333.48 402.24 333.16 403.79 C 351.12 408.05 369.61 404.28 387.67 403.47 C 387.67 403.23 387.67 402.76 387.67 402.53 C 381.49 403.02 375.10 403.54 368.86 402.55 C 381.13 400.59 393.47 398.84 405.89 398.15 C 405.99 391.42 405.61 384.64 406.08 377.94 C 407.95 385.34 409.30 392.85 410.95 400.29 C 426.01 398.68 441.02 396.54 456.09 394.86 C 463.66 393.99 471.21 392.60 478.85 392.52 C 480.46 392.15 482.05 391.67 483.70 391.40 C 481.18 391.42 478.55 391.07 476.21 392.20 C 460.13 392.94 444.11 394.72 428.03 395.36 C 446.29 391.96 464.77 389.64 483.19 387.26 C 484.77 387.61 486.24 386.85 487.72 386.39 C 479.12 386.83 470.49 387.64 461.85 387.43 C 465.42 386.34 469.17 386.15 472.85 385.60 C 512.02 379.88 551.44 376.16 590.89 373.03 C 580.96 371.65 570.91 371.06 560.93 370.04 C 548.75 368.51 536.54 367.33 524.29 366.46 M 157.56 377.81 C 146.95 379.70 136.76 387.14 134.17 397.97 C 131.80 406.90 134.98 416.48 140.69 423.48 C 149.37 434.19 163.32 440.12 177.02 439.78 C 186.47 439.46 196.29 435.85 202.36 428.34 C 207.68 421.90 209.29 412.78 206.79 404.85 C 204.74 397.35 199.34 391.36 193.48 386.53 C 183.54 378.63 170.01 375.33 157.56 377.81 M 91.92 406.93 C 100.84 400.00 110.09 393.45 119.96 387.90 C 125.20 384.60 130.98 382.21 136.00 378.58 C 119.47 384.44 102.98 392.92 91.92 406.93 M 446.90 400.39 C 454.15 401.40 461.73 400.95 468.77 402.83 C 461.24 403.11 453.69 403.15 446.17 402.60 C 446.24 402.75 446.39 403.03 446.46 403.17 C 466.67 404.49 486.84 406.51 507.05 407.87 C 516.05 407.39 525.02 406.39 534.02 405.87 C 540.58 405.59 547.07 404.21 553.65 404.61 L 553.66 404.39 C 537.47 404.22 521.28 405.43 505.08 405.20 C 519.35 403.51 533.72 402.65 548.05 401.45 C 550.76 400.97 553.87 402.52 556.22 400.56 C 547.51 400.66 538.76 401.33 530.04 400.58 C 547.99 398.47 566.03 397.15 583.98 395.19 C 569.97 393.10 555.89 391.37 541.87 389.30 C 539.55 388.91 537.20 389.05 534.89 389.38 C 505.57 393.11 476.19 396.43 446.90 400.39 M 287.99 406.10 C 271.23 410.72 253.20 408.80 237.19 402.35 C 252.68 410.61 271.35 412.42 288.21 407.62 C 296.61 405.42 304.33 401.36 311.92 397.25 C 303.93 400.16 296.33 404.17 287.99 406.10 M 324.09 402.43 C 327.03 402.25 329.84 403.21 332.67 403.87 C 332.52 403.35 332.21 402.30 332.05 401.77 C 329.41 402.20 326.69 401.66 324.09 402.43 Z" />
<path fill="#1e1a1b" opacity="1.00" d=" M 396.11 373.75 C 401.41 373.27 406.78 372.50 412.09 373.45 C 394.53 376.67 376.84 379.20 359.13 381.44 C 370.88 376.78 383.61 375.11 396.11 373.75 Z" />
<path fill="#1e1a1b" opacity="1.00" d=" M 371.50 383.75 C 376.13 380.92 382.51 385.69 381.31 390.92 C 380.72 395.69 374.49 398.24 370.70 395.31 C 366.57 392.66 367.08 385.83 371.50 383.75 M 370.03 389.96 C 371.20 388.60 372.08 386.70 374.06 386.43 C 376.16 385.99 377.65 387.87 379.17 388.98 C 378.76 386.52 376.68 384.28 374.00 384.83 C 371.37 384.91 369.95 387.59 370.03 389.96 Z" />
</g>
<g id="#ffffffff">
<path fill="#ffffff" opacity="1.00" d=" M 80.49 52.61 C 83.60 51.88 86.79 51.51 89.98 51.52 C 265.66 51.53 441.33 51.53 617.01 51.52 C 622.29 51.50 627.56 52.53 632.46 54.51 C 647.55 60.41 658.29 75.84 658.35 92.08 C 658.37 205.07 658.35 318.05 658.36 431.03 C 658.47 443.78 652.18 456.31 641.99 463.95 C 635.12 469.18 626.57 472.22 617.93 472.35 C 444.96 472.35 271.99 472.35 99.02 472.35 C 92.00 472.31 84.79 472.85 78.02 470.60 C 60.94 465.67 48.29 448.75 48.64 430.94 C 48.65 317.97 48.62 205.00 48.66 92.04 C 48.66 73.65 62.57 56.57 80.49 52.61 M 86.26 56.35 C 68.38 57.74 53.31 74.01 53.33 91.95 C 53.29 204.97 53.32 317.99 53.31 431.01 C 53.22 440.18 56.82 449.29 63.06 455.99 C 69.67 463.17 79.26 467.56 89.03 467.68 C 265.03 467.70 441.04 467.68 617.04 467.69 C 627.61 467.83 638.07 462.97 644.90 454.92 C 650.55 448.34 653.77 439.70 653.69 431.02 C 653.68 318.01 653.71 205.00 653.67 92.00 C 653.77 73.07 636.93 56.10 617.98 56.21 C 482.31 56.19 346.64 56.21 210.97 56.20 C 169.40 56.30 127.82 56.01 86.26 56.35 Z" />
<path fill="#ffffff" opacity="1.00" d=" M 87.40 60.58 C 252.93 60.36 418.46 60.55 584.00 60.49 C 595.86 60.55 607.74 60.36 619.61 60.58 C 635.63 61.53 649.35 75.96 649.37 92.03 C 649.43 204.70 649.37 317.37 649.40 430.04 C 649.56 436.96 647.55 443.93 643.54 449.59 C 637.65 458.11 627.44 463.47 617.07 463.40 C 445.71 463.38 274.36 463.39 103.01 463.39 C 94.70 463.11 85.98 464.48 78.10 461.13 C 66.30 456.63 57.81 444.66 57.65 432.00 C 57.64 322.67 57.65 213.34 57.65 104.00 C 57.85 96.66 56.80 89.03 59.48 82.00 C 63.53 70.21 74.95 61.43 87.40 60.58 M 289.59 80.44 C 282.65 88.73 277.77 98.50 273.17 108.22 C 259.84 136.51 250.22 166.45 243.43 196.94 C 241.00 208.59 238.64 220.51 239.82 232.46 C 240.47 237.77 241.68 243.50 245.65 247.39 C 249.92 251.48 256.47 251.16 261.81 249.86 C 264.53 249.37 266.69 246.54 265.25 243.85 C 262.09 244.28 258.49 246.97 255.60 244.40 C 252.50 241.51 252.08 236.94 251.66 232.97 C 250.95 218.83 253.25 204.75 256.11 190.95 C 256.46 189.47 256.61 187.82 257.71 186.66 C 274.46 166.94 290.96 146.93 305.55 125.54 C 311.92 115.92 318.30 106.10 322.15 95.15 C 323.68 90.52 325.10 84.64 321.37 80.65 C 316.43 75.39 309.20 71.87 301.90 72.28 C 296.76 72.85 292.87 76.77 289.59 80.44 M 334.96 81.91 C 335.32 85.94 335.37 90.03 334.42 93.99 C 331.36 106.69 323.91 117.64 317.46 128.78 C 322.96 127.97 328.55 128.15 334.03 129.02 C 339.06 120.06 344.00 110.45 344.39 99.98 C 344.69 92.76 340.43 86.26 334.96 81.91 M 252.41 83.56 C 246.11 86.79 243.40 93.98 240.59 100.06 C 236.19 98.05 231.82 95.92 227.08 94.84 C 208.89 90.43 189.54 92.14 171.92 98.18 C 137.42 109.94 106.60 133.54 88.29 165.30 C 78.18 182.33 72.08 202.52 74.87 222.41 C 77.20 238.16 88.70 251.65 103.24 257.70 C 119.37 264.45 137.53 262.89 154.24 259.33 C 180.07 253.28 205.44 241.32 223.10 221.02 C 224.81 219.07 226.63 216.19 225.10 213.62 C 222.14 213.12 219.99 216.25 217.93 218.01 C 202.30 234.54 182.43 247.87 159.87 252.43 C 145.76 255.20 130.50 255.82 117.04 249.98 C 104.56 244.59 94.43 233.51 91.32 220.14 C 87.32 204.64 90.79 188.17 97.94 174.13 C 107.16 156.00 120.51 140.06 136.26 127.24 C 154.92 112.35 176.86 100.26 200.91 97.61 C 213.41 96.32 227.48 97.21 237.34 105.96 C 231.43 118.30 225.50 131.18 224.66 145.03 C 224.63 148.35 224.60 153.89 229.12 154.04 C 228.79 151.33 227.41 148.67 228.05 145.91 C 229.29 138.86 232.86 132.50 236.45 126.41 C 245.00 112.48 255.56 99.96 265.40 86.95 C 262.79 82.64 256.75 83.10 252.41 83.56 M 587.12 85.19 C 584.69 85.55 581.95 89.44 585.06 90.80 C 589.79 90.69 594.30 88.22 599.05 88.81 C 601.90 89.20 603.89 92.41 602.45 95.05 C 592.00 120.78 581.70 146.59 570.49 172.00 C 566.98 178.15 562.41 183.61 558.29 189.35 C 547.11 204.03 535.26 218.28 521.93 231.07 C 517.89 234.59 513.88 238.42 508.88 240.51 C 507.18 241.04 505.78 239.52 505.65 237.94 C 505.04 233.76 506.35 229.60 507.75 225.71 C 511.10 216.95 515.99 208.90 521.02 201.02 C 528.47 189.72 536.18 178.47 545.64 168.74 C 549.77 164.78 554.27 160.47 560.14 159.52 C 562.92 160.27 565.05 162.70 567.97 162.99 C 570.72 162.20 570.21 158.23 568.22 156.85 C 563.17 152.83 556.25 150.62 549.86 152.16 C 541.49 154.05 534.63 159.72 528.61 165.57 C 518.50 176.02 509.80 187.89 502.94 200.72 C 502.69 200.31 502.19 199.48 501.94 199.07 L 500.98 198.87 C 491.24 208.16 482.53 218.50 472.75 227.78 C 465.12 235.31 456.00 242.57 445.02 243.95 C 441.07 244.62 436.42 243.13 434.73 239.23 C 432.40 233.81 433.14 227.60 434.47 222.01 C 437.11 211.89 442.31 202.65 447.98 193.95 C 455.56 182.53 464.97 172.22 476.11 164.19 C 478.50 162.62 481.00 160.80 483.94 160.53 C 485.84 160.19 486.66 162.54 486.55 164.05 C 486.77 172.15 483.55 180.19 477.95 186.01 C 470.94 193.33 461.51 197.73 452.02 200.89 C 450.31 201.08 449.29 202.45 449.34 204.13 C 460.18 205.31 470.58 200.37 479.08 194.07 C 485.14 189.49 491.06 184.09 494.08 176.95 C 496.15 172.06 496.56 166.04 493.62 161.41 C 489.73 155.25 482.23 151.72 475.00 152.34 C 466.36 152.84 458.85 157.97 452.74 163.74 C 444.25 171.92 437.59 181.77 431.62 191.87 C 425.70 202.33 420.51 213.80 420.30 226.03 C 420.16 232.84 421.76 240.28 426.97 245.05 C 432.03 249.85 439.31 251.16 446.04 251.33 C 454.36 251.60 461.87 247.14 468.21 242.20 C 481.13 231.84 491.04 218.40 500.75 205.13 C 497.32 212.97 494.38 221.45 495.30 230.13 C 496.23 235.46 499.63 239.98 503.19 243.90 C 506.75 247.77 512.07 250.98 517.51 249.32 C 524.69 247.12 529.97 241.32 534.77 235.84 C 546.21 221.76 555.73 206.17 563.77 189.93 C 560.31 204.83 555.25 219.56 554.43 234.97 C 554.32 241.64 554.59 248.89 558.46 254.61 C 561.44 259.04 567.60 260.66 572.49 258.69 C 575.63 257.45 579.28 256.10 580.64 252.69 C 576.53 252.71 573.09 255.53 569.05 255.94 C 565.33 255.36 564.20 251.05 563.81 247.89 C 562.85 238.10 564.82 228.30 567.33 218.89 C 573.76 195.36 585.55 173.86 596.06 152.00 C 603.92 135.74 612.29 119.66 618.73 102.76 C 621.47 96.55 618.21 88.62 611.83 86.21 C 604.05 83.22 595.14 83.12 587.12 85.19 M 630.57 91.60 C 630.85 95.51 631.76 99.51 630.53 103.35 C 628.04 111.74 624.13 119.62 620.58 127.59 C 611.06 147.93 600.86 167.94 591.18 188.20 C 583.54 205.12 576.25 222.75 574.97 241.48 C 578.50 241.05 582.17 240.96 585.45 242.58 C 591.36 216.72 604.13 193.28 615.63 169.62 C 623.60 153.11 632.06 136.79 638.58 119.65 C 642.63 109.98 639.25 97.58 630.57 91.60 M 581.43 101.81 C 581.50 104.60 582.17 107.45 584.02 109.63 C 585.23 107.31 586.20 104.87 586.98 102.37 C 585.12 102.18 583.27 101.99 581.43 101.81 M 160.98 123.87 C 143.61 134.25 128.32 148.21 116.79 164.87 C 108.11 177.54 100.52 192.20 101.18 207.99 C 101.30 217.36 104.71 227.32 112.25 233.28 C 111.45 229.22 110.27 225.19 110.30 221.02 C 109.71 209.74 113.68 198.80 118.94 189.01 C 127.97 172.52 140.70 158.16 155.53 146.66 C 173.62 132.89 195.08 121.84 218.26 121.34 C 219.53 117.70 220.94 114.12 222.59 110.64 C 218.67 108.83 214.26 108.71 210.02 108.58 C 192.57 108.57 175.77 114.98 160.98 123.87 M 240.02 145.04 C 238.91 147.34 240.17 149.73 240.45 152.05 C 241.32 157.61 237.44 163.35 232.04 164.81 C 229.02 165.87 225.85 164.98 222.81 164.60 C 223.89 171.32 229.00 177.50 236.08 178.11 C 241.24 159.07 247.04 140.17 254.70 121.98 C 255.22 120.70 255.60 119.37 255.97 118.04 C 249.88 126.52 243.59 135.14 240.02 145.04 M 299.59 156.94 C 297.42 164.05 298.52 171.97 301.87 178.55 C 291.91 189.57 286.04 204.20 284.96 218.97 C 284.67 227.03 285.94 236.09 292.08 241.93 C 298.72 247.95 308.44 248.52 316.89 247.32 C 328.10 245.49 337.23 237.55 343.32 228.32 C 354.57 211.85 358.55 191.18 356.27 171.53 C 359.16 171.98 362.04 172.67 364.98 172.77 C 367.84 171.68 368.30 166.87 365.54 165.37 C 361.70 162.89 357.09 162.07 352.68 161.20 C 350.64 156.02 348.31 150.74 344.17 146.87 C 337.94 140.62 328.44 138.75 319.95 140.04 C 310.76 141.39 302.74 148.27 299.59 156.94 M 382.66 162.67 C 376.05 168.47 369.68 175.84 368.88 184.97 C 368.36 195.19 372.60 205.20 379.27 212.80 C 383.43 217.96 389.27 221.52 393.11 226.96 C 394.44 228.58 393.58 230.91 392.54 232.46 C 389.95 235.99 385.91 238.05 381.99 239.78 C 374.09 243.09 365.73 245.16 357.36 246.87 C 358.44 250.60 362.55 251.89 365.78 253.18 C 372.61 255.19 380.12 255.98 387.03 253.88 C 393.41 251.76 399.38 247.91 403.55 242.59 C 406.29 239.30 406.39 234.51 404.12 230.95 C 397.26 218.62 386.40 209.24 378.19 197.89 C 373.66 192.84 378.02 185.76 381.57 181.46 C 390.61 171.87 402.81 164.69 416.00 162.94 C 420.48 162.12 424.90 163.46 429.27 164.29 C 430.72 164.36 431.11 162.52 430.42 161.55 C 427.88 157.55 424.30 154.34 420.89 151.09 C 418.88 149.51 416.82 147.17 414.01 147.56 C 402.03 148.22 391.55 155.13 382.66 162.67 M 506.50 161.54 C 506.93 165.35 507.31 169.16 507.23 173.00 C 508.79 171.03 510.31 169.03 511.81 167.00 C 510.26 164.98 508.63 162.97 506.50 161.54 M 270.80 188.91 C 269.31 190.77 267.26 192.45 266.97 194.98 C 264.58 207.32 262.38 219.92 263.20 232.53 C 266.35 232.53 269.40 233.42 272.17 234.92 C 272.53 230.26 273.31 225.64 273.47 220.97 C 273.54 207.47 278.05 194.30 284.67 182.65 C 285.84 180.42 287.70 178.53 288.49 176.13 C 288.23 173.85 287.68 171.62 287.22 169.39 C 281.53 175.71 276.41 182.52 270.80 188.91 M 398.14 182.19 C 394.39 184.90 390.31 187.76 388.24 192.02 C 391.04 196.17 394.47 199.88 397.82 203.60 C 403.65 196.47 411.79 191.46 420.40 188.36 C 422.79 184.11 425.42 179.99 428.05 175.88 C 417.75 171.83 406.68 176.22 398.14 182.19 M 363.98 211.78 C 360.91 220.70 356.86 229.35 351.21 236.95 C 356.65 235.00 362.41 234.22 367.95 232.62 C 371.96 232.10 371.46 227.09 373.52 224.49 C 375.01 226.23 375.93 230.50 378.97 228.88 C 375.78 225.45 372.17 222.42 369.28 218.71 C 367.38 216.50 366.07 213.83 363.98 211.78 M 448.88 215.71 C 446.46 220.94 444.63 226.58 444.66 232.40 C 448.42 231.87 451.74 229.95 454.88 227.91 C 461.44 223.35 467.14 217.57 472.40 211.59 C 464.83 214.21 456.99 216.42 448.88 215.71 M 225.79 234.77 C 213.51 246.95 198.39 256.00 182.40 262.42 C 161.14 270.87 137.87 275.99 114.96 272.84 C 101.39 270.96 88.88 264.36 78.95 255.05 C 82.09 261.49 87.07 266.87 92.43 271.54 C 104.15 281.59 119.69 286.39 134.99 286.57 C 155.28 287.00 175.36 282.00 194.01 274.25 C 208.26 268.31 221.62 260.10 232.96 249.59 C 230.50 244.37 228.80 238.79 228.47 233.00 C 227.47 233.42 226.53 233.97 225.79 234.77 M 452.94 262.25 C 439.02 264.26 422.85 260.45 414.56 248.24 C 414.29 248.30 413.76 248.42 413.50 248.48 C 407.13 256.93 397.74 263.14 387.44 265.60 C 376.62 267.85 365.17 265.98 355.27 261.21 C 355.62 265.92 358.66 269.92 362.45 272.52 C 369.06 277.06 377.14 278.88 385.05 279.31 C 399.87 280.35 414.66 272.56 423.12 260.55 C 425.90 263.86 428.65 267.31 432.42 269.56 C 440.85 274.78 451.21 276.29 460.96 275.23 C 475.24 273.05 486.47 263.01 496.37 253.22 C 492.57 249.60 489.47 245.33 486.85 240.80 C 477.23 250.12 466.54 259.72 452.94 262.25 M 327.03 256.29 C 313.81 261.22 298.07 260.33 286.21 252.33 C 289.85 263.24 300.83 270.20 311.89 271.57 C 326.30 273.88 341.69 269.30 352.14 259.05 C 350.12 256.92 347.95 254.76 346.93 251.95 C 345.80 249.21 346.20 246.18 346.25 243.31 C 340.63 248.68 334.44 253.65 327.03 256.29 M 534.51 252.45 C 528.10 258.01 519.68 262.38 510.95 260.95 C 505.41 260.25 500.82 256.87 496.46 253.65 C 497.67 257.34 500.36 260.25 502.77 263.21 C 507.85 269.07 514.95 274.01 523.00 273.94 C 532.67 274.23 541.09 268.21 547.58 261.61 C 549.06 260.61 547.59 259.08 547.16 257.96 C 544.79 253.74 544.05 248.89 543.16 244.20 C 540.01 246.66 537.64 249.96 534.51 252.45 M 277.38 245.90 C 276.89 251.05 274.40 256.18 269.73 258.73 C 260.64 263.60 249.04 263.29 240.19 258.00 C 243.24 266.90 251.30 274.14 260.89 274.78 C 269.26 275.43 279.53 274.09 284.27 266.22 C 288.74 259.15 285.72 248.37 277.38 245.90 M 575.74 269.65 C 568.83 272.19 561.09 270.73 554.86 267.12 C 557.15 275.33 564.33 281.97 572.79 283.35 C 579.77 284.82 586.88 282.43 592.81 278.81 C 597.20 276.06 601.00 271.41 600.86 265.98 C 601.22 260.55 597.03 255.59 591.84 254.40 C 590.55 262.51 582.97 267.35 575.74 269.65 M 176.39 287.41 C 169.25 291.63 164.10 298.93 162.47 307.06 C 160.08 319.18 163.36 332.12 170.57 342.06 C 176.25 349.31 182.80 355.82 189.79 361.79 C 184.75 359.36 180.29 355.95 175.79 352.66 C 178.10 359.71 175.70 369.23 182.80 373.93 C 176.61 372.29 170.33 370.87 163.93 370.50 C 149.84 369.39 135.69 372.83 123.12 379.10 C 106.02 387.60 90.44 399.68 79.12 415.16 C 77.40 417.70 75.36 420.13 74.36 423.07 C 73.38 427.23 78.71 430.82 82.14 428.20 C 89.20 422.32 95.23 415.12 103.14 410.31 C 110.70 406.71 117.75 402.04 125.72 399.34 C 121.69 402.17 117.35 404.60 113.60 407.83 C 118.34 409.46 121.86 413.22 124.72 417.18 C 132.20 427.31 140.72 437.18 151.95 443.26 C 161.33 448.42 172.49 449.97 182.99 448.03 C 192.18 446.59 201.43 442.69 207.31 435.21 C 212.07 429.59 214.19 422.40 218.03 416.23 C 219.44 413.71 222.04 412.31 224.44 411.03 C 221.12 408.82 216.83 407.31 213.17 405.30 C 219.52 406.55 225.54 409.05 231.80 410.68 C 241.78 412.08 251.26 415.69 260.51 419.54 C 266.02 421.81 272.10 423.26 278.06 422.12 C 284.92 420.95 290.53 416.56 296.52 413.33 C 305.98 407.77 317.55 404.38 328.44 407.26 C 337.48 409.36 346.77 410.41 356.06 410.02 C 374.48 409.24 392.78 406.78 411.09 404.67 C 413.78 404.38 416.46 404.86 419.15 405.04 C 447.78 407.50 476.43 409.77 505.07 412.11 C 508.35 412.32 511.62 411.90 514.88 411.63 C 552.29 408.66 589.70 405.71 627.11 402.72 C 630.60 403.08 631.62 397.33 627.99 396.87 C 604.08 393.40 580.07 390.46 556.17 386.89 C 580.45 383.74 604.81 381.13 629.10 378.06 C 632.31 377.78 632.26 372.54 629.05 372.30 C 590.06 368.41 551.04 364.80 512.04 360.95 C 506.70 360.38 501.35 361.17 496.02 361.44 C 468.02 363.19 440.02 365.13 412.02 366.77 C 396.35 364.88 380.76 362.28 365.01 361.01 C 355.63 360.72 346.34 362.37 337.09 363.68 C 319.26 366.21 300.28 368.63 283.10 361.74 C 268.54 356.03 258.06 343.19 251.79 329.24 C 248.58 322.35 246.67 314.85 242.43 308.47 C 235.20 296.89 224.21 287.24 210.99 283.30 C 199.55 279.91 186.68 281.34 176.39 287.41 Z" />
<path fill="#ffffff" opacity="1.00" d=" M 303.75 88.82 C 306.55 85.82 309.73 82.23 314.13 82.03 C 316.45 82.32 316.31 85.33 316.14 87.06 C 315.03 94.96 311.12 102.07 307.47 109.04 C 296.73 128.25 283.80 146.12 270.79 163.83 C 266.91 168.88 263.33 174.17 259.17 179.00 C 265.38 159.62 273.45 140.86 282.76 122.77 C 288.96 111.01 295.11 99.02 303.75 88.82 Z" />
<path fill="#ffffff" opacity="1.00" d=" M 310.19 154.12 C 315.29 146.68 326.95 146.96 333.00 153.02 C 334.82 154.81 335.95 157.13 337.04 159.41 C 331.29 159.64 326.17 162.56 321.33 165.38 C 316.07 168.45 311.24 172.17 306.22 175.59 C 304.69 168.27 305.09 160.03 310.19 154.12 Z" />
<path fill="#ffffff" opacity="1.00" d=" M 317.43 186.59 C 324.47 179.50 333.14 173.27 343.17 171.53 C 347.32 180.77 345.98 191.34 343.78 200.90 C 341.15 211.16 336.61 220.90 330.77 229.73 C 326.76 235.59 321.66 241.40 314.60 243.46 C 309.74 244.89 303.61 243.92 300.60 239.50 C 297.42 234.70 297.32 228.58 297.77 223.04 C 299.20 210.57 306.29 199.67 314.18 190.26 C 317.22 191.77 320.63 192.84 324.06 192.22 C 325.82 191.97 327.32 189.81 325.70 188.39 C 322.80 188.47 319.91 188.23 317.43 186.59 M 318.05 203.76 C 312.96 211.18 308.35 219.76 309.14 229.07 C 309.38 230.23 308.92 232.92 310.92 232.57 C 315.39 231.47 318.29 227.43 320.87 223.90 C 325.42 217.01 329.33 209.56 331.55 201.59 C 327.35 203.69 322.66 203.99 318.05 203.76 Z" />
<path fill="#ffffff" opacity="1.00" d=" M 177.27 298.35 C 183.07 292.27 191.82 289.76 200.05 290.31 C 216.54 291.48 231.69 302.91 237.70 318.25 C 241.57 327.56 243.45 337.59 247.70 346.77 C 244.66 342.10 242.42 336.97 240.34 331.82 C 239.13 334.00 239.51 336.72 238.49 339.00 C 235.49 348.26 226.61 354.77 217.09 355.91 C 196.24 358.55 175.01 342.88 170.83 322.40 C 169.04 313.99 171.12 304.55 177.27 298.35 Z" />
<path fill="#ffffff" opacity="1.00" d=" M 266.07 358.62 C 261.32 354.43 257.93 348.97 255.32 343.25 C 258.68 348.00 261.82 353.02 266.30 356.84 C 275.34 365.00 287.52 368.82 299.49 369.71 C 299.52 369.81 299.57 370.01 299.60 370.11 C 287.55 370.43 275.07 366.89 266.07 358.62 Z" />
<path fill="#ffffff" opacity="1.00" d=" M 198.55 370.79 C 206.07 365.84 215.07 363.91 223.85 362.68 C 234.28 361.14 244.94 362.09 255.17 364.45 C 276.22 369.37 293.78 382.76 313.70 390.48 C 300.26 397.70 285.27 401.84 270.08 403.00 C 263.29 403.49 256.54 402.12 250.03 400.34 C 232.56 395.40 216.21 387.39 199.56 380.29 C 195.40 378.55 191.29 376.66 186.91 375.53 C 191.18 375.09 195.01 373.09 198.55 370.79 Z" />
<path fill="#ffffff" opacity="1.00" d=" M 350.03 366.13 C 352.50 365.27 355.12 365.30 357.71 365.39 C 354.81 366.10 351.93 366.82 348.93 366.84 C 342.82 367.96 336.64 369.21 330.90 371.61 C 345.43 369.56 360.28 367.35 374.94 369.44 C 364.06 369.54 353.20 371.75 343.12 375.84 C 335.90 378.69 329.23 382.76 322.08 385.74 C 315.58 384.66 309.61 381.72 304.01 378.38 C 306.82 381.55 310.53 383.68 314.05 385.97 C 308.45 384.11 303.29 381.16 298.10 378.41 C 305.50 375.82 312.75 372.75 320.19 370.28 C 330.16 369.10 340.09 367.50 350.03 366.13 Z" />
<path fill="#ffffff" opacity="1.00" d=" M 394.92 372.22 C 419.60 370.65 444.29 369.08 468.97 367.42 C 470.14 367.57 471.78 366.72 472.72 367.60 C 464.38 367.63 456.15 369.35 447.85 370.13 C 440.54 371.22 433.13 371.77 425.92 373.46 C 450.67 373.13 475.35 370.78 499.95 368.21 C 503.62 367.93 507.28 366.96 510.97 367.44 C 520.57 368.56 530.19 369.44 539.80 370.43 C 545.60 371.07 551.41 372.66 557.26 371.70 C 555.42 371.16 553.40 370.92 551.90 369.64 C 554.91 369.65 557.92 369.86 560.93 370.04 C 570.91 371.06 580.96 371.65 590.89 373.03 C 551.44 376.16 512.02 379.88 472.85 385.60 C 469.17 386.15 465.42 386.34 461.85 387.43 C 470.49 387.64 479.12 386.83 487.72 386.39 C 486.24 386.85 484.77 387.61 483.19 387.26 C 464.77 389.64 446.29 391.96 428.03 395.36 C 444.11 394.72 460.13 392.94 476.21 392.20 C 478.55 391.07 481.18 391.42 483.70 391.40 C 482.05 391.67 480.46 392.15 478.85 392.52 C 471.21 392.60 463.66 393.99 456.09 394.86 C 441.02 396.54 426.01 398.68 410.95 400.29 C 409.30 392.85 407.95 385.34 406.08 377.94 C 405.61 384.64 405.99 391.42 405.89 398.15 C 393.47 398.84 381.13 400.59 368.86 402.55 C 375.10 403.54 381.49 403.02 387.67 402.53 C 387.67 402.76 387.67 403.23 387.67 403.47 C 369.61 404.28 351.12 408.05 333.16 403.79 C 333.48 402.24 334.52 401.85 336.29 402.61 C 331.42 400.39 326.18 398.96 320.83 398.65 C 324.35 394.56 327.59 390.20 331.38 386.35 C 338.84 382.13 346.73 378.47 355.09 376.43 C 355.77 375.47 358.02 374.61 358.66 375.76 C 356.80 377.24 354.09 376.75 352.05 377.98 C 346.52 380.55 340.53 382.64 335.97 386.81 C 354.71 378.93 374.81 374.79 394.92 372.22 M 396.11 373.75 C 383.61 375.11 370.88 376.78 359.13 381.44 C 376.84 379.20 394.53 376.67 412.09 373.45 C 406.78 372.50 401.41 373.27 396.11 373.75 M 371.50 383.75 C 367.08 385.83 366.57 392.66 370.70 395.31 C 374.49 398.24 380.72 395.69 381.31 390.92 C 382.51 385.69 376.13 380.92 371.50 383.75 Z" />
<path fill="#ffffff" opacity="1.00" d=" M 157.56 377.81 C 170.01 375.33 183.54 378.63 193.48 386.53 C 199.34 391.36 204.74 397.35 206.79 404.85 C 209.29 412.78 207.68 421.90 202.36 428.34 C 196.29 435.85 186.47 439.46 177.02 439.78 C 163.32 440.12 149.37 434.19 140.69 423.48 C 134.98 416.48 131.80 406.90 134.17 397.97 C 136.76 387.14 146.95 379.70 157.56 377.81 Z" />
<path fill="#ffffff" opacity="1.00" d=" M 91.92 406.93 C 102.98 392.92 119.47 384.44 136.00 378.58 C 130.98 382.21 125.20 384.60 119.96 387.90 C 110.09 393.45 100.84 400.00 91.92 406.93 Z" />
<path fill="#ffffff" opacity="1.00" d=" M 370.03 389.96 C 369.95 387.59 371.37 384.91 374.00 384.83 C 376.68 384.28 378.76 386.52 379.17 388.98 C 377.65 387.87 376.16 385.99 374.06 386.43 C 372.08 386.70 371.20 388.60 370.03 389.96 Z" />
<path fill="#ffffff" opacity="1.00" d=" M 446.90 400.39 C 476.19 396.43 505.57 393.11 534.89 389.38 C 537.20 389.05 539.55 388.91 541.87 389.30 C 555.89 391.37 569.97 393.10 583.98 395.19 C 566.03 397.15 547.99 398.47 530.04 400.58 C 538.76 401.33 547.51 400.66 556.22 400.56 C 553.87 402.52 550.76 400.97 548.05 401.45 C 533.72 402.65 519.35 403.51 505.08 405.20 C 521.28 405.43 537.47 404.22 553.66 404.39 L 553.65 404.61 C 547.07 404.21 540.58 405.59 534.02 405.87 C 525.02 406.39 516.05 407.39 507.05 407.87 C 486.84 406.51 466.67 404.49 446.46 403.17 C 446.39 403.03 446.24 402.75 446.17 402.60 C 453.69 403.15 461.24 403.11 468.77 402.83 C 461.73 400.95 454.15 401.40 446.90 400.39 Z" />
<path fill="#ffffff" opacity="1.00" d=" M 287.99 406.10 C 296.33 404.17 303.93 400.16 311.92 397.25 C 304.33 401.36 296.61 405.42 288.21 407.62 C 271.35 412.42 252.68 410.61 237.19 402.35 C 253.20 408.80 271.23 410.72 287.99 406.10 Z" />
<path fill="#ffffff" opacity="1.00" d=" M 324.09 402.43 C 326.69 401.66 329.41 402.20 332.05 401.77 C 332.21 402.30 332.52 403.35 332.67 403.87 C 329.84 403.21 327.03 402.25 324.09 402.43 Z" />
</g>
</svg>
